<svg width="74" height="79" viewBox="0 0 74 79" fill="none" xmlns="http://www.w3.org/2000/svg">
<path d="M38.7877 1.13222C22.7069 13.6688 21.4213 24.2035 34.931 32.7363C50.1548 27.2228 51.4404 16.6881 38.7877 1.13222Z" fill="white"/>
<path d="M38.0631 54.8692C49.1275 68.7839 65.3879 60.336 73.9995 38.6569C59.0381 41.5141 47.4923 45.0547 38.0631 54.8692Z" fill="white"/>
<path d="M37.0463 61.2033C20.2132 70.2503 4.27133 59.9063 1.06562 40.353C17.2303 45.8493 29.2982 51.1835 37.0463 61.2033Z" fill="white"/>
<path d="M9.95396 19.6163C5.44683 38.0483 21.3555 46.6787 35.6732 44.8104C30.6883 31.1858 21.037 25.3076 9.95396 19.6163Z" fill="white"/>
<path d="M37.0023 75.4657C41.7934 75.4657 45.6774 73.5671 45.6774 71.2249C45.6774 68.8828 41.7934 66.9841 37.0023 66.9841C32.2111 66.9841 28.3271 68.8828 28.3271 71.2249C28.3271 73.5671 32.2111 75.4657 37.0023 75.4657Z" fill="white"/>
<path opacity="0.4" d="M37.0016 78.9997C52.9721 78.9997 65.9187 77.734 65.9187 76.1725C65.9187 74.6111 52.9721 73.3453 37.0016 73.3453C21.0311 73.3453 8.08447 74.6111 8.08447 76.1725C8.08447 77.734 21.0311 78.9997 37.0016 78.9997Z" fill="white"/>
<path d="M58.8165 22.0244C63.0619 36.7882 50.1465 44.0449 38.2522 42.813C41.9925 31.7411 49.8098 26.8212 58.8165 22.0244Z" fill="white"/>
</svg>
