<svg width="116" height="116" viewBox="0 0 116 116" fill="none" xmlns="http://www.w3.org/2000/svg">
<path d="M24.0126 34.9545C24.2981 33.9951 23.7518 32.9858 22.7924 32.7003C21.833 32.4148 20.8237 32.9611 20.5382 33.9205C20.147 35.2351 19.9375 36.6259 19.9375 38.0625C19.9375 39.4991 20.147 40.8899 20.5382 42.2045C20.8237 43.164 21.833 43.7102 22.7924 43.4247C23.7518 43.1392 24.2981 42.1299 24.0126 41.1705C23.7202 40.1879 23.5625 39.1452 23.5625 38.0625C23.5625 36.9798 23.7202 35.9371 24.0126 34.9545Z" fill="#481168"/>
<path d="M48.3368 33.9205C48.0513 32.9611 47.042 32.4148 46.0826 32.7003C45.1232 32.9859 44.5769 33.9951 44.8624 34.9545C45.1548 35.9371 45.3125 36.9798 45.3125 38.0625C45.3125 39.1452 45.1548 40.1879 44.8624 41.1705C44.5769 42.1299 45.1232 43.1392 46.0826 43.4247C47.042 43.7102 48.0513 43.164 48.3368 42.2045C48.728 40.8899 48.9375 39.4991 48.9375 38.0625C48.9375 36.6259 48.728 35.2351 48.3368 33.9205Z" fill="#481168"/>
<path d="M34.4375 23.5625C35.4385 23.5625 36.25 24.374 36.25 25.375V25.5268C38.55 25.9875 40.4873 27.4625 41.4968 29.4853C41.9438 30.381 41.58 31.4694 40.6844 31.9164C39.7887 32.3634 38.7002 31.9997 38.2532 31.104C37.6475 29.8901 36.3136 29 34.7124 29C32.4733 29 30.8125 30.7062 30.8125 32.625C30.8125 34.5438 32.4733 36.25 34.7124 36.25C34.9125 36.25 35.1051 36.2824 35.2851 36.3423C38.8375 36.8886 41.6875 39.7996 41.6875 43.5C41.6875 46.8585 39.3398 49.5668 36.25 50.4469V50.75C36.25 51.751 35.4385 52.5625 34.4375 52.5625C33.4365 52.5625 32.625 51.751 32.625 50.75V50.6183C30.4204 50.213 28.53 48.8988 27.4403 47.0577C26.9304 46.1963 27.2154 45.0846 28.0768 44.5747C28.9382 44.0648 30.0499 44.3498 30.5598 45.2113C31.2163 46.3205 32.5187 47.125 34.075 47.125C36.3892 47.125 38.0625 45.3936 38.0625 43.5C38.0625 41.6064 36.3892 39.875 34.075 39.875C33.8709 39.875 33.6747 39.8413 33.4917 39.7791C29.9744 39.2217 27.1875 36.2963 27.1875 32.625C27.1875 29.261 29.5274 26.5233 32.625 25.6597V25.375C32.625 24.374 33.4365 23.5625 34.4375 23.5625Z" fill="#481168"/>
<path fill-rule="evenodd" clip-rule="evenodd" d="M14.5 38.0625C14.5 27.0513 23.4263 18.125 34.4375 18.125C45.4487 18.125 54.375 27.0513 54.375 38.0625C54.375 49.0737 45.4487 58 34.4375 58C23.4263 58 14.5 49.0737 14.5 38.0625ZM34.4375 21.75C25.4284 21.75 18.125 29.0534 18.125 38.0625C18.125 47.0716 25.4284 54.375 34.4375 54.375C43.4466 54.375 50.75 47.0716 50.75 38.0625C50.75 29.0534 43.4466 21.75 34.4375 21.75Z" fill="#481168"/>
<path fill-rule="evenodd" clip-rule="evenodd" d="M57.0938 32.625C57.0938 31.624 57.9052 30.8125 58.9062 30.8125H96.0625C99.0655 30.8125 101.5 33.247 101.5 36.25V83.375C101.5 86.378 99.0655 88.8125 96.0625 88.8125H68.875V94.25H74.3125C75.3135 94.25 76.125 95.0615 76.125 96.0625C76.125 97.0635 75.3135 97.875 74.3125 97.875H48.9375C47.9365 97.875 47.125 97.0635 47.125 96.0625C47.125 95.0615 47.9365 94.25 48.9375 94.25H54.375V88.8125H27.1875C24.1845 88.8125 21.75 86.378 21.75 83.375V60.7188C21.75 59.7177 22.5615 58.9062 23.5625 58.9062C24.5635 58.9062 25.375 59.7177 25.375 60.7188V76.125H97.875V36.25C97.875 35.249 97.0635 34.4375 96.0625 34.4375H58.9062C57.9052 34.4375 57.0938 33.626 57.0938 32.625ZM65.25 88.8125V94.25H58V88.8125H65.25ZM96.0625 85.1875C97.0635 85.1875 97.875 84.376 97.875 83.375V79.75H25.375V83.375C25.375 84.376 26.1865 85.1875 27.1875 85.1875H96.0625Z" fill="#481168"/>
<path d="M85.1875 46.2188C85.1875 45.2177 84.376 44.4062 83.375 44.4062C82.374 44.4062 81.5625 45.2177 81.5625 46.2188V66.1562H74.3125V51.6562C74.3125 50.6552 73.501 49.8438 72.5 49.8438C71.499 49.8438 70.6875 50.6552 70.6875 51.6562V66.1562H64.3438V57.0938C64.3438 56.0927 63.5323 55.2812 62.5312 55.2812C61.5302 55.2812 60.7188 56.0927 60.7188 57.0938V66.1562H53.4688V60.7188C53.4688 59.7177 52.6573 58.9062 51.6562 58.9062C50.6552 58.9062 49.8438 59.7177 49.8438 60.7188V66.1562H44.4062V63.4375C44.4062 62.4365 43.5948 61.625 42.5938 61.625C41.5927 61.625 40.7812 62.4365 40.7812 63.4375V66.1562H34.4375C33.4365 66.1562 32.625 66.9677 32.625 67.9688C32.625 68.9698 33.4365 69.7812 34.4375 69.7812H90.625C91.626 69.7812 92.4375 68.9698 92.4375 67.9688C92.4375 66.9677 91.626 66.1562 90.625 66.1562H85.1875V46.2188Z" fill="#481168"/>
</svg>
