<svg width="1440" height="207" viewBox="0 0 1440 207" fill="none" xmlns="http://www.w3.org/2000/svg">
<g opacity="0.5">
<path d="M1511.52 221.5C1511.52 306 1365.12 374.5 1184.52 374.5C1003.92 374.5 857.519 306 857.519 221.5C857.519 137 961.519 214.5 1184.52 68.4999C1407.52 -77.5001 1511.52 137 1511.52 221.5Z" fill="url(#paint0_linear_66_17)"/>
<path d="M894 200.152C894 269.187 685.141 325.152 427.5 325.152C169.859 325.152 -39 269.187 -39 200.152C-39 131.116 -9 -125.348 427.5 75.1518C864 275.652 894 131.116 894 200.152Z" fill="url(#paint1_linear_66_17)"/>
</g>
<defs>
<linearGradient id="paint0_linear_66_17" x1="857.519" y1="196.695" x2="1511.52" y2="196.695" gradientUnits="userSpaceOnUse">
<stop stop-color="#8F21CE"/>
<stop offset="0.865385" stop-color="#481168"/>
</linearGradient>
<linearGradient id="paint1_linear_66_17" x1="-39" y1="162.576" x2="894" y2="162.576" gradientUnits="userSpaceOnUse">
<stop stop-color="#481168"/>
<stop offset="1" stop-color="#8F21CE"/>
</linearGradient>
</defs>
</svg>
