<svg width="124" height="365" viewBox="0 0 124 365" fill="none" xmlns="http://www.w3.org/2000/svg">
<path d="M1.05199 363.906C3.38199 364.636 71.242 363.166 73.722 361.506C74.672 360.896 68.862 296.616 68.862 296.616L25.862 297.436L30.752 340.436C30.752 340.436 5.75199 352.296 3.18199 354.436C0.611995 356.576 -1.26801 363.186 1.05199 363.906Z" fill="#AD6359"/>
<path d="M1.05199 363.906C3.37199 364.626 71.252 363.166 73.722 361.506C74.022 361.316 74.112 354.796 73.032 346.296C60.722 348.356 16.802 355.096 13.382 353.086C10.992 351.686 13.102 349.496 15.062 348.016C9.452 350.816 4.21199 353.506 3.13199 354.406C0.621993 356.506 -1.26801 363.186 1.05199 363.906Z" fill="#322638"/>
<path d="M29.502 330.126L71.762 329.536C71.762 329.536 63.382 228.326 63.762 226.386C64.212 223.886 94.192 106.386 94.192 106.386H53.832C53.832 106.386 22.032 215.906 20.892 226.426C19.042 243.506 29.502 330.126 29.502 330.126Z" fill="#500068"/>
<path d="M67.962 319.996C65.462 319.816 62.962 319.846 60.432 319.806C57.902 319.766 55.432 319.806 52.912 319.806C47.912 319.856 42.912 319.926 37.912 320.076C36.542 320.076 35.172 320.156 33.802 320.216C32.432 320.276 30.882 320.536 29.422 320.586C29.3981 320.586 29.3752 320.596 29.3584 320.613C29.3415 320.63 29.332 320.652 29.332 320.676C29.332 320.7 29.3415 320.723 29.3584 320.74C29.3752 320.757 29.3981 320.766 29.422 320.766C30.652 320.766 31.882 320.956 33.112 320.996C34.342 321.036 35.672 320.996 36.952 320.996C39.452 320.996 41.952 320.996 44.462 320.996C49.462 320.946 54.462 320.886 59.462 320.676C62.292 320.556 65.152 320.526 67.962 320.236C67.9857 320.226 68.0059 320.21 68.0202 320.188C68.0344 320.167 68.042 320.142 68.042 320.116C68.042 320.091 68.0344 320.066 68.0202 320.044C68.0059 320.023 67.9857 320.006 67.962 319.996Z" fill="#322638"/>
<path d="M85.292 115.836C81.682 128.606 78.382 141.496 75.152 154.376C71.922 167.256 68.692 180.156 65.482 193.046C63.882 199.493 62.2787 205.94 60.672 212.386C59.112 218.656 57.302 224.966 56.912 231.456C56.522 237.946 57.362 244.696 57.912 251.256C58.462 257.816 59.022 264.456 59.602 271.046C60.762 284.246 61.872 297.456 63.302 310.626C63.482 312.276 63.662 313.926 63.832 315.576C63.832 315.606 63.8436 315.634 63.8642 315.654C63.8848 315.675 63.9128 315.686 63.942 315.686C63.9712 315.686 63.9991 315.675 64.0198 315.654C64.0404 315.634 64.052 315.606 64.052 315.576C63.172 302.376 62.262 289.176 61.212 275.976C60.6787 269.376 60.142 262.78 59.602 256.186C59.052 249.596 58.292 242.996 58.082 236.386C57.872 229.776 59.082 223.336 60.702 216.896C62.322 210.456 63.862 204.276 65.442 197.976C68.662 185.083 71.8787 172.193 75.092 159.306C78.672 144.866 82.252 130.406 85.412 115.876C85.4173 115.861 85.4161 115.843 85.4086 115.828C85.4011 115.813 85.3879 115.802 85.372 115.796C85.3561 115.791 85.3387 115.792 85.3237 115.8C85.3087 115.807 85.2973 115.821 85.292 115.836Z" fill="#322638"/>
<path d="M94.192 106.336C94.192 106.336 81.332 156.766 72.332 192.266L55.192 106.336H94.192Z" fill="#322638"/>
<path d="M50.452 364.067C52.772 364.787 120.642 363.327 123.122 361.667C124.072 361.057 120.522 296.737 120.522 296.737L78.052 297.557L80.112 340.557C80.112 340.557 55.112 352.417 52.532 354.557C49.952 356.697 48.122 363.347 50.452 364.067Z" fill="#AD6359"/>
<path d="M50.452 364.067C52.772 364.787 120.642 363.317 123.122 361.667C123.422 361.477 123.342 355.117 123.122 346.447C110.812 348.507 66.202 355.257 62.782 353.247C60.402 351.847 62.512 349.657 64.462 348.177C58.852 350.977 53.622 353.667 52.542 354.567C50.012 356.667 48.122 363.347 50.452 364.067Z" fill="#322638"/>
<path d="M53.852 106.326C53.852 106.326 55.022 125.606 59.632 140.826C60.002 142.086 60.402 143.326 60.832 144.516C64.8975 146.101 68.8104 148.052 72.522 150.346C72.522 150.346 75.432 224.096 75.382 228.676C75.192 245.816 79.572 329.276 79.572 329.276L122.172 328.876C122.172 328.876 117.762 234.496 117.742 228.216C117.742 222.146 114.842 183.846 112.272 150.636C112.272 150.636 116.062 140.036 115.642 134.636C114.642 121.636 108.802 106.296 108.802 106.296L53.852 106.326Z" fill="#500068"/>
<path d="M67.502 135.526C67.412 134.456 67.312 133.386 67.202 132.306C67.012 130.306 66.732 128.376 66.502 126.416C65.972 121.956 65.422 117.486 64.682 113.056C64.682 112.946 64.492 112.966 64.492 113.056C64.572 114.836 64.672 116.606 64.822 118.376C64.972 120.146 65.042 121.926 65.192 123.696C65.482 127.216 65.772 130.696 66.192 134.236C66.352 135.586 67.042 138.026 65.102 138.336C63.552 138.576 62.522 137.016 62.102 135.736C61.7272 134.135 61.4765 132.507 61.352 130.866C61.142 129.086 60.962 127.306 60.822 125.516C60.492 121.636 60.112 117.766 59.712 113.886C59.712 113.776 59.522 113.796 59.512 113.886C59.412 117.886 59.402 121.776 59.692 125.736C59.832 127.63 60.0087 129.516 60.222 131.396C60.3119 133.2 60.6483 134.984 61.222 136.696C61.4543 137.367 61.8504 137.969 62.3743 138.447C62.8982 138.926 63.5333 139.266 64.222 139.436H64.312C64.2928 139.445 64.2767 139.459 64.2659 139.477C64.2551 139.495 64.2503 139.516 64.252 139.536C64.252 140.166 64.182 140.796 64.252 141.426C64.322 142.056 64.372 142.666 64.452 143.276C64.5343 143.908 64.6613 144.533 64.832 145.146C64.9091 145.439 65.006 145.727 65.122 146.006C65.2584 146.28 65.4086 146.548 65.572 146.806C65.5826 146.83 65.6009 146.848 65.6238 146.86C65.6467 146.871 65.6728 146.874 65.6976 146.868C65.7224 146.862 65.7443 146.848 65.7597 146.827C65.7751 146.807 65.783 146.782 65.782 146.756V146.446C65.797 146.263 65.797 146.079 65.782 145.896C65.782 145.586 65.702 145.286 65.652 144.986C65.562 144.386 65.432 143.786 65.302 143.196C65.172 142.606 65.082 141.996 64.972 141.396C64.862 140.796 64.682 140.176 64.572 139.556C64.572 139.556 64.572 139.556 64.572 139.496C65.1363 139.557 65.7056 139.443 66.2028 139.169C66.7 138.895 67.1012 138.475 67.352 137.966C67.6122 137.18 67.6639 136.339 67.502 135.526Z" fill="#322638"/>
<path d="M75.972 151.807C74.7036 150.832 73.3668 149.95 71.972 149.167C70.5007 148.28 68.9743 147.488 67.402 146.797C64.322 145.467 61.142 144.547 57.962 143.497C57.872 143.497 57.802 143.627 57.902 143.657C60.982 144.887 63.902 146.517 66.902 147.967C68.362 148.687 69.842 149.367 71.342 150.027C72.842 150.687 74.342 151.457 75.852 152.027C75.972 152.067 76.062 151.887 75.972 151.807Z" fill="#322638"/>
<path d="M100.022 124.946C97.8548 124.925 95.6985 124.636 93.602 124.086C92.602 123.836 91.682 123.526 90.732 123.216C89.7925 122.955 88.9129 122.514 88.142 121.916C86.682 120.656 86.002 118.666 85.362 116.916C84.6716 114.932 84.1104 112.904 83.682 110.846C83.682 110.746 83.512 110.776 83.512 110.846C83.4608 113.173 83.754 115.495 84.382 117.736C84.902 119.646 85.612 121.736 87.152 123.106C88.8585 124.385 90.9034 125.133 93.032 125.256C95.3597 125.528 97.713 125.495 100.032 125.156C100.05 125.145 100.065 125.129 100.075 125.11C100.085 125.091 100.09 125.07 100.089 125.049C100.088 125.027 100.081 125.006 100.069 124.988C100.058 124.97 100.041 124.956 100.022 124.946Z" fill="#322638"/>
<path d="M120.292 320.616C117.792 320.436 115.292 320.466 112.772 320.436C110.252 320.406 107.772 320.436 105.252 320.436C100.252 320.486 95.252 320.566 90.252 320.706C88.882 320.706 87.512 320.786 86.142 320.846C84.772 320.906 83.212 321.166 81.752 321.226C81.7343 321.233 81.719 321.244 81.7082 321.259C81.6974 321.275 81.6916 321.293 81.6916 321.311C81.6916 321.33 81.6974 321.348 81.7082 321.364C81.719 321.379 81.7343 321.39 81.752 321.396C82.982 321.396 84.222 321.596 85.452 321.626C86.682 321.656 88.002 321.676 89.282 321.676C91.792 321.676 94.282 321.676 96.802 321.676C101.802 321.676 106.802 321.566 111.802 321.366C114.622 321.246 117.482 321.206 120.302 320.926C120.322 320.926 120.342 320.921 120.361 320.913C120.379 320.904 120.396 320.892 120.41 320.877C120.424 320.863 120.435 320.845 120.442 320.826C120.449 320.807 120.453 320.787 120.452 320.766C120.451 320.746 120.447 320.726 120.438 320.707C120.43 320.689 120.418 320.672 120.403 320.658C120.388 320.644 120.371 320.633 120.352 320.626C120.333 320.619 120.312 320.616 120.292 320.616Z" fill="#322638"/>
<path d="M115.092 315.066C115.228 315.059 115.356 314.998 115.448 314.897C115.539 314.796 115.587 314.663 115.582 314.526L105.992 149.366C106.112 148.636 108.832 139.416 109.072 134.706C109.322 129.706 104.172 110.306 103.952 109.476C103.915 109.346 103.828 109.236 103.71 109.168C103.592 109.101 103.453 109.082 103.322 109.116C103.256 109.133 103.194 109.162 103.139 109.203C103.084 109.243 103.039 109.295 103.004 109.353C102.97 109.412 102.947 109.477 102.938 109.545C102.929 109.612 102.934 109.681 102.952 109.746C103.002 109.946 108.282 129.826 108.032 134.646C107.782 139.466 104.972 149.166 104.962 149.246C104.952 149.326 114.572 314.576 114.572 314.576C114.58 314.709 114.638 314.834 114.735 314.925C114.831 315.016 114.959 315.067 115.092 315.066Z" fill="#322638"/>
<path d="M80.982 48.9565C82.0196 49.1956 83.104 49.1329 84.1071 48.7757C85.1102 48.4185 85.9901 47.7818 86.6431 46.9406C87.296 46.0995 87.6946 45.0891 87.7919 44.0288C87.8891 42.9684 87.681 41.9024 87.192 40.9565C88.3032 41.1806 89.4573 41.0303 90.474 40.5291C91.4908 40.028 92.3129 39.2042 92.812 38.1865C93.2892 37.0829 93.3441 35.8424 92.9661 34.701C92.5881 33.5596 91.8036 32.597 90.762 31.9965C91.6832 32.656 92.3532 33.6089 92.662 34.699C92.9709 35.7891 92.9004 36.9517 92.462 37.9965C92.08 38.8044 91.4661 39.4803 90.6985 39.938C89.9309 40.3957 89.0444 40.6145 88.152 40.5665C88.9518 40.2899 89.686 39.8514 90.3088 39.2785C90.9316 38.7055 91.4297 38.0104 91.772 37.2365C92.1233 36.3636 92.2091 35.4065 92.0188 34.485C91.8284 33.5635 91.3704 32.7188 90.702 32.0565C91.5148 31.3191 92.1429 30.4009 92.5355 29.376C92.9281 28.3511 93.0742 27.2482 92.962 26.1565C92.8276 25.2364 92.4277 24.3755 91.8114 23.6792C91.195 22.9829 90.389 22.4816 89.492 22.2365C90.0851 21.3775 90.4139 20.3639 90.438 19.3204C90.4622 18.2769 90.1805 17.2491 89.6278 16.3637C89.0751 15.4782 88.2754 14.7738 87.3273 14.3372C86.3792 13.9006 85.3241 13.7509 84.292 13.9065C84.6568 13.2481 84.8499 12.5084 84.8533 11.7557C84.8568 11.003 84.6705 10.2616 84.3118 9.59986C83.953 8.93815 83.4333 8.3775 82.8007 7.96968C82.168 7.56186 81.4428 7.32002 80.692 7.26648C80.8717 6.71726 80.889 6.12782 80.7418 5.56902C80.5945 5.01021 80.289 4.50583 79.862 4.11649C79.3536 3.68651 78.7644 3.36241 78.129 3.16321C77.4937 2.96401 76.8249 2.89373 76.162 2.95648C76.0218 2.36908 75.7357 1.82653 75.3302 1.37905C74.9247 0.931574 74.4128 0.593627 73.842 0.396487C73.1007 0.164999 72.3012 0.2049 71.5866 0.509051C70.8721 0.813201 70.2891 1.36174 69.942 2.05648C68.172 0.826483 66.072 -0.263517 63.862 0.0564826C62.9451 0.140112 62.0729 0.49063 61.3531 1.06469C60.6333 1.63875 60.0975 2.41119 59.812 3.28649C58.9982 2.87738 58.1075 2.64386 57.1977 2.60108C56.2879 2.5583 55.3793 2.70721 54.5307 3.03816C53.6821 3.3691 52.9126 3.87469 52.272 4.52214C51.6313 5.1696 51.1339 5.94446 50.812 6.79649C50.0254 6.66035 49.2169 6.73172 48.4663 7.00354C47.7157 7.27537 47.049 7.73824 46.532 8.34648C45.7886 9.15825 45.2563 10.1404 44.982 11.2065C44.2686 11.1365 43.5512 11.2918 42.9306 11.6505C42.31 12.0092 41.8174 12.5534 41.522 13.2065C41.2665 13.8243 41.1519 14.4914 41.1865 15.1591C41.2211 15.8268 41.404 16.4784 41.722 17.0665C41.6686 17.4497 41.5284 17.8157 41.312 18.1365C40.7711 18.9533 40.4414 19.8916 40.3523 20.8672C40.2633 21.8428 40.4178 22.8253 40.802 23.7265C40.3564 24.0925 39.9952 24.5506 39.7432 25.0693C39.4912 25.588 39.3544 26.1551 39.342 26.7316C39.3297 27.3082 39.4421 27.8805 39.6717 28.4095C39.9013 28.9386 40.2425 29.4117 40.672 29.7965C40.0339 30.8068 39.8188 32.0276 40.0733 33.1952C40.3277 34.3627 41.0313 35.3833 42.032 36.0365C41.5887 36.8771 41.3308 37.803 41.2756 38.7518C41.2204 39.7005 41.3692 40.6501 41.712 41.5365C41.9371 42.2511 42.3669 42.884 42.9481 43.3568C43.5294 43.8296 44.2365 44.1216 44.982 44.1965C44.8337 44.7483 44.8934 45.3354 45.1497 45.8461C45.406 46.3568 45.841 46.7555 46.372 46.9665C46.7592 47.1445 47.165 47.2786 47.582 47.3665C48.1319 47.4092 48.67 47.548 49.172 47.7765C49.622 48.0665 49.782 48.6665 50.052 49.0965C50.2466 49.4102 50.4746 49.7019 50.732 49.9665C51.7014 50.9351 52.9732 51.5428 54.3358 51.6883C55.6985 51.8339 57.0699 51.5085 58.222 50.7665C59.272 52.4365 61.392 52.7665 63.222 52.5065C63.8185 52.404 64.4044 52.2466 64.972 52.0365C65.4724 51.8189 66.0283 51.7629 66.562 51.8765C66.902 51.9665 67.232 52.1365 67.562 52.2265C68.1237 52.3307 68.7008 52.3169 69.2569 52.186C69.8129 52.0552 70.3357 51.8102 70.792 51.4665C73.722 55.7665 79.782 53.6165 80.982 48.9565ZM41.632 13.9565C41.8351 13.2385 42.2556 12.601 42.8358 12.1318C43.416 11.6627 44.1274 11.3848 44.872 11.3365C44.8669 11.3997 44.8669 11.4633 44.872 11.5265C44.872 11.5265 44.402 11.6965 44.182 11.8065C43.5745 12.1247 43.0445 12.5728 42.6297 13.1189C42.2149 13.665 41.9255 14.2959 41.782 14.9665C41.7053 15.3717 41.6784 15.7848 41.702 16.1965V16.3465C41.4585 15.5716 41.4343 14.7443 41.632 13.9565ZM74.112 1.58649C73.4687 1.28292 72.7477 1.18438 72.0465 1.30422C71.3453 1.42406 70.6979 1.75649 70.192 2.25649L70.092 2.18649C70.972 0.986487 72.092 0.186482 73.742 0.696482C74.2479 0.864563 74.6998 1.1644 75.0513 1.56513C75.4029 1.96587 75.6413 2.45303 75.742 2.97649C75.3391 2.37009 74.7744 1.88859 74.112 1.58649ZM70.952 51.3065C72.1929 52.3599 73.7954 52.8885 75.4196 52.7802C77.0437 52.672 78.5619 51.9353 79.652 50.7265C77.472 53.5465 73.902 54.7165 70.952 51.3065Z" fill="#322638"/>
<path d="M66.192 61.0166C63.902 71.1066 53.712 113.407 45.192 115.787C36.672 118.167 28.252 112.607 27.992 105.537C27.692 97.8366 50.682 67.1866 56.312 60.5366C61.732 54.2166 68.482 51.0966 66.192 61.0166Z" fill="#AD6359"/>
<path d="M61.802 86.1665L37.192 81.8265C37.192 81.8265 53.972 60.0965 60.702 55.0965C68.282 49.4765 69.502 54.5765 68.262 63.4665C67.022 72.3565 61.802 86.1665 61.802 86.1665Z" fill="#7E57C2"/>
<path d="M65.272 61.3164C64.605 60.7979 63.8676 60.377 63.082 60.0664C63.5892 60.7439 64.1961 61.3407 64.882 61.8364C65.5518 62.3535 66.2928 62.7711 67.082 63.0764C66.5631 62.4087 65.9539 61.8164 65.272 61.3164ZM50.832 79.7864C50.3224 80.4575 49.9053 81.1941 49.592 81.9764C50.9257 80.9295 51.9604 79.5499 52.592 77.9764C51.9268 78.498 51.3348 79.1068 50.832 79.7864ZM52.552 67.0964C51.7133 67.1985 50.8944 67.4242 50.122 67.7664C51.8047 67.9636 53.5099 67.7224 55.072 67.0664C54.2352 66.9511 53.3858 66.9612 52.552 67.0964ZM63.552 77.4664C63.4464 76.6284 63.2208 75.8101 62.882 75.0364C62.7668 75.8691 62.7668 76.7137 62.882 77.5464C62.9841 78.3883 63.2099 79.2105 63.552 79.9864C63.6912 79.1395 63.7013 78.2764 63.582 77.4264L63.552 77.4664ZM40.622 78.1064C40.622 77.9364 40.622 77.7564 40.532 77.5864L39.992 78.2664C40.0969 79.084 40.3192 79.8823 40.652 80.6364C40.7722 79.7974 40.7722 78.9454 40.652 78.1064H40.622Z" fill="white"/>
<path d="M41.452 77.8965C42.332 77.8965 50.012 79.1465 51.672 79.4465C53.332 79.7465 60.152 80.9365 61.842 81.3865C61.855 81.3917 61.8661 81.4006 61.874 81.4122C61.8818 81.4238 61.886 81.4375 61.886 81.4515C61.886 81.4655 61.8818 81.4792 61.874 81.4907C61.8661 81.5023 61.855 81.5113 61.842 81.5165C60.102 81.3865 53.222 80.2165 51.522 79.9365C49.822 79.6565 42.252 78.2765 41.432 78.0065C41.362 77.9865 41.392 77.8965 41.452 77.8965Z" fill="#322638"/>
<path opacity="0.1" d="M68.302 63.4264C67.052 72.3164 61.802 86.1264 61.802 86.1264L44.262 83.0264L67.012 53.0264C68.892 54.1364 69.042 58.1164 68.302 63.4264Z" fill="black"/>
<path d="M110.122 108.536H52.442L55.022 93.1464C55.022 93.1464 50.562 87.1464 50.882 80.5564C51.212 73.5564 64.692 55.0064 65.782 53.9764C70.132 49.8164 77.302 49.4864 80.782 52.4364C99.692 68.2564 110.122 108.536 110.122 108.536Z" fill="#7E57C2"/>
<path d="M52.602 77.9866C52.2949 78.7718 51.8773 79.5092 51.362 80.1766L50.862 80.7866C50.862 80.7166 50.862 80.6566 50.862 80.5966C50.883 80.2607 50.9265 79.9266 50.992 79.5966C51.4527 78.989 51.9944 78.4473 52.602 77.9866Z" fill="#7E57C2"/>
<path d="M58.652 108.576H58.432C58.1929 107.93 58.0252 107.259 57.932 106.576C57.8119 105.744 57.8119 104.899 57.932 104.066C58.2708 104.84 58.4964 105.658 58.602 106.496C58.6941 107.186 58.7108 107.883 58.652 108.576Z" fill="#7E57C2"/>
<path d="M62.942 77.5464C62.8268 76.7137 62.8268 75.8691 62.942 75.0364C63.2808 75.81 63.5064 76.6284 63.612 77.4664C63.7372 78.3017 63.7372 79.151 63.612 79.9864C63.2699 79.2104 63.0441 78.3882 62.942 77.5464Z" fill="#7E57C2"/>
<path d="M64.542 90.8266C63.7683 91.1654 62.9499 91.391 62.112 91.4966C61.276 91.6119 60.428 91.6119 59.592 91.4966C60.3708 91.1604 61.1916 90.9316 62.032 90.8166C62.8648 90.6998 63.7101 90.7032 64.542 90.8266Z" fill="#7E57C2"/>
<path d="M67.082 63.0764C66.2928 62.7711 65.5518 62.3535 64.882 61.8364C64.1961 61.3407 63.5892 60.7439 63.082 60.0664C63.8676 60.377 64.605 60.7979 65.272 61.3164C65.9539 61.8164 66.5631 62.4087 67.082 63.0764Z" fill="#7E57C2"/>
<path d="M72.482 50.7266C72.412 50.7966 72.332 50.8466 72.262 50.9066L72.322 50.7566L72.482 50.7266Z" fill="#7E57C2"/>
<path d="M74.242 98.5464C73.6129 100.121 72.5778 101.501 71.242 102.546C71.5571 101.763 71.9776 101.026 72.492 100.356C72.9889 99.6751 73.5779 99.066 74.242 98.5464Z" fill="#7E57C2"/>
<path d="M77.882 83.0464C77.0949 82.7432 76.3569 82.3254 75.692 81.8064C75.0077 81.3091 74.3982 80.7164 73.882 80.0464C74.6704 80.3534 75.4111 80.7709 76.082 81.2864C76.7608 81.7866 77.3666 82.379 77.882 83.0464Z" fill="#7E57C2"/>
<path d="M78.932 67.4965C78.1588 67.8385 77.3404 68.0675 76.502 68.1765C75.666 68.2918 74.818 68.2918 73.982 68.1765C74.7557 67.8358 75.5739 67.6069 76.412 67.4965C77.2473 67.3713 78.0967 67.3713 78.932 67.4965Z" fill="#7E57C2"/>
<path d="M84.822 56.3364C83.2875 56.9644 81.6185 57.1915 79.972 56.9964C80.7461 56.6588 81.5643 56.4332 82.402 56.3264C83.1871 56.2146 83.9829 56.1978 84.772 56.2764L84.822 56.3364Z" fill="#7E57C2"/>
<path d="M88.532 89.9764C87.7601 90.3125 86.9459 90.5413 86.112 90.6564C85.2763 90.7765 84.4277 90.7765 83.592 90.6564C84.3605 90.3131 85.1763 90.0872 86.012 89.9864C86.8468 89.8579 87.6962 89.8545 88.532 89.9764Z" fill="#7E57C2"/>
<path d="M90.192 74.4265C89.8872 75.216 89.4695 75.957 88.952 76.6265C88.4571 77.3099 87.8641 77.9164 87.192 78.4265C87.4952 77.6394 87.913 76.9014 88.432 76.2365C88.932 75.5546 89.5243 74.9454 90.192 74.4265Z" fill="#7E57C2"/>
<path d="M90.502 104.247C90.6172 105.083 90.6172 105.931 90.502 106.767C89.8275 105.192 89.5826 103.467 89.792 101.767C90.1395 102.557 90.3783 103.392 90.502 104.247Z" fill="#7E57C2"/>
<path d="M103.192 94.4265C102.405 94.1233 101.667 93.7055 101.002 93.1865C100.314 92.694 99.7036 92.1007 99.192 91.4265C99.9778 91.7432 100.718 92.1636 101.392 92.6765C102.07 93.1737 102.676 93.7626 103.192 94.4265Z" fill="#7E57C2"/>
<path d="M106.542 106.427C105.767 106.763 104.949 106.988 104.112 107.097C103.276 107.217 102.428 107.217 101.592 107.097C102.361 106.753 103.176 106.527 104.012 106.427C104.85 106.296 105.704 106.296 106.542 106.427Z" fill="#7E57C2"/>
<path d="M75.492 89.9165C72.7237 89.9557 69.9638 90.23 67.242 90.7365C65.882 91.0065 64.542 91.3465 63.242 91.7365C62.572 91.9265 61.902 92.0865 61.242 92.2465C60.5471 92.4303 59.8308 92.5211 59.112 92.5165C59.052 92.5165 59.042 92.6165 59.112 92.6265C59.7743 92.7222 60.4428 92.769 61.112 92.7665C61.7846 92.7409 62.4538 92.6573 63.112 92.5165C64.492 92.2565 65.862 91.9265 67.242 91.6465C70.022 91.0865 72.792 90.5265 75.592 90.1965C75.632 90.1665 75.622 89.9165 75.492 89.9165Z" fill="#322638"/>
<path d="M81.982 93.3465C79.7602 92.8631 77.5085 92.529 75.242 92.3465C74.112 92.2565 72.982 92.2465 71.842 92.2665C71.292 92.2665 70.752 92.2665 70.212 92.3365C69.672 92.4065 69.012 92.4965 68.412 92.5165C68.352 92.5165 68.342 92.6265 68.412 92.6265C68.982 92.6265 69.542 92.7365 70.102 92.7665L71.802 92.8665C72.932 92.9465 74.062 93.0265 75.192 93.0865C77.462 93.2065 79.712 93.3465 81.972 93.5565C82.092 93.5765 82.102 93.3665 81.982 93.3465Z" fill="#322638"/>
<path d="M90.502 104.247C90.3836 103.41 90.1549 102.593 89.822 101.817C89.6126 103.517 89.8575 105.242 90.532 106.817C90.6419 105.963 90.6318 105.098 90.502 104.247ZM58.582 106.497C58.4764 105.659 58.2508 104.84 57.912 104.067C57.7919 104.899 57.7919 105.744 57.912 106.577C58.0052 107.259 58.1729 107.93 58.412 108.577H58.632C58.6908 107.883 58.674 107.186 58.582 106.497ZM63.582 77.4966C63.4764 76.6586 63.2508 75.8402 62.912 75.0666C62.7968 75.8993 62.7968 76.7439 62.912 77.5766C63.0141 78.4184 63.2399 79.2406 63.582 80.0166C63.7143 79.1583 63.7143 78.2849 63.582 77.4266V77.4966ZM76.412 67.5566C75.5739 67.667 74.7557 67.8959 73.982 68.2366C74.818 68.3519 75.666 68.3519 76.502 68.2366C77.3404 68.1276 78.1588 67.8986 78.932 67.5566C78.0982 67.4214 77.2488 67.4113 76.412 67.5266V67.5566ZM62.032 90.8766C61.1916 90.9916 60.3708 91.2204 59.592 91.5566C60.428 91.6719 61.276 91.6719 62.112 91.5566C62.9499 91.451 63.7683 91.2254 64.542 90.8866C63.7115 90.7532 62.8663 90.7398 62.032 90.8466V90.8766ZM104.032 106.477C103.196 106.577 102.381 106.803 101.612 107.147C102.448 107.267 103.296 107.267 104.132 107.147C104.969 107.038 105.787 106.813 106.562 106.477C105.72 106.328 104.859 106.311 104.012 106.427L104.032 106.477ZM86.032 90.0366C85.1963 90.1374 84.3805 90.3633 83.612 90.7066C84.4477 90.8267 85.2963 90.8267 86.132 90.7066C86.9659 90.5915 87.7802 90.3627 88.552 90.0266C87.7111 89.8927 86.8549 89.886 86.012 90.0066L86.032 90.0366ZM84.792 56.3066C84.0029 56.228 83.2071 56.2448 82.422 56.3566C81.5843 56.4634 80.7661 56.689 79.992 57.0266C81.6385 57.2217 83.3075 56.9946 84.842 56.3666L84.792 56.3066ZM72.342 50.7866L72.282 50.9366C72.352 50.8766 72.432 50.8266 72.502 50.7566L72.342 50.7866ZM51.022 79.6166C50.9565 79.9467 50.913 80.2807 50.892 80.6166C50.892 80.6766 50.892 80.7366 50.892 80.8066L51.392 80.1966C51.9073 79.5292 52.3249 78.7918 52.632 78.0066C52.0194 78.4567 51.471 78.9883 51.002 79.5866L51.022 79.6166ZM88.452 76.3066C87.9319 76.9487 87.5075 77.6628 87.192 78.4266C87.8641 77.9165 88.4571 77.31 88.952 76.6266C89.4695 75.9571 89.8872 75.216 90.192 74.4266C89.5216 74.9578 88.9291 75.5805 88.432 76.2766L88.452 76.3066ZM72.452 100.387C71.9376 101.056 71.5171 101.793 71.202 102.577C72.5378 101.532 73.5729 100.152 74.202 98.5766C73.5505 99.0891 72.9719 99.6879 72.482 100.357L72.452 100.387ZM65.242 61.3866C64.575 60.8681 63.8376 60.4472 63.052 60.1366C63.5592 60.8141 64.1661 61.4109 64.852 61.9066C65.5218 62.4237 66.2628 62.8413 67.052 63.1466C66.5473 62.4562 65.9481 61.8402 65.272 61.3166L65.242 61.3866ZM76.052 81.3866C75.3811 80.8711 74.6404 80.4536 73.852 80.1466C74.3682 80.8167 74.9777 81.4093 75.662 81.9066C76.3269 82.4256 77.0649 82.8434 77.852 83.1466C77.3531 82.4459 76.7571 81.8196 76.082 81.2866L76.052 81.3866ZM101.402 92.7566C100.729 92.2148 99.9857 91.7674 99.192 91.4266C99.7028 92.1043 100.313 92.7011 101.002 93.1966C101.668 93.712 102.405 94.1265 103.192 94.4266C102.69 93.7584 102.097 93.1628 101.432 92.6566L101.402 92.7566Z" fill="white"/>
<path d="M85.972 55.6864C93.092 63.1964 123.172 98.0864 120.092 107.196C117.232 115.666 104.572 113.656 99.682 108.546C92.582 101.136 82.482 71.9864 80.102 63.6164C77.822 55.6464 78.982 48.2964 85.972 55.6864Z" fill="#AD6359"/>
<path d="M86.022 84.4265L110.122 77.9165C110.122 77.9165 91.482 57.8065 84.332 53.4265C76.272 48.4965 75.512 53.6865 77.542 62.4265C79.572 71.1665 86.022 84.4265 86.022 84.4265Z" fill="#7E57C2"/>
<path d="M110.122 77.9564L86.022 84.4264C86.022 84.4264 79.562 71.1364 77.542 62.4264C75.522 53.7164 76.272 48.4864 84.332 53.4264C84.732 53.6764 85.182 53.9764 85.662 54.3164L86.242 54.7564C89.5555 57.4033 92.7234 60.2274 95.732 63.2164L95.922 63.3964C98.632 66.0264 101.342 68.7764 103.652 71.1664C103.992 71.5064 104.312 71.8464 104.652 72.1664C107.872 75.5264 110.122 77.9564 110.122 77.9564Z" fill="#7E57C2"/>
<path d="M110.122 77.9564L86.022 84.4264C86.022 84.4264 79.562 71.1364 77.542 62.4264C75.522 53.7164 76.272 48.4864 84.332 53.4264C84.732 53.6764 85.182 53.9764 85.662 54.3164L86.242 54.7564C89.5555 57.4033 92.7234 60.2274 95.732 63.2164L95.922 63.3964C98.632 66.0264 101.342 68.7764 103.652 71.1664C103.992 71.5064 104.312 71.8464 104.652 72.1664C107.872 75.5264 110.122 77.9564 110.122 77.9564Z" fill="#7E57C2"/>
<path d="M105.392 76.2064C104.723 75.6931 103.986 75.2758 103.202 74.9664C103.712 75.6385 104.319 76.2316 105.002 76.7264C105.669 77.2475 106.411 77.6655 107.202 77.9664C106.683 77.2988 106.074 76.7065 105.392 76.2064ZM88.392 76.2765C87.8905 76.9315 87.4863 77.6557 87.192 78.4264C87.8641 77.9164 88.4571 77.3098 88.952 76.6264C89.4695 75.9569 89.8872 75.2159 90.192 74.4264C89.5216 74.9576 88.9291 75.5804 88.432 76.2765H88.392ZM82.392 56.3264C81.5543 56.4332 80.7361 56.6588 79.962 56.9965C80.8003 57.1267 81.6537 57.1267 82.492 56.9965C83.3277 56.8956 84.1435 56.6698 84.912 56.3264C84.0792 56.2121 83.2348 56.2121 82.402 56.3264H82.392ZM93.672 65.8164C93.5615 64.9751 93.3326 64.1537 92.992 63.3764C92.7826 65.0766 93.0275 66.8018 93.702 68.3764C93.8204 67.5267 93.8137 66.6642 93.682 65.8164H93.672Z" fill="white"/>
<path d="M105.572 74.5965C104.712 74.6965 97.162 76.5965 95.572 77.0565C93.982 77.5165 87.262 79.2865 85.572 79.8865C85.492 79.8865 85.572 80.0265 85.572 80.0065C87.292 79.7265 94.042 77.9465 95.712 77.5265C97.382 77.1065 104.802 75.0465 105.582 74.7065C105.682 74.6765 105.632 74.5865 105.572 74.5965Z" fill="#322638"/>
<path d="M88.402 83.8265C87.592 84.1065 86.772 84.3665 85.952 84.6265V84.5265C83.2956 79.356 81.081 73.9701 79.332 68.4265L82.732 76.4265L86.142 84.4265L85.992 84.3565C86.792 84.1765 87.592 83.9965 88.402 83.8365V83.8265Z" fill="#322638"/>
<path d="M79.042 70.4766C79.8859 71.1593 80.5688 72.0197 81.042 72.9966C80.5501 72.7409 80.1177 72.3842 79.7731 71.95C79.4284 71.5158 79.1793 71.0137 79.042 70.4766Z" fill="#322638"/>
<path d="M77.192 55.0465C76.742 56.0465 70.362 61.8665 65.612 60.6865C64.062 60.2965 65.802 51.7465 65.802 51.7465V51.0865L65.582 41.8465L77.312 37.2465L78.992 36.6565C78.992 36.6565 78.882 39.1965 78.722 42.3465V42.7965C78.7324 42.9663 78.7324 43.1367 78.722 43.3065C78.722 43.7765 78.722 44.3065 78.652 44.7365C78.582 45.1665 78.652 45.4565 78.572 45.8465C78.492 46.2365 78.512 46.5965 78.482 46.9865C78.24 49.6999 77.809 52.3931 77.192 55.0465Z" fill="#AD6359"/>
<path d="M78.942 36.6565C78.942 36.6565 78.832 39.1965 78.672 42.3465V42.7965C78.6824 42.9663 78.6824 43.1367 78.672 43.3065C78.672 43.7765 78.672 44.3065 78.602 44.7365C78.532 45.1665 78.602 45.4565 78.522 45.8465C78.442 46.2365 78.462 46.5965 78.432 46.9865C78.302 48.3165 78.142 49.6565 77.972 50.8465C74.412 50.8465 69.232 50.0865 65.682 46.0165L65.592 41.8465L77.312 37.2465L78.942 36.6565Z" fill="#322638"/>
<path d="M86.032 27.1365C88.872 43.1365 79.622 46.6165 76.182 47.2265C73.052 47.7865 62.322 49.2265 57.842 33.6665C53.362 18.1065 59.902 11.6665 66.992 10.0465C74.082 8.42647 83.192 11.1565 86.032 27.1365Z" fill="#AD6359"/>
<path d="M72.802 12.6964C73.3328 14.0309 73.4513 15.4939 73.142 16.8964C71.892 20.7164 67.432 20.3364 66.142 21.8964C64.852 23.4564 65.772 26.1164 64.682 27.6164C63.182 29.6864 61.822 28.5164 61.682 29.7964C61.542 31.0764 61.242 35.1464 59.682 35.8564C58.122 36.5664 47.472 11.1664 68.312 9.30638C68.312 9.30638 71.062 7.61638 75.702 9.42638C82.302 12.0164 84.412 20.0264 84.412 20.0264C83.6806 19.9658 82.971 19.7475 82.332 19.3864C81.222 18.6364 80.642 18.0364 79.832 17.5664C78.562 16.8164 77.942 17.5664 76.632 16.8264C74.682 15.7764 72.802 12.6964 72.802 12.6964Z" fill="#322638"/>
<path d="M72.502 11.8464C72.9482 12.8364 73.2836 13.8727 73.502 14.9364C73.7644 15.969 73.7471 17.0528 73.452 18.0764C73.0228 19.0288 72.2623 19.7928 71.312 20.2264C70.372 20.7264 69.312 20.9664 68.312 21.5264C67.7918 21.8114 67.3595 22.2333 67.062 22.7464C66.8164 23.2736 66.6803 23.8451 66.662 24.4264C66.6731 25.478 66.4038 26.5135 65.882 27.4264C65.58 27.8561 65.1885 28.2153 64.7345 28.4794C64.2806 28.7435 63.7748 28.9062 63.252 28.9564C62.252 29.0964 61.012 28.9564 60.052 29.5364C61.052 29.0264 62.172 29.2664 63.272 29.2064C63.842 29.1737 64.3984 29.0194 64.9038 28.7537C65.4091 28.4881 65.8518 28.1174 66.202 27.6664C66.814 26.7086 67.1337 25.5931 67.122 24.4564C67.1512 23.9442 67.2767 23.4421 67.492 22.9764C67.7552 22.5518 68.1284 22.2063 68.572 21.9764C69.472 21.4464 70.572 21.1764 71.572 20.6464C72.0788 20.3879 72.5413 20.0504 72.942 19.6464C73.3702 19.254 73.6905 18.7582 73.872 18.2064C74.1484 17.1092 74.1173 15.9571 73.782 14.8764C73.4746 13.8201 73.045 12.8032 72.502 11.8464Z" fill="#322638"/>
<path d="M73.022 12.7366C73.36 13.6889 73.8205 14.5932 74.392 15.4266C74.9685 16.3153 75.7972 17.0117 76.772 17.4266C77.2578 17.6016 77.7605 17.7256 78.272 17.7966C78.727 17.8839 79.1491 18.095 79.492 18.4066C79.8109 18.808 80.1657 19.1795 80.552 19.5166C80.9706 19.8186 81.453 20.0205 81.962 20.1066C81.4982 19.9265 81.0737 19.6582 80.712 19.3166C80.3693 18.9563 80.0613 18.5646 79.792 18.1466C79.4209 17.7357 78.9319 17.4493 78.392 17.3266C77.905 17.2473 77.4263 17.1234 76.962 16.9566C76.0786 16.5546 75.3089 15.9395 74.722 15.1666C74.106 14.3922 73.5383 13.5807 73.022 12.7366Z" fill="#322638"/>
<path d="M61.482 33.2764C61.482 33.2764 57.482 28.5464 55.322 30.0164C53.162 31.4864 56.452 38.5564 59.232 39.3164C59.5816 39.4373 59.9521 39.4864 60.3211 39.4608C60.6902 39.4352 61.0503 39.3353 61.3799 39.1673C61.7094 38.9992 62.0017 38.7664 62.2392 38.4827C62.4767 38.1991 62.6545 37.8704 62.762 37.5164L61.482 33.2764Z" fill="#AD6359"/>
<path d="M56.322 32.0166V32.0866C58.272 32.6866 59.422 34.3466 60.322 36.0866C60.195 35.9076 60.0308 35.7582 59.8407 35.6487C59.6505 35.5392 59.4389 35.4721 59.2203 35.4522C59.0018 35.4322 58.7815 35.4598 58.5747 35.5331C58.3678 35.6064 58.1793 35.7235 58.022 35.8766C58.0162 35.8863 58.0133 35.8975 58.0136 35.9088C58.0139 35.9201 58.0174 35.9311 58.0237 35.9405C58.03 35.9499 58.0388 35.9573 58.0491 35.9619C58.0594 35.9666 58.0708 35.9682 58.082 35.9666C58.4051 35.8329 58.7614 35.8015 59.103 35.8766C59.4445 35.9517 59.7548 36.1297 59.992 36.3866C60.3737 36.824 60.7088 37.2999 60.992 37.8066C61.092 37.9666 61.392 37.8066 61.312 37.6666V37.6166C61.092 35.2266 58.922 32.0266 56.322 32.0166Z" fill="#322638"/>
<path d="M81.752 23.8566C81.3743 23.8535 80.9971 23.8301 80.622 23.7866C80.2161 23.8158 79.8119 23.7103 79.472 23.4866C79.3797 23.3956 79.3198 23.2768 79.3018 23.1485C79.2837 23.0202 79.3084 22.8895 79.372 22.7766C79.532 22.5732 79.7432 22.4161 79.9839 22.3212C80.2247 22.2263 80.4863 22.1971 80.742 22.2366C81.2748 22.2384 81.788 22.4379 82.182 22.7966C82.2643 22.8844 82.3196 22.9939 82.3416 23.1122C82.3636 23.2305 82.3512 23.3526 82.306 23.4641C82.2608 23.5756 82.1846 23.6718 82.0864 23.7413C81.9882 23.8109 81.8722 23.8509 81.752 23.8566Z" fill="#322638"/>
<path d="M70.902 26.1264C71.272 26.0264 71.602 25.8664 71.972 25.7264C72.3658 25.6448 72.7192 25.4292 72.972 25.1164C73.0348 25.0051 73.0591 24.876 73.041 24.7494C73.0229 24.6228 72.9635 24.5058 72.872 24.4164C72.6619 24.2632 72.4141 24.1701 72.1551 24.1472C71.896 24.1243 71.6357 24.1724 71.402 24.2864C70.8923 24.4366 70.4572 24.7719 70.182 25.2264C70.1256 25.3347 70.1019 25.4571 70.1138 25.5786C70.1256 25.7002 70.1725 25.8156 70.2488 25.911C70.3251 26.0063 70.4274 26.0775 70.5434 26.1157C70.6594 26.154 70.7839 26.1577 70.902 26.1264Z" fill="#322638"/>
<path d="M73.922 29.6865C73.922 29.6865 73.842 29.7565 73.852 29.8065C74.072 30.9065 74.142 32.2065 73.202 32.7365C73.202 32.7365 73.202 32.8165 73.202 32.8065C74.422 32.4265 74.312 30.6965 73.922 29.6865Z" fill="#322638"/>
<path d="M72.732 28.6964C70.932 28.8664 71.402 32.4664 73.072 32.3064C74.742 32.1464 74.252 28.5564 72.732 28.6964Z" fill="#322638"/>
<path d="M72.052 28.9866C71.762 29.2266 71.502 29.6266 71.132 29.7166C70.762 29.8066 70.322 29.4766 69.982 29.1566C69.982 29.1566 69.922 29.1566 69.932 29.2066C70.012 29.8966 70.362 30.5666 71.122 30.5766C71.882 30.5866 72.212 29.9066 72.292 29.1966C72.302 29.0566 72.192 28.8866 72.052 28.9866Z" fill="#322638"/>
<path d="M80.272 28.1365C80.272 28.1365 80.362 28.1365 80.362 28.2265C80.462 29.3465 80.772 30.6065 81.822 30.8565V30.9265C80.572 30.8965 80.192 29.2165 80.272 28.1365Z" fill="#322638"/>
<path d="M81.122 26.8565C82.902 26.4965 83.482 30.0765 81.832 30.4065C80.182 30.7365 79.632 27.1465 81.122 26.8565Z" fill="#322638"/>
<path d="M81.902 26.9666C82.222 27.1066 82.552 27.4066 82.902 27.3766C83.252 27.3466 83.532 26.9066 83.722 26.4966C83.722 26.4966 83.722 26.4966 83.782 26.4966C83.912 27.1766 83.782 27.9266 83.162 28.1666C82.542 28.4066 82.052 27.8666 81.772 27.1666C81.712 27.1166 81.782 26.9066 81.902 26.9666Z" fill="#322638"/>
<path d="M75.412 38.4966C75.702 38.7366 76.002 39.0766 76.412 39.0766C76.8275 39.0334 77.2294 38.904 77.592 38.6966C77.4528 38.9324 77.2513 39.1253 77.0096 39.2541C76.7679 39.3829 76.4954 39.4425 76.222 39.4266C75.9808 39.395 75.7553 39.2896 75.5763 39.125C75.3973 38.9603 75.2735 38.7443 75.222 38.5066C75.282 38.4966 75.372 38.4266 75.412 38.4966Z" fill="#322638"/>
<path d="M79.492 33.8166C79.492 33.8166 79.952 35.4466 80.072 36.2366C80.072 36.3066 79.892 36.3666 79.632 36.4166C78.9758 36.6343 78.2724 36.6673 77.5986 36.5121C76.9249 36.3569 76.3068 36.0194 75.812 35.5366C75.8009 35.5222 75.795 35.5044 75.7953 35.4862C75.7956 35.468 75.8022 35.4504 75.8138 35.4365C75.8255 35.4225 75.8416 35.4129 75.8594 35.4093C75.8773 35.4057 75.8958 35.4082 75.912 35.4166C77.0092 35.9545 78.25 36.1262 79.452 35.9066C79.452 35.6766 78.562 33.1366 78.692 33.1166C79.306 33.0812 79.9219 33.1317 80.522 33.2666C79.652 29.8466 78.242 26.5866 77.422 23.1666C77.4176 23.1417 77.4219 23.116 77.4341 23.0939C77.4464 23.0718 77.466 23.0546 77.4894 23.0452C77.5129 23.0358 77.5389 23.0348 77.5631 23.0424C77.5872 23.0499 77.608 23.0655 77.622 23.0866C79.2413 26.5284 80.5142 30.1228 81.422 33.8166C81.522 34.2666 79.822 33.9066 79.492 33.8166Z" fill="#322638"/>
<path d="M79.042 36.0765C78.7291 36.6959 78.2604 37.2231 77.682 37.6065C77.359 37.8071 76.9814 37.9015 76.602 37.8765C75.772 37.8165 75.602 37.0965 75.652 36.4465C75.6703 36.107 75.7308 35.7711 75.832 35.4465C76.8066 35.9957 77.9321 36.2166 79.042 36.0765Z" fill="#322638"/>
<path d="M77.682 37.6064C77.359 37.807 76.9814 37.9014 76.602 37.8764C75.772 37.8164 75.602 37.0964 75.652 36.4464C76.0715 36.384 76.4997 36.4644 76.8679 36.6748C77.2361 36.8852 77.5228 37.2133 77.682 37.6064Z" fill="#FF9ABB"/>
<path d="M27.322 77.4965C26.942 70.5665 27.022 60.7765 29.052 58.3365C31.082 55.8965 39.052 47.0665 41.502 45.6265C43.952 44.1865 54.942 37.3765 57.362 38.2165C59.302 38.8765 58.132 43.8665 52.922 47.1565C50.113 49.0165 47.4181 51.0435 44.852 53.2265C43.522 54.1365 40.962 59.4865 42.312 61.3765C43.112 62.4865 46.942 63.2265 48.952 61.7965C50.962 60.3665 50.662 55.8965 52.772 53.3465C54.882 50.7965 59.392 50.1765 59.882 51.3465C60.372 52.5165 59.012 53.3465 57.532 57.8665C56.532 60.7765 57.712 67.0965 55.272 72.2565C54.0838 75.2586 53.0819 78.3311 52.272 81.4565L27.322 77.4965Z" fill="#AD6359"/>
<path d="M54.772 51.0266C55.5582 50.7443 56.2506 50.2493 56.772 49.5966C56.9715 49.3004 57.0825 48.9535 57.092 48.5966C57.093 48.4062 57.0626 48.217 57.002 48.0366C56.9542 47.8388 56.8415 47.6628 56.682 47.5366C56.682 47.5366 56.682 47.4466 56.682 47.4866C56.7639 47.5684 56.8507 47.6452 56.942 47.7166C57.0104 47.7862 57.0708 47.8634 57.122 47.9466C57.2193 48.1101 57.287 48.2895 57.322 48.4766C57.3848 48.8931 57.3074 49.3188 57.102 49.6866C56.8425 50.0854 56.4946 50.4191 56.0853 50.6619C55.6761 50.9047 55.2164 51.05 54.742 51.0866C54.742 51.0866 54.732 51.0366 54.772 51.0266Z" fill="#322638"/>
<path d="M29.052 58.3365C30.532 54.5465 34.842 47.4065 39.872 44.2565C43.272 42.1265 57.122 45.8165 57.232 48.2565C57.342 50.6965 55.172 51.1765 51.902 51.4265C50.702 51.5065 44.112 50.4965 43.312 51.9965C42.162 54.1565 41.482 60.8765 41.482 60.8765L29.052 58.3365Z" fill="#AD6359"/>
<path d="M56.732 47.4266C54.662 45.1466 50.962 44.4266 47.332 44.0066C47.272 44.0066 47.252 44.0866 47.332 44.0966C48.262 44.2066 54.332 45.6766 56.722 47.4766C56.732 47.4966 56.752 47.4266 56.732 47.4266Z" fill="#322638"/>
<path d="M29.052 58.3366C30.532 54.5466 34.842 47.4066 39.872 44.2566C43.272 42.1266 54.822 48.0566 54.872 50.5466C54.922 53.0366 51.872 53.8366 48.242 53.3166C47.062 53.1466 42.832 51.2466 42.032 52.7466C40.882 54.9066 38.102 60.2366 38.102 60.2366L29.052 58.3366Z" fill="#AD6359"/>
<path d="M39.722 56.9665C39.962 56.3665 40.042 56.1565 40.292 55.5565C40.542 54.9565 40.802 54.3765 41.102 53.8065C41.3165 53.2841 41.6211 52.8034 42.002 52.3865C42.4097 52.0332 42.9233 51.8256 43.462 51.7965C44.6882 51.8126 45.8974 52.0851 47.012 52.5965C48.262 53.0265 50.812 53.5965 52.562 53.0765C53.0517 52.9576 53.5092 52.7322 53.902 52.4165C54.2072 52.2024 54.4518 51.913 54.612 51.5765C55.132 50.1165 53.872 48.7965 52.672 47.9265C50.3397 46.3803 47.7485 45.2659 45.022 44.6365L43.022 44.1465C42.2814 43.9183 41.5001 43.8535 40.732 43.9565C39.482 44.1865 37.732 45.8465 37.132 46.3565C37.132 46.3565 37.042 46.3565 37.132 46.2865C37.802 45.6565 39.392 43.7365 41.422 43.4465C42.1767 43.4091 42.932 43.5073 43.652 43.7365C44.402 43.9065 45.162 44.0965 45.912 44.3065C47.3704 44.6942 48.795 45.1992 50.172 45.8165C51.5416 46.3671 52.7989 47.1636 53.882 48.1665C54.3404 48.6166 54.6681 49.1826 54.8301 49.8043C54.9921 50.4259 54.9824 51.0799 54.802 51.6965C54.6059 52.0984 54.3259 52.4537 53.9809 52.7383C53.6359 53.0229 53.2339 53.2303 52.802 53.3465C52.2907 53.5135 51.7593 53.6111 51.222 53.6365C50.0025 53.6105 48.7863 53.5003 47.582 53.3065C46.412 53.0865 45.292 52.5365 44.102 52.4165C43.8201 52.3771 43.5331 52.3948 43.2582 52.4687C42.9834 52.5426 42.7262 52.6711 42.502 52.8465C42.1024 53.2397 41.7652 53.6915 41.502 54.1865C40.897 55.0698 40.3747 56.0071 39.942 56.9865C39.802 57.2565 39.622 57.2165 39.722 56.9665Z" fill="#322638"/>
<path d="M28.032 61.5865C28.502 59.8265 28.542 52.9665 29.422 50.6865C30.302 48.4065 34.752 40.2765 37.532 40.0465C41.022 39.7565 38.672 46.6165 37.372 49.4965C36.072 52.3765 37.222 56.6365 37.222 56.6365L28.032 61.5865Z" fill="#AD6359"/>
<path d="M39.042 44.8066C38.572 45.7366 38.182 46.7366 37.792 47.7066C37.388 48.6166 37.0537 49.5559 36.792 50.5166C36.5873 51.4829 36.5467 52.4768 36.672 53.4566C36.672 53.9466 36.792 54.4566 36.882 54.8966C36.972 55.3366 37.132 55.8966 37.222 56.4566C37.222 56.5166 37.322 56.5066 37.312 56.4566C37.1873 55.495 37.1272 54.5262 37.132 53.5566C37.1105 52.5481 37.2112 51.5408 37.432 50.5566C37.882 48.6066 38.742 46.7866 39.202 44.8466C39.192 44.7666 39.082 44.7366 39.042 44.8066Z" fill="#322638"/>
<path d="M37.402 57.3464C37.6 59.0157 38.2157 60.6081 39.192 61.9764C39.6494 62.6791 40.1574 63.3476 40.712 63.9764C41.2802 64.5919 41.8846 65.1729 42.522 65.7164C43.7499 66.743 44.8451 67.9188 45.782 69.2164C46.6953 70.5626 47.4377 72.0171 47.992 73.5464C47.7861 71.8812 47.2597 70.2716 46.442 68.8064C45.5795 67.3548 44.4811 66.057 43.192 64.9664C41.9665 63.9232 40.8477 62.7608 39.852 61.4964C38.8124 60.2574 37.9846 58.8552 37.402 57.3464Z" fill="#322638"/>
<path d="M40.702 115.146C47.162 112.876 49.212 100.866 52.772 79.7664C53.392 76.0564 31.682 58.5564 29.972 62.1864C27.812 66.7664 24.352 90.4865 24.752 96.6765C25.532 108.866 33.192 117.796 40.702 115.146Z" fill="#AD6359"/>
<path d="M52.772 79.7666C52.002 87.9066 49.502 107.577 43.562 112.987C45.562 110.877 46.392 107.987 47.282 105.257C48.172 102.527 48.832 99.6766 49.432 96.8466C50.582 91.9266 51.822 84.8466 52.772 79.7666Z" fill="#322638"/>
<path d="M62.282 56.7965L71.492 85.3365C71.6094 85.4883 71.6807 85.6708 71.6972 85.8621C71.7138 86.0533 71.6749 86.2453 71.5853 86.4151C71.4956 86.5849 71.359 86.7252 71.1918 86.8195C71.0245 86.9137 70.8336 86.9578 70.642 86.9465L55.642 87.9465C55.183 87.9393 54.7353 87.8033 54.3499 87.554C53.9644 87.3047 53.6568 86.9521 53.462 86.5365L44.252 57.9965C43.882 57.1565 44.252 56.4465 45.102 56.3865L60.102 55.3865C60.5607 55.3948 61.0079 55.5313 61.3932 55.7805C61.7784 56.0296 62.0862 56.3815 62.282 56.7965Z" fill="#500068"/>
<path d="M60.502 56.8966L69.712 85.4266C69.8294 85.5784 69.9007 85.7609 69.9172 85.9521C69.9338 86.1434 69.8949 86.3354 69.8053 86.5052C69.7156 86.6749 69.579 86.8153 69.4118 86.9096C69.2445 87.0038 69.0536 87.0479 68.862 87.0366L53.862 88.0366C53.4033 88.0282 52.9561 87.8917 52.5708 87.6426C52.1856 87.3934 51.8777 87.0415 51.682 86.6266L42.492 58.0766C42.3746 57.9247 42.3033 57.7422 42.2868 57.551C42.2702 57.3597 42.3091 57.1677 42.3987 56.9979C42.4884 56.8282 42.625 56.6878 42.7922 56.5936C42.9595 56.4993 43.1504 56.4552 43.342 56.4666L58.342 55.4666C58.7994 55.4804 59.2439 55.6216 59.6255 55.8742C60.007 56.1268 60.3106 56.4809 60.502 56.8966Z" fill="#9200CC"/>
<path d="M56.482 58.4864C56.5046 58.7361 56.6006 58.9736 56.7579 59.1689C56.9153 59.3642 57.1269 59.5085 57.3662 59.5837C57.6054 59.6588 57.8615 59.6615 58.1023 59.5913C58.3431 59.5211 58.5576 59.3812 58.719 59.1892C58.8804 58.9973 58.9813 58.7618 59.009 58.5126C59.0368 58.2634 58.9901 58.0115 58.8749 57.7887C58.7598 57.566 58.5812 57.3823 58.3618 57.2609C58.1424 57.1394 57.8919 57.0857 57.642 57.1064C57.475 57.1202 57.3124 57.167 57.1635 57.2439C57.0146 57.3209 56.8825 57.4266 56.7747 57.5549C56.6668 57.6832 56.5855 57.8315 56.5352 57.9914C56.485 58.1513 56.4669 58.3195 56.482 58.4864Z" fill="#322638"/>
<path d="M116.992 113.187C112.652 115.477 102.772 114.867 83.592 101.817C80.592 99.8165 89.862 73.9465 93.102 76.0665C97.182 78.7365 112.442 89.9865 113.452 90.9465C121.992 99.0665 121.572 110.777 116.992 113.187Z" fill="#AD6359"/>
<path d="M100.652 83.5366C100.652 83.5366 94.652 75.0866 90.092 71.6266C85.2851 68.1501 79.7046 65.8953 73.832 65.0566C67.492 64.1166 51.532 66.2466 51.342 70.9466C51.172 75.2066 67.342 72.2165 67.342 72.2165C67.342 72.2165 50.342 72.5366 51.052 77.7066C51.762 82.8766 70.392 78.3265 70.392 78.3265C70.392 78.3265 52.912 79.0466 54.512 84.2566C55.722 88.1966 72.812 85.0266 72.812 85.0266C72.812 85.0266 57.812 85.7565 58.812 89.8565C60.002 94.3865 75.962 92.4466 75.962 92.4466C80.432 102.447 86.852 105.217 91.512 106.767C92.722 107.147 100.652 83.5366 100.652 83.5366Z" fill="#AD6359"/>
<path d="M73.262 71.7164C71.262 71.7164 69.262 71.6364 67.262 71.7864C65.262 71.9364 63.262 72.1464 61.262 72.4664C58.6703 72.8404 56.1302 73.5115 53.692 74.4664C58.142 73.0764 65.282 72.4664 67.282 72.3064C69.282 72.1464 71.282 71.9264 73.282 71.7764C73.322 71.7964 73.312 71.7164 73.262 71.7164Z" fill="#322638"/>
<path d="M73.912 78.9265C71.352 78.9965 68.812 78.9265 66.262 79.1465C63.712 79.3665 61.322 79.7165 58.792 80.0765C58.602 80.0765 58.682 80.1965 58.872 80.1765C61.412 79.9265 63.772 79.8865 66.312 79.6565C68.852 79.4265 71.382 79.1165 73.922 78.9865C73.962 78.9865 73.952 78.9265 73.912 78.9265Z" fill="#322638"/>
<path d="M75.582 85.0066C71.6568 85.0162 67.743 85.4284 63.902 86.2366C63.712 86.2366 63.832 86.3866 64.022 86.3666C67.902 85.8766 70.932 85.4766 75.582 85.1466C75.652 85.1366 75.662 85.0066 75.582 85.0066Z" fill="#322638"/>
<path d="M96.952 78.7366C102.221 81.9351 107.2 85.5891 111.832 89.6566C106.932 86.0866 101.682 82.5266 96.952 78.7366Z" fill="#322638"/>
</svg>
