<svg width="364" height="364" viewBox="0 0 364 364" fill="none" xmlns="http://www.w3.org/2000/svg">
<path d="M299.528 79.2573C287.152 66.43 272.971 55.772 257.901 48.3028C234.947 36.9241 209.664 31.4423 184.373 31.1147C110.481 30.1683 104.832 122.158 82.1402 134.949C59.4485 147.74 18.2364 149.24 16.8168 200.404C15.9214 232.589 23.0121 265.676 42.9447 290.749C61.203 313.71 88.0298 325.35 114.449 333.948C144.144 343.616 175.601 353.08 206.81 346.564C238.842 339.874 261.352 312.996 287.655 294.833C304.217 283.396 319.082 271.355 329.311 253.002C330.534 250.818 331.677 248.576 332.769 246.304C346.462 217.788 349.142 184.897 341.592 154.037C334.822 126.352 319.526 99.9762 299.528 79.2573Z" fill="#7E57C2"/>
<path opacity="0.7" d="M299.528 79.2573C287.152 66.43 272.971 55.772 257.901 48.3028C234.947 36.9241 209.664 31.4423 184.373 31.1147C110.481 30.1683 104.832 122.158 82.1402 134.949C59.4485 147.74 18.2364 149.24 16.8168 200.404C15.9214 232.589 23.0121 265.676 42.9447 290.749C61.203 313.71 88.0298 325.35 114.449 333.948C144.144 343.616 175.601 353.08 206.81 346.564C238.842 339.874 261.352 312.996 287.655 294.833C304.217 283.396 319.082 271.355 329.311 253.002C330.534 250.818 331.677 248.576 332.769 246.304C346.462 217.788 349.142 184.897 341.592 154.037C334.822 126.352 319.526 99.9762 299.528 79.2573Z" fill="white"/>
<path d="M209.926 231.162C211.215 232.057 214.687 232.669 214.694 232.669C214.702 232.669 214.403 230.259 214.36 230.106C213.923 228.374 212.045 225.272 210.035 225.149C209.702 225.136 209.369 225.195 209.06 225.32C208.75 225.445 208.471 225.634 208.239 225.874C208.008 226.115 207.829 226.401 207.716 226.715C207.603 227.029 207.557 227.364 207.582 227.697C207.64 229.109 208.827 230.39 209.926 231.162Z" fill="#263238"/>
<path d="M209.118 241.412C210.574 241.922 213.806 241.645 214.068 241.616C214.225 243.484 214.505 245.339 214.906 247.171C215.139 248.241 215.401 249.304 215.677 250.374C215.481 249.908 215.299 249.486 215.262 249.435C214.381 247.869 211.753 245.38 209.78 245.795C209.456 245.871 209.15 246.016 208.885 246.219C208.62 246.421 208.4 246.678 208.241 246.971C208.082 247.265 207.986 247.588 207.96 247.921C207.934 248.254 207.979 248.589 208.092 248.903C208.514 250.25 209.999 251.175 211.258 251.626C212.518 252.077 215.328 251.895 216.07 251.837C216.18 252.252 216.282 252.66 216.398 253.067C216.937 255.026 217.483 256.977 217.956 258.891C218.131 259.568 218.269 260.245 218.415 260.923C218.233 260.508 218.08 260.158 218.051 260.107C217.17 258.549 214.542 256.052 212.569 256.467C212.244 256.545 211.94 256.69 211.675 256.893C211.411 257.096 211.192 257.352 211.032 257.646C210.873 257.939 210.777 258.262 210.751 258.594C210.725 258.927 210.769 259.261 210.88 259.576C211.302 260.93 212.787 261.847 214.054 262.298C215.321 262.75 217.847 262.59 218.728 262.524C218.851 263.252 218.975 263.915 219.07 264.599C219.121 265.065 219.201 265.509 219.23 265.982C219.259 266.455 219.295 266.907 219.332 267.365C219.368 268.246 219.405 269.156 219.419 270.015C219.419 270.619 219.419 271.187 219.419 271.762C219.259 271.085 218.917 269.76 218.88 269.651C218.24 267.977 216.019 265.116 214.01 265.218C213.677 265.244 213.354 265.341 213.061 265.501C212.768 265.662 212.512 265.882 212.31 266.148C212.108 266.414 211.964 266.719 211.888 267.044C211.813 267.37 211.806 267.707 211.87 268.035C212.081 269.433 213.413 270.576 214.593 271.209C215.888 271.937 219.033 272.134 219.419 272.156C219.419 273.109 219.419 274.034 219.419 274.907C219.383 276.684 219.31 278.278 219.223 279.654L220.511 279.909C220.569 278.453 220.613 276.8 220.613 274.922C220.613 273.954 220.613 272.92 220.613 271.864C221.597 271.676 222.569 271.433 223.525 271.136C224.319 272.425 226.648 274.223 226.947 274.449C226.423 275.242 225.906 276.014 225.411 276.727C224.457 278.096 223.576 279.305 222.783 280.367L224.166 280.644C224.85 279.683 225.622 278.598 226.393 277.404C226.925 276.596 227.485 275.73 228.046 274.827C228.403 274.98 231.315 276.203 232.785 276.167C234.125 276.167 235.828 275.715 236.651 274.565C236.854 274.301 237 273.997 237.078 273.672C237.157 273.348 237.166 273.011 237.105 272.683C237.045 272.355 236.916 272.043 236.728 271.768C236.539 271.493 236.295 271.26 236.01 271.085C234.263 270.081 230.994 271.639 229.662 272.847C229.589 272.913 228.825 273.779 228.352 274.34L229.036 273.233C229.495 272.505 229.932 271.711 230.405 270.889L231.053 269.666C231.278 269.258 231.468 268.807 231.679 268.37C232.145 267.358 232.567 266.302 232.975 265.232C233.63 265.633 235.996 267.03 237.343 267.198C238.689 267.365 240.407 267.198 241.398 266.201C241.64 265.97 241.831 265.692 241.958 265.382C242.085 265.073 242.145 264.741 242.135 264.407C242.124 264.073 242.044 263.745 241.898 263.444C241.752 263.144 241.544 262.877 241.288 262.662C239.723 261.41 236.251 262.451 234.736 263.441C234.642 263.5 233.644 264.337 233.113 264.803C233.346 264.155 233.586 263.514 233.804 262.859C234.438 260.952 235.02 259.001 235.61 257.035C235.785 256.438 235.974 255.848 236.156 255.259C236.389 255.404 239.17 257.115 240.662 257.304C241.994 257.479 243.734 257.304 244.724 256.307C244.965 256.077 245.155 255.799 245.282 255.49C245.408 255.182 245.468 254.85 245.458 254.517C245.447 254.184 245.367 253.857 245.222 253.557C245.077 253.257 244.87 252.991 244.615 252.776C243.043 251.517 239.57 252.558 238.063 253.548C237.954 253.628 236.527 254.822 236.178 255.149C236.585 253.846 237 252.551 237.459 251.291C238.082 249.587 238.812 247.924 239.643 246.312C239.752 246.384 242.642 248.183 244.171 248.379C245.503 248.554 247.243 248.379 248.233 247.382C248.475 247.151 248.665 246.872 248.791 246.563C248.917 246.254 248.977 245.922 248.967 245.588C248.957 245.255 248.876 244.927 248.731 244.626C248.586 244.326 248.379 244.059 248.124 243.844C246.552 242.591 243.079 243.633 241.572 244.623C241.456 244.703 239.92 245.991 239.658 246.246C239.709 246.159 239.752 246.057 239.803 245.962C240.679 244.369 241.698 242.858 242.846 241.449C243.465 240.662 244.106 239.942 244.746 239.265C245.249 239.658 247.571 241.449 248.925 241.747C250.279 242.045 251.975 242.096 253.075 241.201C253.34 240.999 253.559 240.743 253.718 240.45C253.878 240.157 253.974 239.833 254 239.501C254.026 239.169 253.982 238.834 253.87 238.52C253.758 238.206 253.581 237.919 253.351 237.677C251.932 236.258 248.364 236.906 246.799 237.728C246.712 237.772 245.882 238.325 245.285 238.74C245.576 238.435 245.875 238.114 246.159 237.83C247.229 236.753 248.277 235.828 249.209 235.02C249.748 234.569 250.243 234.169 250.709 233.797C251.4 233.921 254.203 234.394 255.535 234.067C256.868 233.739 258.404 232.975 258.964 231.671C259.106 231.369 259.183 231.041 259.189 230.707C259.196 230.373 259.132 230.042 259.003 229.734C258.873 229.427 258.68 229.15 258.436 228.922C258.193 228.694 257.904 228.519 257.588 228.41C255.674 227.813 252.805 230.026 251.764 231.497C251.677 231.621 250.505 233.761 250.541 233.768H250.578C250.126 234.118 249.638 234.496 249.122 234.918C248.168 235.705 247.098 236.6 245.998 237.663C244.8 238.789 243.67 239.985 242.613 241.245C241.42 242.646 240.355 244.151 239.432 245.744C239.433 245.763 239.433 245.783 239.432 245.802C239.556 245.227 239.854 243.618 239.861 243.48C239.985 241.689 239.17 238.158 237.299 237.415C236.986 237.3 236.652 237.252 236.319 237.275C235.986 237.298 235.661 237.391 235.366 237.547C235.072 237.704 234.813 237.921 234.608 238.184C234.403 238.448 234.256 238.751 234.176 239.075C233.783 240.437 234.511 242.024 235.319 243.094C236.229 244.302 239.104 245.875 239.33 246.006C238.429 247.649 237.641 249.351 236.971 251.102C236.571 252.121 236.2 253.155 235.843 254.203C235.938 253.701 236.018 253.249 236.018 253.184C236.141 251.4 235.326 247.869 233.455 247.12C233.142 247.004 232.808 246.957 232.475 246.979C232.142 247.002 231.817 247.095 231.523 247.252C231.228 247.408 230.969 247.625 230.764 247.889C230.559 248.152 230.412 248.455 230.332 248.779C229.939 250.141 230.667 251.728 231.475 252.798C232.283 253.868 234.722 255.273 235.362 255.63C235.231 256.03 235.093 256.431 234.962 256.838C234.336 258.768 233.71 260.697 233.047 262.568C232.807 263.23 232.552 263.871 232.319 264.512C232.399 264.067 232.465 263.689 232.465 263.631C232.589 261.847 231.773 258.316 229.91 257.566C229.596 257.452 229.262 257.406 228.928 257.429C228.595 257.452 228.271 257.545 227.976 257.701C227.681 257.858 227.422 258.074 227.216 258.337C227.01 258.6 226.861 258.903 226.779 259.226C226.393 260.588 227.121 262.175 227.922 263.245C228.723 264.315 230.929 265.582 231.701 266.011C231.417 266.666 231.14 267.314 230.842 267.933C230.623 268.348 230.448 268.77 230.208 269.178L229.531 270.387C229.072 271.115 228.607 271.923 228.141 272.651L227.194 274.107C227.434 273.451 227.879 272.156 227.922 272.046C228.205 270.494 228.087 268.896 227.58 267.402C227.622 267.23 227.647 267.054 227.653 266.878C227.677 266.545 227.63 266.211 227.516 265.898C227.403 265.584 227.224 265.298 226.993 265.058C226.762 264.817 226.483 264.628 226.174 264.503C225.865 264.378 225.533 264.319 225.2 264.33C223.19 264.461 221.319 267.562 220.875 269.302C220.875 269.404 220.693 270.547 220.606 271.267C220.606 270.838 220.606 270.416 220.569 269.972C220.533 269.091 220.475 268.21 220.417 267.263L220.286 265.88C220.249 265.422 220.154 264.934 220.089 264.461C219.922 263.354 219.689 262.24 219.441 261.126C220.213 261.126 222.95 260.952 224.158 260.398C225.367 259.845 226.728 258.717 226.998 257.326C227.076 256.999 227.084 256.659 227.021 256.328C226.958 255.997 226.825 255.684 226.632 255.409C226.438 255.133 226.188 254.902 225.899 254.731C225.609 254.559 225.286 254.451 224.952 254.414C222.95 254.232 220.628 257.013 219.929 258.666C219.885 258.768 219.521 260.013 219.332 260.697C219.172 260.027 219.019 259.357 218.837 258.688C218.313 256.751 217.723 254.807 217.141 252.864L216.616 251.08C216.893 251.08 220.154 250.971 221.509 250.301C222.71 249.711 224.078 248.627 224.348 247.229C224.425 246.902 224.432 246.562 224.368 246.232C224.305 245.902 224.172 245.589 223.979 245.313C223.786 245.038 223.536 244.807 223.247 244.636C222.958 244.464 222.636 244.355 222.302 244.317C220.3 244.142 217.978 246.923 217.279 248.576C217.228 248.699 216.696 250.49 216.587 250.949C216.209 249.639 215.859 248.328 215.532 247.025C215.106 245.263 214.794 243.476 214.6 241.674C214.731 241.674 218.131 241.58 219.521 240.895C220.722 240.306 222.084 239.214 222.353 237.823C222.43 237.496 222.438 237.157 222.374 236.827C222.311 236.498 222.179 236.185 221.987 235.91C221.794 235.635 221.546 235.404 221.257 235.232C220.969 235.06 220.648 234.95 220.315 234.911C218.313 234.736 215.99 237.517 215.291 239.17C215.233 239.301 214.665 241.223 214.563 241.58C214.563 241.47 214.527 241.368 214.52 241.259C214.372 239.449 214.389 237.629 214.571 235.821C214.651 234.816 214.789 233.87 214.942 232.945C215.583 232.989 218.487 233.178 219.805 232.705C221.123 232.232 222.542 231.315 222.957 229.961C223.067 229.646 223.109 229.311 223.081 228.979C223.053 228.646 222.954 228.323 222.793 228.032C222.632 227.74 222.41 227.485 222.144 227.284C221.877 227.084 221.572 226.941 221.246 226.867C219.281 226.466 216.667 228.978 215.786 230.543C215.743 230.63 215.35 231.548 215.058 232.217C215.131 231.803 215.204 231.373 215.284 230.98C215.583 229.524 215.954 228.141 216.282 226.954C216.478 226.277 216.667 225.673 216.857 225.112C217.505 224.828 220.104 223.656 221.035 222.666C221.967 221.676 222.826 220.176 222.571 218.779C222.522 218.452 222.405 218.14 222.229 217.861C222.052 217.582 221.82 217.343 221.546 217.159C221.272 216.975 220.963 216.85 220.638 216.791C220.314 216.733 219.98 216.743 219.659 216.82C217.73 217.374 216.565 220.81 216.507 222.601C216.507 222.753 216.704 225.185 216.74 225.17H216.777C216.595 225.709 216.398 226.292 216.194 226.932C215.837 228.119 215.466 229.458 215.102 230.943C214.729 232.545 214.447 234.166 214.258 235.799C214.039 237.628 213.983 239.472 214.09 241.31C214.09 241.31 214.09 241.354 214.09 241.376C213.879 240.83 213.231 239.308 213.166 239.192C212.278 237.634 209.649 235.137 207.684 235.552C207.359 235.63 207.055 235.775 206.79 235.978C206.526 236.181 206.307 236.437 206.147 236.73C205.988 237.023 205.892 237.346 205.866 237.679C205.84 238.011 205.884 238.346 205.995 238.66C206.373 240.043 207.859 240.968 209.118 241.412Z" fill="#263238"/>
<path d="M244.754 238.901C244.754 238.901 245.838 236.717 245.889 236.578C246.479 234.882 246.617 231.264 245.023 230.026C244.751 229.832 244.442 229.698 244.115 229.631C243.788 229.565 243.451 229.568 243.125 229.641C242.8 229.714 242.493 229.855 242.225 230.054C241.958 230.253 241.735 230.507 241.572 230.798C240.844 232.006 241.114 233.71 241.609 234.977C242.191 236.469 244.754 238.893 244.754 238.901Z" fill="#263238"/>
<path d="M135.226 94.2906C136.602 94.4872 139.594 93.5626 139.594 93.5626C139.594 93.5626 138.407 91.7717 138.32 91.6698C137.279 90.4759 134.571 88.7578 132.94 89.4858C132.673 89.6095 132.434 89.788 132.24 90.0097C132.047 90.2313 131.901 90.4913 131.814 90.7726C131.727 91.054 131.7 91.3505 131.735 91.643C131.769 91.9355 131.865 92.2175 132.016 92.4706C132.612 93.5772 134.061 94.1159 135.226 94.2906Z" fill="#263238"/>
<path d="M138.662 102.692C139.98 102.524 142.448 101.01 142.644 100.894C143.505 102.304 144.46 103.654 145.505 104.934C146.11 105.662 146.736 106.426 147.376 107.154C147.034 106.863 146.728 106.608 146.648 106.579C145.338 105.698 142.28 104.774 140.883 105.851C140.658 106.041 140.475 106.276 140.346 106.542C140.218 106.807 140.147 107.096 140.137 107.39C140.127 107.685 140.18 107.978 140.291 108.251C140.402 108.523 140.568 108.77 140.781 108.974C141.654 109.87 143.19 110.008 144.362 109.863C145.534 109.717 147.682 108.465 148.235 108.13C148.483 108.407 148.73 108.69 148.963 108.967C150.165 110.292 151.366 111.617 152.509 112.949C152.909 113.422 153.288 113.896 153.666 114.405C153.36 114.143 153.106 113.932 153.062 113.903C151.744 113.022 148.694 112.097 147.296 113.175C147.07 113.364 146.887 113.599 146.758 113.864C146.628 114.13 146.557 114.419 146.547 114.714C146.538 115.008 146.59 115.302 146.702 115.575C146.813 115.848 146.981 116.094 147.194 116.298C148.061 117.193 149.597 117.332 150.776 117.186C151.955 117.041 153.885 115.912 154.547 115.512C154.918 116.014 155.275 116.509 155.639 117.011C155.865 117.361 156.105 117.681 156.316 118.038L156.942 119.086C157.321 119.771 157.714 120.469 158.063 121.147C158.311 121.612 158.537 122.064 158.791 122.515C158.391 122.042 157.605 121.139 157.525 121.059C156.36 119.989 153.477 118.613 151.934 119.494C151.682 119.647 151.466 119.851 151.299 120.093C151.132 120.335 151.017 120.609 150.963 120.898C150.909 121.187 150.916 121.485 150.984 121.771C151.052 122.057 151.18 122.325 151.358 122.559C152.086 123.578 153.579 123.949 154.766 124.015C156.061 124.015 158.631 122.981 158.952 122.85C159.323 123.578 159.68 124.306 160.014 125.034C160.691 126.446 161.259 127.735 161.74 128.856L162.854 128.543C162.329 127.393 161.703 126.053 160.961 124.575C160.582 123.847 160.16 123.003 159.716 122.18C160.425 121.636 161.103 121.053 161.747 120.433C163.022 121.037 164.374 121.461 165.766 121.693C165.664 122.53 165.562 123.338 165.453 124.102C165.241 125.558 165.023 126.861 164.819 128.004L166.02 127.669C166.181 126.643 166.341 125.485 166.494 124.241C166.596 123.389 166.69 122.486 166.778 121.554C167.112 121.554 169.893 121.343 171.044 120.724C172.085 120.164 173.228 119.166 173.453 117.929C173.51 117.64 173.504 117.342 173.438 117.056C173.371 116.769 173.244 116.5 173.066 116.265C172.888 116.031 172.663 115.837 172.405 115.696C172.146 115.555 171.861 115.47 171.568 115.446C169.799 115.344 167.833 117.871 167.265 119.341C167.229 119.428 166.974 120.419 166.821 121.045C166.821 120.659 166.894 120.317 166.923 119.902C166.981 119.123 167.025 118.351 167.076 117.514V116.291C167.076 115.883 167.076 115.446 167.076 115.024C167.076 114.034 166.96 113.037 166.858 112.032C167.535 112.09 169.952 112.25 171.073 111.857C172.194 111.464 173.497 110.649 173.876 109.455C173.975 109.18 174.016 108.887 173.995 108.595C173.974 108.303 173.893 108.018 173.756 107.76C173.619 107.501 173.429 107.274 173.199 107.094C172.969 106.913 172.703 106.782 172.42 106.71C170.68 106.346 168.357 108.545 167.571 109.913C167.527 110.001 167.069 111.049 166.843 111.632C166.77 111.035 166.705 110.43 166.617 109.826C166.363 108.072 166.05 106.303 165.744 104.541C165.649 104.002 165.562 103.463 165.474 102.925C165.715 102.925 168.583 103.194 169.842 102.757C170.956 102.364 172.267 101.549 172.652 100.355C172.752 100.08 172.793 99.7866 172.772 99.4947C172.751 99.2028 172.67 98.9184 172.533 98.6599C172.396 98.4014 172.206 98.1744 171.976 97.9937C171.746 97.8129 171.48 97.6823 171.196 97.6103C169.464 97.2463 167.142 99.4449 166.355 100.813C166.297 100.923 165.627 102.43 165.496 102.823C165.3 101.636 165.118 100.449 164.987 99.2774C164.796 97.688 164.708 96.0879 164.725 94.4872C164.841 94.4872 167.833 94.7784 169.093 94.3197C170.206 93.9266 171.517 93.1185 171.903 91.9246C172.002 91.6469 172.041 91.3515 172.018 91.0576C171.995 90.7636 171.911 90.4778 171.77 90.2188C171.629 89.9599 171.435 89.7335 171.201 89.5545C170.967 89.3755 170.697 89.2479 170.41 89.1801C168.678 88.8161 166.348 91.0073 165.569 92.3833C165.504 92.4925 164.841 94.1232 164.703 94.4217C164.703 94.3343 164.703 94.2324 164.703 94.145C164.77 92.541 164.974 90.9457 165.314 89.3766C165.496 88.5103 165.715 87.6949 165.948 86.9014C166.501 87.0106 169.027 87.4765 170.228 87.1926C171.429 86.9087 172.769 86.2681 173.279 85.1251C173.41 84.8595 173.484 84.5691 173.495 84.2729C173.506 83.9768 173.455 83.6816 173.345 83.4067C173.234 83.1317 173.066 82.8833 172.853 82.6776C172.64 82.4719 172.385 82.3136 172.106 82.2131C170.418 81.6598 167.87 83.589 166.938 84.8703C166.887 84.9358 166.45 85.7002 166.137 86.2681C166.246 85.9113 166.355 85.5401 166.464 85.1979C166.887 83.9239 167.345 82.7882 167.768 81.7763C168.008 81.2085 168.234 80.6989 168.459 80.2184C169.056 80.0437 171.451 79.3084 172.369 78.5149C173.286 77.7213 174.203 76.5201 174.123 75.268C174.115 74.9739 174.046 74.6847 173.919 74.4192C173.793 74.1537 173.611 73.9179 173.388 73.727C173.164 73.5361 172.902 73.3945 172.62 73.3113C172.338 73.2281 172.041 73.2052 171.75 73.2441C169.995 73.5353 168.619 76.4182 168.386 77.9834C168.386 78.1217 168.284 80.2693 168.321 80.2621H168.357C168.132 80.7207 167.899 81.2085 167.629 81.7181C167.192 82.7154 166.705 83.8511 166.253 85.1251C165.756 86.487 165.34 87.8776 165.008 89.2893C164.625 90.8663 164.381 92.4741 164.28 94.0941V94.1523C164.149 93.65 163.742 92.2595 163.698 92.1503C163.087 90.6943 161.048 88.2337 159.279 88.3865C158.986 88.419 158.703 88.5132 158.449 88.6629C158.195 88.8127 157.975 89.0145 157.804 89.2552C157.634 89.4959 157.516 89.77 157.459 90.0595C157.402 90.3489 157.407 90.6471 157.474 90.9345C157.707 92.1649 158.93 93.1185 159.963 93.65C161.165 94.2397 164.055 94.378 164.28 94.378C164.223 96.0321 164.274 97.6882 164.433 99.3357C164.528 100.297 164.644 101.258 164.776 102.248C164.652 101.818 164.535 101.432 164.513 101.381C163.902 99.9253 161.856 97.4647 160.094 97.6176C159.802 97.6504 159.519 97.7444 159.266 97.8936C159.012 98.0428 158.792 98.2438 158.621 98.4834C158.45 98.7231 158.332 98.9962 158.273 99.2847C158.215 99.5733 158.218 99.8709 158.282 100.158C158.515 101.389 159.738 102.342 160.779 102.881C161.82 103.42 164.317 103.543 164.965 103.573C165.023 103.937 165.074 104.301 165.125 104.679C165.394 106.448 165.671 108.217 165.889 109.957C165.962 110.569 166.013 111.18 166.071 111.784C165.962 111.399 165.86 111.056 165.838 111.056C165.227 109.6 163.188 107.133 161.419 107.285C161.127 107.319 160.844 107.414 160.591 107.564C160.337 107.714 160.118 107.916 159.948 108.156C159.777 108.397 159.66 108.67 159.602 108.959C159.545 109.248 159.549 109.546 159.614 109.833C159.847 111.064 161.07 112.017 162.104 112.549C163.138 113.08 165.402 113.204 166.181 113.233C166.217 113.859 166.253 114.485 166.261 115.09C166.261 115.505 166.261 115.905 166.261 116.32C166.261 116.735 166.224 117.135 166.202 117.543C166.144 118.315 166.086 119.115 166.006 119.873C165.955 120.404 165.897 120.899 165.838 121.409C165.766 120.797 165.605 119.603 165.584 119.501C165.195 118.164 164.471 116.948 163.48 115.97C163.441 115.821 163.39 115.675 163.327 115.534C163.214 115.261 163.045 115.016 162.831 114.813C162.616 114.611 162.362 114.455 162.084 114.358C161.805 114.26 161.51 114.223 161.216 114.247C160.922 114.271 160.637 114.358 160.378 114.5C158.85 115.395 158.602 118.577 158.922 120.127C158.922 120.215 159.272 121.183 159.49 121.787C159.308 121.452 159.134 121.125 158.937 120.775C158.566 120.098 158.173 119.428 157.75 118.7L157.095 117.667C156.884 117.317 156.622 116.975 156.367 116.618C155.792 115.818 155.173 115.031 154.533 114.252C155.13 113.925 157.233 112.724 157.947 111.777C158.66 110.831 159.308 109.433 158.966 108.232C158.894 107.947 158.763 107.681 158.582 107.45C158.401 107.219 158.173 107.029 157.914 106.892C157.654 106.755 157.369 106.674 157.076 106.654C156.784 106.634 156.49 106.675 156.214 106.776C154.562 107.431 153.834 110.54 153.936 112.119C153.936 112.221 154.147 113.342 154.27 113.961C153.877 113.495 153.492 113.029 153.084 112.571C151.904 111.253 150.667 109.957 149.444 108.654L148.33 107.453C148.541 107.336 151.075 105.997 151.875 104.905C152.603 103.958 153.237 102.561 152.895 101.359C152.823 101.074 152.692 100.807 152.51 100.576C152.328 100.344 152.1 100.154 151.84 100.016C151.579 99.8789 151.293 99.7979 151 99.7785C150.706 99.759 150.412 99.8016 150.135 99.9035C148.49 100.551 147.762 103.667 147.864 105.247C147.864 105.364 148.163 106.987 148.257 107.395C147.442 106.514 146.634 105.626 145.869 104.716C144.838 103.494 143.884 102.207 143.016 100.864C143.118 100.813 145.767 99.4085 146.583 98.3092C147.311 97.3628 147.944 95.965 147.602 94.7638C147.53 94.4793 147.399 94.213 147.218 93.9823C147.037 93.7515 146.809 93.5613 146.55 93.4241C146.29 93.2868 146.005 93.2056 145.712 93.1855C145.42 93.1655 145.126 93.2072 144.85 93.3078C143.205 93.9557 142.47 97.0716 142.579 98.6513C142.579 98.7751 142.899 100.515 142.979 100.835L142.819 100.602C141.987 99.2313 141.278 97.7891 140.701 96.2926C140.373 95.47 140.104 94.6692 139.863 93.8757C140.38 93.6645 142.775 92.6599 143.598 91.7645C144.421 90.869 145.207 89.5805 144.996 88.3501C144.957 88.0582 144.857 87.7776 144.703 87.5267C144.549 87.2758 144.344 87.0602 144.1 86.894C143.857 86.7278 143.582 86.6147 143.292 86.562C143.002 86.5094 142.705 86.5183 142.419 86.5884C140.708 87.0543 139.645 90.0682 139.572 91.6844C139.572 91.7717 139.63 92.6526 139.681 93.2932C139.572 92.9365 139.463 92.5653 139.368 92.2231C139.012 90.9273 138.771 89.7261 138.56 88.6559C138.444 88.0444 138.356 87.4911 138.276 86.9742C138.677 86.4937 140.271 84.5573 140.606 83.3925C140.941 82.2277 141.028 80.7134 140.278 79.7525C140.11 79.5106 139.892 79.307 139.639 79.1549C139.387 79.0029 139.105 78.9058 138.812 78.8701C138.52 78.8344 138.223 78.8608 137.941 78.9476C137.659 79.0344 137.399 79.1797 137.177 79.3739C135.874 80.5751 136.318 83.7419 136.98 85.1979C137.039 85.3217 138.167 87.1562 138.182 87.1344C138.247 87.6367 138.32 88.1681 138.422 88.7505C138.604 89.828 138.822 91.0437 139.15 92.3469C139.486 93.7581 139.904 95.1486 140.402 96.511C140.953 98.0399 141.64 99.5164 142.455 100.923C142.456 100.94 142.456 100.957 142.455 100.974C142.069 100.624 140.999 99.6851 140.868 99.6269C139.55 98.746 136.5 97.8214 135.102 98.8989C134.876 99.0882 134.693 99.3232 134.564 99.5883C134.434 99.8535 134.363 100.143 134.353 100.438C134.344 100.732 134.396 101.026 134.508 101.299C134.619 101.572 134.787 101.818 135 102.022C135.954 102.699 137.483 102.837 138.662 102.692Z" fill="#263238"/>
<path d="M165.751 86.5884C165.751 86.5884 165.751 84.4044 165.751 84.3025C165.547 82.7373 164.229 79.8253 162.482 79.505C162.191 79.4608 161.894 79.4783 161.61 79.5563C161.326 79.6343 161.061 79.771 160.834 79.9577C160.606 80.1443 160.42 80.3767 160.287 80.6398C160.155 80.903 160.079 81.1909 160.065 81.4851C159.963 82.73 160.873 83.9749 161.754 84.7611C162.773 85.6857 165.751 86.5884 165.751 86.5884Z" fill="#263238"/>
<path d="M42.6171 301.115C43.913 300.693 46.1479 298.611 46.1479 298.611C46.1479 298.611 44.3279 297.555 44.2042 297.505C42.7482 296.9 39.6542 296.58 38.5185 297.898C38.3373 298.123 38.2052 298.383 38.1308 298.662C38.0565 298.941 38.0414 299.233 38.0867 299.518C38.132 299.804 38.2365 300.077 38.3937 300.319C38.5508 300.561 38.757 300.768 38.999 300.926C40.04 301.625 41.496 301.472 42.6171 301.115Z" fill="#263238"/>
<path d="M49.2856 307.027C50.3776 306.299 51.8918 303.904 52.0083 303.707C53.3784 304.577 54.8062 305.353 56.2817 306.029C57.1407 306.43 58.0143 306.801 58.8952 307.172L58.0289 306.961C56.4928 306.757 53.3988 307.274 52.649 308.847C52.5334 309.112 52.4748 309.398 52.4769 309.688C52.479 309.977 52.5418 310.263 52.6611 310.526C52.7805 310.79 52.9539 311.025 53.17 311.217C53.3861 311.41 53.6401 311.554 53.9157 311.642C55.0732 312.05 56.4855 311.504 57.4538 310.871C58.422 310.237 59.7688 308.199 60.111 307.66L61.1302 308.068C62.7609 308.723 64.3989 309.364 65.9786 310.041C66.5392 310.281 67.0779 310.536 67.6239 310.769L66.8959 310.587C65.3598 310.383 62.2658 310.9 61.516 312.472C61.4004 312.737 61.3418 313.024 61.3439 313.313C61.346 313.602 61.4088 313.888 61.5282 314.151C61.6476 314.415 61.8209 314.65 62.037 314.843C62.2531 315.035 62.5072 315.18 62.7827 315.268C63.9402 315.675 65.3526 315.129 66.3208 314.496C67.289 313.863 68.5048 312.021 68.9125 311.38C69.4585 311.657 70.0118 311.934 70.5286 312.225C70.8781 312.436 71.2566 312.611 71.5697 312.836L72.5743 313.491C73.2077 313.928 73.8556 314.372 74.4526 314.816C74.8748 315.115 75.2679 315.413 75.6683 315.712C75.115 315.472 74.023 314.984 73.9284 314.984C72.436 314.554 69.2983 314.591 68.3228 316.032C68.1648 316.278 68.0608 316.555 68.0176 316.844C67.9744 317.133 67.9929 317.428 68.0721 317.709C68.1512 317.991 68.289 318.252 68.4766 318.476C68.6641 318.7 68.897 318.882 69.16 319.01C70.2374 319.592 71.7153 319.265 72.8 318.784C73.9648 318.245 75.7557 316.192 75.9814 315.938C76.6366 316.433 77.2772 316.92 77.8669 317.394C79.0754 318.347 80.131 319.228 81.041 320.007L81.8854 319.279C80.9318 318.493 79.7888 317.59 78.5002 316.607C77.8305 316.098 77.1098 315.574 76.3599 315.035C76.7569 314.253 77.1023 313.445 77.3937 312.618C78.7756 312.599 80.148 312.386 81.4705 311.984C81.7471 312.763 82.0092 313.521 82.2422 314.241C82.6935 315.61 83.0721 316.855 83.3851 317.947L84.2951 317.139C83.9894 316.163 83.6326 315.079 83.2177 313.914C82.941 313.12 82.6353 312.283 82.3077 311.424C82.5916 311.257 84.9576 309.881 85.7002 308.84C86.4427 307.799 86.9742 306.51 86.6102 305.338C86.5342 305.059 86.4003 304.8 86.2172 304.576C86.0341 304.353 85.8059 304.171 85.5476 304.041C85.2892 303.912 85.0065 303.839 84.7179 303.827C84.4293 303.814 84.1414 303.863 83.8729 303.969C82.2713 304.646 81.6306 307.718 81.7762 309.269C81.7762 309.356 81.9874 310.339 82.1257 310.958L81.718 309.91C81.4341 309.182 81.1356 308.497 80.8153 307.726C80.6478 307.362 80.4731 306.998 80.3057 306.634C80.1382 306.27 79.9271 305.906 79.7378 305.527C79.2792 304.675 78.7696 303.831 78.2818 303.001C78.9006 302.753 81.0992 301.843 81.9218 301.006C82.7445 300.169 83.5307 298.895 83.3778 297.679C83.3442 297.392 83.2505 297.115 83.1027 296.866C82.9549 296.618 82.7565 296.403 82.5203 296.236C82.284 296.069 82.0153 295.954 81.7316 295.898C81.4479 295.842 81.1555 295.846 80.8735 295.91C79.1918 296.34 78.0998 299.281 78.0052 300.832C78.0052 300.933 78.0562 302.055 78.0998 302.666C77.7795 302.164 77.4592 301.661 77.117 301.166C76.127 299.71 75.0859 298.32 74.0522 296.9C73.7318 296.464 73.4261 296.027 73.113 295.59C73.3314 295.51 75.9668 294.483 76.8768 293.552C77.7868 292.62 78.493 291.44 78.3328 290.225C78.2992 289.937 78.2054 289.66 78.0577 289.412C77.9099 289.163 77.7115 288.948 77.4752 288.781C77.239 288.615 76.9703 288.499 76.6866 288.443C76.4028 288.387 76.1105 288.391 75.8285 288.456C74.1468 288.885 73.0475 291.826 72.9165 293.377C72.9165 293.493 72.9966 295.102 73.0402 295.517C72.3122 294.556 71.6716 293.588 71.0455 292.605C70.1864 291.292 69.4155 289.922 68.7378 288.506C68.8397 288.463 71.5988 287.407 72.5306 286.454C73.3387 285.624 74.1468 284.342 73.9866 283.127C73.9588 282.823 73.8636 282.529 73.7081 282.267C73.5526 282.005 73.3406 281.78 73.0875 281.61C72.8345 281.44 72.5467 281.329 72.2451 281.284C71.9435 281.239 71.6357 281.261 71.344 281.35C69.655 281.78 68.563 284.721 68.4684 286.272C68.4684 286.395 68.5558 288.128 68.5922 288.456C68.5922 288.375 68.5048 288.295 68.4684 288.208C67.8253 286.772 67.3136 285.281 66.9396 283.753C66.7212 282.908 66.5538 282.093 66.4154 281.299C66.9469 281.154 69.3784 280.469 70.3175 279.698C71.2566 278.926 72.1521 277.776 72.1011 276.545C72.0989 276.257 72.0359 275.971 71.9163 275.708C71.7968 275.446 71.6232 275.211 71.4069 275.019C71.1907 274.828 70.9366 274.684 70.6611 274.597C70.3856 274.51 70.0949 274.482 69.8079 274.514C68.0898 274.755 66.6775 277.565 66.4154 279.093C66.4154 279.174 66.3426 280.04 66.3135 280.666C66.2626 280.309 66.1898 279.938 66.1461 279.588C65.9568 278.285 65.8694 277.077 65.8039 276.014C65.8039 275.403 65.7457 274.856 65.7311 274.34C66.1825 273.925 67.9734 272.236 68.4393 271.144C68.9052 270.052 69.1673 268.588 68.5703 267.504C68.4345 267.249 68.2465 267.026 68.0186 266.849C67.7907 266.672 67.5281 266.545 67.2478 266.476C66.9675 266.408 66.6759 266.399 66.392 266.45C66.1081 266.502 65.8383 266.613 65.6001 266.776C64.1878 267.788 64.2242 270.925 64.6974 272.403C64.741 272.527 65.6074 274.456 65.6292 274.434C65.6292 274.929 65.6292 275.461 65.6292 276.043C65.6729 277.113 65.7384 278.322 65.8986 279.632C66.0589 281.048 66.302 282.453 66.6266 283.84C66.9794 285.396 67.4666 286.918 68.0826 288.39C68.0839 288.407 68.0839 288.424 68.0826 288.441C67.7477 288.055 66.7867 286.985 66.6994 286.927C65.5273 285.915 62.659 284.634 61.1738 285.536C60.9315 285.693 60.7248 285.899 60.567 286.14C60.4093 286.382 60.304 286.654 60.258 286.938C60.212 287.223 60.2264 287.514 60.3001 287.793C60.3738 288.072 60.5053 288.333 60.6861 288.557C61.4141 289.54 62.8701 289.868 64.064 289.868C65.3744 289.868 67.9588 288.703 68.1626 288.608C68.8268 290.088 69.5905 291.52 70.4486 292.896C70.9436 293.704 71.4678 294.498 71.9992 295.291C71.7007 294.971 71.4386 294.68 71.395 294.644C70.2229 293.624 67.3546 292.35 65.8694 293.246C65.6251 293.402 65.4165 293.607 65.2573 293.849C65.0982 294.091 64.9921 294.365 64.946 294.651C64.8999 294.937 64.9149 295.229 64.99 295.509C65.0651 295.789 65.1986 296.05 65.3817 296.274C66.1097 297.257 67.5657 297.577 68.7523 297.585C69.939 297.592 72.1594 296.631 72.7418 296.369L73.3678 297.279C74.3725 298.735 75.3771 300.154 76.3235 301.596C76.6584 302.098 76.9714 302.615 77.2772 303.125C77.0151 302.834 76.7894 302.593 76.753 302.564C75.581 301.545 72.7126 300.264 71.2275 301.166C70.9834 301.321 70.7749 301.526 70.6158 301.768C70.4567 302.009 70.3506 302.282 70.3045 302.567C70.2584 302.853 70.2733 303.145 70.3484 303.424C70.4234 303.703 70.5568 303.964 70.7398 304.188C71.4678 305.17 72.9238 305.498 74.1177 305.498C75.3116 305.498 77.299 304.639 77.9979 304.333C78.2964 304.865 78.6022 305.396 78.8715 305.928C79.0535 306.292 79.2501 306.656 79.403 307.012C79.5558 307.369 79.7306 307.74 79.8907 308.112C80.1674 308.84 80.4658 309.568 80.7206 310.252C80.9099 310.74 81.0701 311.206 81.2375 311.671C80.9172 311.169 80.2547 310.215 80.1892 310.106C79.2668 309.1 78.1011 308.348 76.804 307.922C76.7078 307.803 76.5978 307.695 76.4764 307.602C76.2633 307.424 76.0162 307.291 75.7501 307.212C75.484 307.132 75.2045 307.108 74.9287 307.14C74.6528 307.172 74.3864 307.259 74.1456 307.398C73.9048 307.536 73.6946 307.722 73.528 307.944C72.567 309.4 73.7318 312.312 74.7001 313.521C74.7583 313.586 75.4718 314.3 75.9231 314.736L75.0058 314.081C74.3798 313.644 73.7391 313.229 73.0548 312.771L72.0356 312.145C71.6934 311.926 71.3076 311.744 70.9436 311.533C70.0918 311.074 69.211 310.652 68.3082 310.252C68.6868 309.699 70.019 307.733 70.2374 306.612C70.4558 305.491 70.4194 303.962 69.5968 303.052C69.4103 302.831 69.1794 302.651 68.919 302.526C68.6586 302.4 68.3746 302.33 68.0855 302.321C67.7964 302.312 67.5086 302.364 67.2409 302.474C66.9733 302.583 66.7317 302.748 66.5319 302.957C65.3671 304.246 66.0733 307.325 66.8522 308.643C66.8959 308.73 67.5802 309.633 67.9442 310.099C67.3982 309.859 66.8522 309.618 66.299 309.371C64.6828 308.723 63.0302 308.112 61.385 307.5L59.878 306.932C60.0163 306.736 61.647 304.428 61.8946 303.147C62.113 302.004 62.0766 300.497 61.2539 299.579C61.0668 299.359 60.8356 299.181 60.5753 299.056C60.315 298.93 60.0313 298.861 59.7425 298.852C59.4537 298.843 59.1663 298.895 58.8987 299.004C58.6311 299.113 58.3894 299.277 58.189 299.485C57.0242 300.773 57.7304 303.853 58.5094 305.178C58.5676 305.28 59.5286 306.575 59.7906 306.896C58.6841 306.474 57.6066 306.044 56.5219 305.578C55.0862 304.949 53.6907 304.231 52.3432 303.43C52.4014 303.336 54.1195 300.941 54.367 299.623C54.5854 298.487 54.549 296.973 53.7264 296.063C53.5404 295.842 53.3099 295.662 53.0498 295.535C52.7897 295.408 52.5058 295.338 52.2167 295.328C51.9276 295.319 51.6397 295.37 51.3717 295.479C51.1038 295.588 50.8618 295.752 50.6615 295.961C49.4967 297.257 50.2102 300.329 50.9818 301.654C51.0474 301.763 52.0811 303.154 52.285 303.394L52.0447 303.263C50.716 302.419 49.4661 301.456 48.3101 300.387C47.6622 299.805 47.0725 299.215 46.5192 298.626C46.8832 298.211 48.5285 296.303 48.8852 295.146C49.2419 293.988 49.3584 292.525 48.6377 291.506C48.4772 291.266 48.268 291.063 48.0236 290.909C47.7792 290.755 47.5052 290.655 47.2194 290.614C46.9336 290.574 46.6425 290.594 46.365 290.674C46.0876 290.753 45.83 290.89 45.6092 291.076C44.3061 292.227 44.6774 295.342 45.2962 296.769C45.2962 296.842 45.7621 297.592 46.0897 298.138C45.8422 297.861 45.5801 297.592 45.3617 297.33C44.4881 296.347 43.7528 295.386 43.1049 294.534C42.7409 294.054 42.4206 293.603 42.1294 293.18C42.275 292.591 42.8574 290.188 42.6171 289.016C42.3769 287.844 41.8309 286.483 40.7316 285.929C40.4777 285.786 40.1961 285.698 39.9056 285.672C39.6151 285.645 39.3224 285.681 39.0468 285.777C38.7713 285.873 38.5193 286.026 38.3077 286.227C38.0961 286.428 37.9297 286.671 37.8196 286.941C37.1935 288.565 38.9626 291.156 40.171 292.132C40.273 292.219 42.0638 293.348 42.0711 293.319V293.282C42.3478 293.69 42.6462 294.134 42.9811 294.607C43.6145 295.473 44.3352 296.442 45.1651 297.454C46.0741 298.548 47.0465 299.589 48.0771 300.569C49.2244 301.681 50.4695 302.688 51.7972 303.576H51.8482C51.3604 303.438 49.9699 303.096 49.8607 303.081C48.3246 302.877 45.2306 303.394 44.4808 304.967C44.3652 305.232 44.3066 305.518 44.3087 305.807C44.3108 306.097 44.3736 306.382 44.493 306.646C44.6124 306.909 44.7857 307.145 45.0018 307.337C45.2179 307.529 45.472 307.674 45.7475 307.762C46.905 308.206 48.3174 307.66 49.2856 307.027Z" fill="#263238"/>
<path d="M66.1388 281.088C66.1752 281.088 65.207 279.203 65.1342 279.086C64.2678 277.797 61.8436 275.81 60.1692 276.283C59.8932 276.369 59.6385 276.513 59.4218 276.704C59.2051 276.896 59.0313 277.131 58.9117 277.394C58.7921 277.657 58.7295 277.943 58.7279 278.232C58.7263 278.521 58.7858 278.807 58.9025 279.072C59.3538 280.214 60.6934 280.921 61.8145 281.256C63.1249 281.59 66.1388 281.088 66.1388 281.088Z" fill="#263238"/>
<path d="M167.433 99.5613L160.917 105.291" stroke="#263238" stroke-linecap="round" stroke-linejoin="round"/>
<path d="M225.418 48.5868L187.511 81.9074" stroke="#263238" stroke-linecap="round" stroke-linejoin="round"/>
<path d="M219.747 47.1671L182.888 60.6351" stroke="#263238" stroke-linecap="round" stroke-linejoin="round"/>
<path d="M185.989 41.6562L162.329 43.6218" stroke="#263238" stroke-linecap="round" stroke-linejoin="round"/>
<path d="M213.362 39.3702L188.632 41.4305" stroke="#263238" stroke-linecap="round" stroke-linejoin="round"/>
<path d="M202.879 24.6792L178.229 16.4237" stroke="#263238" stroke-linecap="round" stroke-linejoin="round"/>
<path d="M211.236 27.3218L206.308 25.7639" stroke="#263238" stroke-linecap="round" stroke-linejoin="round"/>
<path d="M310.332 99.5613L316.847 105.291" stroke="#263238" stroke-linecap="round" stroke-linejoin="round"/>
<path d="M252.347 48.5868L306.321 96.0378" stroke="#263238" stroke-linecap="round" stroke-linejoin="round"/>
<path d="M258.018 47.1671L294.876 60.6351" stroke="#263238" stroke-linecap="round" stroke-linejoin="round"/>
<path d="M291.768 41.6562L315.428 43.6218" stroke="#263238" stroke-linecap="round" stroke-linejoin="round"/>
<path d="M264.395 39.3702L289.132 41.4305" stroke="#263238" stroke-linecap="round" stroke-linejoin="round"/>
<path d="M274.885 24.6792L293.719 18.7096" stroke="#263238" stroke-linecap="round" stroke-linejoin="round"/>
<path d="M266.521 27.3218L271.457 25.7639" stroke="#263238" stroke-linecap="round" stroke-linejoin="round"/>
<path d="M239.592 42.4497H235.69V59.0627H239.592V42.4497Z" fill="#7E57C2" stroke="#263238" stroke-linecap="round" stroke-linejoin="round"/>
<path d="M243.407 62.6225H231.875L233.237 56.1797H242.045L243.407 62.6225Z" fill="#7E57C2" stroke="#263238" stroke-linecap="round" stroke-linejoin="round"/>
<path d="M250.352 65.3307H224.93L227.638 59.3975H247.644L250.352 65.3307Z" fill="#7E57C2" stroke="#263238" stroke-linecap="round" stroke-linejoin="round"/>
<path d="M224.755 24.8612C222.937 24.8265 221.15 25.334 219.621 26.319C218.092 27.3039 216.891 28.7218 216.171 30.3919C215.451 32.062 215.244 33.9087 215.578 35.6966C215.911 37.4845 216.769 39.1326 218.043 40.4309C219.316 41.7293 220.948 42.619 222.729 42.9868C224.51 43.3545 226.36 43.1837 228.044 42.4959C229.728 41.8082 231.168 40.6348 232.183 39.1251C233.197 37.6155 233.739 35.8381 233.739 34.0194C233.75 32.8282 233.527 31.6464 233.082 30.5414C232.637 29.4365 231.978 28.43 231.144 27.5796C230.31 26.7292 229.316 26.0514 228.22 25.585C227.124 25.1185 225.947 24.8726 224.755 24.8612ZM224.755 40.8772C223.4 40.9017 222.067 40.522 220.928 39.7865C219.788 39.0509 218.894 37.9928 218.358 36.747C217.823 35.5011 217.67 34.124 217.92 32.7911C218.17 31.4582 218.811 30.23 219.762 29.2628C220.712 28.2957 221.929 27.6335 223.258 27.3606C224.586 27.0878 225.966 27.2166 227.221 27.7308C228.475 28.2449 229.549 29.121 230.304 30.2475C231.059 31.3739 231.462 32.6997 231.46 34.0558C231.466 35.8432 230.764 37.5603 229.508 38.8317C228.251 40.1031 226.543 40.8254 224.755 40.8408V40.8772Z" fill="#7E57C2" stroke="#263238" stroke-linecap="round" stroke-linejoin="round"/>
<path d="M251.888 24.8612C250.07 24.8265 248.282 25.334 246.753 26.319C245.224 27.3039 244.023 28.7218 243.303 30.3919C242.583 32.062 242.377 33.9087 242.71 35.6966C243.044 37.4845 243.902 39.1326 245.175 40.4309C246.449 41.7293 248.08 42.619 249.861 42.9868C251.643 43.3545 253.493 43.1837 255.176 42.4959C256.86 41.8082 258.301 40.6348 259.315 39.1251C260.329 37.6155 260.871 35.8381 260.872 34.0194C260.883 32.8282 260.66 31.6464 260.215 30.5414C259.769 29.4365 259.111 28.43 258.277 27.5796C257.442 26.7292 256.449 26.0514 255.353 25.585C254.257 25.1185 253.079 24.8726 251.888 24.8612ZM251.888 40.8772C250.532 40.9032 249.199 40.5247 248.058 39.7901C246.918 39.0554 246.023 37.9978 245.486 36.7521C244.949 35.5065 244.795 34.1291 245.044 32.7958C245.294 31.4624 245.934 30.2335 246.884 29.2656C247.835 28.2977 249.052 27.6348 250.38 27.3614C251.709 27.0879 253.089 27.2163 254.344 27.7302C255.599 28.2441 256.673 29.1202 257.429 30.2468C258.184 31.3733 258.587 32.6994 258.586 34.0558C258.591 35.842 257.89 37.5579 256.636 38.8291C255.381 40.1003 253.674 40.8235 251.888 40.8408V40.8772Z" fill="#7E57C2" stroke="#263238" stroke-linecap="round" stroke-linejoin="round"/>
<path d="M237.641 47.0215C236.15 47.0225 234.673 46.7296 233.296 46.1597C231.918 45.5897 230.666 44.7539 229.611 43.6999C228.556 42.6459 227.72 41.3944 227.149 40.0169C226.578 38.6395 226.284 37.163 226.284 35.672V23.973H248.976V35.672C248.976 38.6795 247.782 41.5641 245.657 43.6922C243.532 45.8202 240.649 47.0176 237.641 47.0215Z" fill="#7E57C2" stroke="#263238" stroke-linecap="round" stroke-linejoin="round"/>
<path d="M237.328 27.7076L238.791 32.2067H243.523L239.694 34.9876L241.157 39.4867L237.328 36.7057L233.499 39.4867L234.962 34.9876L231.133 32.2067H235.865L237.328 27.7076Z" fill="#263238"/>
<path d="M275.155 65.3889H200.608V133.355H275.155V65.3889Z" fill="#263238" stroke="#263238" stroke-linejoin="round"/>
<path d="M250.155 65.3889H200.608V133.355H250.155V65.3889Z" fill="white" stroke="#263238" stroke-linejoin="round"/>
<path d="M217.767 99.1536H143.219V167.12H217.767V99.1536Z" fill="#263238" stroke="#263238" stroke-linejoin="round"/>
<path d="M192.767 99.1536H143.219V167.12H192.767V99.1536Z" fill="white" stroke="#263238" stroke-linejoin="round"/>
<path d="M176.904 118.409V112.978H173.504C173.245 112.03 172.858 111.121 172.354 110.277L174.458 108.166L170.614 104.322L168.517 106.419C167.577 105.849 166.556 105.424 165.489 105.16V102.648H160.051V105.16C158.877 105.461 157.76 105.953 156.746 106.616L155.246 105.116L151.424 108.938L153.047 110.561C152.441 111.65 152.024 112.834 151.817 114.063H149.75V119.501H152.225C152.601 120.625 153.154 121.682 153.863 122.632L152.188 124.306L156.01 128.128L158.085 126.053C159.055 126.505 160.085 126.814 161.143 126.97V129.802H166.574V126.417C167.476 126.09 168.333 125.647 169.122 125.099L171.386 127.364L175.23 123.52L172.703 120.994C173.125 120.168 173.44 119.292 173.643 118.387L176.904 118.409ZM162.774 122.777C161.428 122.779 160.113 122.381 158.994 121.635C157.875 120.889 157.002 119.827 156.486 118.585C155.971 117.342 155.835 115.975 156.096 114.656C156.358 113.336 157.005 112.124 157.956 111.172C158.906 110.221 160.118 109.572 161.437 109.309C162.756 109.046 164.124 109.181 165.367 109.695C166.609 110.209 167.672 111.081 168.419 112.199C169.167 113.318 169.566 114.632 169.566 115.978C169.562 117.777 168.845 119.502 167.572 120.774C166.299 122.045 164.573 122.761 162.774 122.763V122.777Z" fill="#7E57C2"/>
<path d="M181.876 139.958V135.961H179.379C179.183 135.265 178.897 134.596 178.527 133.974L180.078 132.423L177.253 129.584L175.71 131.127C175.018 130.708 174.267 130.397 173.482 130.203V128.354H169.486V130.203C168.622 130.418 167.801 130.775 167.054 131.258L165.984 130.166L163.159 132.991L164.353 134.185C163.909 134.987 163.601 135.858 163.443 136.762H161.929V140.759H163.749C164.024 141.585 164.43 142.361 164.95 143.059L163.72 144.29L166.545 147.114L168.073 145.593C168.786 145.92 169.54 146.146 170.316 146.262V148.345H174.312V145.862C174.973 145.613 175.599 145.28 176.176 144.872L177.843 146.539L180.668 143.714L178.811 141.858C179.12 141.251 179.35 140.608 179.496 139.943L181.876 139.958ZM171.488 143.154C170.5 143.154 169.534 142.861 168.713 142.312C167.892 141.763 167.252 140.984 166.874 140.071C166.496 139.158 166.397 138.154 166.59 137.186C166.782 136.217 167.258 135.327 167.956 134.628C168.655 133.93 169.545 133.454 170.513 133.262C171.482 133.069 172.486 133.168 173.399 133.546C174.311 133.924 175.091 134.564 175.64 135.385C176.189 136.207 176.482 137.172 176.482 138.16C176.482 138.816 176.353 139.465 176.102 140.071C175.851 140.677 175.483 141.227 175.019 141.691C174.555 142.155 174.005 142.523 173.399 142.774C172.793 143.025 172.144 143.154 171.488 143.154Z" fill="#7E57C2"/>
<path d="M258.986 143.008H184.439V210.974H258.986V143.008Z" fill="#263238" stroke="#263238" stroke-linejoin="round"/>
<path d="M233.986 143.008H184.439V210.974H233.986V143.008Z" fill="white" stroke="#263238" stroke-linejoin="round"/>
<path d="M221.843 154.846L217.541 151.671C216.728 151.071 215.751 150.731 214.741 150.699C213.731 150.666 212.734 150.942 211.884 151.489L203.352 156.585C202.902 156.862 202.572 157.296 202.426 157.804C202.281 158.312 202.331 158.855 202.567 159.328C202.803 159.801 203.207 160.168 203.7 160.357C204.193 160.546 204.739 160.543 205.23 160.349L213.202 157.612L222.768 167.513L228.716 165.438V153.331L221.843 154.846Z" fill="#7E57C2"/>
<path d="M212.147 158.952L204.204 161.689C202.748 162.315 201.168 159.898 201.168 158.325C201.168 156.294 203.105 155.734 204.626 154.387L206.082 153.106C205.298 152.392 204.317 151.93 203.267 151.779C202.217 151.628 201.146 151.796 200.193 152.261C197.906 153.381 195.276 153.579 192.847 152.814L190.736 152.152V165.605L193.43 165.94L193.684 165.722C194.565 164.967 195.703 164.582 196.861 164.649C198.019 164.715 199.106 165.228 199.894 166.079L209.446 176.351C209.662 176.582 209.958 176.723 210.274 176.744C210.591 176.766 210.903 176.667 211.149 176.467C211.279 176.361 211.386 176.229 211.463 176.08C211.54 175.931 211.587 175.769 211.6 175.601C211.613 175.434 211.592 175.266 211.538 175.107C211.484 174.948 211.399 174.801 211.287 174.676L208.9 171.997L212.212 174.181C212.532 174.374 212.91 174.446 213.278 174.384C213.646 174.321 213.979 174.129 214.217 173.841C214.455 173.554 214.582 173.191 214.575 172.817C214.568 172.444 214.427 172.086 214.178 171.808L212.256 169.813L215.168 171.655C215.518 171.867 215.933 171.947 216.337 171.88C216.741 171.813 217.108 171.603 217.371 171.29C217.635 170.976 217.778 170.579 217.774 170.169C217.771 169.76 217.621 169.365 217.352 169.056L215.626 167.127L218.786 169.042C219.024 169.186 219.301 169.253 219.579 169.233C219.856 169.214 220.121 169.109 220.337 168.932C220.484 168.812 220.605 168.661 220.69 168.49C220.775 168.32 220.823 168.133 220.831 167.942C220.839 167.751 220.806 167.561 220.734 167.384C220.663 167.208 220.554 167.048 220.417 166.916L212.147 158.952Z" fill="#7E57C2"/>
<path d="M197.288 170.811L198.511 169.267C198.757 168.935 198.864 168.52 198.81 168.109C198.756 167.699 198.544 167.326 198.22 167.069C197.896 166.812 197.485 166.691 197.073 166.732C196.661 166.773 196.282 166.972 196.014 167.287L194.791 168.83C194.545 169.163 194.438 169.578 194.492 169.988C194.546 170.398 194.758 170.771 195.082 171.028C195.406 171.285 195.817 171.406 196.229 171.366C196.641 171.325 197.02 171.126 197.288 170.811Z" fill="#7E57C2"/>
<path d="M199.647 173.06L200.87 171.517C201.101 171.183 201.196 170.775 201.136 170.373C201.076 169.972 200.866 169.609 200.548 169.358C200.229 169.106 199.827 168.986 199.423 169.02C199.019 169.055 198.644 169.242 198.373 169.544L197.15 171.08C196.919 171.413 196.823 171.822 196.883 172.223C196.943 172.624 197.154 172.988 197.472 173.239C197.79 173.49 198.192 173.611 198.596 173.576C199 173.542 199.376 173.355 199.647 173.053V173.06Z" fill="#7E57C2"/>
<path d="M201.984 175.31L203.199 173.774C203.446 173.441 203.553 173.026 203.499 172.616C203.444 172.206 203.233 171.833 202.909 171.576C202.584 171.319 202.173 171.198 201.761 171.238C201.35 171.279 200.97 171.478 200.702 171.793L199.472 173.337C199.21 173.667 199.09 174.088 199.138 174.507C199.186 174.926 199.398 175.309 199.727 175.572C199.892 175.704 200.081 175.803 200.284 175.861C200.487 175.92 200.7 175.938 200.91 175.913C201.12 175.889 201.323 175.823 201.507 175.719C201.692 175.616 201.854 175.476 201.984 175.31Z" fill="#7E57C2"/>
<path d="M205.296 173.788C205.132 173.658 204.944 173.562 204.743 173.504C204.542 173.447 204.332 173.43 204.124 173.455C203.916 173.479 203.716 173.544 203.533 173.646C203.351 173.748 203.19 173.886 203.061 174.05L201.838 175.586C201.7 175.749 201.596 175.938 201.532 176.143C201.468 176.347 201.446 176.562 201.467 176.774C201.488 176.987 201.552 177.193 201.654 177.381C201.756 177.569 201.896 177.734 202.063 177.867C202.231 178 202.423 178.098 202.629 178.155C202.835 178.211 203.051 178.226 203.263 178.198C203.475 178.17 203.679 178.1 203.863 177.991C204.047 177.883 204.208 177.738 204.335 177.566L205.558 176.023C205.688 175.859 205.785 175.671 205.842 175.47C205.899 175.269 205.916 175.059 205.892 174.851C205.867 174.643 205.802 174.443 205.7 174.26C205.598 174.078 205.46 173.917 205.296 173.788Z" fill="#7E57C2"/>
<path d="M194.085 186.419H119.538V254.385H194.085V186.419Z" fill="#263238" stroke="#263238" stroke-linejoin="round"/>
<path d="M169.085 186.419H119.538V254.385H169.085V186.419Z" fill="white" stroke="#263238" stroke-linejoin="round"/>
<path d="M132.511 220.468H127.029V229.56H132.511V220.468Z" fill="#7E57C2"/>
<path d="M139.164 216.58H133.683V229.567H139.164V216.58Z" fill="#7E57C2"/>
<path d="M145.826 213.923H140.344V229.56H145.826V213.923Z" fill="#7E57C2"/>
<path d="M152.48 210.385H146.998V229.567H152.48V210.385Z" fill="#7E57C2"/>
<path d="M149.24 204.677L144.821 206.06L145.993 207.138L142.855 210.559L135.488 211.957L127.742 217.905C127.589 218.022 127.488 218.195 127.462 218.386C127.436 218.577 127.487 218.771 127.604 218.924C127.722 219.076 127.895 219.176 128.086 219.2C128.277 219.225 128.47 219.173 128.623 219.055L136.136 213.304L143.634 211.848L147.1 208.077L148.272 209.154L149.24 204.677Z" fill="#7E57C2"/>
<path d="M239.257 238.012H164.71V305.978H239.257V238.012Z" fill="#263238" stroke="#263238" stroke-linejoin="round"/>
<path d="M214.258 238.012H164.71V305.978H214.258V238.012Z" fill="white" stroke="#263238" stroke-linejoin="round"/>
<path d="M197.477 262L192.92 258.993V258.134C193.885 256.852 194.423 255.298 194.456 253.693C194.456 249.755 192.847 249.325 190.853 249.325C188.858 249.325 187.249 250.184 187.249 253.693C187.287 255.333 187.848 256.917 188.851 258.214V258.717L183.856 262C183.438 262.275 183.094 262.65 182.857 263.091C182.619 263.532 182.495 264.025 182.495 264.526V265.604L190.43 269.083L198.861 265.604V264.526C198.858 264.023 198.731 263.529 198.489 263.088C198.248 262.646 197.9 262.273 197.477 262Z" fill="#7E57C2"/>
<path d="M202.479 257.566C202.484 255.305 201.839 253.09 200.621 251.184C199.403 249.279 197.663 247.764 195.608 246.819C193.554 245.874 191.271 245.539 189.032 245.855C186.792 246.17 184.691 247.122 182.977 248.598C181.264 250.074 180.01 252.011 179.366 254.178C178.722 256.346 178.714 258.653 179.343 260.825C179.973 262.997 181.213 264.943 182.917 266.43C184.62 267.917 186.715 268.884 188.952 269.214V278.525C188.616 278.759 188.341 279.07 188.151 279.433C187.961 279.795 187.861 280.198 187.86 280.608V296.405C187.86 297.081 188.129 297.729 188.607 298.207C189.085 298.685 189.733 298.953 190.408 298.953C191.084 298.953 191.732 298.685 192.21 298.207C192.688 297.729 192.956 297.081 192.956 296.405V280.608C192.957 280.198 192.859 279.794 192.668 279.431C192.478 279.068 192.202 278.758 191.864 278.525V269.309C194.773 269.012 197.468 267.647 199.429 265.478C201.389 263.309 202.476 260.49 202.479 257.566ZM181.061 257.566C181.059 255.664 181.622 253.804 182.678 252.221C183.734 250.639 185.235 249.405 186.993 248.676C188.75 247.947 190.683 247.756 192.549 248.126C194.415 248.496 196.13 249.412 197.475 250.756C198.821 252.101 199.738 253.815 200.109 255.68C200.481 257.546 200.291 259.48 199.563 261.238C198.836 262.995 197.603 264.498 196.021 265.555C194.44 266.612 192.58 267.176 190.678 267.176C188.13 267.172 185.687 266.159 183.884 264.358C182.082 262.556 181.067 260.114 181.061 257.566Z" fill="#7E57C2"/>
<path d="M150.019 287.05H75.4718V355.016H150.019V287.05Z" fill="#263238" stroke="#263238" stroke-linejoin="round"/>
<path d="M125.019 287.05H75.4718V355.016H125.019V287.05Z" fill="white" stroke="#263238" stroke-linejoin="round"/>
<path d="M117.579 328.787C117.579 328.284 117.453 327.789 117.214 327.347C116.976 326.905 116.631 326.529 116.211 326.253L111.632 323.232V322.373C112.599 321.091 113.139 319.538 113.175 317.932C113.175 314.001 111.559 313.564 109.535 313.564C107.511 313.564 105.931 314.423 105.931 317.932C105.964 319.572 106.526 321.158 107.533 322.453V322.963L102.539 326.239C102.119 326.515 101.774 326.891 101.535 327.333C101.296 327.775 101.171 328.269 101.17 328.772V331.524C100.743 331.442 100.309 331.405 99.8743 331.415C99.5001 331.409 99.1265 331.446 98.7605 331.524V328.772C98.7599 328.269 98.6345 327.775 98.3956 327.333C98.1568 326.891 97.8118 326.515 97.3918 326.239L92.8491 323.232V322.373C93.8164 321.091 94.3563 319.538 94.3925 317.932C94.3925 314.911 93.4388 313.95 92.0847 313.666L94.4216 311.002H98.3892L99.4521 326.224H99.9253L101.454 310.994H106.841L108.887 313.353L108.749 310.994H111.384V291.105H89.0999V311.016H92.3468L92.0483 313.673C91.6325 313.601 91.2109 313.567 90.7889 313.571C88.7942 313.571 87.1853 314.43 87.1853 317.939C87.2166 319.598 87.7893 321.201 88.816 322.504V323.014L83.8219 326.29C83.4019 326.566 83.057 326.942 82.8181 327.384C82.5792 327.826 82.4539 328.32 82.4533 328.823V333.424H96.7002C96.4351 334.194 96.3118 335.005 96.3362 335.819C96.3713 337.459 96.9328 339.044 97.9378 340.34V340.842L92.9438 344.126C92.5234 344.399 92.1781 344.774 91.9391 345.215C91.7001 345.656 91.575 346.15 91.5751 346.652V351.275H107.948V346.652C107.948 346.15 107.823 345.656 107.584 345.215C107.345 344.774 107 344.399 106.579 344.126L102 341.119V340.26C102.967 338.978 103.507 337.425 103.543 335.819C103.566 335.01 103.465 334.203 103.245 333.424H117.608L117.579 328.787ZM89.5804 310.536V291.608H110.918V310.536H108.246L108.326 311.992L107.06 310.536H101.017L99.736 323.399L98.8406 310.536H94.2032L92.689 312.312L92.8782 310.572L89.5804 310.536Z" fill="#7E57C2"/>
<path d="M97.7267 306.947H102.619V306.204H97.734L97.7267 306.947Z" fill="#7E57C2"/>
<path d="M98.0616 308.25H102.284C102.498 308.027 102.618 307.729 102.619 307.42H97.7267C97.7273 307.729 97.8473 308.027 98.0616 308.25Z" fill="#7E57C2"/>
<path d="M99.5467 309.837H100.784C100.944 309.838 101.102 309.807 101.249 309.747C101.396 309.687 101.531 309.598 101.644 309.485C101.757 309.373 101.846 309.24 101.907 309.092C101.969 308.945 102 308.788 102 308.628H98.3601C98.3582 308.946 98.4819 309.251 98.7042 309.477C98.9265 309.704 99.2294 309.833 99.5467 309.837Z" fill="#7E57C2"/>
<path d="M97.0133 302.491C97.7342 303.361 98.1282 304.456 98.1271 305.585V305.811H102.233V305.585C102.232 304.454 102.629 303.359 103.354 302.491C103.979 301.75 104.322 300.811 104.322 299.841C104.323 299.275 104.207 298.715 103.981 298.196C103.756 297.676 103.426 297.209 103.012 296.822C102.598 296.436 102.11 296.139 101.576 295.949C101.042 295.76 100.476 295.682 99.9107 295.721C99.1495 295.77 98.4167 296.029 97.7935 296.469C97.1702 296.909 96.6808 297.513 96.3794 298.213C96.078 298.914 95.9763 299.685 96.0856 300.44C96.1949 301.195 96.511 301.905 96.9987 302.491H97.0133Z" fill="#7E57C2"/>
<path d="M104.963 299.87C104.963 299.975 105.004 300.075 105.078 300.148C105.152 300.222 105.252 300.264 105.356 300.264H107.431C107.535 300.264 107.635 300.222 107.709 300.148C107.783 300.075 107.824 299.975 107.824 299.87C107.824 299.766 107.783 299.666 107.709 299.592C107.635 299.519 107.535 299.477 107.431 299.477H105.356C105.252 299.477 105.152 299.519 105.078 299.592C105.004 299.666 104.963 299.766 104.963 299.87Z" fill="#7E57C2"/>
<path d="M95.2515 299.87C95.2515 299.766 95.2101 299.666 95.1364 299.592C95.0627 299.519 94.9627 299.477 94.8584 299.477H92.7618C92.6575 299.477 92.5575 299.519 92.4838 299.592C92.4101 299.666 92.3687 299.766 92.3687 299.87C92.3687 299.975 92.4101 300.075 92.4838 300.148C92.5575 300.222 92.6575 300.264 92.7618 300.264H94.8584C94.9627 300.264 95.0627 300.222 95.1364 300.148C95.2101 300.075 95.2515 299.975 95.2515 299.87Z" fill="#7E57C2"/>
<path d="M100.107 295.007C100.212 295.007 100.312 294.966 100.385 294.892C100.459 294.818 100.5 294.718 100.5 294.614V292.532C100.501 292.481 100.492 292.43 100.473 292.382C100.454 292.335 100.426 292.291 100.39 292.255C100.354 292.218 100.311 292.189 100.264 292.169C100.217 292.149 100.166 292.139 100.115 292.139C100.012 292.141 99.9134 292.183 99.8413 292.257C99.7691 292.33 99.7287 292.429 99.7287 292.532V294.607C99.7286 294.709 99.7678 294.808 99.8382 294.883C99.9086 294.957 100.005 295.002 100.107 295.007Z" fill="#7E57C2"/>
<path d="M103.856 296.507C103.96 296.506 104.059 296.464 104.133 296.391L105.589 294.935C105.626 294.899 105.655 294.856 105.676 294.808C105.696 294.761 105.706 294.71 105.706 294.658C105.706 294.606 105.696 294.555 105.676 294.508C105.655 294.46 105.626 294.417 105.589 294.381C105.514 294.308 105.414 294.267 105.309 294.267C105.204 294.267 105.103 294.308 105.029 294.381L103.573 295.837C103.5 295.911 103.459 296.01 103.459 296.114C103.459 296.218 103.5 296.317 103.573 296.391C103.65 296.463 103.751 296.505 103.856 296.507Z" fill="#7E57C2"/>
<path d="M96.096 303.329L94.64 304.785C94.5671 304.858 94.5262 304.958 94.5262 305.061C94.5262 305.165 94.5671 305.264 94.64 305.338C94.676 305.375 94.719 305.404 94.7665 305.424C94.814 305.444 94.8651 305.455 94.9167 305.455C94.9682 305.455 95.0193 305.444 95.0668 305.424C95.1143 305.404 95.1573 305.375 95.1933 305.338L96.6493 303.882C96.7112 303.806 96.7429 303.711 96.7381 303.613C96.7333 303.516 96.6924 303.423 96.6234 303.354C96.5544 303.285 96.4622 303.245 96.3647 303.24C96.2672 303.235 96.1715 303.267 96.096 303.329Z" fill="#7E57C2"/>
<path d="M96.0232 296.347C96.0603 296.384 96.1045 296.414 96.1533 296.434C96.2021 296.454 96.2544 296.464 96.3071 296.463C96.3845 296.463 96.46 296.439 96.5241 296.396C96.5883 296.353 96.6383 296.292 96.6678 296.22C96.6973 296.149 96.7051 296.07 96.6902 295.994C96.6752 295.918 96.6382 295.849 96.5838 295.794L95.1933 294.403C95.1585 294.361 95.1151 294.326 95.0661 294.301C95.0171 294.277 94.9635 294.263 94.9087 294.26C94.8539 294.257 94.7991 294.266 94.7479 294.286C94.6967 294.305 94.6502 294.336 94.6114 294.375C94.5726 294.413 94.5424 294.46 94.5226 294.511C94.5029 294.562 94.4941 294.617 94.4968 294.672C94.4994 294.727 94.5136 294.78 94.5383 294.829C94.5629 294.878 94.5976 294.922 94.64 294.956L96.0232 296.347Z" fill="#7E57C2"/>
<path d="M104.17 303.394C104.095 303.321 103.994 303.28 103.889 303.28C103.784 303.28 103.684 303.321 103.609 303.394C103.536 303.468 103.495 303.567 103.495 303.671C103.495 303.774 103.536 303.874 103.609 303.947L104.992 305.33C105.028 305.367 105.071 305.397 105.119 305.417C105.166 305.437 105.217 305.447 105.269 305.447C105.32 305.447 105.371 305.437 105.419 305.417C105.466 305.397 105.509 305.367 105.545 305.33C105.618 305.257 105.659 305.157 105.659 305.054C105.659 304.95 105.618 304.851 105.545 304.777L104.17 303.394Z" fill="#7E57C2"/>
<path d="M129.759 133.908C129.759 133.908 132.139 136.638 131.783 137.592C131.539 138.524 131.419 139.483 131.426 140.446C131.426 140.446 134.513 142.113 134.513 142.943C134.399 143.731 134.153 144.494 133.785 145.2C133.785 145.2 134.513 149.954 134.025 151.14C133.537 152.327 128.434 153.164 128.434 153.164L126.534 158.988L115.614 155.661L117.397 149.837C117.397 149.837 114.667 142.943 114.187 140.686C113.706 138.429 117.157 134.025 121.467 132.955C124.262 132.381 127.167 132.716 129.759 133.908Z" fill="white" stroke="#263238" stroke-linejoin="round"/>
<path d="M126.075 144.726C126.075 144.726 127.975 144.843 127.742 143.889C127.509 142.936 126.788 142.433 127.145 141.989C127.502 141.545 129.759 140.089 129.045 139.135C128.332 138.182 126.191 137.476 127.145 136.405C128.099 135.335 133.566 132.955 133.566 132.955C133.566 132.955 127.975 130.341 127.145 130.341C126.315 130.341 130.472 129.038 129.045 127.968C127.618 126.898 118.467 126.898 114.784 131.768C111.1 136.638 111.573 139.492 113 143.533C114.427 147.573 117.157 152.334 118.584 152.691C120.011 153.047 124.765 153.28 125.005 151.621C125.245 149.961 126.075 144.726 126.075 144.726Z" fill="#263238" stroke="#263238" stroke-linejoin="round"/>
<path d="M127.618 145.797C127.618 145.797 124.255 141.64 124.051 143.227C123.847 144.814 125.041 150.507 127.218 149.16" fill="white"/>
<path d="M127.618 145.797C127.618 145.797 124.255 141.64 124.051 143.227C123.847 144.814 125.041 150.507 127.218 149.16" stroke="#263238" stroke-linejoin="round"/>
<path d="M108.96 157.918C108.96 157.918 111.573 158.748 117.87 160.058C124.168 161.369 129.518 162.672 129.518 162.672C129.518 162.672 127.859 157.678 126.075 156.731C124.291 155.785 114.784 153.877 113.597 153.994C112.41 154.11 108.96 157.918 108.96 157.918Z" fill="white" stroke="#263238" stroke-linejoin="round"/>
<path d="M149.24 191.078C149.24 191.078 160.058 181.338 160.648 180.741C161.237 180.144 159.92 175.514 159.92 174.8C159.92 174.087 162.417 172.893 162.417 172.893C162.417 172.893 162.774 170.993 163.96 170.993C165.147 170.993 167.171 172.536 167.171 172.536L167.411 173.846C167.411 173.846 169.071 177.53 169.071 178.127C168.905 179.391 168.321 180.562 167.411 181.454C166.224 182.641 163.487 185.138 163.487 185.138C163.487 185.138 153.979 197.972 151.839 199.756C149.699 201.54 146.845 203.44 145.775 201.307C144.705 199.174 149.24 191.078 149.24 191.078Z" fill="white" stroke="#263238" stroke-linejoin="round"/>
<path d="M162.446 172.893L162.803 173.847L161.849 174.56" stroke="#263238" stroke-linejoin="round"/>
<path d="M80.9099 177.173C80.9099 177.173 76.7458 181.454 76.986 183.238C77.2262 185.021 86.8504 204.866 86.8504 204.866C86.8504 204.866 87.5784 207.844 88.037 208.077C88.4957 208.31 89.5804 210.101 89.5804 210.101C89.5804 210.101 89.5804 211.644 91.364 209.977C93.1476 208.31 95.6446 206.417 95.5282 204.881C95.3887 203.856 94.9302 202.901 94.2178 202.151C94.2178 202.151 93.6281 200.695 93.0311 200.608C92.4342 200.52 89.7042 200.484 89.7042 200.484L86.632 184.308L80.9099 177.173Z" fill="white" stroke="#263238" stroke-linejoin="round"/>
<path d="M90.6505 203.323L92.2012 204.153C92.2012 204.153 90.2938 207.007 91.0073 207.604C91.7207 208.201 93.861 203.92 94.1013 203.323C94.3415 202.726 93.7445 202.136 93.7445 202.136" fill="white"/>
<path d="M90.6505 203.323L92.2012 204.153C92.2012 204.153 90.2938 207.007 91.0073 207.604C91.7207 208.201 93.861 203.92 94.1013 203.323C94.3415 202.726 93.7445 202.136 93.7445 202.136" stroke="#263238" stroke-linejoin="round"/>
<path d="M91.6042 204.393L88.5102 207.131" stroke="#263238" stroke-linejoin="round"/>
<path d="M96.6784 264.344L88.9689 271.027C89.2638 271.807 89.8058 272.469 90.5122 272.913C91.5387 273.43 95.9941 277.717 97.3627 278.569C99.83 280.137 102.668 281.023 105.589 281.139C109.229 281.139 109.877 279.77 109.877 279.254C109.877 278.737 102.852 274.114 102.852 274.114L101.308 267.948L96.6784 264.344Z" fill="white" stroke="#263238" stroke-linejoin="round"/>
<path d="M90.5195 269.688L88.9689 271.027C89.2638 271.807 89.8058 272.469 90.5122 272.913C91.5387 273.43 95.9941 277.717 97.3627 278.569C99.83 280.137 102.668 281.023 105.589 281.139C107.7 281.139 108.8 280.673 109.36 280.178C107.806 279.807 106.227 279.549 104.635 279.406C102.277 279.406 99.6778 277.288 99.6778 277.288L90.5195 269.688Z" fill="white" stroke="#263238" stroke-linejoin="round"/>
<path d="M94.2177 197.616C94.2177 197.616 92.5433 206.352 94.0503 209.111C95.2599 211.204 96.6021 213.217 98.0689 215.139L119.428 242.526L96.3144 264.89L101.651 270.343C101.651 270.343 130.771 246.319 132.496 245.292C134.221 244.266 132.496 235.741 131.994 234.991C131.491 234.241 121.452 212.278 121.452 212.278L122.391 202.493L94.2177 197.616Z" fill="#263238" stroke="#263238" stroke-linejoin="round"/>
<path d="M109.71 276.225C109.71 276.225 114.9 282.005 115.73 282.595C116.56 283.185 122.45 286.606 122.45 286.606C122.45 286.606 122.333 287.429 121.86 287.553C121.387 287.676 109.71 287.786 108.887 287.669C108.064 287.553 101.192 283.92 100.391 283.534C99.2137 282.89 98.0715 282.182 96.9696 281.416L102.16 273.036L109.71 276.225Z" fill="white" stroke="#263238" stroke-linejoin="round"/>
<path d="M100.923 213.304L105.873 216.849L112.956 240.029L100.923 274.012L111.391 276.924L112.068 273.124L114.15 269.134C114.15 269.134 126.934 241.092 127.109 238.791C127.284 236.491 121.452 212.248 121.452 212.248L120.389 201.984L101.978 200.207" fill="#263238"/>
<path d="M100.923 213.304L105.873 216.849L112.956 240.029L100.923 274.012L111.391 276.924L112.068 273.124L114.15 269.134C114.15 269.134 126.934 241.092 127.109 238.791C127.284 236.491 121.452 212.248 121.452 212.248L120.389 201.984L101.978 200.207" stroke="#263238" stroke-linejoin="round"/>
<path d="M121.86 287.56C122.333 287.436 122.45 286.614 122.45 286.614L121.409 286.002C116.917 285.66 109.382 285.078 108.887 285.078C108.392 285.078 101.046 280.782 98.3601 279.173L96.9696 281.423C98.0715 282.19 99.2137 282.897 100.391 283.541C101.214 283.898 108.057 287.56 108.887 287.676C109.717 287.793 121.387 287.669 121.86 287.56Z" fill="white" stroke="#263238" stroke-linejoin="round"/>
<path d="M110.503 157.561C110.503 157.561 98.7386 158.748 98.6149 159.228C98.4911 159.709 82.9265 176.576 82.9265 176.576L87.0906 184.541L97.0715 180.267L94.2178 197.616C94.2178 197.616 92.3177 198.344 95.7611 200.113C99.2046 201.882 107.176 204.153 112.643 204.153C118.111 204.153 121.197 204.153 122.391 202.493C123.167 201.466 123.584 200.213 123.578 198.926C123.694 197.972 129.286 183.471 129.286 183.471C129.286 183.471 141.763 199.487 142.237 199.88C142.71 200.273 144.974 200.608 146.874 198.329C148.774 196.05 148.417 190.845 148.417 190.845C148.417 190.845 141.407 178.127 141.05 176.343C140.693 174.56 139.594 169.063 138.91 167.666C138.225 166.268 137.25 166.122 135.342 165.169C133.435 164.215 128.215 162.439 128.215 162.439L110.503 157.561Z" fill="white" stroke="#263238" stroke-linejoin="round"/>
<path d="M99.8088 162.795L97.0715 180.267L98.2581 163.742" stroke="#263238" stroke-linejoin="round"/>
<path d="M96.7148 179.787L93.6281 172.179" stroke="#263238" stroke-linejoin="round"/>
<path d="M89.0417 175.426L87.2071 174.32" stroke="#263238" stroke-linejoin="round"/>
<path d="M97.0715 180.267L90.5923 176.365" stroke="#263238" stroke-linejoin="round"/>
<path d="M134.847 174.822L137.839 170.163" stroke="#263238" stroke-linejoin="round"/>
<path d="M129.286 183.471L133.901 176.292" stroke="#263238" stroke-linejoin="round"/>
<path d="M138.284 177.748L139.623 176.933" stroke="#263238" stroke-linejoin="round"/>
<path d="M129.999 182.764L136.66 178.731" stroke="#263238" stroke-linejoin="round"/>
<path d="M129.402 182.641L141.05 180.624" stroke="#263238" stroke-linejoin="round"/>
<path d="M95.7611 198.096L107.416 195.242" stroke="#263238" stroke-linejoin="round"/>
<path d="M115.359 191.275C116.109 190.983 116.839 190.64 117.543 190.248" stroke="#263238" stroke-linejoin="round"/>
<path d="M100.639 195.242C105.012 194.412 109.33 193.313 113.568 191.952" stroke="#263238" stroke-linejoin="round"/>
<path d="M148.301 190.008C148.062 191.938 147.183 193.733 145.804 195.104C144.447 196.566 142.664 197.562 140.708 197.951C140.708 197.951 141.778 201.998 143.088 201.998C144.399 201.998 146.656 202.726 148.672 199.974C150.689 197.223 151.169 192.607 150.572 191.413C149.975 190.219 149.611 189.651 148.301 190.008Z" fill="white" stroke="#263238" stroke-linejoin="round"/>
<path d="M84.7101 173.846C84.7101 173.846 90.4176 184.541 89.9371 184.766C89.4566 184.992 87.4473 186.79 86.7339 186.907C86.0205 187.023 82.81 183.813 81.6379 181.083C80.4658 178.353 80.0946 177.275 80.4513 176.802C80.808 176.329 83.9966 173.846 84.7101 173.846Z" fill="white" stroke="#263238" stroke-linejoin="round"/>
<path d="M344.657 117.274C345.298 113.634 346.222 104.643 340.74 100.224C333.788 94.6182 328.852 104.708 322.795 96.8605C316.738 89.0126 314.947 71.9629 297.024 72.1813C279.101 72.3997 277.732 82.5043 277.732 85.8677C277.732 89.231 272.352 91.6917 271.231 91.6917C270.11 91.6917 263.827 88.7797 261.585 95.2807C259.343 101.782 260.857 105.546 257.297 105.684C253.737 105.822 249.289 100.959 244.455 103.391C239.621 105.822 239.599 110.984 237.583 112.775C235.566 114.565 232.196 111.435 227.711 113.226C224.996 114.311 224.173 116.058 223.947 117.266L344.657 117.274Z" fill="white" stroke="black" stroke-miterlimit="10"/>
<path d="M148.272 46.9269C148.658 44.7429 149.211 39.2902 145.898 36.6184C141.698 33.2259 138.713 39.3266 135.044 34.58C131.375 29.8335 130.312 19.525 119.443 19.656C108.574 19.7871 107.795 25.895 107.795 27.9334C107.795 29.9718 104.534 31.4642 103.856 31.4642C103.179 31.4642 99.3793 29.6951 98.0325 33.6482C96.6857 37.6012 97.5957 39.858 95.4408 39.9381C93.2859 40.0182 90.6069 37.0843 87.673 38.5549C84.7392 40.0255 84.761 43.1413 83.5162 44.226C82.2713 45.3107 80.262 43.4107 77.5466 44.5027C76.9845 44.6704 76.4772 44.9847 76.0768 45.4133C75.6763 45.8419 75.3972 46.3693 75.2679 46.9415L148.272 46.9269Z" fill="white" stroke="black" stroke-miterlimit="10"/>
<path d="M90.636 76.047C90.8689 74.7293 91.2038 71.4678 89.18 69.8662C86.6611 67.8278 84.8702 71.4897 82.6717 68.6432C80.4731 65.7967 79.8616 59.616 73.3533 59.6961C66.8449 59.7762 66.3572 63.438 66.3572 64.661C66.3572 65.8841 64.4061 66.7722 63.9985 66.7722C63.5908 66.7722 61.3194 65.7166 60.5041 68.0754C59.6887 70.4341 60.242 71.7954 58.9461 71.8464C57.6503 71.8974 56.0341 70.1356 54.2869 71.0165C52.5397 71.8974 52.5325 73.7683 51.7972 74.4235C51.0619 75.0787 49.8461 73.9285 48.2227 74.5837C47.8856 74.6825 47.581 74.8696 47.3404 75.1256C47.0998 75.3816 46.9319 75.6971 46.8541 76.0397L90.636 76.047Z" fill="white" stroke="black" stroke-miterlimit="10"/>
<path d="M319.956 202.719C320.189 201.401 320.524 198.14 318.536 196.538C316.018 194.5 314.227 198.162 312.028 195.315C309.83 192.469 309.182 186.288 302.673 186.368C296.165 186.448 295.677 190.11 295.677 191.333C295.677 192.556 293.726 193.444 293.318 193.444C292.911 193.444 290.639 192.389 289.824 194.747C289.009 197.106 289.562 198.467 288.266 198.518C286.97 198.569 285.354 196.807 283.607 197.688C281.86 198.569 281.852 200.44 281.117 201.095C280.382 201.751 279.166 200.6 277.543 201.256C277.206 201.354 276.901 201.541 276.66 201.797C276.42 202.053 276.252 202.369 276.174 202.712L319.956 202.719Z" fill="white" stroke="black" stroke-miterlimit="10"/>
<path d="M299.47 80.5241C299.674 79.3739 299.965 76.5274 298.232 75.1296C296.048 73.3533 294.469 76.5857 292.547 74.0595C290.625 71.5333 290.064 66.1752 284.379 66.248C278.693 66.3208 278.271 69.5168 278.271 70.616C278.271 71.7153 276.567 72.4652 276.21 72.4652C275.854 72.4652 273.866 71.5406 273.16 73.6008C272.454 75.6611 272.927 76.855 271.799 76.8987C270.67 76.9424 269.273 75.399 267.737 76.1707C266.2 76.9424 266.2 78.5731 265.553 79.1409C264.905 79.7088 263.849 78.7187 262.422 79.2865C262.128 79.3732 261.863 79.5372 261.655 79.7613C261.446 79.9854 261.301 80.2614 261.235 80.5605L299.47 80.5241Z" fill="white" stroke="black" stroke-miterlimit="10"/>
</svg>
