<svg width="380" height="380" viewBox="0 0 380 380" fill="none" xmlns="http://www.w3.org/2000/svg">
<path opacity="0.7" d="M47.9854 125.33C47.9854 125.33 26.239 181.49 56.7994 238.04C87.3598 294.59 150.306 324.464 200.686 350.009C251.066 375.554 303.381 363.113 328.239 321.274C353.098 279.435 319.004 249.569 318.957 189.906C318.911 130.244 327.888 114.449 295.557 64.0456C263.226 13.642 183.971 2.4802 124.035 39.8656C64.1002 77.251 47.9854 125.33 47.9854 125.33Z" fill="white"/>
<path d="M146.32 14.0397C119.8 18.3999 94.4734 28.0095 72.9298 44.6157C41.5894 68.7957 24.211 104.886 22.3936 144.159C21.2002 170.087 27.3856 195.366 34.8736 219.983C44.4832 251.62 50.692 287.726 70.777 314.8C102.055 356.92 162.497 374.688 213.049 367.154C245.708 362.279 280.215 343.754 290.269 310.214C293.99 297.804 295.799 284.474 302.156 273C309.777 259.256 323.591 251.23 334.082 240.037C347.045 226.215 352.263 208.993 355.493 190.78C362.559 150.906 352.911 108.669 329.612 75.5895C305.3 41.0823 269.232 22.5495 228.282 15.2799C223.79 14.4999 219.273 13.8057 214.742 13.2363C192.246 10.4049 168.862 10.3113 146.32 14.0397Z" fill="#7E57C2"/>
<path opacity="0.7" d="M146.32 14.0397C119.8 18.3999 94.4734 28.0095 72.9298 44.6157C41.5894 68.7957 24.211 104.886 22.3936 144.159C21.2002 170.087 27.3856 195.366 34.8736 219.983C44.4832 251.62 50.692 287.726 70.777 314.8C102.055 356.92 162.497 374.688 213.049 367.154C245.708 362.279 280.215 343.754 290.269 310.214C293.99 297.804 295.799 284.474 302.156 273C309.777 259.256 323.591 251.23 334.082 240.037C347.045 226.215 352.263 208.993 355.493 190.78C362.559 150.906 352.911 108.669 329.612 75.5895C305.3 41.0823 269.232 22.5495 228.282 15.2799C223.79 14.4999 219.273 13.8057 214.742 13.2363C192.246 10.4049 168.862 10.3113 146.32 14.0397Z" fill="white"/>
<path opacity="0.2" d="M151.998 293.475L217.3 281.299C217.3 281.299 232.073 327.912 235.053 333.941L233.493 337.599L234.476 343.722L169.58 358.48L164.377 354.377L151.998 293.475Z" fill="black" fill-opacity="0.7"/>
<path d="M212.556 276.303L149.428 291.249L164.374 354.376L227.502 339.431L212.556 276.303Z" fill="#7E57C2"/>
<mask id="mask0_142_637" style="mask-type:luminance" maskUnits="userSpaceOnUse" x="149" y="276" width="79" height="79">
<path d="M212.556 276.303L149.428 291.249L164.374 354.376L227.502 339.431L212.556 276.303Z" fill="white"/>
</mask>
<g mask="url(#mask0_142_637)">
<path opacity="0.2" d="M216.59 293.334L227.066 337.568L166.865 351.819C159.611 333.668 154.065 310.814 154.065 310.814L216.59 293.334Z" fill="black" fill-opacity="0.7"/>
</g>
<path d="M212.556 276.303L149.428 291.249L164.374 354.376L227.502 339.431L212.556 276.303Z" stroke="#263238" stroke-linecap="round" stroke-linejoin="round"/>
<path d="M229.476 335.408C213.696 339.144 191.349 342.654 177.871 344.635C170.851 345.665 166.171 346.273 166.171 346.273C160.196 335.353 149.417 291.252 149.417 291.252L212.542 276.307C212.667 276.845 212.776 277.384 212.893 277.914C220.42 312.023 229.476 335.408 229.476 335.408Z" fill="white"/>
<mask id="mask1_142_637" style="mask-type:luminance" maskUnits="userSpaceOnUse" x="149" y="276" width="81" height="71">
<path d="M229.476 335.408C213.696 339.144 191.349 342.654 177.871 344.635C170.851 345.665 166.171 346.273 166.171 346.273C160.196 335.353 149.417 291.252 149.417 291.252L212.542 276.307C212.667 276.845 212.776 277.384 212.893 277.914C220.42 312.023 229.476 335.408 229.476 335.408Z" fill="white"/>
</mask>
<g mask="url(#mask1_142_637)">
<path opacity="0.4" d="M229.476 335.408C213.696 339.144 191.349 342.654 177.871 344.635C167.731 337.904 165.305 331.305 165.43 325.01C165.563 317.538 198.12 324.839 204.921 317.436C209.773 312.156 209.601 289.746 212.909 277.914C220.42 312.023 229.476 335.408 229.476 335.408Z" fill="#7E57C2"/>
</g>
<path d="M229.476 335.408C213.696 339.144 191.349 342.654 177.871 344.635C170.851 345.665 166.171 346.273 166.171 346.273C160.196 335.353 149.417 291.252 149.417 291.252L212.542 276.307C212.667 276.845 212.776 277.384 212.893 277.914C220.42 312.023 229.476 335.408 229.476 335.408Z" stroke="#263238" stroke-linecap="round" stroke-linejoin="round"/>
<path d="M160.087 300.799C160.943 299.801 161.971 298.964 163.121 298.326L164.057 300.729L167.325 299.543C168.417 299.145 169.665 298.631 170.048 297.546C170.648 298.974 172.723 298.732 174.197 298.264C184.404 294.978 194.83 292.416 205.397 290.597" stroke="#263238" stroke-linecap="round" stroke-linejoin="round"/>
<path d="M161.67 309.535C160.992 309.184 161.553 307.975 162.318 308.022C163.082 308.069 163.574 308.911 163.636 309.675C163.974 309.638 164.292 309.496 164.544 309.267C164.796 309.039 164.97 308.737 165.04 308.404L166.124 309.184C166.034 309.05 165.972 308.898 165.943 308.739C165.913 308.58 165.917 308.416 165.953 308.258C165.989 308.1 166.057 307.951 166.153 307.821C166.249 307.69 166.371 307.581 166.511 307.499C166.651 307.418 166.806 307.366 166.966 307.346C167.127 307.327 167.29 307.34 167.446 307.386C167.601 307.432 167.745 307.51 167.869 307.614C167.993 307.718 168.095 307.846 168.168 307.991C168.09 307.101 168.433 305.822 169.299 306.025C169.569 306.136 169.815 306.298 170.024 306.501C170.289 306.662 170.587 306.758 170.896 306.782C171.204 306.806 171.514 306.756 171.8 306.638C172.086 306.519 172.339 306.335 172.54 306.099C172.742 305.864 172.884 305.585 172.957 305.284C173.807 306.251 175.297 306.119 176.6 305.9L187.956 303.966C188.066 303.248 188.424 302.328 189.142 302.406C189.555 302.468 189.828 302.866 190.187 303.084C190.74 303.316 191.359 303.338 191.927 303.147C197.043 302.038 202.063 300.528 206.942 298.631" stroke="#263238" stroke-linecap="round" stroke-linejoin="round"/>
<path d="M165.586 319.48C167.103 319.613 168.631 319.402 170.055 318.864C169.803 318.331 169.739 317.729 169.874 317.155C170.009 316.581 170.334 316.07 170.796 315.705L172.169 316.586C177.697 316.455 183.192 315.696 188.549 314.324C190.944 313.716 193.315 312.975 195.678 312.234L209.141 308.037" stroke="#263238" stroke-linecap="round" stroke-linejoin="round"/>
<path opacity="0.2" d="M269.903 42.9778L268.647 43.0558C268.069 43.1228 267.486 42.9803 267.003 42.654C266.521 42.3277 266.172 41.8392 266.019 41.2774C264.1 34.2964 257.08 30.373 248.976 30.88C241.659 31.3324 233.945 35.95 229.476 42.3304C228.927 43.1667 228.199 43.8712 227.345 44.3931C226.492 44.915 225.533 45.2414 224.538 45.349L218.298 45.739C217.446 45.8177 216.592 45.6207 215.86 45.1769C215.128 44.7332 214.559 44.0662 214.235 43.2742C211.715 37.3228 205.327 33.5866 198.003 34.039C189.883 34.5382 181.49 39.4132 177.317 46.7764C176.987 47.369 176.519 47.8733 175.953 48.2467C175.387 48.6201 174.739 48.8515 174.065 48.9214L172.809 48.9994C172.514 49.0318 172.238 49.1587 172.021 49.3612C171.805 49.5636 171.66 49.8307 171.608 50.1226L171.116 53.2426C171.086 53.3472 171.078 53.457 171.093 53.5648C171.108 53.6727 171.145 53.7762 171.203 53.8688C171.26 53.9614 171.336 54.0409 171.426 54.1023C171.516 54.1637 171.618 54.2056 171.725 54.2254L173.238 54.6856C173.825 54.8601 174.332 55.2335 174.674 55.7416C175.016 56.2497 175.17 56.8608 175.11 57.4702C174.579 67.462 181.631 74.8018 191.669 74.1856C201.349 73.585 210.561 65.7694 213.572 56.1364C213.826 55.3565 214.27 54.6519 214.863 54.0856C215.457 53.5193 216.181 53.1091 216.972 52.8916C219.118 52.3262 221.351 52.1674 223.556 52.4236C224.258 52.5054 224.904 52.8485 225.365 53.3846C225.826 53.9208 226.068 54.6107 226.044 55.3174C226.044 64.7944 232.931 71.6272 242.627 71.0266C252.681 70.4182 262.212 62.08 264.88 51.94C265.072 51.238 265.425 50.5905 265.911 50.0489C266.397 49.5073 267.003 49.0865 267.68 48.82L269.373 48.1726C269.609 48.092 269.82 47.9497 269.983 47.7605C270.146 47.5713 270.256 47.3419 270.301 47.0962L270.8 43.9762C270.841 43.8469 270.847 43.7094 270.818 43.577C270.789 43.4447 270.727 43.3221 270.636 43.2214C270.546 43.1206 270.43 43.0452 270.302 43.0025C270.173 42.9597 270.036 42.9512 269.903 42.9778ZM192.098 71.5492C182.738 72.1264 176.412 64.7788 177.926 55.1692C179.439 45.5596 188.268 37.2292 197.605 36.691C206.942 36.1528 213.291 43.4614 211.77 53.071C210.249 62.6806 201.435 70.972 192.098 71.5492ZM214.554 51.043C214.591 50.523 214.606 49.9848 214.601 49.4284C214.611 49.2061 214.699 48.9945 214.851 48.8315C215.002 48.6685 215.207 48.5649 215.428 48.5392L226.598 47.8528C226.695 47.8436 226.792 47.8597 226.881 47.8997C226.97 47.9397 227.047 48.002 227.104 48.0807C227.162 48.1594 227.198 48.2516 227.209 48.3484C227.22 48.4452 227.205 48.5432 227.167 48.6328C226.995 49.171 226.839 49.7092 226.699 50.2552C221.894 48.859 217.097 50.1148 214.554 51.043ZM243.04 68.3902C233.68 68.9674 227.354 61.6198 228.875 52.0102C230.396 42.4006 239.21 34.0702 248.547 33.532C257.883 32.9938 264.233 40.3024 262.719 49.912C261.206 59.5216 252.4 67.813 243.04 68.3902Z" fill="black" fill-opacity="0.7"/>
<path d="M261.893 44.9199L190.32 54.4203C188.63 54.6447 187.006 55.2209 185.552 56.1116C184.098 57.0023 182.847 58.1879 181.88 59.5917L171.405 74.8329C171.309 74.9746 171.246 75.1361 171.221 75.3054C171.196 75.4747 171.209 75.6475 171.26 75.8109C171.311 75.9743 171.398 76.1241 171.515 76.2492C171.632 76.3742 171.776 76.4714 171.935 76.5333C172.637 76.8032 173.409 76.8283 174.127 76.6046C174.844 76.3809 175.466 75.9216 175.89 75.3009L185.577 61.2609C186.154 60.4204 186.899 59.709 187.765 59.1718C188.631 58.6347 189.599 58.2836 190.608 58.1409L262.15 48.0009L261.893 44.9199Z" fill="#263238"/>
<path d="M165.336 50.9416L237.518 49.7482C239.225 49.7241 240.918 50.0589 242.487 50.7307C244.056 51.4025 245.467 52.3965 246.628 53.6482L259.248 67.1734C259.365 67.2986 259.451 67.4486 259.501 67.612C259.551 67.7755 259.564 67.9481 259.537 68.117C259.511 68.286 259.447 68.4467 259.35 68.5872C259.252 68.7278 259.124 68.8444 258.975 68.9284C258.322 69.3006 257.563 69.4415 256.819 69.3283C256.076 69.215 255.393 68.8542 254.88 68.3044L243.219 55.8244C242.522 55.0765 241.676 54.4822 240.736 54.0793C239.796 53.6764 238.782 53.4738 237.759 53.4844L165.5 54.0304L165.336 50.9416Z" fill="#263238"/>
<path d="M209.087 55.5357C209.976 55.6995 209.937 61.7757 207.924 63.8271C205.912 65.8785 203.853 60.8865 204.375 59.0925C204.898 57.2985 206.302 55.0053 209.087 55.5357Z" fill="#7E57C2" stroke="#263238" stroke-linecap="round" stroke-linejoin="round"/>
<path d="M221.629 54.7558C220.771 55.0366 221.559 60.9958 223.805 62.8444C226.052 64.693 227.487 59.4202 226.746 57.712C226.005 56.0038 224.32 53.89 221.629 54.7558Z" fill="#7E57C2" stroke="#263238" stroke-linecap="round" stroke-linejoin="round"/>
<path opacity="0.5" d="M176.912 41.3164C180.687 38.0872 188.682 32.5882 197.433 37.822C206.185 43.0558 209.204 48.742 207.41 56.4406C205.616 64.1392 200.101 74.4352 187.13 72.6412C174.158 70.8472 165.188 51.3472 176.912 41.3164Z" fill="#7E57C2"/>
<path opacity="0.5" d="M227.947 38.8281C231.722 35.5989 239.709 30.0921 248.461 35.3259C257.213 40.5597 260.239 46.2459 258.437 53.9445C256.635 61.6431 251.136 71.9391 238.157 70.1451C225.178 68.3511 216.216 48.8199 227.947 38.8281Z" fill="#7E57C2"/>
<path d="M263.382 43.8279L262.127 43.9059C261.505 43.947 260.884 43.8058 260.341 43.4997C259.798 43.1935 259.356 42.7356 259.069 42.1821C255.59 35.4117 247.626 31.6209 239.507 32.1201C235.92 32.354 232.454 33.5017 229.436 35.4541C226.419 37.4065 223.951 40.0986 222.269 43.2741C221.865 44.0997 221.252 44.8054 220.491 45.3212C219.731 45.8371 218.848 46.1451 217.932 46.2147L211.692 46.5969C210.772 46.6453 209.855 46.451 209.034 46.0334C208.212 45.6159 207.515 44.9898 207.012 44.2179C204.949 41.2743 202.168 38.9076 198.932 37.3429C195.696 35.7783 192.114 35.0678 188.526 35.2791C180.406 35.7861 172.973 40.5285 170.36 47.6811C170.142 48.2651 169.759 48.7731 169.258 49.143C168.757 49.5129 168.158 49.7286 167.536 49.7637L166.28 49.8417C166.006 49.8598 165.751 49.9857 165.569 50.1918C165.388 50.3979 165.296 50.6675 165.313 50.9415L165.5 53.9913C165.516 54.2194 165.606 54.4359 165.757 54.6078C165.908 54.7797 166.111 54.8974 166.335 54.9429L167.973 55.3797C168.608 55.5406 169.184 55.8803 169.632 56.3587C170.08 56.8371 170.381 57.434 170.5 58.0785C171.244 62.7822 173.683 67.0511 177.358 70.0799C181.033 73.1087 185.689 74.6882 190.448 74.5202C195.207 74.3523 199.741 72.4487 203.193 69.1684C206.645 65.8881 208.777 61.4579 209.188 56.7135C209.273 55.977 209.581 55.2839 210.07 54.7265C210.559 54.1692 211.207 53.774 211.926 53.5935C214.066 53.0283 216.294 52.8695 218.493 53.1255C219.237 53.221 219.934 53.5409 220.492 54.0426C221.049 54.5442 221.44 55.2039 221.613 55.9335C222.584 60.6147 225.24 64.7763 229.077 67.6276C232.914 70.4789 237.665 71.8213 242.427 71.3997C247.189 70.9781 251.631 68.8218 254.907 65.3406C258.184 61.8595 260.067 57.2959 260.2 52.5171C260.235 51.8653 260.457 51.2373 260.838 50.7077C261.22 50.1781 261.746 49.7693 262.353 49.5297L263.913 48.8901C264.129 48.8172 264.315 48.6756 264.444 48.4869C264.572 48.2982 264.635 48.0727 264.623 47.8449L264.428 44.7951C264.413 44.5296 264.296 44.28 264.101 44.0995C263.906 43.9189 263.648 43.8215 263.382 43.8279ZM190.78 71.6973C187.431 71.9058 184.095 71.1161 181.196 69.4281C178.296 67.74 175.962 65.2296 174.489 62.2146C173.017 59.1995 172.472 55.8153 172.923 52.4904C173.375 49.1655 174.803 46.0493 177.026 43.5363C179.25 41.0233 182.169 39.2264 185.414 38.3731C188.659 37.5199 192.085 37.6485 195.257 38.7428C198.429 39.8372 201.205 41.8479 203.233 44.5207C205.262 47.1934 206.452 50.4079 206.653 53.7573C206.916 58.2384 205.393 62.6413 202.419 66.0031C199.444 69.3649 195.26 71.4122 190.78 71.6973ZM209.032 51.7605C208.946 51.2301 208.845 50.7075 208.72 50.2005C208.696 50.1002 208.694 49.9957 208.715 49.8946C208.736 49.7934 208.778 49.6981 208.84 49.6155C208.902 49.5328 208.981 49.4647 209.072 49.4162C209.164 49.3677 209.264 49.3399 209.367 49.3347L220.537 48.6405C220.642 48.628 220.749 48.6395 220.85 48.6743C220.95 48.7091 221.041 48.7661 221.116 48.8412C221.191 48.9163 221.248 49.0075 221.283 49.1078C221.318 49.2081 221.33 49.3151 221.317 49.4205C221.262 49.9353 221.223 50.4657 221.2 50.9805C217.169 49.9763 212.925 50.2488 209.055 51.7605H209.032ZM241.745 68.5383C238.396 68.7468 235.061 67.9571 232.161 66.2691C229.261 64.5811 226.927 62.0706 225.454 59.0555C223.982 56.0405 223.437 52.6563 223.889 49.3314C224.34 46.0065 225.768 42.8903 227.992 40.3773C230.215 37.8643 233.134 36.0674 236.379 35.2141C239.624 34.3609 243.05 34.4895 246.222 35.5838C249.394 36.6782 252.17 38.6889 254.198 41.3617C256.227 44.0344 257.417 47.2489 257.618 50.5983C257.883 55.0761 256.365 59.4768 253.395 62.8384C250.425 66.2 246.245 68.2493 241.769 68.5383H241.745Z" fill="#757575" stroke="#263238" stroke-linecap="round" stroke-linejoin="round"/>
<path opacity="0.4" d="M178.3 65.6992C178.3 65.6992 172.06 57.439 176.459 47.845C180.429 39.2182 189.719 38.2354 194.126 40.045L184.54 56.8306C185.422 52.7306 186.742 48.7374 188.479 44.92C188.479 44.92 180.008 53.5 178.3 65.6992Z" fill="white"/>
<path opacity="0.4" d="M229.14 62.08C229.14 62.08 222.9 53.8276 227.3 44.2336C231.27 35.599 240.56 34.6162 244.959 36.4336L235.341 53.188C236.067 47.1742 239.319 41.293 239.319 41.293C239.319 41.293 230.841 49.8652 229.14 62.08Z" fill="white"/>
<path opacity="0.2" d="M46.168 207.815L48.43 217.979L51.0118 206.474L44.2258 91.5563H39.6004L46.168 207.815Z" fill="black" fill-opacity="0.7"/>
<path d="M42.034 90.16L48.43 205.756L46.09 215.264L42.7048 206.076L36.2932 90.472C36.2784 90.2796 36.3021 90.0861 36.363 89.9029C36.4239 89.7197 36.5207 89.5505 36.6479 89.4052C36.775 89.2599 36.9298 89.1415 37.1033 89.0568C37.2768 88.9721 37.4655 88.9229 37.6582 88.912L40.5052 88.756C40.6983 88.7456 40.8916 88.7738 41.0736 88.8391C41.2556 88.9043 41.4228 89.0053 41.5652 89.1362C41.7077 89.267 41.8225 89.4249 41.903 89.6008C41.9835 89.7766 42.028 89.9667 42.034 90.16Z" fill="#7E57C2"/>
<mask id="mask2_142_637" style="mask-type:luminance" maskUnits="userSpaceOnUse" x="36" y="88" width="13" height="128">
<path d="M42.034 90.16L48.43 205.756L46.09 215.264L42.7048 206.076L36.2932 90.472C36.2784 90.2796 36.3021 90.0861 36.363 89.9029C36.4239 89.7197 36.5207 89.5505 36.6479 89.4052C36.775 89.2599 36.9298 89.1415 37.1033 89.0568C37.2768 88.9721 37.4655 88.9229 37.6582 88.912L40.5052 88.756C40.6983 88.7456 40.8916 88.7738 41.0736 88.8391C41.2556 88.9043 41.4228 89.0053 41.5652 89.1362C41.7077 89.267 41.8225 89.4249 41.903 89.6008C41.9835 89.7766 42.028 89.9667 42.034 90.16Z" fill="white"/>
</mask>
<g mask="url(#mask2_142_637)">
<path opacity="0.2" d="M46.0744 215.264L42.6892 206.076L36.2932 90.472C36.2784 90.2795 36.3021 90.086 36.363 89.9028C36.4239 89.7196 36.5207 89.5504 36.6479 89.4051C36.775 89.2598 36.9298 89.1414 37.1033 89.0567C37.2768 88.972 37.4655 88.9228 37.6582 88.912H38.056L44.4988 205.358L46.0744 215.264Z" fill="black" fill-opacity="0.7"/>
</g>
<path d="M42.034 90.16L48.43 205.756L46.09 215.264L42.7048 206.076L36.2932 90.472C36.2784 90.2796 36.3021 90.0861 36.363 89.9029C36.4239 89.7197 36.5207 89.5505 36.6479 89.4052C36.775 89.2599 36.9298 89.1415 37.1033 89.0568C37.2768 88.9721 37.4655 88.9229 37.6582 88.912L40.5052 88.756C40.6983 88.7456 40.8916 88.7738 41.0736 88.8391C41.2556 88.9043 41.4228 89.0053 41.5652 89.1362C41.7077 89.267 41.8225 89.4249 41.903 89.6008C41.9835 89.7766 42.028 89.9667 42.034 90.16Z" stroke="#263238" stroke-linecap="round" stroke-linejoin="round"/>
<path d="M38.1652 90.9401L44.4052 204.422C44.4122 204.551 44.4446 204.678 44.5005 204.794C44.5565 204.911 44.6349 205.015 44.7312 205.102C44.8276 205.188 44.9401 205.254 45.0621 205.297C45.1842 205.34 45.3135 205.358 45.4426 205.35H46.129" fill="#7E57C2"/>
<path d="M38.1652 90.9401L44.4052 204.422C44.4122 204.551 44.4446 204.678 44.5005 204.794C44.5565 204.911 44.6349 205.015 44.7312 205.102C44.8276 205.188 44.9401 205.254 45.0621 205.297C45.1842 205.34 45.3135 205.358 45.4426 205.35H46.129" stroke="#263238" stroke-linecap="round" stroke-linejoin="round"/>
<path opacity="0.2" d="M66.565 229.359L87.7108 91.1974C88.3625 86.9499 90.6742 83.135 94.1378 80.5914C97.6014 78.0479 101.933 76.9838 106.181 77.6332L309.223 108.716C311.327 109.037 313.346 109.769 315.167 110.871C316.987 111.972 318.573 113.422 319.833 115.136C321.094 116.851 322.004 118.797 322.512 120.863C323.02 122.929 323.116 125.075 322.795 127.179L301.641 265.34C301.322 267.445 300.592 269.466 299.491 271.288C298.39 273.11 296.941 274.697 295.226 275.958C293.511 277.22 291.564 278.13 289.497 278.639C287.43 279.147 285.283 279.242 283.179 278.92L80.1292 247.829C75.8817 247.178 72.0668 244.866 69.5232 241.402C66.9796 237.939 65.9156 233.607 66.565 229.359Z" fill="black" fill-opacity="0.7"/>
<path d="M82.8606 96.3955L84.4663 85.9018C84.4976 85.6974 84.6089 85.5137 84.7756 85.3912C84.9423 85.2687 85.1508 85.2175 85.3553 85.2488L89.781 85.926L87.9405 97.954L83.5148 97.2768C83.3116 97.2457 83.1289 97.1357 83.0064 96.9707C82.8839 96.8057 82.8315 96.599 82.8606 96.3955Z" fill="#7E57C2" stroke="#263238" stroke-linecap="round" stroke-linejoin="round"/>
<path d="M110.352 74.2944L120.845 75.9002C121.05 75.9315 121.233 76.0427 121.356 76.2094C121.478 76.3761 121.53 76.5847 121.498 76.7892L120.821 81.2149L108.793 79.3743L109.47 74.9486C109.501 74.7455 109.611 74.5628 109.776 74.4403C109.941 74.3178 110.148 74.2654 110.352 74.2944Z" fill="#7E57C2" stroke="#263238" stroke-linecap="round" stroke-linejoin="round"/>
<path d="M124.653 76.4787L135.147 78.0845C135.352 78.1158 135.535 78.227 135.658 78.3938C135.78 78.5605 135.831 78.769 135.8 78.9735L135.123 83.3992L123.095 81.5586L123.772 77.133C123.803 76.9298 123.913 76.7471 124.078 76.6246C124.243 76.5021 124.45 76.4497 124.653 76.4787Z" fill="#7E57C2" stroke="#263238" stroke-linecap="round" stroke-linejoin="round"/>
<path d="M64.225 226.239L85.3708 88.0774C86.0225 83.8299 88.3342 80.015 91.7978 77.4714C95.2614 74.9279 99.5933 73.8638 103.841 74.5132L306.883 105.596C308.987 105.917 311.006 106.649 312.827 107.751C314.647 108.852 316.233 110.302 317.493 112.016C318.754 113.731 319.664 115.677 320.172 117.743C320.68 119.809 320.776 121.955 320.455 124.059L299.301 262.22C298.982 264.325 298.252 266.346 297.151 268.168C296.05 269.99 294.601 271.577 292.886 272.838C291.171 274.1 289.224 275.01 287.157 275.519C285.09 276.027 282.943 276.122 280.839 275.8L77.7892 244.709C73.5417 244.058 69.7268 241.746 67.1832 238.282C64.6396 234.819 63.5756 230.487 64.225 226.239Z" fill="#7E57C2" stroke="#263238" stroke-linecap="round" stroke-linejoin="round"/>
<path d="M281.634 274.076L77.5396 242.837C75.74 242.563 74.0121 241.937 72.4546 240.994C70.8972 240.052 69.5407 238.812 68.4628 237.345C67.3849 235.878 66.6067 234.213 66.1726 232.445C65.7386 230.678 65.6572 228.841 65.9332 227.042L87.2428 87.8199C87.7984 84.1864 89.7746 80.9223 92.7367 78.7457C95.6988 76.5692 99.4042 75.6583 103.038 76.2135L307.14 107.453C310.774 108.012 314.036 109.99 316.212 112.953C318.389 115.916 319.3 119.621 318.747 123.255L297.437 262.47C297.162 264.27 296.535 265.998 295.592 267.555C294.649 269.113 293.408 270.469 291.94 271.547C290.473 272.625 288.807 273.403 287.039 273.837C285.271 274.271 283.434 274.352 281.634 274.076Z" fill="#757575" stroke="#263238" stroke-linecap="round" stroke-linejoin="round"/>
<path d="M80.02 157.958C79.9941 158.109 79.9243 158.249 79.8194 158.36C79.7145 158.472 79.579 158.55 79.43 158.585C79.2809 158.62 79.1248 158.61 78.9811 158.557C78.8375 158.504 78.7126 158.41 78.6221 158.287C78.5316 158.163 78.4794 158.016 78.4721 157.863C78.4649 157.71 78.5028 157.558 78.5811 157.427C78.6595 157.295 78.7749 157.189 78.9128 157.123C79.0508 157.056 79.2053 157.032 79.357 157.053C79.4607 157.067 79.5605 157.102 79.6504 157.156C79.7403 157.209 79.8186 157.28 79.8804 157.365C79.9423 157.449 79.9865 157.545 80.0105 157.647C80.0345 157.749 80.0377 157.855 80.02 157.958Z" fill="#999999" stroke="#263238" stroke-linecap="round" stroke-linejoin="round"/>
<path d="M79.6378 165.219C79.5592 165.601 79.3368 165.939 79.0167 166.161C78.6966 166.384 78.3031 166.475 77.9176 166.416C77.5321 166.357 77.1841 166.152 76.9453 165.844C76.7066 165.535 76.5954 165.147 76.6348 164.759C76.7134 164.377 76.9358 164.04 77.2559 163.817C77.576 163.595 77.9695 163.503 78.355 163.562C78.7405 163.621 79.0885 163.826 79.3273 164.135C79.566 164.443 79.6772 164.831 79.6378 165.219Z" fill="#263238"/>
<path d="M82.3132 147.74C82.2346 148.122 82.0122 148.459 81.6921 148.682C81.372 148.904 80.9785 148.996 80.593 148.936C80.2075 148.877 79.8595 148.672 79.6207 148.364C79.382 148.056 79.2708 147.667 79.3102 147.279C79.331 147.074 79.3934 146.875 79.4934 146.695C79.5935 146.515 79.7292 146.357 79.8923 146.23C80.0554 146.104 80.2425 146.012 80.4422 145.961C80.6418 145.909 80.8499 145.898 81.0538 145.93C81.2577 145.961 81.4531 146.033 81.6281 146.142C81.8032 146.251 81.9542 146.395 82.072 146.564C82.1898 146.734 82.2719 146.925 82.3134 147.127C82.3548 147.329 82.3548 147.538 82.3132 147.74Z" fill="#263238"/>
<path d="M78.46 170.126C78.4267 170.342 78.3299 170.544 78.182 170.705C78.0341 170.867 77.8417 170.981 77.629 171.033C77.4163 171.085 77.193 171.073 76.9871 170.998C76.7813 170.923 76.6023 170.789 76.4727 170.613C76.343 170.436 76.2686 170.225 76.2588 170.007C76.249 169.788 76.3043 169.571 76.4176 169.384C76.531 169.196 76.6973 169.047 76.8956 168.954C77.0939 168.861 77.3153 168.829 77.5318 168.862C77.6758 168.884 77.814 168.934 77.9386 169.009C78.0632 169.085 78.1717 169.184 78.258 169.301C78.3442 169.419 78.4064 169.552 78.4411 169.693C78.4757 169.835 78.4822 169.982 78.46 170.126Z" fill="#263238"/>
<path d="M313.622 120.861L291.837 263.226C291.562 265.021 290.586 266.632 289.123 267.707C287.661 268.782 285.831 269.233 284.037 268.959L113.053 242.79L109.348 242.26L95.4094 240.123L88.6624 239.093L78.9124 237.58L76.783 237.252C74.9888 236.977 73.3772 236.002 72.3022 234.539C71.2272 233.076 70.7768 231.247 71.05 229.452L92.8432 87.0401C92.9783 86.1515 93.2874 85.2983 93.7528 84.5294C94.2182 83.7604 94.8307 83.0909 95.5553 82.559C96.2799 82.0272 97.1022 81.6436 97.9753 81.4301C98.8484 81.2166 99.755 81.1774 100.643 81.3149L164.471 91.0805L174.127 92.5625L183.354 93.9743L195.21 95.7839L199.5 96.4391L307.92 113.03C308.809 113.169 309.662 113.483 310.429 113.952C311.197 114.421 311.864 115.037 312.394 115.764C312.923 116.491 313.304 117.316 313.515 118.19C313.726 119.065 313.762 119.972 313.622 120.861Z" fill="#263238"/>
<g opacity="0.1">
<path d="M153.34 241.48L80.8 230.381C80.3286 230.308 79.9055 230.051 79.6233 229.666C79.3411 229.282 79.2229 228.801 79.2946 228.329L86.494 181.272C86.5689 180.8 86.8275 180.377 87.2133 180.095C87.599 179.813 88.0807 179.695 88.5532 179.766L161.093 190.866C161.327 190.901 161.552 190.982 161.754 191.104C161.956 191.227 162.133 191.388 162.273 191.578C162.412 191.769 162.513 191.986 162.569 192.215C162.625 192.445 162.635 192.684 162.599 192.917L155.399 239.975C155.363 240.209 155.281 240.434 155.158 240.636C155.035 240.838 154.873 241.015 154.682 241.154C154.491 241.294 154.274 241.395 154.043 241.451C153.813 241.507 153.574 241.517 153.34 241.48ZM88.483 180.39C88.3309 180.367 88.1756 180.374 88.0262 180.411C87.8768 180.448 87.7361 180.514 87.6122 180.605C87.4883 180.696 87.3836 180.811 87.3042 180.943C87.2247 181.075 87.1721 181.221 87.1492 181.373L79.9498 228.423C79.9265 228.575 79.9335 228.73 79.9704 228.88C80.0072 229.029 80.0732 229.17 80.1645 229.294C80.2557 229.418 80.3706 229.522 80.5024 229.602C80.6342 229.681 80.7804 229.734 80.9326 229.757L153.434 240.856C153.586 240.879 153.741 240.872 153.89 240.835C154.04 240.799 154.181 240.733 154.304 240.641C154.428 240.55 154.533 240.435 154.612 240.303C154.692 240.172 154.745 240.025 154.767 239.873L161.975 192.824C162.02 192.516 161.942 192.203 161.758 191.952C161.574 191.701 161.299 191.532 160.992 191.482L88.483 180.39Z" fill="white"/>
</g>
<path opacity="0.4" d="M110.362 208.868L126.602 218.08C128.321 214.927 129.12 211.353 128.908 207.768C128.696 204.182 127.48 200.729 125.4 197.8L110.362 208.868Z" fill="#7E57C2"/>
<path opacity="0.6" d="M110.518 207.94L125.026 197.277C123.065 194.694 120.481 192.652 117.515 191.342L114.652 198.128L110.518 207.94Z" fill="#7E57C2"/>
<path d="M112.991 190L110.479 206.38L116.937 191.069C115.663 190.574 114.34 190.215 112.991 190Z" fill="#7E57C2"/>
<path opacity="0.1" d="M109.504 208.673L112.367 189.953C109.079 189.504 105.731 189.917 102.651 191.151C99.5707 192.385 96.8641 194.399 94.7965 196.994C92.7289 199.589 91.3712 202.677 90.8565 205.955C90.3418 209.234 90.6877 212.589 91.8604 215.693L109.504 208.673Z" fill="white"/>
<path opacity="0.2" d="M106.883 227.83C110.668 228.409 114.539 227.841 117.998 226.199C121.457 224.557 124.345 221.917 126.29 218.618L109.761 209.258L92.0866 216.239C93.3484 219.28 95.373 221.945 97.9649 223.975C100.557 226.005 103.628 227.333 106.883 227.83Z" fill="#7E57C2"/>
<path d="M139.893 197.602L137.742 197.273C137.474 197.232 137.223 197.416 137.182 197.685L136.853 199.836C136.812 200.104 136.996 200.355 137.264 200.396L139.416 200.725C139.684 200.766 139.935 200.582 139.976 200.314L140.305 198.163C140.346 197.894 140.162 197.644 139.893 197.602Z" fill="#7E57C2"/>
<path d="M151.585 200.569L142.186 199.126C142.139 199.119 142.093 199.103 142.052 199.079C142.011 199.054 141.975 199.022 141.947 198.983C141.919 198.945 141.898 198.901 141.887 198.855C141.876 198.808 141.874 198.76 141.882 198.713C141.888 198.665 141.904 198.62 141.929 198.579C141.953 198.538 141.986 198.502 142.024 198.473C142.063 198.445 142.107 198.425 142.153 198.414C142.2 198.402 142.248 198.401 142.295 198.408L151.655 199.851C151.703 199.858 151.748 199.874 151.789 199.899C151.83 199.923 151.866 199.956 151.894 199.994C151.923 200.033 151.943 200.076 151.954 200.123C151.965 200.169 151.967 200.218 151.959 200.265C151.943 200.352 151.896 200.43 151.828 200.485C151.759 200.541 151.673 200.571 151.585 200.569Z" fill="#7E57C2"/>
<path d="M148.473 201.7L141.944 200.702C141.897 200.695 141.851 200.679 141.81 200.654C141.769 200.63 141.733 200.597 141.705 200.559C141.677 200.52 141.656 200.477 141.645 200.43C141.634 200.384 141.632 200.335 141.64 200.288C141.655 200.193 141.707 200.109 141.785 200.052C141.862 199.995 141.958 199.97 142.053 199.984L148.582 200.982C148.629 200.989 148.675 201.005 148.716 201.03C148.757 201.054 148.793 201.087 148.821 201.125C148.849 201.164 148.87 201.207 148.881 201.254C148.892 201.3 148.894 201.349 148.886 201.396C148.88 201.443 148.864 201.489 148.839 201.53C148.815 201.571 148.782 201.607 148.744 201.635C148.705 201.663 148.661 201.684 148.615 201.695C148.568 201.706 148.52 201.708 148.473 201.7Z" fill="#7E57C2"/>
<path opacity="0.6" d="M138.825 204.591L136.674 204.262C136.406 204.221 136.155 204.405 136.114 204.673L135.785 206.824C135.744 207.093 135.928 207.343 136.196 207.384L138.347 207.714C138.616 207.755 138.866 207.57 138.907 207.302L139.237 205.151C139.278 204.883 139.094 204.632 138.825 204.591Z" fill="#7E57C2"/>
<path d="M150.516 207.55L141.11 206.115C141.016 206.098 140.932 206.045 140.876 205.968C140.819 205.892 140.794 205.796 140.805 205.701C140.821 205.607 140.873 205.522 140.95 205.465C141.027 205.408 141.124 205.384 141.219 205.397L150.626 206.84C150.672 206.847 150.717 206.864 150.757 206.888C150.798 206.913 150.833 206.945 150.861 206.983C150.888 207.021 150.909 207.064 150.92 207.11C150.931 207.156 150.933 207.203 150.926 207.25C150.919 207.296 150.902 207.341 150.878 207.381C150.854 207.422 150.821 207.457 150.783 207.485C150.745 207.513 150.702 207.533 150.656 207.544C150.611 207.555 150.563 207.557 150.516 207.55Z" fill="#7E57C2"/>
<path d="M147.404 208.673L140.86 207.675C140.775 207.649 140.703 207.594 140.656 207.52C140.609 207.445 140.59 207.356 140.603 207.269C140.617 207.181 140.661 207.102 140.728 207.045C140.795 206.987 140.881 206.956 140.969 206.957L147.498 207.956C147.545 207.962 147.591 207.978 147.632 208.003C147.673 208.027 147.709 208.06 147.737 208.098C147.765 208.137 147.786 208.181 147.797 208.227C147.808 208.274 147.81 208.322 147.802 208.369C147.788 208.462 147.739 208.545 147.665 208.602C147.591 208.659 147.497 208.684 147.404 208.673Z" fill="#7E57C2"/>
<path opacity="0.4" d="M138.245 211.726L136.09 211.399C135.821 211.359 135.571 211.543 135.53 211.812L135.203 213.967C135.163 214.235 135.348 214.486 135.616 214.527L137.771 214.853C138.039 214.894 138.29 214.709 138.331 214.44L138.657 212.286C138.698 212.017 138.513 211.767 138.245 211.726Z" fill="#7E57C2"/>
<path d="M149.44 214.539L140.08 213.104C139.995 213.078 139.923 213.023 139.876 212.948C139.829 212.874 139.81 212.785 139.823 212.697C139.837 212.61 139.881 212.531 139.948 212.473C140.015 212.416 140.101 212.385 140.189 212.386L149.549 213.821C149.597 213.828 149.642 213.844 149.683 213.868C149.724 213.893 149.76 213.925 149.788 213.964C149.817 214.002 149.837 214.046 149.848 214.093C149.859 214.139 149.861 214.187 149.853 214.235C149.847 214.282 149.831 214.328 149.806 214.369C149.782 214.41 149.749 214.445 149.711 214.474C149.672 214.502 149.628 214.522 149.582 214.534C149.535 214.545 149.487 214.547 149.44 214.539Z" fill="#7E57C2"/>
<path d="M146.32 215.662L139.791 214.664C139.707 214.638 139.634 214.583 139.587 214.508C139.54 214.434 139.521 214.345 139.535 214.257C139.548 214.17 139.592 214.091 139.66 214.033C139.727 213.976 139.812 213.945 139.901 213.946L146.429 214.944C146.514 214.97 146.586 215.025 146.633 215.1C146.68 215.174 146.699 215.263 146.686 215.351C146.673 215.438 146.628 215.517 146.561 215.575C146.494 215.632 146.408 215.663 146.32 215.662Z" fill="#7E57C2"/>
<path opacity="0.2" d="M136.689 218.568L134.538 218.239C134.269 218.198 134.019 218.382 133.978 218.65L133.648 220.801C133.607 221.07 133.791 221.32 134.06 221.362L136.211 221.691C136.479 221.732 136.73 221.548 136.771 221.279L137.1 219.128C137.141 218.86 136.957 218.609 136.689 218.568Z" fill="#7E57C2"/>
<path d="M148.371 221.528L139.011 220.092C138.917 220.077 138.832 220.025 138.775 219.948C138.718 219.871 138.694 219.774 138.707 219.679C138.714 219.632 138.73 219.586 138.754 219.545C138.779 219.504 138.811 219.468 138.85 219.44C138.888 219.412 138.932 219.391 138.979 219.38C139.025 219.369 139.073 219.367 139.121 219.375L148.52 220.81C148.567 220.817 148.612 220.833 148.654 220.857C148.695 220.882 148.73 220.914 148.759 220.953C148.787 220.991 148.807 221.035 148.819 221.082C148.83 221.128 148.832 221.176 148.824 221.223C148.818 221.275 148.801 221.324 148.774 221.369C148.747 221.413 148.711 221.451 148.668 221.48C148.625 221.509 148.576 221.528 148.525 221.536C148.474 221.544 148.421 221.542 148.371 221.528Z" fill="#7E57C2"/>
<path d="M145.267 222.651L138.738 221.652C138.691 221.646 138.645 221.63 138.604 221.605C138.563 221.581 138.528 221.548 138.499 221.51C138.471 221.471 138.451 221.427 138.439 221.381C138.428 221.334 138.426 221.286 138.434 221.239C138.441 221.192 138.457 221.146 138.481 221.105C138.506 221.064 138.538 221.028 138.577 221C138.615 220.972 138.659 220.951 138.706 220.94C138.752 220.929 138.8 220.927 138.848 220.935L145.376 221.933C145.471 221.949 145.556 222 145.613 222.078C145.67 222.155 145.694 222.252 145.68 222.347C145.674 222.394 145.658 222.439 145.633 222.481C145.609 222.522 145.576 222.557 145.538 222.586C145.499 222.614 145.455 222.634 145.409 222.646C145.362 222.657 145.314 222.659 145.267 222.651Z" fill="#7E57C2"/>
<path opacity="0.1" d="M135.621 225.564L133.469 225.235C133.201 225.194 132.95 225.378 132.909 225.647L132.58 227.798C132.539 228.066 132.723 228.317 132.992 228.358L135.143 228.687C135.411 228.728 135.662 228.544 135.703 228.276L136.032 226.124C136.073 225.856 135.889 225.605 135.621 225.564Z" fill="white"/>
<path d="M147.303 228.516L137.943 227.081C137.848 227.066 137.763 227.014 137.706 226.937C137.649 226.859 137.625 226.763 137.639 226.668C137.645 226.62 137.661 226.575 137.686 226.534C137.71 226.493 137.743 226.457 137.781 226.429C137.82 226.4 137.864 226.38 137.91 226.369C137.957 226.358 138.005 226.356 138.052 226.364L147.451 227.799C147.498 227.805 147.544 227.822 147.585 227.846C147.626 227.871 147.662 227.903 147.69 227.941C147.718 227.98 147.739 228.024 147.75 228.07C147.761 228.117 147.763 228.165 147.755 228.212C147.749 228.264 147.732 228.313 147.705 228.357C147.678 228.402 147.642 228.44 147.599 228.468C147.556 228.497 147.507 228.517 147.456 228.525C147.405 228.533 147.353 228.53 147.303 228.516Z" fill="#7E57C2"/>
<path d="M144.198 229.64L137.662 228.641C137.615 228.634 137.571 228.617 137.53 228.592C137.49 228.567 137.455 228.535 137.428 228.496C137.4 228.458 137.381 228.414 137.37 228.368C137.359 228.322 137.358 228.274 137.366 228.228C137.371 228.18 137.387 228.134 137.411 228.092C137.435 228.051 137.467 228.014 137.506 227.986C137.545 227.957 137.589 227.937 137.636 227.926C137.683 227.916 137.732 227.915 137.779 227.924L144.308 228.922C144.36 228.923 144.412 228.934 144.459 228.957C144.507 228.979 144.549 229.011 144.583 229.051C144.617 229.091 144.642 229.138 144.657 229.188C144.671 229.239 144.674 229.292 144.667 229.344C144.659 229.396 144.64 229.445 144.611 229.489C144.582 229.533 144.544 229.57 144.5 229.599C144.456 229.627 144.406 229.645 144.354 229.652C144.302 229.659 144.249 229.655 144.198 229.64Z" fill="#7E57C2"/>
<g opacity="0.1">
<path d="M289.965 210.576L172.06 192.535C171.588 192.463 171.106 192.581 170.72 192.863C170.334 193.145 170.076 193.568 170.001 194.04L169.502 197.285L169.408 197.909L168.737 202.285L168.644 202.909L167.973 207.277L167.879 207.893L167.208 212.269L167.115 212.885L166.444 217.261L166.35 217.885L165.68 222.253L165.586 222.877L164.915 227.245L164.822 227.869L164.151 232.237L164.057 232.861L163.386 237.229L163.293 237.853L162.801 241.098C162.765 241.332 162.775 241.571 162.831 241.801C162.886 242.031 162.987 242.248 163.127 242.44C163.267 242.631 163.443 242.793 163.645 242.916C163.848 243.039 164.073 243.121 164.307 243.157L282.188 261.198C282.66 261.268 283.139 261.147 283.522 260.864C283.905 260.58 284.161 260.156 284.232 259.685L284.731 256.44L284.825 255.816L285.495 251.448L285.589 250.824L286.26 246.449L286.353 245.832L287.024 241.464L287.118 240.84L287.789 236.472L287.882 235.848L288.553 231.473L288.647 230.856L289.317 226.481L289.411 225.864L290.082 221.496L290.175 220.872L290.846 216.497L290.94 215.873L291.439 212.628C291.511 212.161 291.397 211.684 291.122 211.3C290.846 210.917 290.43 210.657 289.965 210.576ZM283.647 259.592C283.599 259.898 283.432 260.173 283.182 260.357C282.932 260.541 282.62 260.619 282.313 260.574L164.439 242.533C164.131 242.485 163.854 242.317 163.668 242.066C163.483 241.815 163.404 241.5 163.449 241.191L163.948 237.947L284.138 256.347L283.647 259.592ZM284.24 255.692L164.042 237.299L164.712 232.923L284.903 251.324L284.24 255.692ZM285.02 250.7L164.806 232.338L165.477 227.963L285.667 246.355L285.02 250.7ZM285.8 245.708L165.602 227.307L166.272 222.939L286.463 241.332L285.8 245.708ZM286.58 240.716L166.382 222.315L167.052 217.947L287.243 236.348L286.58 240.716ZM287.36 235.724L167.162 217.323L167.832 212.948L288.023 231.348L287.36 235.724ZM288.14 230.724L167.942 212.331L168.612 207.963L288.803 226.356L288.14 230.724ZM288.92 225.732L168.628 207.371L169.299 203.003L289.489 221.395L288.92 225.732ZM289.7 220.748L169.392 202.379L170.063 198.003L290.253 216.403L289.7 220.748ZM170.274 197.348L170.773 194.111C170.796 193.958 170.849 193.812 170.928 193.68C171.007 193.549 171.112 193.434 171.236 193.342C171.36 193.251 171.501 193.185 171.65 193.148C171.799 193.112 171.955 193.105 172.107 193.128L289.84 211.2C290.146 211.248 290.42 211.416 290.603 211.666C290.786 211.916 290.862 212.228 290.815 212.534L290.316 215.779L170.274 197.348Z" fill="white"/>
</g>
<g opacity="0.1">
<path d="M302.554 126.602L101.688 95.8539C101.422 95.813 101.149 95.8251 100.887 95.8896C100.625 95.9542 100.378 96.0698 100.16 96.23C99.9431 96.3901 99.7594 96.5916 99.6201 96.8229C99.4807 97.0542 99.3884 97.3107 99.3484 97.5777L88.093 171.108C88.0123 171.646 88.1473 172.194 88.4688 172.632C88.7903 173.07 89.272 173.364 89.809 173.448L290.682 204.196C291.22 204.277 291.768 204.142 292.206 203.82C292.644 203.499 292.938 203.017 293.022 202.48L304.278 128.942C304.319 128.675 304.307 128.402 304.242 128.14C304.178 127.878 304.062 127.631 303.902 127.414C303.742 127.196 303.54 127.013 303.309 126.873C303.078 126.734 302.821 126.642 302.554 126.602ZM138.754 137.171L152.7 139.3L151.484 147.225L137.514 145.088L138.754 137.171ZM136.921 144.971L122.92 142.872L124.137 134.94L138.107 137.077L136.921 144.971ZM153.34 139.409L167.318 141.546L166.101 149.479L152.131 147.342L153.34 139.409ZM225.786 149.861L211.817 147.724L213.026 139.791L227.003 141.929L225.786 149.861ZM227.619 142.061L241.597 144.198L240.38 152.131L226.41 149.994L227.619 142.061ZM182.528 143.918L196.505 146.055L195.288 153.987L181.295 151.78L182.528 143.918ZM180.695 151.718L166.725 149.58L167.91 141.64L181.888 143.777L180.695 151.718ZM197.121 146.117L211.06 148.247L209.843 156.179L195.873 154.042L197.121 146.117ZM211.715 148.348L225.693 150.485L224.476 158.418L210.506 156.281L211.715 148.348ZM211.193 147.63L197.223 145.493L198.432 137.561L212.409 139.706L211.193 147.63ZM196.599 145.4L182.629 143.262L183.838 135.33L197.8 137.459L196.599 145.4ZM181.982 143.2L168.012 141.055L169.221 133.06L183.198 135.197L181.982 143.2ZM167.38 140.922L153.41 138.785L154.619 130.853L168.597 132.99L167.38 140.922ZM165.976 150.103L164.767 158.02L150.797 155.883L152.014 147.95L165.976 150.103ZM166.6 150.197L180.57 152.334L179.353 160.266L165.383 158.129L166.6 150.197ZM181.194 152.427L195.164 154.565L193.947 162.497L179.985 160.36L181.194 152.427ZM195.788 154.658L209.757 156.803L208.541 164.728L194.571 162.591L195.788 154.658ZM210.381 156.897L224.351 159.034L223.134 166.967L209.165 164.829L210.381 156.897ZM224.975 159.128L238.945 161.265L237.728 169.197L223.758 167.06L224.975 159.128ZM225.069 158.511L226.278 150.579L240.255 152.716L239.039 160.649L225.069 158.511ZM240.872 152.81L254.849 154.947L253.632 162.879L239.663 160.742L240.872 152.81ZM255.465 155.04L269.443 157.185L268.226 165.11L254.256 162.973L255.465 155.04ZM255.567 154.424L256.776 146.492L270.761 148.66L269.56 156.561L255.567 154.424ZM254.943 154.331L240.973 152.186L242.182 144.253L256.16 146.398L254.943 154.331ZM242.26 143.637L243.477 135.704L257.447 137.841L256.3 145.774L242.26 143.637ZM241.644 143.543L227.674 141.398L228.883 133.473L242.853 135.611L241.644 143.543ZM227.05 141.305L213.072 139.167L214.289 131.235L228.259 133.372L227.05 141.305ZM212.456 139.074L198.502 136.96L199.719 129.027L213.689 131.165L212.456 139.074ZM197.862 136.835L183.916 134.698L185.125 126.765L199.095 128.91L197.862 136.835ZM183.292 134.62L169.322 132.483L170.5 124.535L184.54 126.672L183.292 134.62ZM168.698 132.389L154.721 130.252L155.937 122.319L169.907 124.48L168.698 132.389ZM154.12 130.135L140.15 127.998L141.359 120.065L155.329 122.21L154.12 130.135ZM154.026 130.759L152.81 138.692L138.84 136.554L140.049 128.622L154.026 130.759ZM138.216 136.461L124.246 134.316L125.455 126.383L139.433 128.528L138.216 136.461ZM123.622 134.222L109.66 132.085L110.869 124.152L124.847 126.29L123.622 134.222ZM123.528 134.846L122.312 142.779L108.342 140.642L109.559 132.709L123.528 134.846ZM122.218 143.426L121.001 151.359L107.031 149.222L108.248 141.289L122.218 143.426ZM122.842 143.528L136.812 145.665L135.595 153.597L121.625 151.452L122.842 143.528ZM137.436 145.758L151.39 147.88L150.173 155.813L136.18 153.66L137.436 145.758ZM150.08 156.46L148.863 164.393L134.893 162.248L136.11 154.315L150.08 156.46ZM150.704 156.554L164.673 158.691L163.48 166.6L149.502 164.463L150.704 156.554ZM165.297 158.784L179.267 160.922L178.05 168.854L164.081 166.717L165.297 158.784ZM179.86 160.984L193.9 163.121L192.683 171.054L178.674 168.94L179.86 160.984ZM194.454 163.215L208.424 165.352L207.207 173.285L193.237 171.147L194.454 163.215ZM209.048 165.446L223.017 167.591L221.801 175.515L207.831 173.378L209.048 165.446ZM223.641 167.684L237.611 169.821L236.394 177.754L222.425 175.617L223.641 167.684ZM238.235 169.915L252.236 172.06L251.019 179.993L237.05 177.855L238.235 169.915ZM238.329 169.291L239.546 161.366L253.547 163.48L252.33 171.413L238.329 169.291ZM254.139 163.597L268.109 165.734L266.892 173.667L252.923 171.53L254.139 163.597ZM268.78 165.82L282.75 167.957L281.533 175.89L267.563 173.753L268.78 165.82ZM268.874 165.204L270.083 157.271L284.06 159.408L282.82 167.38L268.874 165.204ZM270.184 156.624L271.393 148.691L285.371 150.828L284.138 158.8L270.184 156.624ZM271.487 148.044L272.68 140.174L286.65 142.311L285.449 150.22L271.487 148.044ZM270.87 147.942L256.893 145.805L258.11 137.873L272.064 140.08L270.87 147.942ZM258.203 137.256L259.42 129.386L273.374 131.5L272.165 139.433L258.203 137.256ZM257.587 137.155L243.609 135.018L244.826 127.085L258.796 129.23L257.587 137.155ZM242.993 134.924L229 132.849L230.217 124.917L244.187 127.054L242.993 134.924ZM228.399 132.693L214.422 130.556L215.639 122.624L229.608 124.761L228.399 132.693ZM213.806 130.455L199.812 128.38L201.029 120.447L214.999 122.585L213.806 130.455ZM199.212 128.224L185.234 126.087L186.435 118.24L200.405 120.377L199.212 128.224ZM184.602 126.04L170.625 123.895L171.842 115.97L185.811 118.107L184.602 126.04ZM170.009 123.801L156.031 121.664L157.24 113.747L171.218 115.9L170.009 123.801ZM155.415 121.571L141.437 119.433L142.654 111.501L156.624 113.638L155.415 121.571ZM140.86 119.348L126.82 117.21L128.037 109.278L142.007 111.423L140.86 119.348ZM140.759 119.972L139.55 127.904L125.58 125.767L126.789 117.834L140.759 119.972ZM124.956 125.673L110.986 123.528L112.195 115.604L126.165 117.741L124.956 125.673ZM110.362 123.435L96.3922 121.298L97.6012 113.365L111.579 115.502L110.362 123.435ZM110.268 124.059L109.052 131.991L95.0818 129.854L96.2908 121.922L110.268 124.059ZM108.958 132.639L107.741 140.571L93.7714 138.434L94.9882 130.502L108.958 132.639ZM107.648 141.219L106.431 149.151L92.461 147.014L93.6778 139.082L107.648 141.219ZM106.337 149.799L105.128 157.724L91.1506 155.586L92.3674 147.654L106.337 149.799ZM106.961 149.892L120.931 152.03L119.722 159.962L105.744 157.825L106.961 149.892ZM121.555 152.123L135.525 154.26L134.308 162.193L120.338 160.056L121.555 152.123ZM134.214 162.817L133.005 170.75L119.02 168.534L120.237 160.602L134.214 162.817ZM134.838 162.911L148.808 165.048L147.599 172.98L133.622 170.843L134.838 162.911ZM149.393 165.04L163.363 167.185L162.154 175.11L148.176 172.973L149.393 165.04ZM163.987 167.279L177.957 169.416L176.74 177.372L162.762 175.235L163.987 167.279ZM178.581 169.509L192.551 171.647L191.342 179.579L177.364 177.442L178.581 169.509ZM193.175 171.748L207.16 173.909L205.951 181.841L191.973 179.696L193.175 171.748ZM207.768 173.979L221.738 176.116L220.529 184.049L206.552 181.911L207.768 173.979ZM222.362 176.21L236.332 178.347L235.123 186.279L221.145 184.142L222.362 176.21ZM236.956 178.448L250.926 180.64L249.717 188.573L235.739 186.435L236.956 178.448ZM251.55 180.679L265.52 182.816L264.311 190.78L250.333 188.643L251.55 180.679ZM251.643 180.055L252.86 172.122L266.83 174.267L265.613 182.2L251.643 180.055ZM267.454 174.4L281.424 176.537L280.207 184.47L266.237 182.333L267.454 174.4ZM282.04 176.615L296.01 178.752L294.793 186.685L280.831 184.54L282.04 176.615ZM282.134 175.999L283.35 168.066L297.32 170.204L296.08 178.136L282.134 175.999ZM283.444 167.419L284.653 159.486L298.631 161.624L297.414 169.556L283.444 167.419ZM284.754 158.839L285.94 151L299.98 153.098L298.771 161.031L284.754 158.839ZM286.057 150.259L287.282 142.42L301.251 144.557L300.042 152.49L286.057 150.259ZM287.367 141.679L288.592 133.84L302.562 135.977L301.353 143.91L287.367 141.679ZM286.751 141.585L272.774 139.448L273.99 131.516L287.96 133.653L286.751 141.585ZM274.084 130.892L275.301 122.967L289.271 125.104L288.054 133.037L274.084 130.892ZM273.46 130.798L259.49 128.661L260.707 120.728L274.677 122.865L273.46 130.798ZM258.866 128.567L244.896 126.43L246.16 118.599L260.13 120.736L258.866 128.567ZM244.272 126.336L230.303 124.191L231.519 116.267L245.489 118.404L244.272 126.336ZM229.679 124.098L215.74 122.062L216.957 114.129L230.927 116.267L229.679 124.098ZM215.085 121.867L201.123 119.8L202.34 111.867L216.309 114.005L215.085 121.867ZM200.491 119.628L186.521 117.491L187.746 109.66L201.7 111.805L200.491 119.628ZM185.905 117.398L171.927 115.26L173.144 107.328L187.114 109.465L185.905 117.398ZM171.311 115.167L157.334 113.022L158.55 105.097L172.528 107.32L171.311 115.167ZM156.71 112.928L142.74 110.791L143.98 102.96L157.95 105.097L156.71 112.928ZM142.124 110.697L128.146 108.56L129.363 100.628L143.333 102.765L142.124 110.697ZM127.53 108.467L113.56 106.423L114.777 98.4981L128.747 100.635L127.53 108.467ZM127.428 109.083L126.219 117.015L112.242 114.878L113.459 106.946L127.428 109.083ZM111.626 114.785L97.6558 112.78L98.8726 104.847L112.842 106.985L111.626 114.785ZM91.018 156.132L104.98 158.27L103.771 166.202L89.7934 164.065L91.018 156.132ZM105.612 158.363L119.582 160.5L118.373 168.433L104.395 166.296L105.612 158.363ZM118.24 169.057L117.031 176.99L103.061 174.852L104.27 166.92L118.24 169.057ZM118.864 169.151L132.865 171.28L131.656 179.213L117.686 177.075L118.864 169.151ZM133.458 171.389L147.428 173.526L146.219 181.459L132.28 179.314L133.458 171.389ZM148.083 173.62L162.053 175.757L160.844 183.69L146.866 181.553L148.083 173.62ZM162.7 175.851L176.67 177.996L175.461 185.921L161.468 183.76L162.7 175.851ZM177.294 178.089L191.264 180.227L190 188.159L176.03 186.022L177.294 178.089ZM191.888 180.32L205.857 182.457L204.648 190.39L190.671 188.253L191.888 180.32ZM206.481 182.551L220.42 184.696L219.211 192.621L205.233 190.484L206.481 182.551ZM221.075 184.79L235.045 186.927L233.836 194.859L219.858 192.722L221.075 184.79ZM235.669 187.02L249.639 189.158L248.43 197.09L234.46 194.953L235.669 187.02ZM250.263 189.259L264.233 191.396L263 199.36L249.023 197.215L250.263 189.259ZM264.857 191.49L278.826 193.627L277.617 201.56L263.64 199.422L264.857 191.49ZM264.95 190.866L266.167 182.933L280.137 185.078L278.92 193.003L264.95 190.866ZM280.761 185.172L294.731 187.309L293.522 195.242L279.521 193.12L280.761 185.172ZM303.677 128.848L302.655 135.4L288.686 133.263L289.902 125.33L302.46 127.249C302.829 127.307 303.16 127.506 303.383 127.805C303.606 128.104 303.703 128.478 303.654 128.848H303.677ZM101.657 96.478L114.215 98.3967L113.006 106.329L98.9662 104.2L99.9646 97.6791C99.9922 97.493 100.056 97.3141 100.153 97.1528C100.25 96.9916 100.378 96.8511 100.53 96.7394C100.681 96.6278 100.853 96.5472 101.036 96.5023C101.219 96.4575 101.409 96.4492 101.595 96.478H101.657ZM88.7716 171.202L89.77 164.681L103.74 166.826L102.531 174.751L89.9026 172.84C89.5274 172.78 89.1911 172.575 88.9674 172.268C88.7437 171.961 88.6508 171.577 88.7092 171.202H88.7716ZM290.776 203.58L278.21 201.653L279.427 193.721L293.397 195.858L292.398 202.386C292.341 202.759 292.138 203.094 291.834 203.318C291.53 203.542 291.149 203.636 290.776 203.58Z" fill="white"/>
</g>
<path opacity="0.5" d="M295.924 179.376L292.398 202.371C292.372 202.549 292.31 202.72 292.217 202.874C292.124 203.028 292.002 203.162 291.857 203.269C291.712 203.375 291.547 203.452 291.372 203.495C291.198 203.537 291.016 203.545 290.838 203.517L89.8558 172.754C89.6786 172.727 89.5085 172.664 89.3553 172.571C89.2021 172.478 89.0688 172.355 88.9631 172.21C88.8573 172.065 88.7811 171.901 88.7389 171.727C88.6967 171.552 88.6892 171.371 88.717 171.194L89.185 168.121C89.185 168.121 98.6308 160.508 104.543 161.413C111.524 162.482 112.78 166.444 119.02 167.38C125.26 168.316 132.093 153.886 137.74 154.744C140.79 155.212 141.57 157.56 143.06 159.713C143.699 160.702 144.547 161.54 145.544 162.168C146.541 162.796 147.663 163.199 148.832 163.347L149.066 163.386C156.71 164.556 167.052 123.981 177.567 125.588C182.247 126.297 184.095 135.252 185.492 145.142C187.262 157.622 188.261 171.662 193.136 172.372C201.856 173.706 204.836 155.992 212.932 157.263C218.025 158.043 219.882 167.481 224.172 174.962C226.707 179.384 230.1 183.128 235.529 183.955C240.466 184.735 243.765 183.565 246.332 181.763C251.363 178.245 253.609 172.239 259.896 173.183C263.624 173.753 264.981 176.623 266.37 179.33C267.579 181.67 268.811 183.932 271.682 184.368C275.059 184.891 277.922 180.055 280.987 175.788C283.491 172.263 286.104 169.096 289.208 169.548C292.313 170.001 294.263 173.846 295.206 176.568C295.501 177.489 295.74 178.427 295.924 179.376Z" fill="#7E57C2"/>
<path opacity="0.5" d="M300.76 147.779L292.398 202.379C292.372 202.557 292.31 202.727 292.217 202.881C292.124 203.036 292.002 203.17 291.857 203.276C291.712 203.383 291.547 203.46 291.372 203.502C291.198 203.545 291.016 203.553 290.838 203.525L89.8558 172.754C89.6786 172.727 89.5085 172.664 89.3553 172.571C89.2021 172.478 89.0688 172.355 88.9631 172.21C88.8573 172.065 88.7811 171.901 88.7389 171.727C88.6967 171.552 88.6892 171.371 88.717 171.194L89.185 168.121C97.531 169.4 101.985 163.152 107.585 164.01C113.186 164.868 116.087 168.776 121.329 169.58C126.57 170.383 134.659 158.114 140.392 158.995C141.291 159.126 142.169 159.372 143.005 159.728C145.212 160.649 146.733 162.131 148.777 163.363C150.385 164.338 152.173 164.98 154.034 165.251C160.75 166.272 174.189 141.968 181.982 143.161C183.33 143.405 184.552 144.111 185.437 145.158C190.039 150.173 191.225 162.716 197.714 163.706C205.584 164.915 209.796 152.115 217.433 153.278C225.069 154.44 227.315 167.606 236.153 168.956C244.99 170.305 254.576 146.156 263.757 147.56C272.937 148.964 275.558 161.374 283.538 162.591C292.297 163.932 300.76 147.779 300.76 147.779Z" fill="#7E57C2"/>
<path d="M296.86 173.16L292.383 202.371C292.356 202.549 292.295 202.72 292.202 202.874C292.109 203.028 291.986 203.162 291.841 203.269C291.696 203.375 291.532 203.452 291.357 203.495C291.182 203.537 291.001 203.545 290.823 203.517L89.8558 172.754C89.6786 172.727 89.5085 172.664 89.3553 172.571C89.2021 172.478 89.0688 172.355 88.9631 172.21C88.8573 172.065 88.7811 171.901 88.7389 171.727C88.6967 171.552 88.6892 171.371 88.717 171.194L88.9432 169.689C89.2318 169.416 93.9664 164.946 98.7712 165.68C103.74 166.46 103.755 170.89 110.682 171.92C117.608 172.949 119.628 167.497 129.456 169.002C139.284 170.508 139.253 177.38 149.417 178.94C159.58 180.5 161.678 172.255 168.917 173.363C176.155 174.47 175.648 178.674 179.751 179.298C183.854 179.922 186.24 173.495 191.287 174.267C196.334 175.04 200.195 185.616 205.881 186.49C209.874 187.098 216.933 179.189 224.141 174.946C227.183 173.152 230.264 172.013 233.134 172.458C239.07 173.363 242.533 177.996 246.3 181.748C248.64 184.088 251.16 186.116 254.451 186.623C259.131 187.34 262.727 183.081 266.339 179.337C269.271 176.288 272.228 173.573 275.823 174.119C277.622 174.348 279.362 174.909 280.956 175.773C284.076 177.52 284.895 179.876 288.623 180.453C293.108 181.163 296.86 173.16 296.86 173.16Z" fill="#7E57C2"/>
<path d="M113.599 93.4828L102.804 91.8292C102.554 91.7911 102.315 91.7042 102.099 91.5733C101.883 91.4425 101.695 91.2704 101.545 91.0667C101.396 90.8631 101.289 90.6321 101.229 90.3868C101.169 90.1415 101.158 89.8868 101.197 89.6374C101.274 89.1328 101.548 88.6794 101.959 88.3767C102.37 88.0739 102.884 87.9467 103.389 88.0228L114.176 89.6764C114.68 89.7552 115.132 90.0297 115.434 90.4402C115.737 90.8506 115.865 91.3638 115.791 91.8682C115.712 92.3718 115.437 92.8239 115.027 93.1263C114.617 93.4286 114.103 93.5567 113.599 93.4828Z" fill="#7E57C2"/>
<path d="M119.558 91.3066H119.73L130.525 92.9601C130.679 92.9798 130.827 93.0299 130.961 93.1076C131.095 93.1853 131.212 93.289 131.305 93.4125C131.482 93.6583 131.557 93.9628 131.516 94.2628C131.472 94.5322 131.334 94.7776 131.127 94.9559C130.921 95.1342 130.658 95.234 130.385 95.2377H130.205L119.418 93.5841C119.263 93.5672 119.114 93.5182 118.98 93.4403C118.846 93.3624 118.729 93.2573 118.638 93.1317C118.512 92.9619 118.436 92.7603 118.418 92.5496C118.4 92.3389 118.441 92.1273 118.536 91.9386C118.632 91.7499 118.778 91.5916 118.959 91.4813C119.139 91.3711 119.347 91.3133 119.558 91.3144M119.558 90.5344C119.066 90.5217 118.588 90.6987 118.222 91.0289C117.857 91.359 117.632 91.817 117.595 92.308C117.558 92.7991 117.711 93.2856 118.023 93.6668C118.335 94.0481 118.781 94.295 119.27 94.3563L130.057 96.0099C130.156 96.0177 130.255 96.0177 130.353 96.0099C130.837 96.0073 131.303 95.8225 131.657 95.4923C132.011 95.1622 132.228 94.7109 132.264 94.2282C132.3 93.7454 132.154 93.2667 131.853 92.8872C131.553 92.5078 131.12 92.2553 130.642 92.1801L119.847 90.5344C119.751 90.5266 119.654 90.5266 119.558 90.5344Z" fill="#7E57C2"/>
<path d="M136.016 93.826H136.18L146.967 95.4796C147.25 95.5265 147.505 95.6774 147.681 95.9027C147.858 96.128 147.944 96.4113 147.923 96.6968C147.901 96.9824 147.774 97.2496 147.565 97.4458C147.357 97.6421 147.082 97.7531 146.796 97.7572H146.624L135.829 96.1036C135.675 96.0844 135.527 96.0344 135.393 95.9567C135.259 95.879 135.142 95.7751 135.049 95.6512C134.96 95.53 134.897 95.3924 134.862 95.2465C134.827 95.1005 134.822 94.9491 134.846 94.801C134.889 94.5329 135.025 94.2886 135.231 94.1115C135.436 93.9344 135.698 93.836 135.969 93.8338M135.969 93.0538C135.477 93.0411 134.999 93.2181 134.633 93.5483C134.268 93.8785 134.044 94.3364 134.007 94.8275C133.97 95.3185 134.123 95.805 134.434 96.1863C134.746 96.5675 135.192 96.8144 135.681 96.8758L146.476 98.5294C146.572 98.5371 146.669 98.5371 146.765 98.5294C147.249 98.5267 147.714 98.3419 148.068 98.0118C148.422 97.6816 148.639 97.2303 148.675 96.7476C148.712 96.2649 148.565 95.7862 148.264 95.4067C147.964 95.0272 147.531 94.7747 147.053 94.6996L136.266 93.0538C136.167 93.046 136.068 93.046 135.969 93.0538Z" fill="#7E57C2"/>
<path d="M304.083 120.9L304.215 120.057L303.591 119.909C303.577 119.77 303.543 119.633 303.49 119.504L303.974 119.082L303.474 118.396L302.921 118.731C302.813 118.645 302.695 118.572 302.57 118.513L302.609 117.873L301.766 117.749L301.618 118.373C301.482 118.387 301.348 118.419 301.22 118.466L300.791 117.983L300.105 118.49L300.44 119.036C300.354 119.145 300.283 119.266 300.23 119.394L299.59 119.348L299.457 120.19L300.081 120.346C300.096 120.483 300.13 120.617 300.183 120.744L299.699 121.165L300.206 121.851L300.752 121.516C300.861 121.601 300.979 121.674 301.103 121.734L301.064 122.374L301.907 122.499L302.055 121.883C302.193 121.861 302.328 121.827 302.46 121.781L302.882 122.265L303.568 121.758L303.233 121.212C303.317 121.104 303.388 120.986 303.443 120.861L304.083 120.9ZM301.688 121.103C301.495 121.072 301.314 120.986 301.17 120.853C301.026 120.72 300.924 120.548 300.878 120.358C300.831 120.167 300.843 119.968 300.91 119.784C300.977 119.6 301.098 119.44 301.256 119.324C301.414 119.208 301.603 119.142 301.799 119.134C301.994 119.126 302.188 119.176 302.355 119.278C302.523 119.379 302.656 119.529 302.739 119.706C302.821 119.884 302.849 120.082 302.819 120.276C302.799 120.404 302.754 120.528 302.686 120.639C302.619 120.75 302.53 120.847 302.425 120.923C302.32 121 302.201 121.056 302.074 121.086C301.948 121.117 301.817 121.123 301.688 121.103Z" fill="#7E57C2"/>
<path opacity="0.2" d="M182.767 213.718L180.469 213.366L177.944 229.866L180.242 230.217L182.767 213.718Z" fill="#7E57C2"/>
<path d="M182.388 216.197L180.09 215.845L178.902 223.609L181.2 223.961L182.388 216.197Z" fill="#7E57C2"/>
<path opacity="0.2" d="M176.973 217.083L174.675 216.732L172.15 233.232L174.448 233.583L176.973 217.083Z" fill="#7E57C2"/>
<path d="M173.989 221.078L172.8 228.85L175.097 229.202L176.287 221.43L173.989 221.078Z" fill="#7E57C2"/>
<path opacity="0.2" d="M172.822 213.234L170.521 212.885L168.017 229.411L170.318 229.759L172.822 213.234Z" fill="#7E57C2"/>
<path d="M171.33 219.339L169.032 218.988L167.843 226.76L170.141 227.111L171.33 219.339Z" fill="#7E57C2"/>
<path opacity="0.2" d="M187.436 217.762L185.138 217.41L182.613 233.91L184.911 234.262L187.436 217.762Z" fill="#7E57C2"/>
<path d="M187.065 220.241L184.767 219.889L183.578 227.661L185.875 228.013L187.065 220.241Z" fill="#7E57C2"/>
<path opacity="0.2" d="M193.345 213.672L191.047 213.32L188.522 229.82L190.82 230.172L193.345 213.672Z" fill="#7E57C2"/>
<path d="M193.059 215.533L190.761 215.181L189.572 222.953L191.87 223.305L193.059 215.533Z" fill="#7E57C2"/>
<path opacity="0.2" d="M197.865 218.72L195.567 218.368L193.042 234.868L195.34 235.22L197.865 218.72Z" fill="#7E57C2"/>
<path d="M197.764 219.344L195.467 218.993L194.277 226.765L196.575 227.116L197.764 219.344Z" fill="#7E57C2"/>
<path opacity="0.2" d="M204.342 210.883L202.044 210.531L199.52 227.031L201.817 227.383L204.342 210.883Z" fill="#7E57C2"/>
<path d="M204.256 211.508L201.959 211.157L200.771 218.921L203.068 219.272L204.256 211.508Z" fill="#7E57C2"/>
<path opacity="0.2" d="M207.921 222.066L205.623 221.715L203.098 238.215L205.396 238.566L207.921 222.066Z" fill="#7E57C2"/>
<path d="M207.542 224.553L205.244 224.202L204.055 231.974L206.353 232.325L207.542 224.553Z" fill="#7E57C2"/>
<path opacity="0.2" d="M212.941 223.82L210.643 223.468L208.118 239.968L210.416 240.32L212.941 223.82Z" fill="#7E57C2"/>
<path d="M211.989 230.038L209.691 229.686L208.502 237.458L210.8 237.81L211.989 230.038Z" fill="#7E57C2"/>
<path opacity="0.2" d="M219.701 214.241L217.403 213.89L214.878 230.389L217.176 230.741L219.701 214.241Z" fill="#7E57C2"/>
<path d="M218.647 221.086L216.35 220.735L215.162 228.499L217.459 228.85L218.647 221.086Z" fill="#7E57C2"/>
<path opacity="0.2" d="M223.748 222.297L221.45 221.945L218.926 238.445L221.223 238.797L223.748 222.297Z" fill="#7E57C2"/>
<path d="M223.268 225.41L220.97 225.058L219.782 232.823L222.08 233.174L223.268 225.41Z" fill="#7E57C2"/>
<path opacity="0.2" d="M229.572 218.78L227.274 218.429L224.749 234.929L227.047 235.28L229.572 218.78Z" fill="#7E57C2"/>
<path d="M229.83 221.313L227.528 220.965L226.349 228.749L228.65 229.097L229.83 221.313Z" fill="#7E57C2"/>
<path opacity="0.2" d="M235.875 212.158L233.577 211.807L231.053 228.306L233.35 228.658L235.875 212.158Z" fill="#7E57C2"/>
<path d="M235.867 212.164L233.569 211.813L232.38 219.585L234.678 219.936L235.867 212.164Z" fill="#7E57C2"/>
<path opacity="0.2" d="M239.445 223.402L237.147 223.051L234.622 239.55L236.92 239.902L239.445 223.402Z" fill="#7E57C2"/>
<path d="M239.151 225.271L236.853 224.919L235.664 232.691L237.962 233.043L239.151 225.271Z" fill="#7E57C2"/>
<path opacity="0.2" d="M243.493 231.45L241.196 231.098L238.671 247.598L240.968 247.95L243.493 231.45Z" fill="#7E57C2"/>
<path d="M243.208 233.311L240.91 232.959L239.721 240.731L242.018 241.083L243.208 233.311Z" fill="#7E57C2"/>
<path opacity="0.2" d="M249.994 223.507L247.696 223.156L245.171 239.656L247.469 240.007L249.994 223.507Z" fill="#7E57C2"/>
<path d="M249.05 229.711L246.752 229.359L245.563 237.131L247.86 237.483L249.05 229.711Z" fill="#7E57C2"/>
<path opacity="0.2" d="M256.592 214.971L254.294 214.619L251.769 231.119L254.067 231.471L256.592 214.971Z" fill="#7E57C2"/>
<path d="M255.445 222.425L253.148 222.074L251.959 229.846L254.256 230.197L255.445 222.425Z" fill="#7E57C2"/>
<path opacity="0.2" d="M260.33 225.084L258.033 224.732L255.508 241.232L257.805 241.584L260.33 225.084Z" fill="#7E57C2"/>
<path d="M260.65 227.58L258.349 227.231L257.17 235.015L259.471 235.364L260.65 227.58Z" fill="#7E57C2"/>
<path opacity="0.2" d="M265.068 228.623L262.77 228.271L260.245 244.771L262.543 245.123L265.068 228.623Z" fill="#7E57C2"/>
<path d="M264.03 235.46L261.732 235.109L260.543 242.881L262.841 243.232L264.03 235.46Z" fill="#7E57C2"/>
<path opacity="0.2" d="M271.025 224.262L268.727 223.91L266.202 240.41L268.5 240.761L271.025 224.262Z" fill="#7E57C2"/>
<path d="M271.025 224.269L268.727 223.917L267.538 231.689L269.835 232.041L271.025 224.269Z" fill="#7E57C2"/>
<path opacity="0.2" d="M275.404 230.199L273.106 229.848L270.582 246.348L272.879 246.699L275.404 230.199Z" fill="#7E57C2"/>
<path d="M275.211 231.442L272.913 231.09L271.724 238.862L274.021 239.214L275.211 231.442Z" fill="#7E57C2"/>
<path opacity="0.2" d="M280.916 228.763L278.619 228.412L276.094 244.912L278.392 245.263L280.916 228.763Z" fill="#7E57C2"/>
<path d="M280.816 229.388L278.519 229.036L277.329 236.808L279.627 237.16L280.816 229.388Z" fill="#7E57C2"/>
<path opacity="0.2" d="M285.748 231.677L283.45 231.325L280.926 247.825L283.223 248.177L285.748 231.677Z" fill="#7E57C2"/>
<path d="M285.268 239.753L282.966 239.405L281.787 247.188L284.088 247.537L285.268 239.753Z" fill="#7E57C2"/>
<path d="M202.324 254.593L159.054 247.972L158.849 249.314L202.119 255.935L202.324 254.593Z" fill="#999999" stroke="#263238" stroke-linecap="round" stroke-linejoin="round"/>
<path opacity="0.2" d="M229.827 160.266C229.827 160.266 223.961 163.519 227.697 172.333C231.434 181.147 254.155 195.639 253.695 203.003C253.695 203.003 230.365 188.463 223.883 196.856C223.883 196.856 241.503 213.946 243.336 226.8C245.169 239.655 251.136 245.357 264.927 252.689C278.717 260.021 308.7 298.709 308.7 298.709L304.215 233.735L260.535 184.439L238.945 172.13L229.827 160.266Z" fill="black" fill-opacity="0.7"/>
<path d="M348.34 276.112L309.886 301.368H309.824C309.788 301.367 309.754 301.355 309.725 301.334C309.696 301.313 309.673 301.285 309.66 301.251C309.488 300.799 292.5 255.395 288.405 251.854C286.099 249.77 284.419 247.086 283.553 244.101C283.553 244.101 283.553 244.062 283.553 244.038C283.405 243.539 283.335 243.212 283.319 243.126C281.057 238.526 277.587 234.627 273.281 231.847C270.402 230.103 267.361 228.64 264.201 227.479C259.365 225.521 254.389 223.501 250.871 219.765C250.269 219.126 249.718 218.44 249.225 217.713C243.633 209.523 234.998 200.483 232.12 198.627C229.242 196.77 223.946 197.02 223.899 197.02C223.856 197.025 223.812 197.013 223.778 196.987C223.743 196.961 223.719 196.922 223.712 196.88C223.618 196.166 223.683 195.44 223.901 194.754C224.119 194.068 224.486 193.438 224.975 192.909C225.71 192.05 226.623 191.361 227.651 190.89C228.678 190.418 229.796 190.176 230.927 190.179C235.373 190.179 241.496 192.519 244.584 195.46C247.673 198.401 254.818 200.561 255.637 200.811C256.799 200.124 259.537 201.591 260.543 202.223C259.35 197.972 259.833 196.334 260.021 195.92C257.462 192.605 244.14 182.793 237.065 177.871C235.115 176.506 233.649 175.531 233.009 175.149C229.71 173.207 226.98 167.13 227.51 162.887C227.536 162.311 227.689 161.748 227.959 161.238C228.229 160.728 228.608 160.284 229.07 159.939C229.734 159.522 230.511 159.323 231.293 159.369C231.611 159.378 231.927 159.417 232.237 159.486C232.268 159.5 232.297 159.518 232.323 159.541C232.385 159.627 239.007 167.481 241.301 168.714C242.424 169.314 248.399 172.333 254.077 175.141L256.635 176.405C256.62 173.932 256.75 171.46 257.025 169.002C257.244 168.035 258.788 166.662 260.543 165.882C261.362 165.508 262.883 164.97 263.999 165.563C264.428 165.804 265.442 166.428 266.846 167.302L269.186 168.753C269.683 167.987 270.293 167.301 270.995 166.717C271.58 166.374 274.817 165.773 275.972 166.179C276.978 166.545 280.207 168.597 283.623 170.765L285.098 171.693C285.277 171.358 285.698 170.656 286.096 170.5C287.782 169.877 289.618 169.779 291.361 170.219C292.515 170.64 296.478 173.565 300.315 176.397C302.421 177.957 304.442 179.447 305.775 180.344C305.82 180.355 305.859 180.383 305.885 180.422C306.267 180.679 306.587 180.882 306.828 181.022C309.652 182.637 316.594 219.047 316.664 219.414C317.117 221.855 318.77 224.375 320.517 227.042C322.495 229.819 324.112 232.836 325.33 236.02C327.553 242.517 332.615 252.026 340.033 263.648C340.704 264.688 341.395 265.756 342.108 266.853C344.112 269.888 346.25 273.054 348.34 276.112Z" fill="white"/>
<path opacity="0.4" d="M262.649 206.38C261.159 207.558 250.349 206.442 249.023 210.077C248.243 212.222 248.82 215.467 250.848 219.749C250.245 219.111 249.695 218.425 249.202 217.698C243.609 209.508 234.975 200.468 232.097 198.611C229.218 196.755 223.946 197.02 223.899 197.02C223.856 197.025 223.812 197.013 223.778 196.987C223.743 196.961 223.719 196.922 223.712 196.88C223.618 196.166 223.683 195.44 223.901 194.754C224.119 194.068 224.486 193.438 224.975 192.909C225.71 192.05 226.623 191.361 227.651 190.89C228.678 190.418 229.796 190.176 230.927 190.179C235.373 190.179 241.496 192.519 244.584 195.46C247.673 198.401 254.818 200.561 255.637 200.811C256.799 200.124 259.537 201.591 260.543 202.223C259.35 197.972 259.833 196.334 260.021 195.92C257.462 192.605 244.14 182.793 237.065 177.871C235.115 176.506 233.649 175.531 233.009 175.149C229.71 173.207 226.98 167.13 227.51 162.887C227.536 162.311 227.689 161.748 227.959 161.238C228.229 160.728 228.608 160.284 229.07 159.939C229.734 159.522 230.511 159.323 231.293 159.369C230.757 159.579 230.261 159.88 229.827 160.259C227.658 162.107 232.83 171.865 235.739 174.564C238.781 177.38 252.462 184.368 257.376 188.534C260.075 190.819 263.616 194.282 263.616 194.282C261.456 197.964 264.1 205.226 262.649 206.38Z" fill="#7E57C2"/>
<path d="M312.881 146.733C312.881 146.663 312.881 146.648 312.881 146.679C312.887 146.687 312.89 146.696 312.89 146.706C312.89 146.716 312.887 146.725 312.881 146.733Z" fill="#7E57C2"/>
<path opacity="0.4" d="M340.033 263.609C334.238 258.094 325.611 249.506 323.996 245.739C321.531 239.967 319.886 234.639 316.82 230.755C313.755 226.871 307.538 185.476 305.752 185.359C303.966 185.242 307.998 201.739 308.209 202.581C308.037 202.059 305.807 195.031 303.669 187.02C301.454 178.698 299.216 178.245 299.216 178.245C296.244 178.838 296.228 180.952 294.707 180.921C293.186 180.89 287.968 177.185 287.968 177.185C282.906 177.918 263.913 165.687 263.913 165.687C259.592 166.272 258.578 170.048 262.267 173.589C265.956 177.13 271.471 181.42 271.471 181.42C267.914 183.152 254.857 175.827 254.857 175.827L254.077 175.125L256.635 176.389C256.62 173.916 256.75 171.444 257.025 168.987C257.244 168.02 258.788 166.647 260.543 165.867C261.362 165.492 262.883 164.954 263.999 165.547C264.428 165.789 265.442 166.413 266.846 167.286L269.186 168.737C269.683 167.972 270.293 167.285 270.995 166.701C271.58 166.358 274.817 165.758 275.972 166.163C276.978 166.53 280.207 168.581 283.623 170.75L285.098 171.678C285.277 171.342 285.698 170.64 286.096 170.484C287.782 169.862 289.618 169.764 291.361 170.204C292.515 170.625 296.478 173.55 300.315 176.381C302.421 177.941 304.442 179.431 305.775 180.328C305.82 180.34 305.859 180.367 305.885 180.406C306.267 180.663 306.587 180.866 306.828 181.007C309.652 182.621 316.594 219.032 316.664 219.398C317.117 221.84 318.77 224.359 320.517 227.027C322.496 229.809 324.113 232.831 325.33 236.02C327.553 242.478 332.615 251.987 340.033 263.609Z" fill="#7E57C2"/>
<path d="M309.824 301.212C309.824 301.212 292.664 255.348 288.522 251.745C285.972 249.44 284.205 246.397 283.467 243.04C281.189 238.394 277.682 234.461 273.327 231.668C265.925 226.793 254.732 225.529 249.319 217.628C243.906 209.726 235.232 200.468 232.159 198.486C229.086 196.505 223.852 196.864 223.852 196.864C223.314 193.791 226.738 190.367 230.872 190.367C235.006 190.367 241.16 192.527 244.413 195.6C247.665 198.674 255.606 201.014 255.606 201.014C256.869 200.109 260.777 202.62 260.777 202.62C259.217 197.34 260.161 195.912 260.161 195.912C257.096 191.763 236.106 176.826 233.04 175.016C229.975 173.207 227.081 167.255 227.619 162.918C227.633 162.38 227.771 161.851 228.022 161.375C228.274 160.899 228.633 160.487 229.071 160.173C229.508 159.858 230.013 159.65 230.544 159.563C231.076 159.476 231.621 159.514 232.136 159.674C232.136 159.674 238.812 167.614 241.16 168.878C243.508 170.141 261.924 179.353 264.63 180.429C265.382 180.75 266.2 180.885 267.014 180.822C267.829 180.76 268.617 180.502 269.31 180.071" stroke="#263238" stroke-linecap="round" stroke-linejoin="round"/>
<path d="M256.807 176.685C256.807 176.685 256.807 170.679 257.197 169.049C257.587 167.419 261.932 164.611 263.913 165.687C265.894 166.764 280.527 176.389 284.341 176.818" stroke="#263238" stroke-linecap="round" stroke-linejoin="round"/>
<path d="M269.24 168.94C269.758 168.148 270.383 167.432 271.097 166.811C271.635 166.491 274.841 165.898 275.925 166.288C278.093 167.068 290.87 175.882 293.03 176.428" stroke="#263238" stroke-linecap="round" stroke-linejoin="round"/>
<path d="M285.16 171.92C285.16 171.92 285.714 170.812 286.158 170.633C287.804 170.022 289.597 169.927 291.299 170.36C293.288 171.085 304.208 179.72 306.735 181.147C309.262 182.574 315.588 214.547 316.485 219.422C317.382 224.297 322.811 229.172 325.151 236.036C327.491 242.9 333.099 253.367 341.944 266.908C343.504 269.248 345.126 271.721 346.757 274.107" stroke="#263238" stroke-linecap="round" stroke-linejoin="round"/>
<path d="M267.938 189.407C267.938 189.407 268.718 185.749 270.917 184.127C273.117 182.504 276.065 185.078 278.226 185.343" stroke="#263238" stroke-linecap="round" stroke-linejoin="round"/>
<path d="M282.695 183.588C282.695 183.588 283.912 179.384 286.08 178.44C288.249 177.497 291.587 180.336 293.03 180.468" stroke="#263238" stroke-linecap="round" stroke-linejoin="round"/>
<path d="M296.915 179.79C296.915 179.79 298.537 178.23 299.216 178.23C299.894 178.23 302.733 181.202 303.35 181.404C303.966 181.607 304.699 180.492 305.752 180.476" stroke="#263238" stroke-linecap="round" stroke-linejoin="round"/>
<path d="M291.977 175.96C293.163 175.872 294.346 176.164 295.355 176.795" stroke="#263238" stroke-linecap="round" stroke-linejoin="round"/>
<path d="M260.2 195.905C260.2 195.905 259.124 193.128 259.662 191.708" stroke="#263238" stroke-linecap="round" stroke-linejoin="round"/>
<path d="M262.314 175.531C262.314 175.531 263.601 177.036 263.671 178.245C263.741 179.454 266.791 180.921 266.791 180.921" stroke="#263238" stroke-linecap="round" stroke-linejoin="round"/>
<path d="M282.96 176.451C282.96 176.451 284.731 175.82 285.675 176.451" stroke="#263238" stroke-linecap="round" stroke-linejoin="round"/>
<path d="M260.2 199.563C260.14 198.671 260.3 197.777 260.665 196.961C261.031 196.145 261.592 195.431 262.298 194.883" stroke="#263238" stroke-linecap="round" stroke-linejoin="round"/>
<path d="M260.832 202.613C260.832 202.613 258.819 204.344 258.819 205.428" stroke="#263238" stroke-linecap="round" stroke-linejoin="round"/>
<path d="M251.565 199.563C253.952 200.452 255.933 204.165 257.376 204.797" stroke="#263238" stroke-linecap="round" stroke-linejoin="round"/>
<path d="M280.48 187.738C281.923 189.813 285.16 204.898 288.42 209.672" stroke="#263238" stroke-linecap="round" stroke-linejoin="round"/>
<path d="M292.586 183.479C292.859 183.659 294.754 189.524 294.754 189.524" stroke="#263238" stroke-linecap="round" stroke-linejoin="round"/>
<path d="M316.82 220.646C317.295 223.648 318.161 226.574 319.394 229.351" stroke="#263238" stroke-linecap="round" stroke-linejoin="round"/>
<path d="M283.709 244.062C283.467 243.071 282.422 236.574 281.135 234.405" stroke="#263238" stroke-linecap="round" stroke-linejoin="round"/>
<path opacity="0.2" d="M65.1142 345.446C65.1142 345.446 90.4954 311.321 109.637 305.073C128.778 298.826 129.722 290.347 128.942 274.529C128.162 258.71 128.739 242.767 123.482 240.864C118.224 238.961 129.784 218.306 124.262 210.124L88.0462 267.017L65.1142 345.446Z" fill="black" fill-opacity="0.7"/>
<path d="M58.96 354.954L58.5778 354.83L59.1238 355.134L58.96 354.954ZM120.658 250.271C117.538 248.812 111.345 241.971 110.573 241.113C114.473 234.546 118.326 228.212 119.66 226.691C122.429 223.571 125.806 214.469 124.433 210.069C123.177 206.029 119.067 206.676 118.505 206.786H118.443C118.422 206.789 118.402 206.797 118.384 206.809C118.366 206.821 118.352 206.837 118.341 206.856C118.256 207.004 109.886 221.114 107.289 224.492C106.049 226.098 103.194 229.757 100.269 233.423L99.403 233.29C97.5888 233.008 95.7381 233.06 93.943 233.446L93.7636 233.508C92.8351 233.909 91.9405 234.384 91.0882 234.928L90.472 234.671C89.2396 234.156 86.689 233.165 85.48 233.111C84.0058 233.033 78.811 235.451 75.7066 237.401C73.5665 236.751 71.336 236.448 69.1 236.504C66.721 236.605 61.8694 238.578 57.9694 240.162C56.2378 240.864 54.7402 241.472 53.8666 241.722L53.0866 241.956C50.7466 242.65 49.483 243.04 47.8606 246.285C46.1758 249.654 44.3584 262.22 43.4848 268.257L43.3678 269.076C43.0324 271.416 43.087 275.519 43.1416 279.895C43.2274 285.979 43.3132 292.266 42.4084 294.715C41.1862 297.801 39.5713 300.716 37.6036 303.389C37.3462 303.755 37.1122 304.098 36.8938 304.426C35.676 306.326 34.7037 308.373 34 310.518C33.3448 312.249 32.5258 314.153 31.7302 315.892C30.2638 319.113 28.8988 321.773 28.8988 321.773C28.8988 321.773 56.5498 352.279 58.96 354.954C59.0899 355.004 59.2227 355.046 59.3578 355.079C59.4514 354.923 64.5526 346.203 69.958 337.599C74.638 330.174 79.4974 322.834 81.58 321.149C84.4358 318.699 86.5127 315.467 87.5548 311.852C88.678 308.24 95.8462 303.786 102.78 299.481C110.448 294.723 118.38 289.801 118.646 285.729C118.794 283.623 119.277 280.137 119.839 276.089C121.36 265.122 123.248 251.464 120.658 250.271ZM107.523 267.805L104.114 271.12C103.631 268.39 100.316 264.763 99.793 264.209C100.055 262.897 100.224 261.567 100.3 260.231C100.425 258.71 100.557 257.111 100.932 256.854C101.306 256.596 103.03 253.734 105.838 249.054C106.072 252.353 108.958 255.988 109.348 256.511L107.523 267.805Z" fill="white"/>
<path opacity="0.4" d="M67.0486 257.673C66.0424 266.658 57.2362 288.951 57.2362 288.951L55.6762 266.495C55.6762 266.495 48.82 296.969 46.9402 298.069C45.0604 299.169 41.761 304.995 39.9202 309.621C38.68 312.741 34.4602 314.862 31.8004 315.931C32.5804 314.192 33.415 312.288 34.0702 310.557C34.7739 308.412 35.7462 306.365 36.964 304.465C37.1824 304.137 37.4164 303.794 37.6738 303.428C39.6415 300.755 41.2564 297.84 42.4786 294.754C43.3834 292.289 43.2586 286.002 43.2118 279.934C43.1572 275.558 43.1026 271.424 43.438 269.115L43.555 268.296C44.4286 262.259 46.246 249.693 47.9308 246.324C49.5532 243.079 50.8324 242.689 53.1568 241.995L53.9368 241.761C54.8104 241.488 56.2768 240.879 58.0396 240.201C61.9396 238.641 66.7912 236.644 69.1702 236.543C71.394 236.496 73.611 236.804 75.7378 237.455C78.8578 235.497 84.037 233.087 85.5112 233.165C86.7202 233.22 89.2708 234.21 90.5032 234.725C85.324 237.393 76.6114 243.82 76.6114 243.82C66.76 245.957 67.0486 257.673 67.0486 257.673Z" fill="#7E57C2"/>
<path opacity="0.4" d="M84.505 245.739C87.055 243.974 89.6978 242.346 92.422 240.864C94.9492 239.678 95.7604 234.951 93.982 233.618C93.9155 233.568 93.8378 233.536 93.7558 233.524L93.9352 233.462C95.7303 233.076 97.581 233.023 99.3952 233.306C96.127 238.212 93.5686 241.971 92.89 242.783C90.6436 245.513 84.505 245.739 84.505 245.739Z" fill="#7E57C2"/>
<path opacity="0.4" d="M97.3984 276.525L98.5918 277.04C97.8664 279.934 97.3984 276.525 97.3984 276.525Z" fill="#7E57C2"/>
<path opacity="0.4" d="M120.658 250.271C117.538 248.812 111.345 241.971 110.573 241.113C114.473 234.546 118.326 228.212 119.66 226.691C122.429 223.571 125.806 214.469 124.433 210.069C123.177 206.029 119.067 206.676 118.505 206.786V206.957C118.505 206.957 122.951 207.511 122.943 213.938C122.936 220.365 111.392 233.103 111.392 233.103C111.392 233.103 99.52 255.372 98.74 255.036C97.96 254.701 96.2206 269.919 96.2206 269.919C96.2206 269.919 99.5278 272.735 98.74 276.525C98.6984 276.713 98.6594 276.884 98.623 277.04L103.709 279.232C103.709 279.232 108.81 275.652 111.399 280.917C113.989 286.182 86.5018 304.995 84.3412 307.78C84.3412 307.78 84.037 318.271 80.0278 319.815C77.4304 320.814 72.8518 330.735 69.958 337.607C74.638 330.182 79.4974 322.842 81.58 321.157C84.4358 318.707 86.5127 315.475 87.5548 311.859C88.678 308.248 95.8462 303.794 102.78 299.489C110.448 294.731 118.38 289.809 118.646 285.737C118.794 283.631 119.277 280.145 119.839 276.096C121.36 265.122 123.248 251.464 120.658 250.271ZM107.523 267.805L104.114 271.12C103.631 268.39 100.316 264.763 99.793 264.209C100.055 262.897 100.224 261.567 100.3 260.231C100.425 258.71 100.557 257.111 100.932 256.854C101.306 256.596 103.03 253.734 105.838 249.054C106.072 252.353 108.958 255.988 109.348 256.511L107.523 267.805Z" fill="#7E57C2"/>
<path d="M87.3988 245.942C89.5243 245.485 91.4562 244.382 92.929 242.783C95.269 240.154 104.785 228.033 107.421 224.609C110.058 221.184 118.482 206.957 118.482 206.957C118.482 206.957 122.959 205.904 124.277 210.124C125.595 214.344 122.436 223.29 119.535 226.582C116.633 229.874 101.883 255.957 100.815 256.745C99.7462 257.532 100.557 264.919 98.4748 266.495" stroke="#263238" stroke-linecap="round" stroke-linejoin="round"/>
<path d="M99.6058 264.279C99.6058 264.279 103.732 268.601 103.997 271.494L107.679 267.891L109.527 256.479C109.527 256.479 105.885 252.096 105.994 248.492" stroke="#263238" stroke-linecap="round" stroke-linejoin="round"/>
<path d="M110.37 241.137C110.37 241.137 117.164 248.843 120.588 250.427C124.012 252.01 119.028 278.085 118.482 285.722C117.936 293.358 89.77 304.145 87.3988 311.797C86.3718 315.386 84.3099 318.593 81.4708 321.017C76.9 324.722 59.2096 355.001 59.2096 355.001" stroke="#263238" stroke-linecap="round" stroke-linejoin="round"/>
<path d="M100.37 233.618C100.37 233.618 96.3532 232.877 93.982 233.618C91.6108 234.359 81.58 241.48 79.24 242.783C76.9 244.085 73.4446 244.343 72.6568 245.942" stroke="#263238" stroke-linecap="round" stroke-linejoin="round"/>
<path d="M91.096 235.131C91.096 235.131 87.04 233.368 85.48 233.29C83.92 233.212 77.5786 236.199 74.6848 238.305C72.4598 239.937 69.9608 241.157 67.306 241.909" stroke="#263238" stroke-linecap="round" stroke-linejoin="round"/>
<path d="M75.7144 237.58C73.5876 236.915 71.3667 236.602 69.139 236.652C65.707 236.8 56.7526 241.012 53.9446 241.893C51.1366 242.775 49.8184 242.853 48.0634 246.371C46.3084 249.888 44.374 263.663 43.5862 269.108C42.7984 274.552 44.2024 290.487 42.619 294.793C41.0356 299.099 38.5942 302.32 37.12 304.559C34.117 309.02 34.4524 312.359 28.9846 321.812" stroke="#263238" stroke-linecap="round" stroke-linejoin="round"/>
<path d="M69.3574 247.127C65.9332 250.161 66.565 255.957 67.0174 257.673C67.4698 259.389 65.3716 266.253 64.6774 269.919" stroke="#263238" stroke-linecap="round" stroke-linejoin="round"/>
<path d="M91.096 250.06C84.856 250.193 82.9216 254.405 82.516 257.174" stroke="#263238" stroke-linecap="round" stroke-linejoin="round"/>
<path d="M64.7476 243.82C62.899 243.687 58.1566 246.589 57.2362 251.331" stroke="#263238" stroke-linecap="round" stroke-linejoin="round"/>
<path d="M109.527 256.479C109.527 256.479 110.448 253.851 111.368 253.586" stroke="#263238" stroke-linecap="round" stroke-linejoin="round"/>
<path d="M107.679 267.891C107.224 269.437 106.661 270.948 105.994 272.415C105.214 273.975 105.994 276.463 105.994 276.463" stroke="#263238" stroke-linecap="round" stroke-linejoin="round"/>
<path d="M103.997 271.494C103.865 274.131 100.963 276.954 100.37 276.463" stroke="#263238" stroke-linecap="round" stroke-linejoin="round"/>
<path d="M79.1932 267.017C79.0996 269.919 73.8346 291.119 73.8346 291.119" stroke="#263238" stroke-linecap="round" stroke-linejoin="round"/>
</svg>
