<svg width="159" height="346" viewBox="0 0 159 346" fill="none" xmlns="http://www.w3.org/2000/svg">
<path d="M79.5801 240.77L49.259 265.95C43.4347 270.725 38.419 275.015 36.0202 277.486C35.1116 278.419 34.5937 279.081 34.5664 279.407C34.5664 279.407 34.5664 279.407 34.5664 279.473C34.7754 282.214 70.6028 331.054 72.411 332.322C74.2191 333.591 77.8628 328.406 77.9718 325.375C78.0808 322.344 72.52 297.332 72.52 297.332L102.578 271.919L79.5801 240.77Z" fill="#FFC4C0"/>
<path d="M55.4828 260.755L49.2678 265.922C43.4435 270.697 38.4278 274.987 36.029 277.458C35.4719 278.037 34.9838 278.682 34.5752 279.379C34.5752 279.379 34.5752 279.379 34.5752 279.444C34.7842 282.186 70.6116 331.026 72.4197 332.294C74.2279 333.563 77.8715 328.378 77.9806 325.347C78.0896 322.316 72.5288 297.304 72.5288 297.304L78.8892 292.156L55.4828 260.755Z" fill="#EBEBEB"/>
<path d="M72.375 332.341C70.5577 331.063 34.7394 282.224 34.5304 279.473C34.4305 278.437 41.0635 272.665 49.2684 265.922L49.5229 265.717L72.9837 296.959L72.4476 297.35C72.4476 297.35 78.0176 322.334 77.8994 325.384C77.7813 328.434 74.1831 333.619 72.375 332.341Z" fill="#7E57C2"/>
<path opacity="0.3" d="M72.375 332.341C70.5577 331.063 34.7394 282.224 34.5304 279.473C34.4305 278.437 41.0635 272.665 49.2684 265.922L49.5229 265.717L72.9837 296.959L72.4476 297.35C72.4476 297.35 78.0176 322.334 77.8994 325.384C77.7813 328.434 74.1831 333.619 72.375 332.341Z" fill="black"/>
<path d="M73.8103 330.354C67.9678 321.961 43.6437 288.714 37.2469 280.927C37.1924 280.862 37.147 280.927 37.1924 280.927C42.8078 289.367 67.4045 322.418 73.6831 330.457C73.8194 330.634 73.9375 330.531 73.8103 330.354Z" fill="#30003E"/>
<path d="M74.3008 300.064C72.4835 296.333 69.1216 292.78 65.0509 292.043C64.8964 292.043 64.8601 292.249 64.9691 292.333C68.2132 294.676 71.2044 297.367 73.8919 300.362C73.9344 300.406 73.9906 300.433 74.0505 300.438C74.1104 300.443 74.1702 300.426 74.2192 300.39C74.2682 300.355 74.3033 300.302 74.3182 300.242C74.3331 300.183 74.3269 300.119 74.3008 300.064Z" fill="#30003E"/>
<path d="M74.6374 303.43C72.8201 299.7 69.4582 296.147 65.3966 295.41C65.2421 295.41 65.2058 295.606 65.3148 295.69C68.5602 298.031 71.5489 300.727 74.2285 303.729C74.271 303.773 74.3272 303.799 74.3871 303.804C74.4471 303.81 74.5068 303.793 74.5558 303.757C74.6048 303.721 74.6399 303.669 74.6548 303.609C74.6697 303.549 74.6636 303.486 74.6374 303.43Z" fill="#30003E"/>
<path d="M74.9819 306.863C73.1646 303.132 69.8027 299.579 65.7411 298.842C65.5775 298.842 65.5412 299.047 65.6502 299.131C68.8962 301.472 71.8876 304.164 74.573 307.161C74.6155 307.205 74.6717 307.231 74.7316 307.237C74.7916 307.242 74.8513 307.225 74.9003 307.189C74.9493 307.153 74.9844 307.101 74.9993 307.041C75.0142 306.981 75.0081 306.918 74.9819 306.863Z" fill="#30003E"/>
<path d="M95.935 210.815C93.7906 221.698 49.8037 265.12 49.8037 265.12L80.4701 301.491C80.4701 301.491 142.92 237.506 139.667 213.463C136.823 192.545 106.321 108.454 106.321 108.454H71.1656C71.1656 108.454 98.0884 200.118 95.935 210.815Z" fill="#4C0060"/>
<path d="M83.9964 292.808C79.9257 287.604 81.1615 289.078 77.0363 283.883C75.01 281.356 61.7076 264.784 59.4179 262.76C59.3724 262.76 59.2907 262.76 59.3179 262.853C60.8535 265.521 74.4376 281.85 76.5002 284.303C80.7253 289.376 79.5714 287.875 83.851 292.902C83.8664 292.91 83.8835 292.913 83.9008 292.913C83.918 292.912 83.9348 292.907 83.9494 292.897C83.9641 292.888 83.9761 292.875 83.9843 292.859C83.9925 292.844 83.9967 292.826 83.9964 292.808Z" fill="#30003E"/>
<path d="M100.342 205.509C99.8423 202.795 99.2698 200.091 98.7065 197.386C97.5616 191.865 96.3501 186.357 95.0719 180.861C92.5459 169.937 89.8049 159.1 86.8488 148.35C83.8412 137.542 80.6701 126.752 77.0265 116.157C76.5722 114.842 76.1179 113.537 75.6363 112.231C75.6363 112.138 75.4545 112.175 75.4818 112.278C78.6438 122.9 81.9058 133.485 84.8771 144.163C87.8483 154.841 90.5651 165.491 93.1366 176.226C94.4268 181.616 95.6353 187.034 96.7711 192.453C97.3768 195.114 97.9432 197.778 98.4702 200.445C99.1541 203.153 99.646 205.908 99.9422 208.689C100.04 211.337 99.3183 213.949 97.8796 216.15C96.553 218.369 94.9993 220.449 93.5 222.538C90.4924 226.725 61.8523 259.487 60.9255 260.373C60.8619 260.448 60.9255 260.55 61.0436 260.485C64.8872 256.941 89.2113 229.943 92.2733 225.765C93.7999 223.694 95.293 221.599 96.7529 219.479C98.2118 217.557 99.3902 215.427 100.251 213.156C100.928 210.658 100.96 208.023 100.342 205.509Z" fill="#30003E"/>
<path d="M85.1768 285.609C85.1768 285.609 92.782 323.575 92.7729 323.603C92.882 331.25 93.1 337.955 93.5271 341.406C93.5228 341.424 93.5228 341.443 93.5271 341.462C93.546 342.283 93.7447 343.089 94.1086 343.821C94.1086 343.821 94.1086 343.821 94.1541 343.868C96.3893 345.379 155.941 346.33 158.04 345.64C160.139 344.95 158.394 338.795 156.105 336.864C153.815 334.934 131.172 324.106 131.172 324.106L123.194 286.159L85.1768 285.609Z" fill="#FFC4C0"/>
<path d="M158.049 345.64C155.969 346.321 96.3987 345.379 94.1635 343.868C94.1635 343.868 94.1635 343.868 94.1181 343.821C93.7481 343.092 93.549 342.284 93.5365 341.462C93.5323 341.443 93.5323 341.424 93.5365 341.406C93.1095 337.955 92.8914 331.25 92.7824 323.612L91.4648 317H129.7L131.19 324.097C131.19 324.097 153.824 334.934 156.132 336.864C158.44 338.795 160.148 344.968 158.049 345.64Z" fill="#EBEBEB"/>
<path d="M158.049 345.639C155.959 346.33 96.4077 345.378 94.1633 343.868C93.3001 343.308 92.9276 334.392 92.7822 323.602V323.267L131.208 323.434V324.106C131.208 324.106 153.851 334.933 156.15 336.873C158.449 338.813 160.139 344.968 158.049 345.639Z" fill="#7E57C2"/>
<path opacity="0.3" d="M158.049 345.639C155.959 346.33 96.4077 345.378 94.1633 343.868C93.3001 343.308 92.9276 334.392 92.7822 323.602V323.267L131.208 323.434V324.106C131.208 324.106 153.851 334.933 156.15 336.873C158.449 338.813 160.139 344.968 158.049 345.639Z" fill="black"/>
<path d="M157.414 343.261C147.373 342.851 106.866 342.152 96.9168 342.534C96.835 342.534 96.835 342.59 96.9168 342.599C106.857 343.224 147.373 343.588 157.423 343.429C157.623 343.429 157.623 343.271 157.414 343.261Z" fill="#30003E"/>
<path d="M134.407 324.274C130.473 323.463 125.63 324.003 122.595 326.848C122.477 326.95 122.595 327.128 122.758 327.09C126.552 325.895 130.461 325.122 134.416 324.787C134.474 324.774 134.526 324.742 134.563 324.694C134.6 324.647 134.619 324.587 134.618 324.527C134.617 324.466 134.595 324.407 134.557 324.361C134.518 324.315 134.465 324.284 134.407 324.274Z" fill="#30003E"/>
<path d="M137.233 326.083C133.299 325.272 128.456 325.813 125.421 328.657C125.303 328.76 125.421 328.937 125.584 328.899C129.379 327.708 133.287 326.936 137.242 326.596C137.3 326.583 137.352 326.551 137.389 326.503C137.426 326.456 137.445 326.396 137.444 326.336C137.443 326.275 137.422 326.216 137.383 326.17C137.344 326.124 137.291 326.093 137.233 326.083Z" fill="#30003E"/>
<path d="M140.058 327.893C136.124 327.081 131.281 327.622 128.246 330.467C128.128 330.569 128.246 330.746 128.41 330.709C132.205 329.518 136.113 328.746 140.067 328.406C140.125 328.393 140.177 328.36 140.214 328.313C140.251 328.265 140.271 328.206 140.27 328.145C140.269 328.084 140.247 328.026 140.208 327.98C140.17 327.934 140.117 327.903 140.058 327.893Z" fill="#30003E"/>
<path d="M102.968 108.416C101.594 114.351 100.584 120.369 99.9426 126.434C99.2067 133.997 98.2889 140.684 97.3076 141.514C96.3263 142.344 90.6383 146.121 88.7574 147.296C88.7574 147.296 106.103 201.246 110.565 219.227C117.052 245.339 132.59 323.528 132.59 323.528H91.2016C91.2016 323.528 78.617 249.06 73.1107 224.244C68.3949 202.962 50.3222 139.117 50.3222 139.117C48.4116 134.192 47.5534 128.903 47.8058 123.608C48.0582 118.313 49.4152 113.136 51.7851 108.426C51.7851 108.426 102.968 108.379 102.968 108.416Z" fill="#4C0060"/>
<path d="M131.109 315.256C124.603 315.256 126.465 315.134 119.96 315.172C116.779 315.172 95.8536 315.34 92.8915 315.89C92.8278 315.89 92.8278 316.02 92.8915 316.03C95.8718 316.487 116.789 315.964 119.969 315.89C126.475 315.722 124.603 315.694 131.109 315.451C131.227 315.442 131.227 315.256 131.109 315.256Z" fill="#30003E"/>
<path d="M100.243 139.388C96.22 141.655 92.3983 144.28 88.8212 147.231C88.7991 147.255 88.7855 147.287 88.7828 147.32C88.78 147.353 88.7882 147.386 88.8059 147.414C88.8237 147.442 88.8501 147.463 88.8809 147.474C88.9116 147.484 88.945 147.484 88.9756 147.473C92.8464 144.983 96.8081 142.559 100.543 139.854C100.598 139.811 100.636 139.748 100.648 139.678C100.661 139.607 100.646 139.535 100.608 139.475C100.569 139.416 100.51 139.373 100.442 139.357C100.374 139.341 100.303 139.352 100.243 139.388Z" fill="#30003E"/>
<path d="M97.0799 110.03C97.0799 109.89 96.7891 109.89 96.8164 110.03C97.5344 114.78 98.0196 119.564 98.2702 124.364C98.4065 126.593 98.5246 138.977 94.6811 138.688C94.0451 138.642 93.6271 138.063 93.3909 137.121C93.2165 135.864 93.192 134.589 93.3182 133.326C93.3182 130.724 93.3182 128.122 93.1183 125.529C92.8252 120.689 92.0488 115.892 90.8013 111.214C90.7902 111.185 90.7693 111.161 90.7426 111.147C90.7158 111.132 90.6849 111.128 90.6553 111.134C90.6257 111.141 90.5994 111.159 90.5812 111.183C90.563 111.208 90.554 111.239 90.5559 111.27C91.6695 117.868 92.2952 124.542 92.4277 131.237C92.4277 134.464 91.6099 139.453 94.8901 139.425C98.1703 139.397 99.1516 131.116 99.2243 128.877C99.3058 122.526 98.585 116.191 97.0799 110.03Z" fill="#30003E"/>
<path d="M94.8358 139.015C94.6249 139.886 94.4731 140.771 94.3815 141.663C94.2543 142.363 94.2543 143.08 94.3815 143.78C94.3815 143.911 94.5905 143.892 94.645 143.78C94.9369 143.095 95.1268 142.369 95.2083 141.626C95.3719 140.805 95.5536 139.994 95.6899 139.164C95.7092 139.048 95.6827 138.928 95.6162 138.832C95.5498 138.736 95.4488 138.671 95.3355 138.651C95.2223 138.631 95.106 138.658 95.0123 138.726C94.9186 138.795 94.8551 138.898 94.8358 139.015Z" fill="#30003E"/>
<path d="M86.386 291.848C86.277 290.859 86.1498 289.88 86.0135 288.901C85.759 287.035 85.4501 285.17 85.1684 283.258C84.596 279.481 83.969 275.723 83.3512 271.955C82.0518 264.495 80.5526 256.978 78.9716 249.527C78.0629 245.321 77.0362 241.133 75.9458 237.002C75.864 236.713 75.4642 236.853 75.5188 237.133C76.1821 240.937 76.8272 244.752 77.5813 248.538C78.3355 252.324 79.0897 256.092 79.8257 259.869C81.2704 267.33 82.6152 274.846 84.0599 282.317C84.4688 284.433 84.8323 286.55 85.2411 288.658C85.441 289.712 85.6409 290.766 85.8681 291.81C86.0953 292.855 86.4042 293.89 86.5677 294.944C86.5677 295.046 86.7313 295 86.7131 294.944C86.5223 293.89 86.5041 292.864 86.386 291.848Z" fill="#30003E"/>
<path d="M114.935 235.351C113.554 228.301 111.701 221.362 109.829 214.414C106.067 200.472 101.651 186.735 97.2169 172.998L93.4007 161.126C92.7646 159.149 89.6389 148.48 89.2573 147.464C89.2573 147.442 89.2487 147.42 89.2333 147.404C89.218 147.389 89.1972 147.38 89.1755 147.38C89.1538 147.38 89.133 147.389 89.1177 147.404C89.1024 147.42 89.0938 147.442 89.0938 147.464C90.0024 151.101 91.2109 156.398 92.2467 159.998C93.2825 163.598 94.382 167.086 95.4633 170.62C97.5713 177.577 99.7247 184.525 101.778 191.501C105.84 205.284 109.865 219.068 113.163 233.076C114.072 237.002 114.981 240.919 115.889 244.864C116.798 248.808 117.452 252.753 118.252 256.698C118.252 256.801 118.452 256.773 118.443 256.698C117.743 249.564 116.316 242.458 114.935 235.351Z" fill="#30003E"/>
<path d="M89.2027 272.273C86.922 258.825 84.187 245.442 81.1704 232.171C78.1537 218.9 74.7463 205.536 71.0119 192.359C67.2774 179.181 63.1522 166.134 58.7181 153.19C56.4856 147.092 54.6075 140.864 53.0936 134.538C51.7307 128.253 51.0401 121.482 52.4667 115.122C52.8215 113.512 53.2922 111.932 53.875 110.394C53.9205 110.291 53.766 110.198 53.7206 110.31C48.7413 122.219 51.976 135.238 55.765 146.979C57.8458 153.414 60.0628 159.793 62.1254 166.237C64.2274 172.852 66.2415 179.492 68.1678 186.157C71.9841 199.381 75.4854 212.671 78.6716 226.025C81.8579 239.38 84.6898 252.85 87.1673 266.435C89.6661 280.032 91.765 293.676 93.9003 307.329C94.1729 309.101 94.391 310.891 94.6181 312.672C94.6181 312.775 94.7908 312.775 94.7726 312.672C93.2098 299.178 91.4743 285.711 89.2027 272.273Z" fill="#30003E"/>
<path d="M57.4909 133.27C58.4813 132.888 59.5899 132.795 60.6075 132.505C63.7456 131.636 66.6833 130.134 69.2486 128.085C70.846 126.673 72.0762 124.875 72.8287 122.853C73.283 121.771 75.2547 116.055 75.2729 116.008C75.2911 115.961 75.5909 115.924 75.5818 116.064C75.5364 116.838 74.4097 121.725 74.0281 122.956C73.3985 125.28 72.138 127.373 70.3935 128.99C68.5838 130.531 66.5143 131.72 64.2875 132.496C63.1536 132.912 61.986 133.224 60.7983 133.429C59.7 133.694 58.5638 133.75 57.4455 133.597C57.291 133.578 57.3546 133.326 57.4909 133.27Z" fill="#30003E"/>
<path d="M112.782 129.53C112.235 129.296 111.673 129.099 111.101 128.943C110.5 128.69 109.925 128.378 109.383 128.01C108.222 127.242 107.181 126.299 106.294 125.212C105.273 123.811 104.51 122.231 104.041 120.549C103.723 119.617 102.868 114.32 102.85 114.282C102.832 114.245 102.678 114.217 102.696 114.338C102.79 116.471 103.032 118.593 103.423 120.689C103.857 122.633 104.646 124.475 105.749 126.117C106.675 127.348 107.842 128.368 109.174 129.111C109.769 129.442 110.405 129.69 111.064 129.847C111.631 130.038 112.242 130.038 112.809 129.847C112.909 129.801 112.854 129.577 112.782 129.53Z" fill="#30003E"/>
<path d="M88.0935 53.4404C97.1162 69.9659 116.261 90.8746 123.53 90.4363C126.992 90.2311 133.225 90.6228 137.478 86.2116C146.755 76.5873 152.016 64.6968 155.032 56.2382C156.214 52.9275 138.259 39.293 136.033 42.2959C130.817 49.3183 125.129 62.7663 124.112 62.757C120.368 62.757 105.139 51.1276 94.1995 43.3777C81.9057 34.7046 84.5044 46.8563 88.0935 53.4404Z" fill="#FFC4C0"/>
<path d="M135.534 9.46857L127.138 37.0266C126.802 37.8286 127.138 38.5188 127.956 38.5561L142.003 39.3674C142.434 39.3607 142.855 39.2282 143.215 38.9854C143.575 38.7427 143.861 38.3997 144.039 37.9965L152.425 10.4478C152.761 9.63643 152.425 8.95564 151.617 8.90901L137.56 8.09766C137.131 8.10615 136.712 8.23946 136.354 8.48211C135.995 8.72476 135.711 9.0668 135.534 9.46857Z" fill="#4C0060"/>
<path d="M137.196 9.55254L128.81 37.1013C128.715 37.252 128.661 37.4262 128.655 37.6055C128.649 37.7848 128.689 37.9625 128.773 38.12C128.857 38.2775 128.98 38.4089 129.131 38.5004C129.281 38.592 129.452 38.6402 129.627 38.6401L143.675 39.4514C144.104 39.4429 144.523 39.3096 144.881 39.0669C145.24 38.8243 145.524 38.4823 145.701 38.0805L154.088 10.5224C154.424 9.72041 154.088 9.03029 153.27 8.99299L139.222 8.18164C138.793 8.19233 138.376 8.32652 138.018 8.56891C137.66 8.8113 137.375 9.15213 137.196 9.55254Z" fill="#30003E"/>
<path d="M140.985 11.0538C140.966 11.2966 140.878 11.5282 140.731 11.7194C140.584 11.9105 140.385 12.0526 140.159 12.1277C139.933 12.2028 139.691 12.2074 139.463 12.1411C139.234 12.0747 139.03 11.9404 138.876 11.755C138.722 11.5697 138.626 11.3416 138.598 11.0997C138.57 10.8578 138.613 10.613 138.721 10.3961C138.829 10.1793 138.998 10.0002 139.205 9.88158C139.412 9.76292 139.649 9.71002 139.885 9.72955C140.201 9.75809 140.494 9.91292 140.699 10.1607C140.905 10.4084 141.008 10.7292 140.985 11.0538Z" fill="#30003E"/>
<path d="M157.195 36.1129C155.887 28.848 154.469 27.188 156.523 20.4547C157.877 16.0342 155.714 13.2457 152.38 16.6404C146.928 22.2359 146.71 31.9349 147.582 35.2922L157.195 36.1129Z" fill="#FFC4C0"/>
<path d="M154.624 57.2827C154.624 57.2827 158.359 47.5278 157.714 39.6475C157.259 34.2011 154.988 22.4505 140.65 15.4001C137.251 13.7214 131.245 13.8054 135.825 18.6175C139.087 22.0308 142.185 23.1966 143.693 25.5374C143.693 25.5374 136.07 26.5725 134.562 30.135C133.246 33.2503 132.147 36.4571 131.272 39.7314C131.821 40.0333 132.389 40.2981 132.972 40.5241C132.972 40.5241 131.663 43.9094 133.88 48.9734L154.624 57.2827Z" fill="#FFC4C0"/>
<path d="M156.468 34.5181C154.46 32.5224 150.108 28.3724 145.446 26.2367C140.231 23.8773 129.582 20.7531 127.91 24.7166C126.692 27.6263 130.636 29.1837 130.636 29.1837C130.636 29.1837 125.965 28.848 125.42 31.7204C124.93 34.3409 128.064 35.3575 128.064 35.3575C128.064 35.3575 125.202 35.6559 125.202 38.2671C125.202 41.4193 131.199 40.2815 133.88 43.471C134.516 44.1705 156.468 34.5181 156.468 34.5181Z" fill="#FFC4C0"/>
<path d="M143.92 32.3078C139.952 29.8887 135.358 28.7725 130.754 29.109C130.636 29.109 130.591 29.2209 130.7 29.2302C135.207 29.7208 139.64 30.7698 143.902 32.3544C143.902 32.3544 143.947 32.3264 143.92 32.3078Z" fill="#30003E"/>
<path d="M141.439 37.6424C139.422 36.5047 133.262 34.481 128.11 35.255C127.992 35.255 127.946 35.3763 128.055 35.3856C132.582 35.6326 137.066 36.4085 141.421 37.6984C141.421 37.6984 141.467 37.6424 141.439 37.6424Z" fill="#30003E"/>
<path d="M131.735 47.9007L153.179 64.7713C153.179 64.7713 141.884 86.1369 133.498 89.2611C125.111 92.3853 122.467 91.4527 120.123 90.9864C117.778 90.5201 100.133 76.1955 88.3205 54.1397C77.1897 33.3057 90.1378 39.5634 99.7965 46.8003C105.248 50.9223 122.839 61.6378 123.521 61.4046C124.202 61.1715 131.735 47.9007 131.735 47.9007Z" fill="#7E57C2"/>
<path opacity="0.2" d="M131.735 47.9007L153.179 64.7713C153.179 64.7713 141.884 86.1369 133.498 89.2611C125.111 92.3853 122.467 91.4527 120.123 90.9864C117.778 90.5201 100.133 76.1955 88.3205 54.1397C77.1897 33.3057 90.1378 39.5634 99.7965 46.8003C105.248 50.9223 122.839 61.6378 123.521 61.4046C124.202 61.1715 131.735 47.9007 131.735 47.9007Z" fill="#050400"/>
<path d="M130.099 52.8808C133.452 55.4267 136.732 58.066 139.985 60.7332C141.585 62.0388 147.727 67.4851 149.499 69.0239C149.562 69.0892 149.408 69.285 149.326 69.2291C147.591 67.9328 141.103 62.6077 139.531 61.2741C136.324 58.5602 133.171 55.8184 130.027 52.974C130.015 52.9641 130.007 52.9497 130.005 52.934C130.004 52.9182 130.008 52.9025 130.018 52.8901C130.027 52.8777 130.041 52.8698 130.057 52.868C130.072 52.8663 130.087 52.8709 130.099 52.8808Z" fill="#30003E"/>
<path opacity="0.1" d="M116.243 88.4683C109.883 83.4044 97.3983 71.0382 88.3574 54.1397C82.4331 43.0512 83.3418 39.6379 86.9399 39.955C90.0656 45.0189 107.03 73.1552 116.243 88.4683Z" fill="#050400"/>
<path d="M47.932 120.923C48.0774 121.09 110.628 120.633 111.227 119.99C112.018 119.057 97.189 49.6073 90.6832 41.0834C89.2839 39.2183 84.7498 38.7893 80.8972 39.3208C79.8963 39.4548 78.9084 39.6763 77.9442 39.983H77.8442C77.0616 40.2213 76.3263 40.6002 75.6726 41.1021C65.0416 49.999 56.3278 80.7931 54.3106 90.0351C50.9669 105.264 47.405 120.326 47.932 120.923Z" fill="#EBEBEB"/>
<path d="M77.1717 40.1133C77.1717 40.1133 81.2515 68.7065 82.2146 76.102C83.1778 83.4974 82.2601 122.648 82.2601 122.648L42.998 126.052C42.998 126.052 51.2212 100.051 51.3121 98.4002C51.3121 98.4002 57.827 67.1677 64.5417 54.27C67.5391 48.5465 71.8801 43.6807 77.1717 40.1133Z" fill="#7E57C2"/>
<path opacity="0.2" d="M77.1717 40.1133C77.1717 40.1133 81.2515 68.7065 82.2146 76.102C83.1778 83.4974 82.2601 122.648 82.2601 122.648L42.998 126.052C42.998 126.052 51.2212 100.051 51.3121 98.4002C51.3121 98.4002 57.827 67.1677 64.5417 54.27C67.5391 48.5465 71.8801 43.6807 77.1717 40.1133Z" fill="#050400"/>
<path d="M72.638 43.6948L60.8258 124.504L43.0166 126.052C43.0166 126.052 51.2488 100.051 51.3306 98.4099C51.3306 98.4099 57.8546 67.1681 64.5694 54.2611C66.6526 50.2928 69.3815 46.7193 72.638 43.6948Z" fill="#4C0060"/>
<path d="M91.0928 40.7104C91.0928 40.7104 95.5542 69.5275 96.0266 71.9149C96.4991 74.3024 103.296 121.342 103.296 121.342L113.127 121.557L107.793 100.107C107.793 100.107 95.8358 46.8096 91.0928 40.7104Z" fill="#7E57C2"/>
<path opacity="0.2" d="M91.0928 40.7104C91.0928 40.7104 95.5542 69.5275 96.0266 71.9149C96.4991 74.3024 103.296 121.342 103.296 121.342L113.127 121.557L107.793 100.107C107.793 100.107 95.8358 46.8096 91.0928 40.7104Z" fill="#050400"/>
<path d="M88.0304 49.8589C85.041 50.204 79.3984 45.942 77.8173 41.4656C77.7174 41.1578 78.5988 38.2202 79.5165 34.6017C80.0707 32.4008 80.625 29.9388 80.9794 27.6539C81.0521 27.1876 94.3999 33.3987 94.3999 33.3987C93.154 36.1242 92.2385 38.9962 91.674 41.9505C91.6336 42.2595 91.6184 42.5715 91.6286 42.8831V43.0416C91.6558 44.8509 91.2287 49.4765 88.0304 49.8589Z" fill="#FFC4C0"/>
<path d="M91.6559 42.8646C91.6559 42.9112 91.6559 42.9672 91.6559 43.0232C91.1743 43.0114 90.6943 42.9615 90.2202 42.8739C82.0425 41.3538 81.4974 30.4425 81.4883 27.7007C83.9143 28.4747 94.4181 33.3615 94.4181 33.3615C93.1713 36.0899 92.2558 38.9651 91.6922 41.9227C91.6534 42.235 91.6413 42.5502 91.6559 42.8646Z" fill="#30003E"/>
<path d="M81.1245 9.42206C78.9892 14.3275 79.807 29.3982 82.9418 33.1472C87.4849 38.5749 95.8171 40.1136 100.542 34.2943C105.085 28.6987 103.713 9.03038 100.124 5.53316C94.8448 0.38526 84.2956 2.20381 81.1245 9.42206Z" fill="#FFC4C0"/>
<path d="M94.118 20.6689C94.118 20.6689 94.0363 20.6689 94.0454 20.7529C94.0999 21.7694 93.9999 22.9445 93.1367 23.3082V23.3641C94.218 23.1776 94.3361 21.6202 94.118 20.6689Z" fill="#30003E"/>
<path d="M93.2099 19.6246C91.6107 19.5407 91.5653 22.8234 93.0463 22.9073C94.5274 22.9913 94.5547 19.6992 93.2099 19.6246Z" fill="#30003E"/>
<path d="M99.8604 20.7065C99.8604 20.7065 99.9331 20.7065 99.9331 20.7998C99.9331 21.8163 100.006 22.9821 100.896 23.3365C100.896 23.3365 100.896 23.4017 100.896 23.3924C99.7968 23.2245 99.6605 21.6671 99.8604 20.7065Z" fill="#30003E"/>
<path d="M100.76 19.662C102.35 19.5594 102.432 22.8422 100.96 22.9354C99.4878 23.0287 99.4242 19.746 100.76 19.662Z" fill="#30003E"/>
<path d="M91.9739 18.1046C92.3962 17.9854 92.8118 17.8422 93.2187 17.6756C93.6794 17.5883 94.0984 17.3454 94.409 16.9855C94.4824 16.8531 94.5123 16.7 94.4943 16.5488C94.4763 16.3977 94.4113 16.2564 94.309 16.1461C94.0697 15.9622 93.787 15.8471 93.4899 15.8127C93.1929 15.7782 92.8922 15.8257 92.619 15.9503C92.0283 16.1145 91.5172 16.4963 91.1833 17.0228C91.1139 17.1476 91.0815 17.2905 91.0903 17.434C91.099 17.5774 91.1484 17.7151 91.2324 17.8301C91.3165 17.9451 91.4314 18.0324 91.5632 18.0811C91.6949 18.1299 91.8377 18.1381 91.9739 18.1046Z" fill="#30003E"/>
<path d="M102.014 18.0578C101.586 17.9671 101.164 17.8487 100.751 17.7035C100.288 17.6403 99.8571 17.4243 99.524 17.088C99.4283 16.9569 99.3803 16.7955 99.3886 16.6319C99.3969 16.4682 99.4609 16.3128 99.5695 16.1927C99.7968 15.9943 100.072 15.862 100.366 15.8096C100.66 15.7571 100.962 15.7863 101.241 15.8942C101.843 16.0171 102.376 16.3706 102.732 16.8828C102.823 17.0021 102.876 17.1475 102.884 17.299C102.892 17.4506 102.854 17.6009 102.775 17.7295C102.697 17.8581 102.581 17.9587 102.445 18.0174C102.309 18.0762 102.158 18.0903 102.014 18.0578Z" fill="#30003E"/>
<path d="M94.1632 26.8522C94.4081 27.2584 94.7324 27.6081 95.1155 27.8794C95.4986 28.1506 95.9324 28.3375 96.3893 28.4283C96.7901 28.5092 97.1996 28.5343 97.6069 28.5029C97.6823 28.5126 97.7586 28.5126 97.8341 28.5029C97.9065 28.5118 97.9797 28.5118 98.0521 28.5029C98.1051 28.492 98.1536 28.4648 98.191 28.4247C98.2283 28.3847 98.2528 28.3338 98.2611 28.279C98.2656 28.245 98.2656 28.2105 98.2611 28.1765V28.0925C98.2611 27.3091 98.2611 26.1154 98.2611 26.1154C98.5337 26.2646 99.9512 26.9361 99.933 26.5258C99.8897 22.9973 99.5001 19.4824 98.7699 16.0341C98.7699 15.9222 98.5791 15.9409 98.5882 16.0341C98.5882 19.2982 99.1788 22.5623 99.2515 25.817C98.7512 25.5672 98.2189 25.3914 97.6705 25.2948C97.5615 25.2948 97.8159 27.5982 97.7795 27.9433C97.1537 27.9982 96.5234 27.9241 95.9258 27.7255C95.3282 27.5269 94.7753 27.2078 94.2995 26.7869C94.1814 26.703 94.1177 26.7682 94.1632 26.8522Z" fill="#30003E"/>
<path d="M97.1618 28.1017C96.7347 28.6522 96.1781 29.0823 95.5444 29.3513C95.1924 29.4862 94.8083 29.5058 94.445 29.4073C93.6545 29.1835 93.6454 28.4747 93.7999 27.7939C93.8891 27.4695 94.0141 27.1566 94.1724 26.8613C95.0149 27.5907 96.0621 28.0252 97.1618 28.1017Z" fill="#30003E"/>
<path d="M95.5444 29.3514C95.1924 29.4862 94.8083 29.5058 94.445 29.4073C93.6545 29.1835 93.6454 28.4747 93.7999 27.7939C94.2186 27.8155 94.6181 27.9807 94.9345 28.2631C95.2508 28.5455 95.4656 28.9287 95.5444 29.3514Z" fill="#FF9BBC"/>
<path d="M81.1247 23.1124C83.9323 23.3269 84.0868 18.291 84.0868 18.291C84.0868 18.291 89.7658 17.7594 90.7743 10.3453C90.7743 10.3453 98.734 13.7399 103.186 9.68314C107.639 5.62637 97.0984 -5.72325 83.5234 3.55602C83.5234 3.55602 77.2993 4.27412 76.0636 9.37539C74.8278 14.4767 77.7627 22.8607 81.1247 23.1124Z" fill="#30003E"/>
<path d="M90.6381 9.48712C90.6329 9.47284 90.6236 9.46053 90.6114 9.45184C90.5992 9.44314 90.5847 9.43848 90.5699 9.43848C90.5551 9.43848 90.5406 9.44314 90.5284 9.45184C90.5162 9.46053 90.5069 9.47284 90.5017 9.48712C91.1287 14.4765 87.7759 18.813 82.6603 18.1322C82.6287 18.133 82.5984 18.1451 82.5746 18.1662C82.5507 18.1874 82.5347 18.2164 82.5293 18.2483C82.524 18.2802 82.5296 18.3131 82.5452 18.3412C82.5607 18.3694 82.5854 18.3911 82.6148 18.4027C87.6396 19.6057 92.6461 14.6817 90.6381 9.48712Z" fill="#30003E"/>
<path d="M95.7445 0.0776367C97.4815 0.35727 99.1668 0.90763 100.742 1.70967C103.059 3.00597 105.994 6.19543 104.149 9.05848C101.614 12.9754 95.7081 11.5019 92.1099 10.3082C92.0629 10.2859 92.0093 10.2837 91.9607 10.3021C91.9121 10.3204 91.8727 10.3578 91.851 10.4061C91.8293 10.4543 91.8271 10.5094 91.845 10.5592C91.8629 10.6091 91.8994 10.6496 91.9464 10.6719C95.5264 12.5837 103.15 13.5256 104.994 8.64815C107.048 3.2671 99.5698 0.413369 95.7445 0.0776367Z" fill="#30003E"/>
<path d="M83.2687 22.0678C83.2687 22.0678 80.5428 16.9386 78.2712 17.8991C75.9996 18.8597 77.7714 26.05 80.1521 27.225C80.4476 27.4019 80.7748 27.5157 81.1142 27.5597C81.4536 27.6038 81.7981 27.5771 82.1273 27.4814C82.4564 27.3856 82.7633 27.2227 83.0297 27.0024C83.2961 26.7821 83.5164 26.5089 83.6776 26.1992L83.2687 22.0678Z" fill="#FFC4C0"/>
<path d="M78.8162 19.9229C78.8162 19.9229 78.7617 19.9229 78.8162 19.9881C80.479 20.9207 81.2241 22.646 81.6875 24.4366C81.6049 24.2467 81.483 24.0776 81.3305 23.9408C81.1779 23.804 80.9982 23.7028 80.8038 23.6443C80.6094 23.5858 80.4049 23.5713 80.2045 23.6018C80.0041 23.6323 79.8125 23.7071 79.6431 23.8211C79.5976 23.8211 79.6431 23.9237 79.6431 23.9237C79.9591 23.8547 80.2883 23.8887 80.5847 24.0207C80.8811 24.1528 81.13 24.3764 81.2968 24.6604C81.5719 25.1352 81.7973 25.6385 81.9692 26.1619C82.0328 26.3298 82.3235 26.2831 82.2781 26.0873C82.5689 23.8024 81.1696 20.4358 78.8162 19.9229Z" fill="#30003E"/>
<path d="M68.2582 48.544C55.392 71.3272 37.8463 118.423 34.3662 125.902C32.0129 130.976 57.8635 144.358 58.9629 140.665C60.3622 135.937 76.6267 80.2241 77.7989 53.0577C78.335 40.4398 72.3743 41.2511 68.2582 48.544Z" fill="#FFC4C0"/>
<path d="M59.6627 138.119C59.0539 142.717 56.0282 151.987 53.7475 153.395C51.4668 154.803 39.5819 154.505 33.5849 154.505C27.588 154.505 26.4067 152.789 26.5067 150.672C26.6066 148.555 39.2275 148.154 39.2275 148.154C39.2275 148.154 22.4178 153.097 18.1927 153.899C13.9676 154.701 4.21793 157.237 2.80955 153.638C2.17351 152.015 4.84488 150.374 4.84488 150.374C4.84488 150.374 0.756039 151.595 0.11091 149.506C-0.634169 147.137 2.61872 145.832 2.61872 145.832C2.61872 145.832 0.0654827 146.354 0.00187841 144.424C-0.12533 140.106 15.8575 137.979 15.8575 137.979C15.8575 137.979 3.61823 144.097 3.22751 140.563C2.68233 135.685 27.7606 130.304 30.3775 128.197C32.2764 126.57 34.0532 124.8 35.693 122.899L59.6627 138.119Z" fill="#FFC4C0"/>
<path d="M26.5975 151.745C26.5543 151.445 26.5831 151.139 26.6812 150.853C26.7794 150.567 26.944 150.309 27.1608 150.104C27.594 149.699 28.088 149.368 28.6238 149.124C29.7323 148.638 30.882 148.257 32.0584 147.987C34.4208 147.371 36.8469 146.933 39.2638 146.289C36.77 146.253 34.2817 146.541 31.8585 147.147C30.6222 147.436 29.4321 147.904 28.3239 148.537C27.7622 148.865 27.2708 149.306 26.8792 149.833C26.6742 150.099 26.5405 150.415 26.4911 150.751C26.4417 151.086 26.4784 151.429 26.5975 151.745Z" fill="#30003E"/>
<path d="M4.80859 150.374C6.535 149.935 8.24322 149.441 9.94236 148.928C11.6415 148.415 13.3316 147.893 15.0307 147.371L20.0918 145.739C21.7819 145.198 23.4628 144.657 25.1711 144.135C23.4021 144.325 21.6475 144.636 19.9192 145.067C18.1837 145.478 16.4845 146 14.7854 146.513C13.0862 147.026 11.4053 147.632 9.74249 148.275C8.07969 148.919 6.42596 149.6 4.80859 150.374Z" fill="#30003E"/>
<path d="M21.109 139.826C19.481 139.94 17.8627 140.17 16.266 140.516C14.664 140.844 13.0806 141.261 11.523 141.766C9.9619 142.263 8.42984 142.852 6.93436 143.529C5.43056 144.186 3.97588 144.956 2.58203 145.832C4.12671 145.282 5.62594 144.676 7.17062 144.144C8.71529 143.612 10.2236 143.081 11.7683 142.596C13.313 142.111 14.8667 141.663 16.4205 141.16C17.9743 140.656 19.5371 140.227 21.109 139.826Z" fill="#30003E"/>
<path d="M18.6379 135.713C13.3626 136.182 8.27856 137.965 3.82715 140.908C6.30772 139.975 8.72467 139.043 11.1961 138.203C13.6676 137.364 16.13 136.497 18.6379 135.713Z" fill="#30003E"/>
<path d="M32.8584 124.719L61.1987 138.931C61.1987 138.931 76.0003 78.6299 77.8267 57.4974C79.653 36.3649 71.7479 41.2237 66.2779 51.1464C58.8089 64.6877 32.8584 124.719 32.8584 124.719Z" fill="#7E57C2"/>
<path opacity="0.2" d="M32.8584 124.719L61.1987 138.931C61.1987 138.931 76.0003 78.6299 77.8267 57.4974C79.653 36.3649 71.7479 41.2237 66.2779 51.1464C58.8089 64.6877 32.8584 124.719 32.8584 124.719Z" fill="#050400"/>
<path d="M60.4986 131.545C56.646 129.931 41.0811 122.76 37.7828 120.979C37.5647 120.857 37.5829 120.68 37.8373 120.783C49.5133 125.306 56.8187 129.605 60.5531 131.386C60.5736 131.394 60.5904 131.409 60.5998 131.429C60.6092 131.449 60.6103 131.472 60.6031 131.493C60.5959 131.515 60.5808 131.532 60.5612 131.541C60.5416 131.551 60.5191 131.552 60.4986 131.545Z" fill="#30003E"/>
<path d="M64.7148 123.953C65.1419 120.838 72.3928 85.4187 73.0016 82.3411C73.6104 79.2636 74.2646 76.1954 74.9733 73.1458L76.0364 68.5574C76.4271 67.0373 76.7815 65.5172 77.1994 63.9971C76.9995 65.5545 76.736 67.1026 76.5089 68.66L75.7093 73.323C75.1732 76.4192 74.5735 79.4967 73.9556 82.565C73.3378 85.6332 65.5326 120.922 64.7148 123.953Z" fill="#30003E"/>
<path d="M75.582 72.0082C75.8034 71.2061 76.108 70.4307 76.4907 69.6954C76.862 68.9529 77.313 68.2553 77.8354 67.6157C77.6141 68.4178 77.3094 69.1932 76.9268 69.9285C76.5555 70.6711 76.1044 71.3686 75.582 72.0082Z" fill="#30003E"/>
</svg>
