<svg width="284" height="239" viewBox="0 0 284 239" fill="none" xmlns="http://www.w3.org/2000/svg">
<path d="M279.651 238.067C276.891 238.307 203.991 220.567 201.651 218.147C201.391 217.877 201.861 207.207 203.191 198.687C203.251 198.277 175.711 166.437 175.711 166.437L220.711 145.687L245.561 190.017L252.021 201.547C252.021 201.547 277.361 224.077 279.661 227.027C281.961 229.977 282.401 237.837 279.651 238.067Z" fill="#D997FF"/>
<path d="M281.681 238.347C278.811 238.597 202.681 220.347 200.261 217.847C199.321 216.897 200.371 212.197 203.181 198.687L252.521 201.577C252.521 201.577 279.241 223.767 281.651 226.827C284.061 229.887 284.561 238.097 281.681 238.347Z" fill="#7E57C2"/>
<path d="M281.321 235.047C268.641 231.677 217.181 219.287 204.391 216.927C204.291 216.927 204.271 216.977 204.391 217.007C216.891 220.617 268.451 232.587 281.291 235.257C281.541 235.306 281.591 235.117 281.321 235.047Z" fill="#30003E"/>
<path d="M277.411 222.917C276.001 222.539 274.528 222.458 273.085 222.68C271.642 222.902 270.262 223.422 269.031 224.207C266.803 225.596 265.198 227.792 264.551 230.337C264.551 230.407 264.671 230.447 264.701 230.337C265.742 227.916 267.539 225.898 269.823 224.584C272.107 223.27 274.755 222.731 277.371 223.047C277.384 223.043 277.396 223.036 277.406 223.027C277.416 223.018 277.423 223.006 277.427 222.993C277.431 222.98 277.432 222.966 277.429 222.953C277.426 222.939 277.42 222.927 277.411 222.917Z" fill="#30003E"/>
<path d="M257.871 206.207C252.791 204.917 246.441 205.307 242.261 208.717C242.101 208.847 242.261 209.077 242.461 209.037C247.489 207.766 252.638 207.035 257.821 206.857C257.899 206.85 257.973 206.816 258.028 206.761C258.084 206.705 258.118 206.631 258.124 206.553C258.13 206.475 258.107 206.397 258.061 206.333C258.015 206.27 257.947 206.225 257.871 206.207Z" fill="#30003E"/>
<path d="M261.451 208.687C256.361 207.397 250.011 207.787 245.841 211.197C245.681 211.327 245.841 211.557 246.041 211.517C251.065 210.245 256.211 209.514 261.391 209.337C261.47 209.332 261.545 209.3 261.601 209.245C261.658 209.19 261.694 209.116 261.701 209.037C261.708 208.959 261.687 208.88 261.641 208.816C261.595 208.751 261.528 208.705 261.451 208.687Z" fill="#30003E"/>
<path d="M265.021 211.167C259.931 209.877 253.581 210.267 249.411 213.677C249.251 213.807 249.411 214.037 249.611 213.997C254.635 212.726 259.781 211.995 264.961 211.817C265.04 211.812 265.115 211.78 265.171 211.725C265.228 211.67 265.264 211.596 265.271 211.517C265.278 211.439 265.257 211.36 265.211 211.296C265.165 211.231 265.098 211.185 265.021 211.167Z" fill="#30003E"/>
<path d="M268.591 213.657C263.511 212.357 257.161 212.747 252.981 216.157C252.821 216.287 252.981 216.517 253.181 216.477C258.206 215.207 263.351 214.476 268.531 214.297C268.616 214.305 268.7 214.279 268.766 214.224C268.832 214.17 268.873 214.092 268.881 214.007C268.889 213.922 268.863 213.837 268.808 213.772C268.754 213.706 268.676 213.665 268.591 213.657Z" fill="#30003E"/>
<path d="M266.651 193.907C264.581 191.147 260.831 192.467 258.701 194.307C255.109 197.537 252.43 201.654 250.931 206.247C250.931 206.357 250.931 206.417 251.061 206.437C251.058 206.537 251.08 206.637 251.123 206.728C251.166 206.819 251.231 206.899 251.311 206.96C251.391 207.021 251.484 207.063 251.583 207.082C251.682 207.1 251.784 207.095 251.881 207.067C256.121 205.427 260.881 204.187 264.451 201.297C266.561 199.607 268.611 196.517 266.651 193.907ZM257.821 203.257C255.761 204.117 253.661 204.867 251.631 205.807C253.151 203.477 254.571 201.107 256.321 198.927C257.15 197.868 258.049 196.866 259.011 195.927C260.521 194.507 266.561 191.437 265.731 197.117C265.251 200.247 260.251 202.237 257.821 203.257Z" fill="#30003E"/>
<path d="M237.821 205.107C242.101 206.857 246.991 206.687 251.521 207.057C251.621 207.055 251.72 207.03 251.809 206.984C251.898 206.937 251.975 206.87 252.034 206.789C252.092 206.707 252.13 206.612 252.146 206.513C252.161 206.414 252.152 206.312 252.121 206.217C252.141 206.209 252.159 206.198 252.174 206.183C252.189 206.167 252.201 206.149 252.207 206.129C252.214 206.108 252.216 206.087 252.213 206.066C252.21 206.045 252.203 206.024 252.191 206.007C249.444 202.021 245.695 198.83 241.321 196.757C238.761 195.597 234.781 195.407 233.581 198.647C232.451 201.757 235.301 204.087 237.821 205.107ZM235.431 201.457C233.031 196.257 239.681 197.457 241.541 198.407C242.731 199.031 243.877 199.736 244.971 200.517C247.271 202.097 249.301 203.977 251.421 205.767C249.211 205.447 246.991 205.327 244.761 205.087C242.091 204.807 236.741 204.337 235.411 201.457H235.431Z" fill="#30003E"/>
<path d="M248.011 192.007L197.661 202.627C197.661 202.627 166.821 153.977 154.881 142.147C154.208 141.464 153.482 140.835 152.711 140.267C151.524 139.807 150.263 139.57 148.991 139.567C133.861 138.657 83.5909 146.677 48.5109 146.567L63.5109 123.757L70.1509 113.637C109.241 106.737 156.561 87.6365 179.031 97.2765C203.341 107.677 248.011 192.007 248.011 192.007Z" fill="#500068"/>
<path d="M241.121 183.757C232.551 185.397 234.981 184.817 226.431 186.547C222.251 187.397 201.211 191.607 197.431 193.047C197.351 193.047 197.381 193.217 197.431 193.217C201.431 192.997 222.431 188.337 226.581 187.407C235.091 185.517 232.631 185.977 241.131 183.997C241.163 183.995 241.193 183.981 241.214 183.958C241.236 183.935 241.247 183.904 241.246 183.872C241.245 183.84 241.231 183.81 241.207 183.788C241.184 183.767 241.153 183.755 241.121 183.757Z" fill="#30003E"/>
<path d="M197.291 192.356C190.951 183.096 161.861 137.246 156.541 135.696C151.691 134.286 56.9108 142.076 55.5408 142.166C55.4408 142.166 55.4508 142.337 55.5408 142.327C66.7608 141.497 153.491 135.866 156.021 136.696C161.291 138.416 195.971 191.547 196.811 192.647C197.011 192.937 197.511 192.676 197.291 192.356Z" fill="#30003E"/>
<path d="M20.6709 128.317C20.6709 128.317 19.4209 157.117 34.8209 170.467C53.2409 186.467 167.651 175.097 185.071 168.267C202.491 161.437 201.291 132.717 181.461 127.267C162.591 122.077 80.4609 123.467 78.4609 122.817C76.4609 122.167 70.2309 113.437 70.2309 113.437L20.6709 128.317Z" fill="#500068"/>
<path d="M44.8909 126.027C44.8909 125.887 44.6509 125.947 44.6609 126.027C44.887 129.741 43.7964 133.417 41.5809 136.407C39.0609 139.717 35.1509 141.727 31.6309 143.787C31.2909 143.987 31.6309 144.517 31.9409 144.387C34.1339 143.566 36.2299 142.506 38.1909 141.227C39.9957 140.114 41.557 138.648 42.7809 136.917C43.8624 135.344 44.608 133.565 44.971 131.692C45.3341 129.818 45.3068 127.889 44.8909 126.027Z" fill="#30003E"/>
<path d="M77.5509 121.076C76.6709 120.076 75.7309 119.156 74.8209 118.206C72.6709 115.946 70.5109 113.676 68.2709 111.506C68.0609 111.296 67.6909 111.626 67.8909 111.856C69.4109 113.616 71.0209 115.316 72.6009 117.026C73.4109 117.906 74.2209 118.776 75.0409 119.646C75.8847 120.424 76.6516 121.282 77.3309 122.206C77.4634 122.409 77.5393 122.643 77.5504 122.885C77.5615 123.126 77.5076 123.366 77.3941 123.58C77.2807 123.793 77.1119 123.973 76.9055 124.099C76.6992 124.225 76.4627 124.293 76.2209 124.296C75.2833 124.378 74.35 124.099 73.6109 123.516C71.9371 122.204 70.3873 120.742 68.9809 119.146L66.2709 116.466C65.2709 115.526 64.2709 114.646 63.2709 113.706C63.2109 113.646 63.1009 113.706 63.1609 113.806C64.0209 114.806 64.8209 115.936 65.6809 116.976C66.5409 118.016 67.4109 119.046 68.3009 120.066C69.1909 121.086 70.0009 121.976 70.8909 122.896C71.6316 123.7 72.5 124.376 73.4609 124.896C75.0409 125.696 77.6909 125.726 78.3809 123.716C78.4841 123.242 78.4618 122.749 78.3163 122.286C78.1707 121.823 77.9069 121.406 77.5509 121.076Z" fill="#30003E"/>
<path d="M182.651 168.527C176.541 169.017 170.441 169.747 164.331 170.247C158.221 170.747 152.201 171.157 146.131 171.477C133.931 172.103 121.717 172.373 109.491 172.287C97.1508 172.197 83.8108 171.787 71.4908 170.837C65.6008 170.387 59.6308 170.077 53.7808 169.187C48.5274 168.52 43.5752 166.361 39.5108 162.967C31.1308 155.787 27.3708 144.697 25.4508 133.967C25.1908 132.537 24.9608 131.097 24.7508 129.647C24.7451 129.631 24.7349 129.618 24.7215 129.609C24.7081 129.599 24.6922 129.594 24.6758 129.594C24.6595 129.594 24.6436 129.599 24.6302 129.609C24.6168 129.618 24.6065 129.631 24.6008 129.647C25.9908 140.647 28.4208 152.057 35.9108 160.517C39.083 164.213 43.1739 167.007 47.7708 168.617C53.3708 170.467 59.4708 170.617 65.3008 171.037C77.6608 171.947 91.0508 172.417 103.441 172.617C115.831 172.817 128.381 172.617 140.831 172.077C153.281 171.537 165.731 170.557 178.121 169.187C179.641 169.017 181.121 168.837 182.651 168.617C182.751 168.647 182.741 168.517 182.651 168.527Z" fill="#30003E"/>
<path d="M197.351 140.756C195.883 136.034 192.701 132.031 188.431 129.536C183.851 126.806 178.491 125.756 173.231 125.316C167.231 124.816 161.231 124.746 155.311 124.536C143.064 124.096 130.814 123.763 118.561 123.536C106.321 123.286 79.9508 122.857 78.4708 122.887C78.3508 122.887 78.3308 123.106 78.4708 123.116C90.3108 123.706 101.081 124.116 112.931 124.516C124.781 124.916 136.741 125.267 148.651 125.717C154.584 125.937 160.514 126.166 166.441 126.406C171.941 126.636 177.591 126.856 182.841 128.646C187.351 130.186 191.471 132.857 193.981 136.997C196.322 141.079 197.234 145.827 196.571 150.486C196.012 154.821 194.284 158.921 191.571 162.346C188.968 165.713 185.382 168.188 181.311 169.427C180.251 169.727 178.961 169.976 177.981 170.226C177.901 170.226 177.831 170.416 177.911 170.406C186.731 170.096 194.491 163.166 197.171 154.926C198.678 150.333 198.741 145.387 197.351 140.756Z" fill="#30003E"/>
<path d="M74.9708 51.1965C98.5208 70.1965 111.281 86.3065 113.521 97.5365C116.621 113.076 107.221 117.947 102.911 118.217C91.1608 118.967 70.7708 78.3265 63.6208 59.4665C56.8208 41.5965 69.8208 47.0165 74.9708 51.1965Z" fill="#7E57C2"/>
<path opacity="0.1" d="M107.051 116.937C105.776 117.651 104.366 118.091 102.911 118.227C91.1609 118.967 70.7709 78.3265 63.6209 59.4565C60.7609 51.9065 61.4109 48.5265 63.5309 47.4565L107.051 116.937Z" fill="black"/>
<path d="M17.9108 129.917C18.0908 130.107 87.3008 114.657 87.9108 113.847C88.8008 112.707 76.2108 60.6666 63.0908 45.1766C59.8108 41.3066 49.4108 41.6166 44.7708 45.5566C21.8208 65.0866 17.2508 129.247 17.9108 129.917Z" fill="#7E57C2"/>
<path d="M37.4809 49.9865C17.6209 68.1065 -0.989149 98.2565 0.0408508 114.276C1.04085 130.096 6.45085 128.156 8.04085 127.936C17.5409 126.606 36.7808 80.9365 42.3008 62.5265C47.8208 44.1165 42.3909 45.4965 37.4809 49.9865Z" fill="#7E57C2"/>
<path d="M19.8209 114.657C20.8209 112.577 21.8209 110.527 22.7009 108.437L25.5409 102.217C27.4209 98.0566 29.3309 93.9166 31.1409 89.7366C32.9509 85.5566 34.8209 81.3966 36.6009 77.1966C37.5009 75.1066 38.3809 73.0066 39.2209 70.8866C40.0609 68.7666 40.8809 66.6366 41.6909 64.4966C40.4981 68.9058 39.0625 73.2458 37.3909 77.4966C35.7709 81.7766 33.9609 85.9666 32.1509 90.1666C30.3409 94.3666 28.3509 98.4766 26.3109 102.567C24.2709 106.657 22.1209 110.757 19.8209 114.657Z" fill="#30003E"/>
<path d="M39.8209 69.9666C40.1539 69.221 40.5382 68.4992 40.9709 67.8066C41.1809 67.4666 41.3809 67.1166 41.6109 66.8066C41.8409 66.4966 42.0509 66.1266 42.3109 65.8066C42.181 66.6309 41.885 67.4202 41.4409 68.1266C41.0143 68.8312 40.4658 69.4543 39.8209 69.9666Z" fill="#30003E"/>
<path d="M113.991 75.8965C113.771 68.3765 112.791 57.8165 110.381 55.3665C107.971 52.9165 98.5808 44.1065 95.8208 42.7565C93.0608 41.4065 80.5608 35.0865 78.0208 36.2065C76.0208 37.1065 77.7108 42.3765 83.6408 45.4565C86.8418 47.2084 89.9341 49.152 92.9008 51.2765C94.4208 52.1265 97.6708 57.6765 96.3908 59.8365C95.6308 61.1065 91.5708 62.2565 89.2608 60.8965C86.9508 59.5365 86.8808 54.6865 84.3608 52.1265C81.8408 49.5665 76.9308 49.3065 76.5008 50.5965C76.0708 51.8865 77.6208 52.6765 79.6408 57.4265C80.9308 60.4765 80.2908 67.4265 83.4008 72.7465C84.9287 75.8825 86.2645 79.1084 87.4008 82.4065L113.991 75.8965Z" fill="#D3766A"/>
<path d="M81.9508 49.8165C81.0703 49.597 80.2718 49.1283 79.6508 48.4665C79.4019 48.1677 79.2456 47.8028 79.2008 47.4165C79.1876 47.2085 79.2045 46.9997 79.2508 46.7965C79.2852 46.5786 79.3907 46.3782 79.5508 46.2265C79.6108 46.2265 79.5508 46.1365 79.5508 46.1765C79.4719 46.2736 79.3849 46.364 79.2908 46.4465C79.2284 46.5327 79.1716 46.6229 79.1208 46.7165C79.0284 46.9004 78.9739 47.1011 78.9608 47.3065C78.9255 47.7594 79.0454 48.2108 79.3008 48.5865C79.6155 48.9951 80.02 49.3258 80.483 49.553C80.946 49.7802 81.4551 49.8977 81.9708 49.8965L81.9508 49.8165Z" fill="#30003E"/>
<path d="M110.381 55.3666C108.431 51.3666 103.121 44.0866 97.3809 41.1566C93.5109 39.1566 78.9009 44.4166 79.0109 47.1566C79.1209 49.8966 81.5009 50.1566 85.0109 50.0866C86.3109 50.0866 93.3409 48.3766 94.3409 49.9166C95.7709 52.1366 97.1209 59.3366 97.1209 59.3366L110.381 55.3666Z" fill="#D3766A"/>
<path d="M79.5008 46.1167C81.5008 43.4667 85.5008 42.3567 89.3408 41.5667C89.4008 41.5667 89.4208 41.6466 89.3408 41.6566C88.3408 41.8666 81.9308 44.0067 79.5108 46.1667C79.5108 46.1867 79.4808 46.1467 79.5008 46.1167Z" fill="#30003E"/>
<path d="M110.381 55.3665C108.431 51.3665 103.121 44.0865 97.3809 41.1565C93.5109 39.1565 81.5909 46.6265 81.7109 49.3165C81.8309 52.0065 85.2109 52.5965 89.1109 51.6965C90.3809 51.4065 94.7709 48.9765 95.7709 50.5265C97.2009 52.7465 100.691 58.2465 100.691 58.2465L110.381 55.3665Z" fill="#D3766A"/>
<path d="M98.7309 54.8565C98.4209 54.2265 98.3109 54.0165 97.9909 53.3965C97.6709 52.7765 97.3309 52.1665 96.9909 51.5765C96.7089 51.0344 96.3369 50.5441 95.8909 50.1265C95.4158 49.7872 94.8447 49.6085 94.2609 49.6165C92.9337 49.7466 91.649 50.1555 90.4909 50.8165C89.1809 51.3865 86.4909 52.2565 84.5509 51.8165C84.0104 51.7329 83.4949 51.5315 83.0409 51.2265C82.6923 51.0213 82.4002 50.7326 82.1909 50.3865C81.5009 48.8465 82.7409 47.3165 83.9609 46.2665C86.3328 44.3818 89.0262 42.942 91.9109 42.0165C92.5909 41.7665 93.2809 41.5365 93.9709 41.3065C94.7516 40.993 95.5903 40.8498 96.4309 40.8865C97.8009 41.0265 99.8809 42.6565 100.531 43.1465C100.531 43.1465 100.631 43.1465 100.531 43.0665C99.7509 42.4565 97.8509 40.5265 95.6409 40.3965C94.8241 40.4357 94.0196 40.6114 93.2609 40.9165C92.4609 41.1665 91.6609 41.4465 90.8809 41.7365C89.3396 42.2822 87.8448 42.951 86.4109 43.7365C84.9799 44.4489 83.6945 45.4222 82.6209 46.6065C82.1683 47.136 81.868 47.7784 81.7517 48.4652C81.6355 49.152 81.7078 49.8575 81.9609 50.5065C82.2103 50.925 82.5479 51.2841 82.9504 51.5587C83.3528 51.8333 83.8102 52.0168 84.2909 52.0965C84.8611 52.2281 85.446 52.2853 86.0309 52.2665C87.3429 52.1285 88.643 51.8945 89.9209 51.5665C91.1709 51.2265 92.3309 50.5665 93.6009 50.2965C93.9018 50.229 94.213 50.2216 94.5168 50.2748C94.8206 50.328 95.1108 50.4407 95.3709 50.6065C95.8351 50.9989 96.2394 51.457 96.5709 51.9665C97.3025 52.8664 97.9518 53.8303 98.5109 54.8465C98.6709 55.1765 98.8709 55.1165 98.7309 54.8565Z" fill="#30003E"/>
<path d="M111.821 58.7567C111.141 56.9067 110.471 49.4967 109.311 47.1267C108.151 44.7567 102.601 36.3667 99.5808 36.3767C95.7908 36.3767 98.9608 43.5667 100.581 46.5667C102.201 49.5667 101.401 54.2467 101.401 54.2467L111.821 58.7567Z" fill="#D3766A"/>
<path d="M98.3509 41.6666C98.9509 42.6666 99.4609 43.6666 99.9709 44.6666C100.498 45.6123 100.956 46.5949 101.341 47.6066C101.644 48.6315 101.779 49.6986 101.741 50.7666C101.741 51.2966 101.741 51.8166 101.641 52.3466C101.541 52.8766 101.461 53.4866 101.421 54.0566C101.421 54.1166 101.321 54.1166 101.321 54.0566C101.368 53.0063 101.344 51.9539 101.251 50.9066C101.182 49.8195 100.98 48.745 100.651 47.7066C99.9909 45.6466 98.8909 43.7566 98.2109 41.7066C98.1809 41.6466 98.3109 41.6066 98.3509 41.6666Z" fill="#30003E"/>
<path d="M101.271 55.0566C101.203 56.8793 100.673 58.6548 99.7309 60.2166C99.2976 61.0191 98.8098 61.791 98.2709 62.5266C97.7152 63.2289 97.1175 63.8968 96.4809 64.5266C95.2432 65.7459 94.1646 67.1168 93.2709 68.6066C92.4033 70.14 91.7314 71.7761 91.2709 73.4766C91.3387 71.6594 91.7599 69.8728 92.5109 68.2166C93.3076 66.5723 94.3721 65.0719 95.6609 63.7766C96.888 62.5371 97.9869 61.1769 98.9409 59.7166C99.9669 58.301 100.754 56.7268 101.271 55.0566Z" fill="#30003E"/>
<path d="M103.001 117.757C95.8208 115.897 92.5008 103.117 86.7308 80.6566C85.7308 76.7166 107.551 55.8366 109.731 59.5966C112.471 64.3466 118.381 89.5966 118.521 96.3466C118.821 109.587 111.391 119.917 103.001 117.757Z" fill="#D3766A"/>
<path d="M89.7009 93.1665L115.951 73.1665C115.951 73.1665 120.291 93.6365 118.681 101.796C117.071 109.956 113.081 119.027 103.091 118.357C95.6109 117.807 89.7009 93.1665 89.7009 93.1665Z" fill="#7E57C2"/>
<path d="M95.4209 109.897C94.7209 108.587 94.1109 107.237 93.5209 105.897C92.9309 104.557 92.4109 103.157 91.9009 101.767C91.3909 100.377 90.9009 98.9665 90.5709 97.5365C90.1516 96.112 89.8605 94.6528 89.7009 93.1765C90.1709 94.5865 90.7009 95.9565 91.1809 97.3465L92.6809 101.487C93.1709 102.877 93.6809 104.267 94.1209 105.667C94.5609 107.067 95.0309 108.457 95.4209 109.897Z" fill="#30003E"/>
<path d="M94.2909 97.7565C95.5809 96.6365 96.9809 95.6265 98.2909 94.5865C99.6009 93.5465 101.011 92.5165 102.391 91.5065C105.151 89.5065 107.921 87.5065 110.711 85.5065C111.471 84.9665 112.241 84.4365 113.011 83.9065C113.781 83.3765 114.741 82.9065 115.561 82.3265C115.566 82.3187 115.573 82.3122 115.582 82.3076C115.59 82.303 115.599 82.3004 115.609 82.3001C115.618 82.2998 115.627 82.3017 115.636 82.3057C115.645 82.3097 115.652 82.3157 115.658 82.3232C115.664 82.3307 115.668 82.3395 115.67 82.3488C115.671 82.3581 115.671 82.3677 115.668 82.3768C115.666 82.3859 115.661 82.3943 115.654 82.4012C115.648 82.4081 115.64 82.4133 115.631 82.4165C114.971 82.9265 114.371 83.5265 113.711 84.0565C113.051 84.5865 112.331 85.1165 111.631 85.6365C110.271 86.6365 108.891 87.6365 107.521 88.6365C104.761 90.6365 102.001 92.6365 99.1809 94.6365C97.5809 95.7265 96.0109 96.8765 94.3609 97.8665C94.3489 97.8642 94.3375 97.8594 94.3275 97.8526C94.3174 97.8457 94.3088 97.8368 94.3023 97.8265C94.2957 97.8163 94.2913 97.8047 94.2894 97.7927C94.2874 97.7807 94.2879 97.7684 94.2909 97.7565Z" fill="#30003E"/>
<path d="M57.9408 61.8566C57.9408 61.8566 45.7009 49.7566 37.7309 50.0166L30.9408 56.0166C30.9408 56.0166 28.7209 56.7366 28.0409 55.3266C26.3509 51.8466 26.0409 43.4266 33.3109 37.9966C39.9609 32.9966 50.8108 33.4366 59.8508 35.8666C68.5408 38.1966 76.0608 43.9966 73.3608 49.6566C70.6608 55.3166 57.9408 61.8566 57.9408 61.8566Z" fill="#7E57C2"/>
<path opacity="0.1" d="M58.8208 59.1966C58.8208 59.1966 68.8208 52.1166 69.8708 47.8966C70.9208 43.6766 62.4908 39.6066 57.0308 38.0066C48.5908 35.5166 42.8408 36.0066 38.0308 40.5266C33.2208 45.0466 58.8208 59.1966 58.8208 59.1966Z" fill="black"/>
<path d="M58.4509 58.6167C55.2809 58.4267 49.3609 51.8467 47.3309 46.6167C47.1909 46.2567 48.1709 42.7967 49.1609 38.5367C49.7509 35.9467 50.3509 33.0567 50.7009 30.3767L66.9809 36.6767C65.5744 39.9021 64.5669 43.2871 63.9809 46.7567C63.9463 47.1292 63.9463 47.5042 63.9809 47.8767C63.9859 47.9366 63.9859 47.9968 63.9809 48.0567C64.0409 50.1867 63.4009 58.9167 58.4509 58.6167Z" fill="#D3766A"/>
<path d="M63.9709 47.8667C63.9759 47.9265 63.9759 47.9868 63.9709 48.0466C63.3882 48.0548 62.8059 48.0113 62.2309 47.9167C52.7009 46.4367 51.8909 34.4767 51.8809 30.8167L66.9909 36.6667C65.5854 39.8924 64.578 43.2773 63.9909 46.7467C63.9543 47.1189 63.9476 47.4934 63.9709 47.8667Z" fill="#30003E"/>
<path d="M53.3408 9.97666C50.2108 15.4267 49.4208 33.0767 52.7208 37.8067C57.5108 44.6667 67.2908 47.4567 73.6108 41.2567C79.7308 35.2567 80.3508 12.2567 76.4808 7.73667C70.8208 1.10667 57.9708 1.91666 53.3408 9.97666Z" fill="#D3766A"/>
<path d="M65.6508 23.3567C66.1719 23.2894 66.6892 23.1959 67.2008 23.0767C67.762 23.0546 68.3001 22.8471 68.7308 22.4867C68.8427 22.344 68.9036 22.168 68.9036 21.9867C68.9036 21.8054 68.8427 21.6293 68.7308 21.4867C68.4775 21.2244 68.1572 21.0364 67.8047 20.943C67.4522 20.8495 67.0808 20.8543 66.7308 20.9567C65.9994 21.0466 65.3266 21.4025 64.8408 21.9567C64.7328 22.0934 64.6683 22.2595 64.6557 22.4334C64.6431 22.6072 64.6831 22.7809 64.7704 22.9317C64.8577 23.0826 64.9883 23.2038 65.1453 23.2796C65.3023 23.3553 65.4784 23.3822 65.6508 23.3567Z" fill="#30003E"/>
<path d="M76.9509 24.7565C76.4486 24.6019 75.9546 24.4217 75.4708 24.2165C74.9224 24.1022 74.4269 23.8105 74.0609 23.3865C73.9693 23.2281 73.9333 23.0436 73.9587 22.8624C73.984 22.6812 74.0693 22.5137 74.2009 22.3865C74.4878 22.1812 74.824 22.0555 75.1753 22.0221C75.5265 21.9888 75.8804 22.0489 76.2009 22.1965C76.907 22.4031 77.51 22.867 77.8909 23.4965C77.9724 23.6416 78.0101 23.8072 77.9993 23.9732C77.9886 24.1393 77.9299 24.2987 77.8304 24.4321C77.7309 24.5654 77.5949 24.6671 77.4387 24.7247C77.2826 24.7823 77.1131 24.7933 76.9509 24.7565Z" fill="#30003E"/>
<path d="M64.1709 36.7566C64.4109 37.0766 64.6309 37.4966 65.0509 37.6066C65.4905 37.6604 65.9364 37.623 66.3609 37.4966C66.3609 37.4966 66.4309 37.4966 66.4109 37.5666C66.2061 37.7731 65.9492 37.9202 65.6675 37.9924C65.3857 38.0646 65.0897 38.0591 64.8109 37.9766C64.5815 37.8775 64.3867 37.7123 64.2514 37.5022C64.116 37.2921 64.0462 37.0465 64.0509 36.7966C64.0409 36.6866 64.1409 36.6766 64.1709 36.7566Z" fill="#30003E"/>
<path d="M65.9509 33.3865C66.1779 33.8986 66.5083 34.3584 66.9213 34.7369C67.3343 35.1155 67.8209 35.4047 68.3508 35.5865C68.8122 35.7457 69.2935 35.84 69.7809 35.8665C69.8736 35.8814 69.9681 35.8814 70.0609 35.8665H70.3209C70.3849 35.8645 70.4466 35.8421 70.497 35.8025C70.5474 35.7629 70.5838 35.7083 70.6008 35.6465C70.6008 35.6465 70.6008 35.5665 70.6008 35.5265V35.4165C70.7708 34.5165 70.8909 33.1265 70.8909 33.1265C71.1909 33.3465 72.7609 34.3665 72.8109 33.8865C73.3344 29.7878 73.4383 25.6463 73.1209 21.5265C73.1209 21.4973 73.1093 21.4693 73.0886 21.4487C73.068 21.4281 73.04 21.4165 73.0109 21.4165C72.9817 21.4165 72.9537 21.4281 72.9331 21.4487C72.9124 21.4693 72.9009 21.4973 72.9009 21.5265C72.4009 25.3065 72.5609 29.1565 72.1209 32.9665C71.5627 32.5932 70.9529 32.3034 70.3109 32.1065C70.1809 32.1065 70.1208 34.7965 70.0208 35.1965C69.2679 35.1571 68.5307 34.9659 67.8536 34.6342C67.1765 34.3025 66.5735 33.8373 66.0808 33.2665C66.0008 33.2165 65.8909 33.2865 65.9509 33.3865Z" fill="#30003E"/>
<path d="M69.3108 35.3267C68.7141 35.8965 67.9805 36.3029 67.1808 36.5067C66.7428 36.6109 66.2827 36.5687 65.8708 36.3867C64.9708 35.9967 65.0808 35.1367 65.3708 34.3867C65.5239 34.0076 65.722 33.6484 65.9608 33.3167C66.8331 34.3285 68.0076 35.0332 69.3108 35.3267Z" fill="#30003E"/>
<path d="M67.1808 36.5067C66.7428 36.611 66.2827 36.5688 65.8708 36.3867C64.9708 35.9967 65.0808 35.1367 65.3708 34.3867C65.8693 34.4802 66.3208 34.7415 66.6501 35.1272C66.9794 35.5129 67.1667 35.9998 67.1808 36.5067Z" fill="#FF9ABB"/>
<path d="M67.6108 26.4265C67.6108 26.4265 67.5108 26.4265 67.5108 26.5165C67.4008 27.6965 67.0808 29.0265 65.9708 29.2865V29.3465C67.2908 29.3265 67.7008 27.5565 67.6108 26.4265Z" fill="#30003E"/>
<path d="M66.7209 25.0666C64.8509 24.6966 64.2309 28.4566 65.9609 28.8066C67.6909 29.1566 68.2909 25.3866 66.7209 25.0666Z" fill="#30003E"/>
<path d="M74.2708 27.3267C74.2708 27.3267 74.3508 27.4067 74.3408 27.4467C74.1008 28.6067 74.0208 29.9767 75.0108 30.5467C75.0108 30.5467 75.0108 30.6167 75.0108 30.6067C73.7308 30.2067 73.8208 28.3867 74.2708 27.3267Z" fill="#30003E"/>
<path d="M75.5208 26.2966C77.4108 26.4766 76.9108 30.2966 75.1508 30.0866C73.3908 29.8766 73.9308 26.1466 75.5208 26.2966Z" fill="#30003E"/>
<path d="M52.2008 23.5066C54.7508 24.2066 56.7008 18.5066 56.7008 18.5066C56.7008 18.5066 62.6208 21.9666 64.9508 13.4266C64.9508 13.4266 71.8108 17.8566 77.1108 16.5466C81.6408 15.4266 85.5008 9.2266 83.6208 4.4566C82.5608 1.7766 78.4908 -1.5434 69.8508 3.3866C69.8508 3.3866 62.4808 -5.12339 56.3308 4.83661C56.3308 4.83661 51.5408 4.1966 49.8208 8.5666C47.1008 15.4066 49.9908 22.9066 52.2008 23.5066Z" fill="#30003E"/>
<path d="M65.1009 12.7566C65.1009 12.6666 64.9609 12.6566 64.9609 12.7566C64.8209 14.9466 64.6409 17.3166 62.5509 18.5766C61.5957 19.1947 60.4631 19.4798 59.3292 19.3876C58.1952 19.2953 57.1236 18.8309 56.2809 18.0666C56.1809 17.9766 56.0209 18.1266 56.1309 18.2166C56.9554 18.9626 57.9827 19.4473 59.0828 19.6093C60.1829 19.7713 61.3063 19.6033 62.3109 19.1266C64.8209 17.9766 65.3409 15.2766 65.1009 12.7566Z" fill="#30003E"/>
<path d="M52.7308 22.2366C49.7308 19.5066 47.7308 15.8266 48.5308 11.6166C48.8109 9.58829 49.8379 7.73753 51.4108 6.4266C52.9108 5.2866 54.7208 5.1966 56.4108 4.7166V4.62661C46.4108 4.57661 45.1108 17.6266 52.4108 22.6266C52.6608 22.7566 52.9408 22.4166 52.7308 22.2366Z" fill="#30003E"/>
<path d="M84.8209 4.75664C82.3409 -1.80336 73.6409 -0.0533547 69.5109 3.65665C73.0809 0.986645 79.5109 -0.873358 82.9909 2.85664C87.1409 7.36664 82.7509 15.8566 76.7709 15.2566C76.5909 15.2566 76.5509 15.5366 76.7709 15.5666C82.1109 16.5966 86.6209 9.66664 84.8209 4.75664Z" fill="#30003E"/>
<path d="M53.8208 24.6065C53.8208 24.6065 51.1208 18.3065 48.3308 19.1565C45.5408 20.0065 46.7808 28.5865 49.4908 30.2865C49.82 30.5336 50.1965 30.7103 50.5969 30.8057C50.9973 30.901 51.413 30.9129 51.8182 30.8407C52.2234 30.7685 52.6094 30.6136 52.9522 30.3858C53.295 30.158 53.5873 29.8621 53.8108 29.5165L53.8208 24.6065Z" fill="#D3766A"/>
<path d="M48.7308 21.6067V21.6767C50.6108 22.9467 51.2908 25.0767 51.6408 27.2067C51.5685 26.9725 51.4458 26.757 51.2813 26.5752C51.1168 26.3935 50.9146 26.2499 50.6888 26.1546C50.4629 26.0594 50.219 26.0146 49.974 26.0236C49.7291 26.0326 49.4891 26.0951 49.2708 26.2067C49.2108 26.2067 49.2708 26.3267 49.2708 26.3267C49.6567 26.2868 50.0455 26.3672 50.3839 26.557C50.7223 26.7468 50.9937 27.0366 51.1608 27.3867C51.4326 27.9727 51.6404 28.5862 51.7808 29.2167C51.8408 29.4167 52.1908 29.3967 52.1708 29.2167C52.7608 26.5467 51.4908 22.4567 48.7308 21.6067Z" fill="#30003E"/>
<path d="M58.8208 59.1966C58.8208 59.1966 49.0308 42.4666 36.7308 40.7666L37.7308 50.0166C37.7308 50.0166 45.0708 50.0666 57.9408 61.8566L58.8208 59.1966Z" fill="#7E57C2"/>
<path d="M34.4108 50.1767C36.6507 50.0009 38.9021 50.3113 41.0108 51.0867C43.1142 51.8017 45.1277 52.758 47.0108 53.9367C48.9252 55.0879 50.7594 56.3675 52.5008 57.7667L55.0708 59.9367L57.5408 62.2267L57.8108 62.4767L58.1208 62.3267C60.4277 61.1437 62.6527 59.8074 64.7808 58.3267C65.8495 57.6008 66.8746 56.8128 67.8508 55.9667C68.8342 55.1317 69.735 54.2041 70.5408 53.1967C68.6692 54.9392 66.6099 56.4686 64.4008 57.7567C63.3208 58.4267 62.2008 59.0467 61.0808 59.6367C59.9608 60.2267 58.8208 60.8367 57.6808 61.3667L58.2608 61.4667L55.8208 59.1267C54.9708 58.3667 54.1008 57.6367 53.2208 56.9067C52.3408 56.1767 51.4008 55.5267 50.4608 54.9067C49.5208 54.2867 48.5508 53.6467 47.5308 53.1167C45.5352 51.9796 43.4008 51.1057 41.1808 50.5167C40.6308 50.3567 40.0608 50.2567 39.5008 50.1367C38.9408 50.0167 38.3708 49.9767 37.7908 49.9467C36.6593 49.8288 35.5159 49.9066 34.4108 50.1767Z" fill="#30003E"/>
<path d="M30.9409 55.9866C33.4467 54.2791 35.728 52.2633 37.7309 49.9866C36.4739 50.8283 35.2776 51.7572 34.1509 52.7666C33.0112 53.7682 31.9389 54.8438 30.9409 55.9866Z" fill="#30003E"/>
<path d="M53.8209 56.1965C53.1086 60.0433 52.7306 63.9445 52.6909 67.8565C52.6909 70.5865 53.6909 80.3665 56.7609 79.9965C59.8309 79.6265 54.8309 73.3365 53.9409 68.1765C53.0509 63.0165 54.4209 59.2365 54.5909 56.1765L53.8209 56.1965Z" fill="#7E57C2"/>
<g opacity="0.1">
<path d="M53.8209 56.1965C53.1086 60.0433 52.7306 63.9445 52.6909 67.8565C52.6909 70.5865 53.6909 80.3665 56.7609 79.9965C59.8309 79.6265 54.8309 73.3365 53.9409 68.1765C53.0509 63.0165 54.4209 59.2365 54.5909 56.1765L53.8209 56.1965Z" fill="black"/>
</g>
<path d="M64.5908 56.6965C65.5781 60.4284 66.3461 64.2149 66.8908 68.0365C67.2308 70.4865 67.3308 79.4065 64.5608 79.4065C61.7908 79.4065 65.5608 73.2065 65.7908 68.4665C66.0208 63.7265 64.3808 59.4665 63.8808 56.7365L64.5908 56.6965Z" fill="#7E57C2"/>
<g opacity="0.1">
<path d="M64.5908 56.6965C65.5781 60.4284 66.3461 64.2149 66.8908 68.0365C67.2308 70.4865 67.3308 79.4065 64.5608 79.4065C61.7908 79.4065 65.5608 73.2065 65.7908 68.4665C66.0208 63.7265 64.3808 59.4665 63.8808 56.7365L64.5908 56.6965Z" fill="black"/>
</g>
<path d="M67.3208 62.1467L105.941 57.9867C106.941 57.7767 107.581 58.3467 107.461 59.2467L105.231 75.3467C105.123 75.8359 104.877 76.2841 104.523 76.6384C104.168 76.9928 103.72 77.2385 103.231 77.3467L64.6108 81.5067C63.6108 81.7067 62.9708 81.1467 63.1008 80.2467L65.3208 64.1467C65.429 63.6574 65.6748 63.2093 66.0291 62.8549C66.3834 62.5006 66.8316 62.2549 67.3208 62.1467Z" fill="#500068"/>
<path d="M67.0409 64.0566L105.661 59.8966C106.661 59.6866 107.301 60.2566 107.171 61.1566L104.951 77.2566C104.842 77.7453 104.595 78.1929 104.241 78.547C103.887 78.9012 103.44 79.1473 102.951 79.2566L64.3308 83.4166C63.3308 83.6166 62.6909 83.0566 62.8209 82.1566L65.0409 66.0566C65.1491 65.5673 65.3948 65.1192 65.7491 64.7649C66.1034 64.4105 66.5516 64.1648 67.0409 64.0566Z" fill="#9200CC"/>
<path d="M67.8208 68.6666C68.092 68.6984 68.3664 68.6491 68.6095 68.5249C68.8526 68.4006 69.0534 68.2071 69.1865 67.9687C69.3196 67.7304 69.379 67.4579 69.3572 67.1858C69.3354 66.9137 69.2334 66.6541 69.064 66.44C68.8947 66.2259 68.6656 66.0668 68.4058 65.9828C68.1461 65.8989 67.8672 65.8939 67.6046 65.9685C67.342 66.0431 67.1074 66.1939 66.9305 66.4018C66.7536 66.6097 66.6424 66.8655 66.6108 67.1366C66.5885 67.3167 66.6023 67.4995 66.6512 67.6742C66.7002 67.849 66.7833 68.0123 66.8959 68.1546C67.0085 68.297 67.1482 68.4156 67.307 68.5034C67.4658 68.5913 67.6404 68.6468 67.8208 68.6666Z" fill="#30003E"/>
<path d="M5.82085 128.067C12.9509 128.517 21.3509 122.377 42.9609 104.017C45.9609 101.477 33.7009 75.5567 30.3709 78.1067C26.1709 81.3167 10.5809 94.6767 9.56085 95.7967C0.970852 105.257 0.960855 127.757 5.82085 128.067Z" fill="#D3766A"/>
<path d="M22.8209 86.7565C22.8209 86.7565 28.6509 77.1465 33.2809 73.0465C38.1867 68.9158 44.0194 66.0337 50.2809 64.6465C57.0509 63.1365 74.4709 64.1565 75.0509 69.2265C75.5709 73.8065 57.8309 71.8665 57.8309 71.8665C57.8309 71.8665 76.2509 70.8665 75.8309 76.5065C75.4109 82.1465 55.0209 78.7565 55.0209 78.7565C55.0209 78.7565 74.0209 78.1465 72.6609 83.8965C71.6609 88.2465 52.9409 86.1865 52.9409 86.1865C52.9409 86.1865 69.2409 85.7765 68.4109 90.2865C67.4909 95.2865 50.0909 94.4565 50.0909 94.4565C46.0909 105.586 39.3509 109.126 34.4409 111.176C33.2509 111.646 22.8209 86.7565 22.8209 86.7565Z" fill="#D3766A"/>
<path d="M51.4409 71.8265C53.6009 71.6265 55.7909 71.4165 57.9609 71.4165C60.1309 71.4165 62.3009 71.4765 64.4609 71.6765C67.2999 71.8731 70.1059 72.4034 72.8209 73.2565C67.9009 72.1065 60.1409 72.0065 57.9709 72.0065C55.8009 72.0065 53.6409 71.9065 51.4709 71.9065L51.4409 71.8265Z" fill="#30003E"/>
<path d="M51.3109 79.6567C54.0809 79.5267 56.8209 79.2967 59.6009 79.2867C62.3809 79.2767 64.9809 79.5167 67.7409 79.6967C67.9509 79.6967 67.8709 79.8167 67.6609 79.8167C64.9009 79.7367 62.3409 79.8867 59.5809 79.8167C56.8209 79.7467 54.0609 79.6367 51.3109 79.6967C51.2709 79.7567 51.2709 79.6667 51.3109 79.6567Z" fill="#30003E"/>
<path d="M49.9908 86.3666C54.2333 86.0597 58.4961 86.1937 62.7108 86.7666C62.9208 86.7666 62.8008 86.9166 62.5908 86.9066C58.3608 86.6966 55.0508 86.4966 50.0108 86.5166C49.9308 86.5166 49.9008 86.3766 49.9908 86.3666Z" fill="#30003E"/>
<path d="M22.5308 83.1465L33.9508 115.276C33.9508 115.276 10.8508 131.276 5.24083 127.906C-0.369172 124.536 1.72083 105.346 7.24083 97.6765C9.52083 94.4865 22.5308 83.1465 22.5308 83.1465Z" fill="#7E57C2"/>
<path d="M22.9108 84.2166L22.4708 83.1666H22.5608C20.4208 85.1666 18.2708 87.1666 16.1508 89.2666C14.0308 91.3666 11.9108 93.3466 9.91083 95.4966C8.88903 96.5367 7.94012 97.646 7.07083 98.8166C6.23972 100.008 5.51366 101.269 4.90083 102.587C3.69672 105.262 2.92058 108.11 2.60083 111.027C2.61034 108.045 3.19785 105.094 4.33083 102.337C4.89509 100.946 5.60931 99.6219 6.46083 98.3866C7.32824 97.1708 8.28062 96.0179 9.31083 94.9366C11.3108 92.7766 13.5008 90.7466 15.6908 88.7666C17.8808 86.7866 20.1608 84.8966 22.4908 83.0866L22.5608 83.0266V83.1066L22.9108 84.2166Z" fill="#30003E"/>
<path d="M17.8208 91.6765C18.4908 93.2465 19.0308 94.8765 19.6008 96.4865C20.1708 98.0965 20.7409 99.7066 21.2809 101.327C22.3609 104.567 23.4142 107.817 24.4408 111.077C24.7208 111.967 25.0008 112.857 25.2608 113.757C25.5208 114.657 25.7108 115.757 26.0008 116.667C26.0008 116.682 25.9945 116.698 25.9833 116.709C25.972 116.72 25.9568 116.727 25.9408 116.727C25.9249 116.727 25.9097 116.72 25.8984 116.709C25.8872 116.698 25.8808 116.682 25.8808 116.667C25.6008 115.877 25.2108 115.117 24.8808 114.337C24.5508 113.557 24.2908 112.697 24.0008 111.877C23.4508 110.257 22.9008 108.647 22.3608 107.027C21.2708 103.787 20.2009 100.537 19.2309 97.2665C18.6709 95.4165 18.0608 93.5665 17.6208 91.6865C17.6408 91.6165 17.8208 91.5765 17.8208 91.6765Z" fill="#30003E"/>
<path d="M32.9309 112.417C33.3709 113.417 33.7808 114.417 34.1908 115.337L34.0609 115.436C29.0609 119.006 23.8409 122.496 18.0609 124.766C21.9209 122.546 26.0608 119.837 29.8608 117.507L33.8608 115.107L33.7809 115.337C33.5009 114.337 33.2109 113.397 32.9509 112.417H32.9309Z" fill="#30003E"/>
</svg>
