<svg width="116" height="116" viewBox="0 0 116 116" fill="none" xmlns="http://www.w3.org/2000/svg">
<path d="M59.0878 61.9115C60.7513 66.2755 66.1383 67.8415 69.7042 66.1757C71.3282 65.4147 73.495 63.6423 73.3628 61.0485C79.121 67.454 93.9621 60.5845 89.1226 51.163C96.7113 51.8172 101.548 38.6953 92.0806 35.7072C100.576 31.1762 96.1684 16.66 85.2435 19.1772C86.4267 15.9292 84.0278 13.2264 81.4503 12.2589C78.5271 11.1592 74.6713 11.6696 73.6435 13.6509C71.059 5.65155 60.0831 4.60291 55.3898 11.5768C51.9237 7.54931 43.8826 8.02491 43.6158 14.152C37.9573 9.32411 25.0558 14.9942 28.726 23.613C19.9796 22.6084 18.8846 34.2966 25.7332 36.424C22.0398 37.6768 20.1397 42.804 20.8473 46.5671C21.5595 50.3696 25.1741 53.1675 29.3362 52.8311C27.6565 58.7239 35.273 62.988 39.4189 58.478C40.0035 67.6744 54.7054 70.9178 59.0878 61.9115Z" fill="#8400BC"/>
<path opacity="0.8" d="M59.0878 61.9115C60.7513 66.2755 66.1383 67.8415 69.7042 66.1757C71.3282 65.4147 73.495 63.6423 73.3628 61.0485C79.121 67.454 93.9621 60.5845 89.1226 51.163C96.7113 51.8172 101.548 38.6953 92.0806 35.7072C100.576 31.1762 96.1684 16.66 85.2435 19.1772C86.4267 15.9292 84.0278 13.2264 81.4503 12.2589C78.5271 11.1592 74.6713 11.6696 73.6435 13.6509C71.059 5.65155 60.0831 4.60291 55.3898 11.5768C51.9237 7.54931 43.8826 8.02491 43.6158 14.152C37.9573 9.32411 25.0558 14.9942 28.726 23.613C19.9796 22.6084 18.8846 34.2966 25.7332 36.424C22.0398 37.6768 20.1397 42.804 20.8473 46.5671C21.5595 50.3696 25.1741 53.1675 29.3362 52.8311C27.6565 58.7239 35.273 62.988 39.4189 58.478C40.0035 67.6744 54.7054 70.9178 59.0878 61.9115Z" fill="#8400BC"/>
<path d="M85.2967 64.8857C84.2829 65.0133 83.1507 66.2337 83.1275 67.2057C80.8214 65.7581 78.9329 68.4817 79.9816 70.6417C76.78 72.0337 78.9353 76.5484 81.9907 74.8896C82.8213 77.5204 86.7861 77.6016 87.7234 75.0056C90.0318 75.6528 92.7369 73.5138 91.1199 71.2379C95.1033 69.3448 92.0479 64.8208 88.3359 66.5097C88.0967 65.9282 87.6626 65.4481 87.108 65.1518C86.5534 64.8555 85.913 64.7614 85.2967 64.8857Z" fill="#8400BC"/>
<path d="M80.7358 79.3811L80.7033 79.4623C80.5082 79.3446 80.283 79.286 80.0553 79.2939C79.8275 79.3017 79.6069 79.3755 79.4203 79.5064C79.0329 79.794 78.9169 80.4344 79.2788 80.7638C79.1005 80.8395 78.9455 80.9613 78.8297 81.1166C78.714 81.2719 78.6415 81.4552 78.6199 81.6477C78.5918 81.8324 78.6294 82.021 78.726 82.1808C78.8227 82.3407 78.9723 82.4615 79.1489 82.5224C79.288 82.5819 79.4381 82.611 79.5894 82.6078C79.7406 82.6046 79.8894 82.5691 80.0259 82.5038C80.1641 82.6954 80.3455 82.8518 80.5553 82.9603C80.7652 83.0688 80.9977 83.1264 81.2339 83.1284C81.4702 83.1305 81.7036 83.0769 81.9153 82.972C82.127 82.8671 82.3111 82.7139 82.4526 82.5247C82.5725 82.5914 82.7063 82.6297 82.8434 82.6366C82.9805 82.6434 83.1174 82.6186 83.2434 82.5641C83.3695 82.5096 83.4813 82.4269 83.5702 82.3223C83.6592 82.2177 83.7229 82.0941 83.7564 81.9609C83.7924 81.8191 83.7944 81.6708 83.7621 81.528C83.7299 81.3853 83.6643 81.2522 83.5708 81.1396C83.731 81.073 83.8613 80.9502 83.9373 80.7943C84.0133 80.6384 84.0299 80.4601 83.9838 80.2928C83.9153 80.0559 83.7627 79.8521 83.5546 79.7198C83.3589 79.587 83.1199 79.5339 82.8864 79.5713C82.8702 79.3127 82.7575 79.0695 82.5707 78.8899C82.3838 78.7104 82.1363 78.6074 81.8772 78.6016C81.6323 78.6084 81.3944 78.6855 81.192 78.8237C80.9897 78.962 80.8313 79.1554 80.7358 79.3811Z" fill="#8400BC"/>
<path d="M75.1006 84.107C75.0769 84.2666 75.1063 84.4296 75.1841 84.571C75.0696 84.5701 74.9586 84.6104 74.8714 84.6845C74.7841 84.7586 74.7263 84.8615 74.7085 84.9746C74.7092 85.0421 74.7263 85.1083 74.7582 85.1677C74.7901 85.2271 74.836 85.2778 74.8918 85.3157C75.0044 85.3901 75.1351 85.4326 75.2699 85.4386C75.2989 85.4379 75.3276 85.4443 75.3535 85.4572C75.3802 85.4824 75.3995 85.5145 75.4091 85.55C75.4514 85.6591 75.5262 85.7525 75.6234 85.8177C75.7206 85.8828 75.8354 85.9165 75.9524 85.9142C76.0693 85.912 76.1828 85.8738 76.2773 85.8049C76.3719 85.736 76.443 85.6398 76.481 85.5291C76.6314 85.5941 76.7971 85.615 76.9589 85.5894C77.0732 85.5743 77.1793 85.522 77.261 85.4407C77.3428 85.3594 77.3955 85.2536 77.4113 85.1394C77.4221 85.0786 77.4191 85.0163 77.4027 84.9569C77.3862 84.8974 77.3566 84.8424 77.3161 84.7959C77.2756 84.7494 77.2252 84.7126 77.1686 84.6881C77.112 84.6636 77.0507 84.6521 76.9891 84.6545C77.059 84.5973 77.1108 84.521 77.138 84.4349C77.1652 84.3487 77.1666 84.2566 77.1422 84.1696C77.1141 84.0835 77.0643 84.0061 76.9977 83.9448C76.9311 83.8834 76.8498 83.8402 76.7617 83.8193C76.6736 83.8002 76.5824 83.8002 76.4944 83.8194C76.4063 83.8387 76.3234 83.8766 76.2513 83.9306C76.1904 83.8002 76.086 83.6951 75.956 83.6333C75.8261 83.5715 75.6786 83.5568 75.5391 83.5919C75.4216 83.6217 75.3163 83.6873 75.2378 83.7796C75.1592 83.8719 75.1113 83.9863 75.1006 84.107Z" fill="#8400BC"/>
<path opacity="0.8" d="M85.2967 64.8857C84.2829 65.0133 83.1507 66.2337 83.1275 67.2057C80.8214 65.7581 78.9329 68.4817 79.9816 70.6417C76.78 72.0337 78.9353 76.5484 81.9907 74.8896C82.8213 77.5204 86.7861 77.6016 87.7234 75.0056C90.0318 75.6528 92.7369 73.5138 91.1199 71.2379C95.1033 69.3448 92.0479 64.8208 88.3359 66.5097C88.0967 65.9282 87.6626 65.4481 87.108 65.1518C86.5534 64.8555 85.913 64.7614 85.2967 64.8857Z" fill="#8400BC"/>
<path opacity="0.8" d="M80.7358 79.3811L80.7033 79.4623C80.5082 79.3446 80.283 79.286 80.0553 79.2939C79.8275 79.3017 79.6069 79.3755 79.4203 79.5064C79.0329 79.794 78.9169 80.4344 79.2788 80.7638C79.1005 80.8395 78.9455 80.9613 78.8297 81.1166C78.714 81.2719 78.6415 81.4552 78.6199 81.6477C78.5918 81.8324 78.6294 82.021 78.726 82.1808C78.8227 82.3407 78.9723 82.4615 79.1489 82.5224C79.288 82.5819 79.4381 82.611 79.5894 82.6078C79.7406 82.6046 79.8894 82.5691 80.0259 82.5038C80.1641 82.6954 80.3455 82.8518 80.5553 82.9603C80.7652 83.0688 80.9977 83.1264 81.2339 83.1284C81.4702 83.1305 81.7036 83.0769 81.9153 82.972C82.127 82.8671 82.3111 82.7139 82.4526 82.5247C82.5725 82.5914 82.7063 82.6297 82.8434 82.6366C82.9805 82.6434 83.1174 82.6186 83.2434 82.5641C83.3695 82.5096 83.4813 82.4269 83.5702 82.3223C83.6592 82.2177 83.7229 82.0941 83.7564 81.9609C83.7924 81.8191 83.7944 81.6708 83.7621 81.528C83.7299 81.3853 83.6643 81.2522 83.5708 81.1396C83.731 81.073 83.8613 80.9502 83.9373 80.7943C84.0133 80.6384 84.0299 80.4601 83.9838 80.2928C83.9153 80.0559 83.7627 79.8521 83.5546 79.7198C83.3589 79.587 83.1199 79.5339 82.8864 79.5713C82.8702 79.3127 82.7575 79.0695 82.5707 78.8899C82.3838 78.7104 82.1363 78.6074 81.8772 78.6016C81.6323 78.6084 81.3944 78.6855 81.192 78.8237C80.9897 78.962 80.8313 79.1554 80.7358 79.3811Z" fill="#8400BC"/>
<path opacity="0.8" d="M75.1006 84.107C75.0769 84.2666 75.1063 84.4296 75.1841 84.571C75.0696 84.5701 74.9586 84.6104 74.8714 84.6845C74.7841 84.7586 74.7263 84.8615 74.7085 84.9746C74.7092 85.0421 74.7263 85.1083 74.7582 85.1677C74.7901 85.2271 74.836 85.2778 74.8918 85.3157C75.0044 85.3901 75.1351 85.4326 75.2699 85.4386C75.2989 85.4379 75.3276 85.4443 75.3535 85.4572C75.3802 85.4824 75.3995 85.5145 75.4091 85.55C75.4514 85.6591 75.5262 85.7525 75.6234 85.8177C75.7206 85.8828 75.8354 85.9165 75.9524 85.9142C76.0693 85.912 76.1828 85.8738 76.2773 85.8049C76.3719 85.736 76.443 85.6398 76.481 85.5291C76.6314 85.5941 76.7971 85.615 76.9589 85.5894C77.0732 85.5743 77.1793 85.522 77.261 85.4407C77.3428 85.3594 77.3955 85.2536 77.4113 85.1394C77.4221 85.0786 77.4191 85.0163 77.4027 84.9569C77.3862 84.8974 77.3566 84.8424 77.3161 84.7959C77.2756 84.7494 77.2252 84.7126 77.1686 84.6881C77.112 84.6636 77.0507 84.6521 76.9891 84.6545C77.059 84.5973 77.1108 84.521 77.138 84.4349C77.1652 84.3487 77.1666 84.2566 77.1422 84.1696C77.1141 84.0835 77.0643 84.0061 76.9977 83.9448C76.9311 83.8834 76.8498 83.8402 76.7617 83.8193C76.6736 83.8002 76.5824 83.8002 76.4944 83.8194C76.4063 83.8387 76.3234 83.8766 76.2513 83.9306C76.1904 83.8002 76.086 83.6951 75.956 83.6333C75.8261 83.5715 75.6786 83.5568 75.5391 83.5919C75.4216 83.6217 75.3163 83.6873 75.2378 83.7796C75.1592 83.8719 75.1113 83.9863 75.1006 84.107Z" fill="#8400BC"/>
</svg>
