<svg width="484" height="463" viewBox="0 0 484 463" fill="none" xmlns="http://www.w3.org/2000/svg">
<path d="M70.8375 217.134C-23.6125 273.274 -23.6125 364.356 70.8375 420.445C165.287 476.534 318.427 476.585 412.837 420.445C507.247 364.305 507.287 273.274 412.837 217.134C318.387 160.993 165.267 160.993 70.8375 217.134Z" fill="#FAFAFA"/>
<path d="M99.8376 392.967C99.7439 392.901 99.6657 392.813 99.6086 392.712C99.5515 392.61 99.517 392.497 99.5076 392.38C96.5876 359.693 69.5776 336.044 58.0476 325.945C56.1776 324.318 54.7076 323.021 53.7576 322.074C49.5376 317.822 47.6976 312.242 48.8576 307.135C49.8576 302.543 53.3276 298.961 58.2476 297.313C70.2476 293.267 89.1876 308.638 101.248 332.317C118.168 365.479 110.248 389.971 110.148 390.177C110.104 390.303 110.031 390.415 109.935 390.505C109.839 390.595 109.723 390.659 109.598 390.692L100.468 393.111C100.365 393.132 100.26 393.132 100.158 393.111C100.041 393.091 99.931 393.042 99.8376 392.967ZM99.8376 333.059C88.1176 310.08 70.0476 295.059 58.7076 298.847C54.2576 300.34 51.2876 303.419 50.3676 307.506C49.3676 312.056 51.0076 317.06 54.8376 320.89C55.7376 321.806 57.1976 323.083 59.0376 324.689C70.6076 334.819 97.5476 358.416 100.958 391.258L108.768 389.199C109.688 385.935 115.228 363.224 99.8376 333.059Z" fill="#BA68C8"/>
<path d="M105.318 391.732H105.428C105.636 391.734 105.836 391.653 105.986 391.504C106.136 391.356 106.223 391.153 106.228 390.939C106.898 352.764 81.2278 315.979 63.9678 308.412C63.7805 308.335 63.5717 308.337 63.3853 308.416C63.1989 308.494 63.0493 308.644 62.9678 308.834C62.8963 309.027 62.8989 309.241 62.9751 309.432C63.0512 309.623 63.1952 309.777 63.3778 309.863C80.4578 317.348 105.318 354.658 104.678 390.867C104.664 391.066 104.722 391.264 104.84 391.423C104.957 391.582 105.127 391.692 105.318 391.732Z" fill="#BA68C8"/>
<path d="M109.258 390.692C109.373 390.722 109.493 390.722 109.608 390.692L115.798 388.767C115.919 388.729 116.03 388.662 116.121 388.57C116.212 388.479 116.279 388.366 116.318 388.242C116.428 387.871 127.318 351.405 119.318 302.276C115.228 277.248 101.058 252.858 85.6278 244.231C78.2078 240.113 70.9178 239.577 63.9578 242.697C60.0178 244.457 57.5578 247.052 56.6278 250.418C54.0778 259.684 63.4478 273.552 73.3778 288.202C80.3178 298.446 87.4978 309.05 90.7678 318.409C90.84 318.608 90.9851 318.77 91.172 318.86C91.3589 318.951 91.5728 318.962 91.7678 318.892C91.9616 318.818 92.1198 318.669 92.2093 318.477C92.2988 318.285 92.3126 318.065 92.2478 317.863C88.8978 308.309 81.6578 297.622 74.6578 287.286C64.9578 272.955 55.7878 259.427 58.1378 250.871C58.9378 247.958 61.0378 245.775 64.5778 244.19C71.0678 241.276 77.8978 241.77 84.8678 245.662C99.8678 254.053 113.738 277.979 117.758 302.554C125.278 348.522 116.108 383.238 114.938 387.356L109.158 389.158C109.057 389.188 108.963 389.239 108.881 389.308C108.8 389.377 108.733 389.462 108.684 389.558C108.636 389.654 108.606 389.76 108.599 389.868C108.591 389.976 108.604 390.085 108.638 390.187C108.689 390.32 108.773 390.437 108.882 390.525C108.991 390.614 109.121 390.671 109.258 390.692Z" fill="#BA68C8"/>
<path d="M110.838 367.465C110.941 367.475 111.045 367.464 111.144 367.432C111.243 367.4 111.335 367.348 111.414 367.279C111.493 367.21 111.558 367.125 111.605 367.03C111.652 366.935 111.68 366.831 111.688 366.724C116.348 307.67 84.3577 260.394 74.8877 252.271C74.7247 252.149 74.5223 252.095 74.3222 252.122C74.122 252.148 73.9393 252.252 73.8113 252.413C73.6834 252.574 73.6201 252.779 73.6343 252.986C73.6485 253.193 73.7392 253.387 73.8877 253.527C83.2177 261.517 114.738 308.185 110.128 366.59C110.111 366.803 110.176 367.014 110.309 367.177C110.442 367.341 110.632 367.445 110.838 367.465Z" fill="#BA68C8"/>
<path d="M373.513 286.009C355.653 275.395 328.912 273.284 307.512 279.667C260.322 265.542 201.302 270.165 161.902 293.587C128.222 313.601 117.622 342.15 130.102 367.528C120.102 368.917 110.553 371.934 102.733 376.577C80.4225 389.838 80.4225 411.344 102.733 424.605C125.042 437.865 161.212 437.865 183.522 424.605C188.307 421.905 192.489 418.205 195.802 413.743C242.732 427.333 300.912 422.556 339.902 399.381C370.162 381.395 381.783 356.522 374.773 333.244C395.803 319.932 395.383 299.012 373.513 286.009Z" fill="#E0E0E0"/>
<path d="M384.618 306.61C372.058 273.552 354.278 242.161 341.928 226.08C323.388 205.881 285.638 209.134 267.658 215.733L284.728 308.967C284.728 323.618 305.778 335.498 331.728 335.498C358.398 335.251 385.948 322.876 384.618 306.61Z" fill="#30003E"/>
<path d="M364.488 341.82C373.798 299.938 346.488 269.135 337.538 258.788C311.538 228.736 296.068 206.282 256.988 218.255C223.318 227.923 191.988 242.851 168.858 254.598C165.253 256.456 161.842 258.688 158.678 261.259C153.088 265.696 149.428 274.437 148.408 280.686C145.158 300.669 143.408 318.192 142.408 333.028C142.206 334.663 142.1 336.31 142.088 337.959C139.908 357.469 144.548 369.72 167.938 383.629C214.708 411.426 284.318 411.601 329.238 387.325C353.388 374.26 364.348 352.908 364.488 341.82Z" fill="#4C0060"/>
<path d="M270.068 220.582L264.838 216.31C262.328 216.814 259.738 217.463 257.018 218.297C233.228 225.122 210.638 234.573 191.258 243.685C205.458 259.025 242.688 281.613 275.678 267.982C312.738 252.621 270.068 220.582 270.068 220.582Z" fill="#30003E"/>
<path d="M168.838 254.598C134.048 272.203 124.348 279.1 117.928 316.061C113.668 340.574 103.928 389.209 103.148 394.974C102.368 400.739 108.038 409.758 116.298 414.669C132.808 424.48 167.838 423.832 185.038 412.816C193.038 407.72 196.368 401.182 197.418 393.893L204.418 348.357C204.418 348.357 206.408 275.652 168.838 254.598Z" fill="#30003E"/>
<path d="M205.108 28.0916C204.778 26.104 204.255 24.1554 203.548 22.2747C197.078 4.92712 178.008 2.26064 162.128 4.13438C146.578 5.97724 132.368 14.9753 127.018 30.6448C121.348 47.2614 123.448 68.305 138.608 78.8989C153.028 88.978 169.898 84.2318 182.888 74.0704C190.638 67.9961 197.548 60.5217 201.708 51.4207C205.127 44.1837 206.314 36.0429 205.108 28.0916Z" fill="#4C0060"/>
<path d="M185.738 68.1094C180.298 70.4979 174.738 72.454 168.798 72.5982C163.043 72.7792 157.34 71.4432 152.228 68.7168C146.498 65.6282 142.168 60.4806 138.608 54.9932C134.657 49.207 132.097 42.5383 131.138 35.5351C130.704 31.8605 130.941 28.1347 131.838 24.55C132.468 22.0791 133.208 19.2067 135.388 17.7448C136.218 17.2132 137.162 16.8987 138.138 16.8285C141.036 16.7895 143.913 17.3351 146.608 18.4346C149.555 19.5372 152.317 21.1035 154.798 23.0778C160.138 27.2679 164.098 32.9818 167.378 38.9325C167.668 39.4679 167.968 38.7472 167.788 38.3869C164.608 31.8596 160.528 25.5692 154.908 20.9981C152.294 18.8439 149.364 17.1307 146.228 15.9225C143.118 14.7591 139.228 13.4208 135.928 14.7283C132.868 15.9431 131.028 19.7935 130.078 22.7895C129.033 26.1693 128.613 29.7206 128.838 33.2598C129.429 40.4808 131.718 47.4453 135.508 53.5519C139.098 59.6055 143.608 65.412 149.508 69.2419C154.783 72.6116 160.823 74.5 167.028 74.719C173.708 75.0073 181.168 73.6895 186.538 69.3551C186.908 68.9845 186.288 67.8623 185.738 68.1094Z" fill="#30003E"/>
<path d="M154.408 80.8654C152.911 81.4624 151.355 81.8871 149.768 82.1317C148.19 82.2779 146.6 82.2122 145.038 81.9361C141.262 81.2626 137.643 79.8657 134.368 77.8179C128.638 74.2352 124.288 68.5522 123.498 61.5617C123.428 60.9748 122.868 61.0263 122.878 61.5617C123.008 69.3758 128.018 76.0369 134.278 79.9902C136.895 81.6505 139.726 82.9225 142.688 83.7686C134.984 84.3304 127.353 81.9232 121.278 77.0149C123.458 82.2964 128.068 88.1441 133.508 89.3693C140.168 90.9033 146.788 88.5662 149.318 84.7879C149.318 84.7879 149.318 84.7261 149.318 84.6952C151.595 84.8084 153.857 84.2513 155.838 83.0891C156.948 82.3273 155.478 80.5153 154.408 80.8654Z" fill="#4C0060"/>
<path d="M206.988 23.6954C206.708 21.0494 206.058 18.459 205.058 16.0048C203.311 11.94 200.491 8.462 196.918 5.96689C189.018 0.325061 179.198 -0.673583 169.918 0.819235C163.524 1.87336 157.303 3.84161 151.438 6.66697C151.168 6.80081 151.308 7.54207 151.638 7.4803C156.878 6.38899 161.948 4.57702 167.198 3.48572C172.114 2.33602 177.173 1.96799 182.198 2.39442C189.858 3.24893 197.958 6.95523 202.008 14.0178C203.302 16.341 204.186 18.8821 204.618 21.5231C204.862 22.9281 205.012 24.3488 205.068 25.775C205.068 26.4648 205.068 27.1443 205.068 27.8341C205.068 29.0078 205.538 29.9858 205.598 31.1595C205.598 31.5507 206.318 32.4155 206.458 31.6537C206.598 30.8918 206.988 30.2535 207.148 29.5225C207.246 28.8722 207.27 28.2122 207.218 27.5561C207.208 26.2898 207.128 24.9926 206.988 23.6954Z" fill="#4C0060"/>
<path d="M186.188 38.5C185.475 42.2126 184.218 45.7918 182.458 49.1145C182.178 49.7013 181.698 48.9189 181.828 48.5174C182.86 44.9867 183.566 41.364 183.938 37.697C184.351 34.276 184.317 30.8135 183.838 27.4017C182.458 17.2711 176.238 7.13024 166.558 3.7225C166.018 3.52689 165.468 3.35187 164.918 3.20773C159.973 1.94753 154.756 2.49335 150.158 4.75203C147.813 5.88321 145.714 7.49056 143.988 9.47757C143.688 9.83791 143.388 10.1982 143.128 10.5792C141.598 11.5226 140.135 12.5753 138.748 13.7295C139.401 12.1347 140.212 10.6133 141.168 9.18931C143.021 6.47326 145.484 4.25864 148.348 2.73415C153.412 0.0703692 159.224 -0.676662 164.768 0.623615C167.32 1.22768 169.766 2.23482 172.018 3.60925C174.952 5.40069 177.552 7.71549 179.698 10.4453C183.699 15.4745 186.138 21.6266 186.698 28.1018C186.962 31.576 186.791 35.0709 186.188 38.5Z" fill="#30003E"/>
<path d="M129.648 24.6738C125.078 28.4728 122.228 34.475 120.528 40.1168C118.569 46.5341 117.889 53.2923 118.528 59.9867C119.178 66.3389 121.408 72.6705 125.718 77.3858C130.439 82.4409 136.908 85.3715 143.718 85.5397C146.81 85.6134 149.893 85.1896 152.858 84.2836C153.618 84.0571 154.378 83.7894 155.128 83.4909C158.858 82.0701 162.808 79.9905 165.478 76.871C165.948 76.3356 165.078 75.1208 164.478 75.512C161.478 77.3858 158.638 79.5375 155.358 80.9788C152.88 82.089 150.265 82.8442 147.588 83.2232C146.838 83.3262 146.088 83.4085 145.348 83.4394C139.008 83.7483 132.348 81.6583 127.818 76.9122C119.628 68.2641 119.698 54.0978 122.488 43.1539C123.33 39.6399 124.593 36.2473 126.248 33.0542L129.648 24.6738Z" fill="#30003E"/>
<path opacity="0.2" d="M205.108 28.0915C204.777 26.1039 204.255 24.1553 203.548 22.2746C203.224 21.3848 202.85 20.5151 202.428 19.6699H201.948C198.155 20.0015 194.464 21.1037 191.088 22.9129C185.088 26.0015 180.138 29.574 176.608 35.432C172.802 41.3556 170.249 48.0382 169.118 55.0446C162.998 57.6699 155.928 60.6967 151.628 65.8855C147.74 70.4677 145.394 76.2199 144.938 82.2859C157.778 87.4336 171.758 82.7389 182.938 74.0497C183.838 73.3496 184.718 72.629 185.588 71.8877C188.008 69.0668 190.398 66.215 192.828 63.4353C194.828 61.0982 196.968 58.8024 199.058 56.4962C200.057 54.8694 200.959 53.1813 201.758 51.4412C205.164 44.1927 206.333 36.0443 205.108 28.0915Z" fill="black"/>
<path d="M340.708 146.364C339.968 141.824 339.208 138.005 336.078 134.484C335.199 133.407 334.09 132.554 332.838 131.992C331.823 131.651 330.765 131.467 329.698 131.446C326.766 131.246 323.821 131.381 320.918 131.848C321.344 134.159 322.316 136.326 323.748 138.159C326.266 141.006 328.402 144.188 330.098 147.62C331.343 150.048 332.252 152.644 332.798 155.332C333.299 158.242 333.447 161.206 333.238 164.155C333.238 164.566 333.858 165.339 334.058 164.649C334.839 161.806 335.107 158.84 334.848 155.898C334.675 152.697 334.045 149.541 332.978 146.529C331.467 142.6 329.104 139.078 326.068 136.234L327.018 136.337C329.931 136.7 332.71 137.808 335.101 139.559C337.492 141.31 339.42 143.65 340.708 146.364Z" fill="#30003E"/>
<path d="M200.138 208.434C199.888 201.351 189.898 197.851 186.068 187.628C180.692 182.497 175.941 176.713 171.918 170.404C166.208 161.713 161.588 152.315 158.168 142.431C141.988 127.699 137.008 73.5762 174.168 60.182C188.278 16.3549 238.378 15.9122 264.988 20.6481C284.678 24.169 296.478 33.6613 300.838 43.1124C305.918 49.1352 309.388 53.5004 312.518 58.7921C337.278 72.279 330.418 106.624 317.028 119.246L200.138 208.434Z" fill="#4C0060"/>
<path d="M286.278 28.4308C281.764 24.4171 276.656 21.171 271.148 18.815C265.711 16.3788 260.001 14.6496 254.148 13.6673C242.207 11.6847 229.971 12.9009 218.618 17.1986C215.417 18.4129 212.308 19.872 209.318 21.5638C207.812 22.408 206.335 23.3106 204.888 24.2715C204.293 24.6642 203.718 25.0904 203.168 25.5481C202.497 26.1377 201.975 26.8868 201.648 27.7307C201.498 28.0499 201.648 28.7602 202.118 28.6985C204.978 28.0087 207.238 26.1143 209.748 24.5803C212.275 23.1166 214.891 21.8202 217.578 20.699C222.696 18.4952 228.045 16.9094 233.518 15.9735C245.163 14.046 257.095 15.2446 268.158 19.4533C270.993 20.5226 273.762 21.7707 276.448 23.1905C279.798 24.9613 282.888 27.1027 286.058 29.1721C286.418 29.3677 286.478 28.6161 286.278 28.4308Z" fill="#4C0060"/>
<path d="M341.298 75.9236C336.938 68.1713 329.348 63.0442 321.228 60.2851C319.062 59.537 316.841 58.9656 314.588 58.5761C313.315 58.3382 312.029 58.1766 310.738 58.0922C310.02 58.054 309.3 58.0885 308.588 58.1951C307.675 58.3777 306.802 58.7263 306.008 59.2247C304.798 59.863 306.508 61.3661 307.358 61.2837C309.286 61.3106 311.21 61.4654 313.118 61.747C314.888 62.0662 316.658 62.4574 318.398 62.9516C321.966 63.9609 325.379 65.4787 328.538 67.4609C334.727 71.2269 339.447 77.0954 341.888 84.0569C343.56 88.802 343.906 93.9344 342.888 98.8719C342.888 99.0778 343.048 99.3454 343.168 99.0675C346.438 91.624 345.198 82.8627 341.298 75.9236Z" fill="#4C0060"/>
<path d="M197.748 196.213C197.824 195.809 197.746 195.39 197.53 195.043C197.314 194.696 196.977 194.448 196.588 194.35C193.798 193.475 190.318 194.7 187.828 196.007C185.348 197.31 183.156 199.126 181.388 201.34C177.758 205.953 176.338 212.253 179.118 217.71C179.238 217.957 179.378 217.566 179.338 217.432C177.958 212.48 180.988 206.9 184.178 203.338C185.659 201.661 187.416 200.267 189.368 199.22C190.01 198.886 190.68 198.611 191.368 198.396L191.138 198.684C188.12 202.482 186.351 207.169 186.088 212.068C185.848 218.832 189.138 225.761 194.798 229.199C191.996 219.65 192.766 209.367 196.958 200.373C197.62 199.099 197.896 197.65 197.748 196.213Z" fill="#4C0060"/>
<path d="M231.758 30.7066C230.008 30.3153 228.248 30.0168 226.478 29.78C222.83 29.3091 219.149 29.1713 215.478 29.3682C208.078 29.7594 200.398 31.314 193.848 34.9894C193.698 35.0718 193.698 35.4939 193.908 35.4321C201.018 33.126 208.128 31.1699 215.608 30.7992C219.417 30.6019 223.235 30.7501 227.018 31.2419C228.771 31.4684 230.518 31.7704 232.258 32.1479C233.958 32.5185 235.688 33.1774 237.418 33.3936C237.928 33.4554 237.748 32.5391 237.418 32.3641C235.6 31.5882 233.701 31.032 231.758 30.7066Z" fill="#30003E"/>
<path d="M203.608 47.5393C206.608 48.0026 209.418 48.9395 212.348 49.5984C213.078 49.7528 212.818 48.5689 212.348 48.3938C206.948 45.6656 200.198 45.0273 194.258 45.2229C193.598 45.2229 192.928 45.2847 192.258 45.3361C194.048 44.8728 195.848 44.4713 197.668 44.1831C202.618 43.4212 207.508 43.7507 212.468 43.4521C212.748 43.4521 212.698 42.8241 212.468 42.7623C207.578 41.321 202.208 41.7328 197.228 42.5152C194.86 42.8939 192.521 43.4444 190.228 44.1625C188.28 44.629 186.413 45.3961 184.688 46.4377C182.788 46.8701 180.518 47.4673 179.108 48.8674C178.858 49.3101 178.618 49.7631 178.378 50.2161C178.438 50.525 178.628 50.8132 178.898 50.6897C180.152 49.9939 181.448 49.3818 182.778 48.8571C184.018 48.4659 185.298 48.1673 186.568 47.8997C192.17 46.7537 197.923 46.6247 203.568 47.5187L203.608 47.5393Z" fill="#30003E"/>
<path d="M163.198 68.3044C163.778 67.069 164.538 65.9262 165.198 64.7217C163.999 65.5273 162.844 66.4003 161.738 67.3367C161.039 68.9254 160.461 70.5672 160.008 72.2475C159.032 75.8028 158.693 79.5112 159.008 83.1914C159.734 91.0047 162.984 98.3416 168.238 104.029C168.598 104.42 168.708 103.638 168.528 103.381C164.348 97.4916 161.108 90.6452 160.528 83.2635C160.267 79.8728 160.568 76.461 161.418 73.1741C161.853 71.4944 162.45 69.8632 163.198 68.3044Z" fill="#30003E"/>
<path d="M232.948 73.6687C231.985 73.7669 231.033 73.9634 230.108 74.2556C229.151 74.4693 228.183 74.6274 227.208 74.7292C225.364 74.9166 223.505 74.8508 221.678 74.5335C219.953 74.2301 218.273 73.7008 216.678 72.9584C215.878 72.5877 215.118 72.1656 214.348 71.7435C213.348 71.2185 212.488 70.5596 211.518 70.0757C210.928 69.7771 210.618 70.5801 210.858 71.0228C211.858 72.8554 214.018 74.235 215.798 75.141C217.763 76.0683 219.848 76.6961 221.988 77.0044C223.892 77.2824 225.824 77.2824 227.728 77.0044C228.462 76.8911 229.189 76.7399 229.908 76.5514C226.508 78.8679 222.298 79.1973 218.148 78.6105C215.887 78.3086 213.67 77.7208 211.548 76.8603C209.019 75.7154 206.552 74.43 204.158 73.0098C203.628 72.7216 203.768 73.7099 203.948 73.9158C207.498 77.9722 213.348 79.9489 218.468 80.6078C223.138 81.2152 229.968 81.0093 231.978 75.841C232.565 75.6567 233.087 75.2987 233.478 74.8115C233.531 74.7023 233.559 74.582 233.56 74.4599C233.561 74.3378 233.535 74.2171 233.484 74.1069C233.433 73.9967 233.358 73.9 233.265 73.8241C233.172 73.7481 233.064 73.695 232.948 73.6687Z" fill="#30003E"/>
<path d="M265.968 77.8591C264.018 71.8776 259.708 66.4417 255.278 62.1897C252.943 59.9481 250.389 57.9609 247.658 56.2596C244.974 54.401 242.011 53.0097 238.888 52.1415C238.178 51.9871 238.418 53.1092 238.888 53.3357C241.762 54.6258 244.569 56.0691 247.298 57.6598C249.839 59.2641 252.232 61.1044 254.448 63.1575C252.054 61.4547 249.481 60.0353 246.778 58.9261C240.94 56.4886 234.77 55.002 228.488 54.5197C228.008 54.5197 228.178 55.3742 228.548 55.4566C234.548 56.9391 240.608 57.9069 246.368 60.2748C251.325 62.2617 255.867 65.2078 259.748 68.9537C260.098 69.4067 260.448 69.8597 260.748 70.3127C262.558 72.8145 263.998 75.5118 265.568 78.1577C265.838 78.6004 266.068 78.168 265.968 77.8591Z" fill="#30003E"/>
<path d="M298.548 50.8849C297.412 48.8254 295.96 46.9688 294.248 45.3872C292.359 43.4707 290.164 41.9035 287.758 40.7543C287.068 40.4764 287.278 41.7118 287.558 41.9692C289.218 43.5135 291.168 44.718 292.808 46.2932C294.549 47.9364 295.982 49.8939 297.038 52.0689C299.128 56.4959 299.198 61.5509 300.468 66.2352C300.558 66.575 300.998 66.8735 301.088 66.3588C301.897 61.0537 301.005 55.6217 298.548 50.8849ZM293.268 53.3764C290.145 48.4795 285.909 44.4403 280.928 41.6089C279.928 41.0529 279.738 42.5354 280.508 42.9678C285.291 45.6997 289.339 49.6125 292.288 54.3544C295.37 59.2399 297.339 64.7797 298.048 70.5592C298.048 70.8578 298.368 70.7446 298.368 70.4872C298.373 67.3455 297.914 64.2214 297.008 61.2214C296.09 58.4534 294.833 55.8172 293.268 53.3764Z" fill="#30003E"/>
<path d="M323.118 67.5847C323.038 67.2656 322.748 67.3171 322.708 67.5847C322.248 71.1984 321.628 74.8429 319.848 78.0551C318.013 81.424 315.269 84.1738 311.948 85.9722C311.368 86.281 311.948 87.5679 312.528 87.29C319.438 84.0675 324.998 75.5533 323.118 67.5847Z" fill="#30003E"/>
<path d="M162.518 150.122C156.712 146.165 152.16 140.542 149.428 133.948C146.518 126.793 145.978 118.989 146.668 111.298C147.25 105.993 148.236 100.744 149.618 95.598C149.698 95.2994 149.368 94.8464 149.208 95.2788C143.998 110.454 143.128 128.852 152.988 142.308C155.417 145.8 158.669 148.599 162.438 150.441C162.608 150.565 162.628 150.194 162.518 150.122Z" fill="#4C0060"/>
<path d="M159.648 140.742C157.304 139.758 155.142 138.365 153.258 136.624C152.398 135.739 151.648 134.709 150.878 133.752C150.108 132.794 149.198 131.775 148.438 130.663C145.842 127.118 143.9 123.112 142.708 118.844C141.569 114.325 141.391 109.606 142.187 105.009C142.982 100.412 144.733 96.0465 147.318 92.2104C148.733 90.1013 150.276 88.0863 151.938 86.1774C153.648 84.1801 155.728 82.2343 156.638 79.7016C156.868 79.0736 156.118 78.1779 155.498 78.4868C153.175 79.8021 151.107 81.5471 149.398 83.6344C147.618 85.5936 145.949 87.656 144.398 89.8116C141.237 94.122 139.044 99.1011 137.978 104.39C136.058 114.335 138.568 125.258 145.418 132.671C147.4 134.753 149.696 136.492 152.218 137.819C154.563 139.224 157.034 140.393 159.598 141.309C159.838 141.473 159.838 140.845 159.648 140.742Z" fill="#4C0060"/>
<path d="M320.298 103.113C324.158 117.228 324.988 131.94 325.888 146.549C328.228 184.22 316.748 207.075 298.428 216.475C291.928 219.821 286.618 221.623 274.318 221.128L274.898 237.127C274.898 237.127 288.118 250.038 273.518 256.802C245.738 269.681 208.758 248.854 201.318 239.423L198.838 173.224C197.928 181.214 185.628 186.073 173.948 175.757C168.718 159.192 159.948 142.256 169.948 134.452C172.755 132.162 176.231 130.915 179.813 130.915C183.395 130.915 186.871 132.162 189.678 134.452C193.498 137.644 193.928 138.951 196.538 142.565C197.469 143.958 198.829 144.988 200.398 145.489C207.228 146.724 210.718 140.341 211.088 135.77C211.166 133.917 211.028 132.061 210.678 130.241C210.258 127.472 209.268 124.126 210.988 121.686C220.508 108.158 226.848 96.2876 228.988 79.7327C229.188 78.2193 229.438 76.5412 230.598 75.6146C231.086 75.2398 231.645 74.9733 232.238 74.8322C234.758 74.1115 236.788 74.6366 239.238 75.069C248.522 76.7956 257.988 77.2526 267.388 76.4279C277.308 75.4499 287.448 73.4114 295.528 67.4093C296.528 66.6886 297.598 65.8753 298.778 66.1224C299.643 66.4456 300.39 67.0351 300.918 67.8108C312.658 80.5564 318.368 96.0714 320.298 103.113Z" fill="#FFA8A7"/>
<path d="M249.323 163.492C255.355 156.852 255.016 146.434 248.565 140.224C242.115 134.014 231.997 134.364 225.965 141.004C219.933 147.645 220.272 158.062 226.723 164.272C233.173 170.482 243.291 170.133 249.323 163.492Z" fill="#F28F8F"/>
<path d="M306.138 147.836C306.284 152.198 308.106 156.322 311.204 159.303C314.301 162.283 318.421 163.876 322.658 163.732C323.782 163.693 324.898 163.53 325.988 163.248C326.283 157.685 326.25 152.108 325.888 146.549C325.568 141.401 325.258 136.254 324.818 131.044C323.751 130.863 322.669 130.791 321.588 130.828C317.349 130.976 313.341 132.85 310.444 136.039C307.547 139.229 305.998 143.472 306.138 147.836Z" fill="#F28F8F"/>
<path d="M320.298 103.113C323.888 115.416 325.058 128.306 325.968 141.062C328.578 168.571 324.968 204.079 297.668 217.247C288.988 221.077 283.588 221.602 274.318 221.139C283.558 221.252 288.838 220.511 297.378 216.598C324.088 203.132 327.328 168.365 325.128 141.134C324.408 128.368 323.448 115.54 320.298 103.124V103.113Z" fill="#F28F8F"/>
<path d="M274.318 221.128C237.618 218.369 212.018 202.926 207.208 188.513C207.208 188.513 209.598 206.015 221.628 215.208C243.138 231.619 274.628 231.176 274.628 231.176L274.318 221.128Z" fill="#F28F8F"/>
<path d="M285.508 179.401L262.088 172.74C261.588 174.282 261.401 175.913 261.537 177.532C261.674 179.152 262.131 180.725 262.88 182.156C263.63 183.586 264.656 184.844 265.896 185.85C267.135 186.857 268.562 187.591 270.088 188.008C273.239 188.859 276.587 188.443 279.451 186.845C282.316 185.246 284.481 182.585 285.508 179.401Z" fill="#B16668"/>
<path d="M275.298 188.276C273.553 188.572 271.766 188.481 270.058 188.008C267.949 187.42 266.046 186.226 264.573 184.565C263.099 182.904 262.116 180.845 261.738 178.629C264.699 178.554 267.606 179.447 270.043 181.181C272.479 182.914 274.319 185.398 275.298 188.276Z" fill="#F28F8F"/>
<path d="M310.108 110.433L293.248 106.017C293.481 104.876 293.936 103.795 294.587 102.841C295.237 101.886 296.069 101.078 297.033 100.465C297.996 99.8512 299.07 99.4458 300.19 99.2729C301.31 99.1 302.452 99.1632 303.548 99.4586C305.811 100.054 307.76 101.532 308.985 103.58C310.209 105.628 310.612 108.085 310.108 110.433Z" fill="#322638"/>
<path d="M237.498 116.065L253.048 107.53C252.55 106.465 251.848 105.516 250.983 104.738C250.118 103.961 249.11 103.373 248.018 103.009C246.925 102.645 245.773 102.513 244.63 102.622C243.487 102.73 242.377 103.076 241.368 103.639C239.295 104.8 237.736 106.74 237.016 109.054C236.295 111.368 236.468 113.879 237.498 116.065Z" fill="#322638"/>
<path d="M250.318 128.347C248.823 128.617 247.45 129.371 246.398 130.498C245.346 131.625 244.67 133.068 244.468 134.617C243.83 135.32 243.066 135.89 242.218 136.295C241.592 136.598 240.903 136.735 240.212 136.692C239.522 136.649 238.853 136.427 238.268 136.048C238.595 136.659 239.05 137.188 239.6 137.595C240.15 138.003 240.781 138.28 241.448 138.406C242.135 138.522 242.837 138.505 243.518 138.354C243.977 138.27 244.423 138.128 244.848 137.932C245.898 139.806 248.488 136.151 251.928 135.513C255.828 134.792 259.338 138.231 258.638 134.246C258.468 133.296 258.119 132.39 257.609 131.579C257.099 130.769 256.438 130.069 255.666 129.521C254.893 128.974 254.023 128.588 253.105 128.386C252.188 128.185 251.241 128.171 250.318 128.347Z" fill="#322638"/>
<path d="M307.018 125.588C308.535 125.608 310.007 126.124 311.222 127.06C312.437 127.996 313.332 129.305 313.778 130.798C314.516 131.386 315.358 131.82 316.258 132.074C316.925 132.27 317.629 132.29 318.306 132.131C318.982 131.973 319.609 131.642 320.128 131.168C319.903 131.826 319.539 132.424 319.061 132.919C318.584 133.414 318.006 133.794 317.368 134.03C316.724 134.252 316.047 134.353 315.368 134.329C314.899 134.321 314.432 134.255 313.978 134.133C313.248 136.192 310.108 132.991 306.608 132.939C302.608 132.877 299.738 136.872 299.788 132.816C299.825 130.873 300.605 129.024 301.959 127.671C303.313 126.317 305.131 125.569 307.018 125.588Z" fill="#322638"/>
<path d="M334.468 107.18C333.418 107.118 332.318 107.077 331.188 107.056C320.608 106.799 306.898 107.581 298.888 110.701C288.888 114.623 285.558 118.361 279.838 118.844C273.718 119.318 269.498 116.178 258.158 113.985C249.158 112.255 234.528 113.759 223.438 115.766C222.248 115.993 221.098 116.209 219.998 116.435C218.098 116.827 216.268 119.524 216.698 122.386C217.128 125.248 219.608 127.42 220.698 128.666C221.313 129.418 221.788 130.28 222.098 131.209C223.738 135.657 225.348 144.305 228.098 148.958C229.435 151.302 231.153 153.392 233.178 155.135C238.018 159.253 244.568 160.334 250.748 159.83C264.978 158.739 270.248 151.594 273.098 144.469C275.948 137.345 274.098 127.719 280.628 127.215C281.034 127.168 281.443 127.168 281.848 127.215C286.848 127.935 287.098 136.861 290.788 143.018C292.223 145.494 294.025 147.724 296.128 149.627C299.272 152.363 303.137 154.072 307.228 154.538C309.55 154.843 311.897 154.884 314.228 154.662C327.528 153.529 331.358 145.499 333.058 140.485C334.758 135.471 334.698 126.72 335.318 122.067C335.437 121.165 335.781 120.309 336.318 119.586C337.787 117.595 338.606 115.177 338.658 112.678C338.488 109.723 336.278 107.242 334.468 107.18ZM268.838 138.251C268.434 141.886 267.049 145.332 264.838 148.196C262.088 151.573 257.518 154.374 249.838 154.899C242.158 155.424 237.308 152.613 234.238 149.133C231.898 146.293 230.164 142.978 229.148 139.404C227.578 134.709 225.338 125.392 227.568 123.076C229.798 120.759 236.048 118.031 246.738 118.196C252.527 118.185 258.264 119.318 263.638 121.532C264.916 122.034 266.08 122.802 267.058 123.786C269.468 126.556 269.448 132.815 268.838 138.251ZM330.378 131.23C329.838 135.029 328.928 143.213 321.838 147.332C319.459 148.664 316.83 149.457 314.128 149.658C305.758 150.482 300.678 147.455 297.588 143.759C295.785 141.532 294.426 138.96 293.588 136.192C291.978 130.952 290.778 124.795 292.478 121.696C294.178 118.597 301.668 114.737 309.098 113.213C310.808 112.863 312.418 112.616 313.928 112.461C317.954 111.949 322.04 112.299 325.928 113.491C326.92 113.806 327.858 114.279 328.708 114.891C331.228 116.827 330.888 126.35 330.328 131.23H330.378Z" fill="#322638"/>
<path d="M222.098 127.77L211.098 133.278L195.558 141.154C194.326 139.158 192.839 137.34 191.138 135.749L210.078 125.711L220.878 120.008L222.098 127.77Z" fill="#322638"/>
<path d="M302.078 156.669L280.898 165.935L275.238 134.596C275.928 130.622 276.948 127.389 280.638 127.163C280.944 127.137 281.252 127.137 281.558 127.163C283.114 128.28 284.572 129.534 285.918 130.91C290.458 135.451 298.838 148.083 302.078 156.669Z" fill="#F28F8F"/>
<path d="M271.538 79.5578C271.086 78.7053 270.571 77.8895 269.998 77.1179C270.604 77.0667 271.211 77.1953 271.748 77.4885C276.149 79.4946 279.976 82.6311 282.862 86.5971C285.748 90.5631 287.595 95.2258 288.228 100.138C290.176 96.4376 291.051 92.2388 290.748 88.0412C290.534 85.1855 289.553 82.4475 287.914 80.133C286.275 77.8186 284.043 76.0189 281.468 74.9353C276.718 72.7218 271.668 70.5186 266.468 71.023C262.128 71.4348 265.068 75.3779 266.468 77.087C267.407 78.2194 268.231 79.4475 268.928 80.7521C270.19 83.1111 271.056 85.6731 271.488 88.3294C272.224 93.8407 271.109 99.4453 268.328 104.215C268.068 104.678 268.688 105.78 269.148 105.245C271.056 102.893 272.483 100.169 273.342 97.2358C274.201 94.3024 274.476 91.2203 274.148 88.175C273.841 85.1531 272.953 82.2241 271.538 79.5578Z" fill="#4C0060"/>
<path d="M227.838 86.8575C227.838 86.6413 227.458 86.2089 227.258 86.5487C226.528 87.7738 226.258 89.1843 225.358 90.3991C224.673 91.3809 223.877 92.276 222.988 93.0656C220.773 94.9735 218.243 96.4556 215.518 97.4411C212.506 98.583 209.363 99.3167 206.168 99.6237C200.101 100.322 193.967 99.1953 188.508 96.3807C188.308 96.6895 188.608 97.0911 188.888 97.3278C196.708 103.958 208.888 102.867 217.678 99.1295C220.394 98.0767 222.872 96.4614 224.958 94.3834C226.768 92.4788 228.388 89.6064 227.838 86.8575Z" fill="#30003E"/>
<path d="M215.378 155.651C214.638 151.11 213.878 147.291 210.748 143.77C209.857 142.693 208.739 141.841 207.478 141.278C206.46 140.936 205.399 140.752 204.328 140.733C201.399 140.532 198.458 140.667 195.558 141.134C195.984 143.445 196.956 145.612 198.388 147.445C200.903 150.295 203.039 153.477 204.738 156.907C205.983 159.335 206.892 161.93 207.438 164.618C207.93 167.53 208.077 170.492 207.878 173.441C207.878 173.853 208.488 174.625 208.698 173.935C209.479 171.092 209.747 168.126 209.488 165.184C209.311 161.983 208.678 158.826 207.608 155.815C206.105 151.884 203.744 148.362 200.708 145.52L201.658 145.623C204.576 145.983 207.36 147.089 209.757 148.841C212.153 150.592 214.086 152.933 215.378 155.651Z" fill="#30003E"/>
<path d="M186.068 187.627C177.798 161.971 184.218 96.1534 204.268 69.6533C259.838 42.206 299.768 45.274 312.548 58.7917C310.478 52.7895 306.368 47.4669 300.868 43.1017C289.668 25.3217 246.218 22.8611 221.938 34.083C211.208 39.0556 204.408 44.7798 194.588 61.3964C193.448 63.301 190.758 65.0513 189.178 66.6264C187.408 68.4075 185.658 70.2195 183.968 72.0829C180.722 75.6025 177.681 79.3152 174.858 83.2019C169.405 90.6565 165.173 98.9784 162.328 107.839C158.728 119.297 156.838 132.733 158.108 144.716C158.482 149.666 160.113 154.427 162.838 158.522C164.448 160.777 166.478 162.64 167.838 165.091C169.198 167.541 169.958 170.465 170.928 173.193C173.428 179.978 179.708 184.971 186.068 187.627Z" fill="#BA68C8"/>
<path opacity="0.2" d="M244.688 47.2295C246.732 43.6375 248.363 39.8128 249.548 35.8326C250.573 33.1264 251.291 30.3074 251.688 27.4316C243.742 27.7927 235.874 29.2045 228.278 31.6321C227.368 32.0542 226.468 32.4969 225.588 32.9808C222.268 34.7928 219.198 37.0989 215.838 38.7771C214.108 39.6522 212.318 40.3728 210.518 41.0729C205.288 45.3866 200.518 51.4403 194.588 61.4164C193.448 63.3211 190.758 65.0713 189.178 66.6464C187.408 68.4275 185.658 70.2395 183.968 72.103C180.723 75.6225 177.681 79.3352 174.858 83.2219C174.618 83.5513 174.388 83.8911 174.158 84.2514C179.972 83.3706 185.416 80.7827 189.838 76.7976C190.367 76.2198 191.037 75.8 191.778 75.5828C192.493 75.5416 193.207 75.6794 193.858 75.9843C195.728 76.6454 197.703 76.9388 199.678 76.8491C201.045 74.3362 202.586 71.9278 204.288 69.6424C214.303 64.6541 224.637 60.3751 235.218 56.835C238.99 54.3474 242.216 51.0756 244.688 47.2295Z" fill="black"/>
<path opacity="0.1" d="M296.028 40.9705C297.718 41.65 299.388 42.4221 301.028 43.2355L300.868 43.1016C300.186 42.041 299.413 41.0453 298.558 40.1263C298.198 39.9925 297.848 39.8277 297.488 39.7042C293.899 38.4005 290.223 37.3683 286.488 36.6156C278.308 34.958 269.808 34.9272 261.488 35.1845C261.338 35.1845 261.298 35.5346 261.488 35.5449C269.37 35.8254 277.226 36.6232 285.008 37.9334C288.769 38.5727 292.46 39.5899 296.028 40.9705Z" fill="black"/>
<path opacity="0.1" d="M170.738 119.534C166.223 129.916 164.003 141.2 164.238 152.572C164.298 155.352 164.478 158.131 164.768 160.891C165.935 162.186 166.989 163.585 167.918 165.07C168.569 166.241 169.111 167.471 169.538 168.746C169.538 168.509 169.428 168.272 169.388 168.036C168.376 162.747 167.83 157.375 167.758 151.985C167.585 141.274 168.85 130.589 171.518 120.234C171.648 119.781 171.058 118.824 170.738 119.534Z" fill="black"/>
<path opacity="0.1" d="M172.298 156.02C170.098 151.634 169.428 146.641 168.688 141.761C168.591 140.275 168.088 138.848 167.238 137.643C166.484 136.917 165.652 136.281 164.758 135.749C162.328 133.916 161.078 130.879 160.238 127.904C159.687 125.967 159.269 123.992 158.988 121.994C157.693 129.495 157.397 137.143 158.108 144.726C158.484 149.672 160.115 154.429 162.838 158.522C164.448 160.777 166.478 162.64 167.838 165.09C169.198 167.541 169.958 170.464 170.928 173.193C173.348 179.977 179.628 184.97 185.988 187.606C184.21 181.506 183.152 175.208 182.838 168.848C182.158 168.117 181.458 167.407 180.768 166.696C177.648 163.443 174.358 160.138 172.298 156.02Z" fill="black"/>
<path d="M157.968 57.5457C147.724 60.6113 138.953 67.4877 133.358 76.8391C133.027 77.3154 132.824 77.8728 132.768 78.4554C132.768 83.2736 143.958 84.8179 147.158 85.2298C154.504 86.1043 161.947 85.3531 168.988 83.0266C175.44 80.893 181.542 77.7692 187.088 73.7608C189.088 72.3297 191.878 70.8781 192.748 68.4278C193.878 65.2672 191.748 63.0949 189.438 61.3344C181.128 55.013 167.588 54.6733 157.968 57.5457Z" fill="#BA68C8"/>
<path opacity="0.2" d="M157.968 57.5457C147.724 60.6113 138.953 67.4877 133.358 76.8391C133.027 77.3154 132.824 77.8728 132.768 78.4554C132.768 83.2736 143.958 84.8179 147.158 85.2298C154.504 86.1043 161.947 85.3531 168.988 83.0266C175.44 80.893 181.542 77.7692 187.088 73.7608C189.088 72.3297 191.878 70.8781 192.748 68.4278C193.878 65.2672 191.748 63.0949 189.438 61.3344C181.128 55.013 167.588 54.6733 157.968 57.5457Z" fill="black"/>
<path opacity="0.2" d="M188.158 65.9983C186.818 63.5377 182.638 63.9392 180.368 64.001C176.004 64.1246 171.656 64.6101 167.368 65.4526C163.918 66.2042 159.578 66.7498 156.688 69.0251C155.568 69.9105 154.818 71.5165 155.688 72.8446C157.028 74.7904 159.798 75.1405 161.858 74.4919C164.498 73.6683 167.238 72.9476 169.858 71.9798C175.998 69.7149 181.658 66.8939 188.158 65.9983Z" fill="black"/>
<path opacity="0.3" d="M163.458 57.9164C162.955 57.6388 162.387 57.5105 161.818 57.5457C156.346 58.5537 151.156 60.7892 146.618 64.0936C142.113 67.0288 138.301 70.9609 135.458 75.6037C134.928 76.4994 133.968 78.0128 134.548 79.0938C134.777 79.4929 135.079 79.8425 135.438 80.1233C136.388 81.0619 137.501 81.8091 138.718 82.3265C138.989 82.4637 139.292 82.5218 139.594 82.4945C139.895 82.4673 140.184 82.3558 140.428 82.1721C140.738 81.8221 140.728 81.2146 140.228 80.4528C139.876 79.8348 139.668 79.1411 139.622 78.4265C139.575 77.7118 139.69 76.9957 139.958 76.3347C140.502 75.0118 141.294 73.8119 142.288 72.8034C145.068 69.8174 148.129 67.1239 151.428 64.7628C153.292 63.3796 155.243 62.1243 157.268 61.005C159.268 59.9034 161.378 59.1621 163.368 58.0811" fill="#BA68C8"/>
<path d="M221.428 27.7513C230.319 21.6854 241.082 19.2379 251.628 20.8843C252.197 20.918 252.745 21.118 253.208 21.4608C256.798 24.5494 250.688 34.3609 248.928 37.1406C244.83 43.4759 239.468 48.8389 233.198 52.8718C227.442 56.5566 221.183 59.3328 214.628 61.108C212.268 61.7669 209.398 63.0127 207.008 62.1376C203.948 60.9845 203.698 57.9165 203.898 54.9309C204.588 44.3061 213.108 33.4857 221.428 27.7513Z" fill="#BA68C8"/>
<path opacity="0.1" d="M221.428 27.7513C230.319 21.6854 241.082 19.2379 251.628 20.8843C252.197 20.918 252.745 21.118 253.208 21.4608C256.798 24.5494 250.688 34.3609 248.928 37.1406C244.83 43.4759 239.468 48.8389 233.198 52.8718C227.442 56.5566 221.183 59.3328 214.628 61.108C212.268 61.7669 209.398 63.0127 207.008 62.1376C203.948 60.9845 203.698 57.9165 203.898 54.9309C204.588 44.3061 213.108 33.4857 221.428 27.7513Z" fill="black"/>
<path opacity="0.2" d="M208.188 56.9277C207.188 54.2921 210.188 51.2447 211.728 49.5254C214.644 46.1785 217.817 43.0798 221.218 40.2596C224.008 38.0255 227.218 34.9678 230.768 34.1751C232.148 33.8662 233.828 34.3089 234.218 35.8944C234.788 38.2005 233.218 40.5993 231.448 41.8039C229.138 43.3482 226.828 45.0366 224.448 46.4676C218.838 49.7827 213.048 52.408 208.188 56.9277Z" fill="black"/>
<path opacity="0.3" d="M218.148 32.3014C218.272 31.7291 218.545 31.2024 218.938 30.7777C223.217 27.1272 228.226 24.4941 233.608 23.0665C238.696 21.4221 244.077 20.9649 249.358 21.7281C250.358 21.9031 252.098 22.1296 252.528 23.2724C252.663 23.704 252.714 24.1588 252.678 24.6108C252.76 25.9648 252.597 27.3228 252.198 28.6157C251.888 29.3981 251.418 29.8202 250.978 29.8511C250.538 29.882 250.068 29.4702 249.828 28.5848C249.597 27.9063 249.215 27.2927 248.713 26.7923C248.212 26.292 247.604 25.9187 246.938 25.7021C245.606 25.2767 244.206 25.1263 242.818 25.2594C238.809 25.5064 234.836 26.1722 230.958 27.2464C228.73 27.8234 226.539 28.542 224.398 29.3981C222.298 30.2423 220.398 31.4572 218.278 32.3117" fill="#BA68C8"/>
<path d="M196.258 53.0161C197.39 52.3378 198.669 51.9626 199.978 51.9248C201.113 51.9362 202.23 52.2218 203.238 52.7587C204.263 53.2943 205.122 54.1146 205.718 55.1266C207.208 57.3401 208.718 59.6566 209.198 62.3334C209.473 64.0508 209.292 65.8128 208.674 67.4329C208.056 69.0531 207.024 70.4713 205.688 71.5373C205.124 71.9793 204.497 72.3268 203.828 72.5669C202.944 72.8748 202.005 72.9768 201.078 72.8654C197.768 72.3095 195.348 69.5812 193.318 66.8324C191.488 64.3615 190.018 61.1185 191.088 58.2049C191.817 56.4483 193.071 54.9768 194.668 54.0045C195.198 53.6441 195.718 53.3147 196.258 53.0161Z" fill="#BA68C8"/>
<path opacity="0.2" d="M196.258 53.0161C197.39 52.3378 198.669 51.9626 199.978 51.9248C201.113 51.9362 202.23 52.2218 203.238 52.7587C204.263 53.2943 205.122 54.1146 205.718 55.1266C207.208 57.3401 208.718 59.6566 209.198 62.3334C209.473 64.0508 209.292 65.8128 208.674 67.4329C208.056 69.0531 207.024 70.4713 205.688 71.5373C205.124 71.9793 204.497 72.3268 203.828 72.5669C202.944 72.8748 202.005 72.9768 201.078 72.8654C197.768 72.3095 195.348 69.5812 193.318 66.8324C191.488 64.3615 190.018 61.1185 191.088 58.2049C191.817 56.4483 193.071 54.9768 194.668 54.0045C195.198 53.6441 195.718 53.3147 196.258 53.0161Z" fill="black"/>
<path opacity="0.2" d="M202.138 56.8765C201.574 55.1203 200.486 53.5924 199.028 52.5113L198.528 52.1201C197.736 52.3139 196.973 52.6151 196.258 53.0158C195.718 53.3144 195.198 53.6541 194.668 54.0453C193.071 55.0177 191.817 56.4892 191.088 58.2458C190.018 61.1594 191.488 64.423 193.318 66.8733C195.318 69.6221 197.768 72.3504 201.078 72.9063C201.772 73.0014 202.477 72.963 203.158 72.7931C202.067 72.3891 201.124 71.6485 200.458 70.6723C199.208 68.6647 199.868 66.0188 200.738 63.8053C201.608 61.5918 202.688 59.193 202.138 56.8765Z" fill="black"/>
<path d="M192.318 74.7391C194.23 75.0993 196.197 75.0042 198.068 74.4612C199.759 74.0837 201.406 73.5176 202.978 72.7727C201.119 72.2523 199.482 71.1072 198.328 69.5194C196.388 66.7397 197.148 63.9085 198.328 61.0155C199.678 57.5975 200.868 53.1602 196.278 51.7497C193.508 50.9261 189.798 52.4086 187.898 54.5295C182.688 60.3669 183.958 72.7007 192.318 74.7391Z" fill="#BA68C8"/>
<path opacity="0.1" d="M192.318 74.7391C194.23 75.0993 196.197 75.0042 198.068 74.4612C199.759 74.0837 201.406 73.5176 202.978 72.7727C201.119 72.2523 199.482 71.1072 198.328 69.5194C196.388 66.7397 197.148 63.9085 198.328 61.0155C199.678 57.5975 200.868 53.1602 196.278 51.7497C193.508 50.9261 189.798 52.4086 187.898 54.5295C182.688 60.3669 183.958 72.7007 192.318 74.7391Z" fill="black"/>
<path d="M380.197 191.664C388.257 189.007 395.667 196.255 395.277 207.549C399.597 197.161 409.277 193.856 415.497 199.797C421.717 205.737 415.907 226.04 389.067 236.119C368.967 215.281 372.147 194.33 380.197 191.664Z" fill="#BA68C8"/>
<path d="M377.237 98.6349C383.377 94.8977 390.787 99.438 392.507 108.796C394.177 99.4277 401.567 94.8463 407.727 98.5011C413.887 102.156 412.827 120.008 392.577 133.454C372.257 120.162 371.087 102.372 377.237 98.6349Z" fill="#BA68C8"/>
<path opacity="0.3" d="M377.237 98.6349C383.377 94.8977 390.787 99.438 392.507 108.796C394.177 99.4277 401.567 94.8463 407.727 98.5011C413.887 102.156 412.827 120.008 392.577 133.454C372.257 120.162 371.087 102.372 377.237 98.6349Z" fill="white"/>
<path d="M436.837 145.664C442.617 144.83 446.837 150.657 445.277 158.286C449.397 151.748 456.377 150.677 459.907 155.465C463.437 160.252 457.197 173.358 437.787 176.972C426.467 160.324 431.007 146.508 436.837 145.664Z" fill="#BA68C8"/>
<path opacity="0.6" d="M436.837 145.664C442.617 144.83 446.837 150.657 445.277 158.286C449.397 151.748 456.377 150.677 459.907 155.465C463.437 160.252 457.197 173.358 437.787 176.972C426.467 160.324 431.007 146.508 436.837 145.664Z" fill="white"/>
<path d="M124.508 164.669C115.298 162.518 107.748 171.31 109.248 183.819C103.468 172.71 92.3676 170.002 86.0576 177.23C79.7476 184.457 88.0576 206.437 118.848 214.951C139.218 189.728 133.708 166.821 124.508 164.669Z" fill="#BA68C8"/>
<path opacity="0.3" d="M124.508 164.669C115.298 162.518 107.748 171.31 109.248 183.819C103.468 172.71 92.3676 170.002 86.0576 177.23C79.7476 184.457 88.0576 206.437 118.848 214.951C139.218 189.728 133.708 166.821 124.508 164.669Z" fill="white"/>
<path d="M85.2173 63.1675C78.2773 61.4378 72.4773 68.0062 73.4873 77.4779C69.2273 69.0152 60.8673 66.8429 56.0173 72.2376C51.1673 77.6323 57.2373 94.3313 80.4173 101.116C96.0773 82.2652 92.1473 64.8971 85.2173 63.1675Z" fill="#BA68C8"/>
<path opacity="0.6" d="M85.2173 63.1675C78.2773 61.4378 72.4773 68.0062 73.4873 77.4779C69.2273 69.0152 60.8673 66.8429 56.0173 72.2376C51.1673 77.6323 57.2373 94.3313 80.4173 101.116C96.0773 82.2652 92.1473 64.8971 85.2173 63.1675Z" fill="white"/>
<path d="M46.8375 135.44C41.1075 134.287 36.5975 139.867 37.7575 147.578C33.9775 140.814 27.0675 139.342 23.2975 143.944C19.5275 148.546 25.0675 161.971 44.2975 166.594C56.4175 150.646 52.5975 136.593 46.8375 135.44Z" fill="#BA68C8"/>
</svg>
