<svg width="65" height="65" viewBox="0 0 65 65" fill="none" xmlns="http://www.w3.org/2000/svg">
<path d="M27.95 47.45L50.8625 24.5375L46.3125 19.9875L27.95 38.35L18.6875 29.0875L14.1375 33.6375L27.95 47.45ZM32.5 65C28.0042 65 23.7792 64.1469 19.825 62.4406C15.8708 60.7344 12.4312 58.4187 9.50625 55.4937C6.58125 52.5687 4.26562 49.1292 2.55937 45.175C0.853125 41.2208 0 36.9958 0 32.5C0 28.0042 0.853125 23.7792 2.55937 19.825C4.26562 15.8708 6.58125 12.4312 9.50625 9.50625C12.4312 6.58125 15.8708 4.26562 19.825 2.55937C23.7792 0.853125 28.0042 0 32.5 0C36.9958 0 41.2208 0.853125 45.175 2.55937C49.1292 4.26562 52.5687 6.58125 55.4937 9.50625C58.4187 12.4312 60.7344 15.8708 62.4406 19.825C64.1469 23.7792 65 28.0042 65 32.5C65 36.9958 64.1469 41.2208 62.4406 45.175C60.7344 49.1292 58.4187 52.5687 55.4937 55.4937C52.5687 58.4187 49.1292 60.7344 45.175 62.4406C41.2208 64.1469 36.9958 65 32.5 65ZM32.5 58.5C39.7583 58.5 45.9062 55.9812 50.9437 50.9437C55.9812 45.9062 58.5 39.7583 58.5 32.5C58.5 25.2417 55.9812 19.0938 50.9437 14.0562C45.9062 9.01875 39.7583 6.5 32.5 6.5C25.2417 6.5 19.0938 9.01875 14.0562 14.0562C9.01875 19.0938 6.5 25.2417 6.5 32.5C6.5 39.7583 9.01875 45.9062 14.0562 50.9437C19.0938 55.9812 25.2417 58.5 32.5 58.5Z" fill="#9F29D2"/>
</svg>
