<svg width="1440" height="202" viewBox="0 0 1440 202" fill="none" xmlns="http://www.w3.org/2000/svg">
<g opacity="0.5">
<path d="M1511.52 212.037C1511.52 292.926 1365.12 358.5 1184.52 358.5C1003.92 358.5 857.519 292.926 857.519 212.037C857.519 131.147 961.519 205.336 1184.52 65.5733C1407.52 -74.189 1511.52 131.147 1511.52 212.037Z" fill="url(#paint0_linear_346_18)"/>
<path d="M894 191.601C894 257.687 685.141 311.26 427.5 311.26C169.859 311.26 -39 257.687 -39 191.601C-39 125.514 -9 -119.993 427.5 71.9411C864 263.875 894 125.514 894 191.601Z" fill="#9200CC"/>
</g>
<g opacity="0.7">
<path d="M1401.51 274.7C1403.82 362.328 1255.89 437.315 1071.11 442.187C886.329 447.059 734.661 379.973 732.35 292.345C730.039 204.717 838.569 282.28 1062.74 124.858C1286.92 -32.5635 1399.19 187.072 1401.51 274.7Z" fill="#560078"/>
<path d="M769.093 269.222C770.981 340.814 558.812 404.485 295.201 411.436C31.5901 418.387 -183.639 365.985 -185.527 294.394C-187.415 222.802 -163.732 -43.9665 288.365 152.18C740.463 348.327 767.206 197.631 769.093 269.222Z" fill="#560078"/>
</g>
<g opacity="0.7">
<path d="M1485.68 254.701C1487.99 342.329 1345.53 417.171 1167.48 421.866C989.434 426.56 843.225 359.33 840.914 271.702C838.604 184.074 943.254 261.739 1159.11 104.537C1374.97 -52.6657 1483.37 167.073 1485.68 254.701Z" fill="#560078"/>
<path d="M876.298 248.615C878.185 320.206 673.806 383.672 419.803 390.37C165.801 397.067 -41.6392 344.461 -43.527 272.869C-45.4147 201.278 -22.8512 -65.4617 412.967 131.114C848.786 327.69 874.41 177.023 876.298 248.615Z" fill="#560078"/>
</g>
<defs>
<linearGradient id="paint0_linear_346_18" x1="1467" y1="94.7703" x2="842.484" y2="218.688" gradientUnits="userSpaceOnUse">
<stop stop-color="#9F29D2"/>
<stop offset="1" stop-color="#9500D0"/>
</linearGradient>
</defs>
</svg>
