<svg width="1440" height="745" viewBox="0 0 1440 745" fill="none" xmlns="http://www.w3.org/2000/svg">
<g opacity="0.5">
<path d="M1561.95 687.992C1567.67 772.298 1426.24 850.549 1246.06 862.771C1065.87 874.992 915.171 816.557 909.453 732.251C903.734 647.945 1012.74 718.229 1225.35 557.472C1437.96 396.716 1556.24 603.686 1561.95 687.992Z" fill="#9200CC"/>
<path d="M944.406 708.483C949.078 777.36 744.485 847.33 487.435 864.766C230.385 882.201 18.2169 840.5 13.545 771.622C8.87311 702.745 21.4485 444.838 470.516 615.339C919.584 785.84 939.734 639.605 944.406 708.483Z" fill="#9200CC"/>
</g>
<g opacity="0.7">
<path d="M52.2021 804.249C-19.3433 807.438 -86.8596 596.461 -98.5998 333.02C-110.34 69.5785 -61.8584 -146.568 9.68697 -149.756C81.2323 -152.944 348.387 -134.114 160.489 321.474C-27.4098 777.061 123.747 801.061 52.2021 804.249Z" fill="#560078"/>
</g>
</svg>
